%TF.GenerationSoftware,KiCad,Pcbnew,8.0.1*%
%TF.CreationDate,2024-09-08T16:24:45+01:00*%
%TF.ProjectId,BaselineRP2040MotorController,42617365-6c69-46e6-9552-50323034304d,rev?*%
%TF.SameCoordinates,Original*%
%TF.FileFunction,Copper,L2,Bot*%
%TF.FilePolarity,Positive*%
%FSLAX46Y46*%
G04 Gerber Fmt 4.6, Leading zero omitted, Abs format (unit mm)*
G04 Created by KiCad (PCBNEW 8.0.1) date 2024-09-08 16:24:45*
%MOMM*%
%LPD*%
G01*
G04 APERTURE LIST*
G04 Aperture macros list*
%AMRoundRect*
0 Rectangle with rounded corners*
0 $1 Rounding radius*
0 $2 $3 $4 $5 $6 $7 $8 $9 X,Y pos of 4 corners*
0 Add a 4 corners polygon primitive as box body*
4,1,4,$2,$3,$4,$5,$6,$7,$8,$9,$2,$3,0*
0 Add four circle primitives for the rounded corners*
1,1,$1+$1,$2,$3*
1,1,$1+$1,$4,$5*
1,1,$1+$1,$6,$7*
1,1,$1+$1,$8,$9*
0 Add four rect primitives between the rounded corners*
20,1,$1+$1,$2,$3,$4,$5,0*
20,1,$1+$1,$4,$5,$6,$7,0*
20,1,$1+$1,$6,$7,$8,$9,0*
20,1,$1+$1,$8,$9,$2,$3,0*%
G04 Aperture macros list end*
%TA.AperFunction,ComponentPad*%
%ADD10C,5.500000*%
%TD*%
%TA.AperFunction,ComponentPad*%
%ADD11C,2.900000*%
%TD*%
%TA.AperFunction,ConnectorPad*%
%ADD12C,5.000000*%
%TD*%
%TA.AperFunction,ComponentPad*%
%ADD13C,3.600000*%
%TD*%
%TA.AperFunction,ConnectorPad*%
%ADD14C,5.600000*%
%TD*%
%TA.AperFunction,ComponentPad*%
%ADD15RoundRect,0.250000X-0.350000X-0.625000X0.350000X-0.625000X0.350000X0.625000X-0.350000X0.625000X0*%
%TD*%
%TA.AperFunction,ComponentPad*%
%ADD16O,1.200000X1.750000*%
%TD*%
%TA.AperFunction,SMDPad,CuDef*%
%ADD17RoundRect,0.225000X0.225000X0.250000X-0.225000X0.250000X-0.225000X-0.250000X0.225000X-0.250000X0*%
%TD*%
%TA.AperFunction,SMDPad,CuDef*%
%ADD18RoundRect,0.250000X-0.450000X0.400000X-0.450000X-0.400000X0.450000X-0.400000X0.450000X0.400000X0*%
%TD*%
%TA.AperFunction,ViaPad*%
%ADD19C,0.600000*%
%TD*%
%TA.AperFunction,Conductor*%
%ADD20C,0.275000*%
%TD*%
%TA.AperFunction,Conductor*%
%ADD21C,0.200000*%
%TD*%
%ADD22C,0.300000*%
%ADD23C,0.350000*%
G04 APERTURE END LIST*
D10*
%TO.P,J4,1,Pin_1*%
%TO.N,GND*%
X54400000Y-65224999D03*
%TO.P,J4,2,Pin_2*%
%TO.N,VMOT_PWR*%
X54400000Y-72425001D03*
%TD*%
D11*
%TO.P,H6,1,1*%
%TO.N,/BLDC Power Control/Motor Phase V/V_OUT*%
X71000000Y-68829998D03*
D12*
X71000000Y-68829998D03*
%TD*%
D11*
%TO.P,H7,1,1*%
%TO.N,/BLDC Power Control/Motor Phase X/X_OUT*%
X77000000Y-68829998D03*
D12*
X77000000Y-68829998D03*
%TD*%
D13*
%TO.P,H2,1,1*%
%TO.N,GND*%
X42400000Y-55600000D03*
D14*
X42400000Y-55600000D03*
%TD*%
D15*
%TO.P,J1,1,Pin_1*%
%TO.N,+12V*%
X63400000Y-94900000D03*
D16*
%TO.P,J1,2,Pin_2*%
%TO.N,/PWM H U*%
X65400000Y-94900000D03*
%TO.P,J1,3,Pin_3*%
%TO.N,/PWM L U*%
X67400000Y-94900000D03*
%TO.P,J1,4,Pin_4*%
%TO.N,/PWM H V*%
X69400000Y-94900000D03*
%TO.P,J1,5,Pin_5*%
%TO.N,/PWM L V*%
X71400000Y-94900000D03*
%TO.P,J1,6,Pin_6*%
%TO.N,/PWM H X*%
X73400000Y-94900000D03*
%TO.P,J1,7,Pin_7*%
%TO.N,/PWM L X*%
X75400000Y-94900000D03*
%TO.P,J1,8,Pin_8*%
%TO.N,GND*%
X77400000Y-94900000D03*
%TD*%
D11*
%TO.P,H5,1,1*%
%TO.N,/BLDC Power Control/Motor Phase U/U_OUT*%
X65034997Y-68829998D03*
D12*
X65034997Y-68829998D03*
%TD*%
D13*
%TO.P,H3,1,1*%
%TO.N,GND*%
X42400000Y-98600000D03*
D14*
X42400000Y-98600000D03*
%TD*%
D13*
%TO.P,H4,1,1*%
%TO.N,GND*%
X83400000Y-98600000D03*
D14*
X83400000Y-98600000D03*
%TD*%
D13*
%TO.P,H1,1,1*%
%TO.N,GND*%
X83400000Y-55600000D03*
D14*
X83400000Y-55600000D03*
%TD*%
D17*
%TO.P,C26,1*%
%TO.N,/BLDC Power Control/Motor Phase V/V_OUT*%
X71334996Y-61350003D03*
%TO.P,C26,2*%
%TO.N,Net-(D6-K)*%
X69785004Y-61349997D03*
%TD*%
%TO.P,C32,1*%
%TO.N,/BLDC Power Control/Motor Phase X/X_OUT*%
X77279996Y-61359996D03*
%TO.P,C32,2*%
%TO.N,Net-(D10-K)*%
X75730000Y-61360000D03*
%TD*%
D18*
%TO.P,D13,1,A1*%
%TO.N,/BLDC Power Control/Motor Phase X/X_OUT*%
X78200000Y-72349998D03*
%TO.P,D13,2,A2*%
%TO.N,GND*%
X78200000Y-75250002D03*
%TD*%
%TO.P,D9,1,A1*%
%TO.N,/BLDC Power Control/Motor Phase V/V_OUT*%
X72200000Y-72349998D03*
%TO.P,D9,2,A2*%
%TO.N,GND*%
X72200000Y-75250002D03*
%TD*%
D17*
%TO.P,C20,1*%
%TO.N,/BLDC Power Control/Motor Phase U/U_OUT*%
X65274998Y-61359998D03*
%TO.P,C20,2*%
%TO.N,Net-(D2-K)*%
X63725002Y-61360002D03*
%TD*%
D18*
%TO.P,D5,1,A1*%
%TO.N,/BLDC Power Control/Motor Phase U/U_OUT*%
X66200000Y-72349998D03*
%TO.P,D5,2,A2*%
%TO.N,GND*%
X66200000Y-75250002D03*
%TD*%
D19*
%TO.N,GND*%
X71400000Y-80400000D03*
%TO.N,/BLDC Power Control/Motor Phase U/U_OUT*%
X63818110Y-74114996D03*
X58515687Y-84182258D03*
%TO.N,GND*%
X60400000Y-90100000D03*
X70650000Y-92100000D03*
X73400000Y-92100000D03*
X55000000Y-93200000D03*
X63328577Y-86114281D03*
%TO.N,/BLDC Power Control/Motor Phase V/V_OUT*%
X67780000Y-84230000D03*
X69782960Y-74089996D03*
%TO.N,/BLDC Power Control/Motor Phase X/X_OUT*%
X75783487Y-74115836D03*
X77601925Y-84074999D03*
%TO.N,Net-(D2-K)*%
X56860000Y-87400000D03*
%TO.N,Net-(D6-K)*%
X65590000Y-86800000D03*
%TO.N,Net-(D10-K)*%
X75420000Y-86400000D03*
%TO.N,Net-(AH1-G)*%
X62948331Y-74083212D03*
X62237500Y-80200000D03*
%TO.N,Net-(AH2-G)*%
X68600000Y-80200000D03*
X68770000Y-74100000D03*
%TO.N,Net-(AH3-G)*%
X73800000Y-81200000D03*
X74900000Y-74090000D03*
%TO.N,Net-(AL1-G)*%
X61200000Y-81000000D03*
X62405005Y-59194995D03*
%TO.N,Net-(AL2-G)*%
X68600000Y-81523923D03*
X68400000Y-59200000D03*
%TO.N,Net-(AL3-G)*%
X74400000Y-59200000D03*
X73747350Y-80222839D03*
%TD*%
D20*
%TO.N,/BLDC Power Control/Motor Phase U/U_OUT*%
X63075000Y-74858106D02*
X63075000Y-80725000D01*
X63818110Y-74114996D02*
X63075000Y-74858106D01*
X59617742Y-84182258D02*
X58515687Y-84182258D01*
X63075000Y-80725000D02*
X59617742Y-84182258D01*
%TO.N,/BLDC Power Control/Motor Phase V/V_OUT*%
X69320000Y-82690000D02*
X69320000Y-79900000D01*
X69681566Y-74089996D02*
X69782960Y-74089996D01*
X69320000Y-79900000D02*
X68955000Y-79535000D01*
X67780000Y-84230000D02*
X69320000Y-82690000D01*
X68955000Y-74816562D02*
X69681566Y-74089996D01*
X68955000Y-79535000D02*
X68955000Y-74816562D01*
%TO.N,/BLDC Power Control/Motor Phase X/X_OUT*%
X75080000Y-80310000D02*
X77601925Y-82831925D01*
X75783487Y-74115836D02*
X75080000Y-74819323D01*
X75080000Y-74819323D02*
X75080000Y-80310000D01*
X77601925Y-82831925D02*
X77601925Y-84074999D01*
D21*
%TO.N,Net-(D2-K)*%
X79630000Y-57930000D02*
X68110000Y-57930000D01*
X80772157Y-59072157D02*
X79630000Y-57930000D01*
X67570000Y-60030000D02*
X67050000Y-60550000D01*
X80772157Y-86517842D02*
X80772157Y-59072157D01*
X64535004Y-60550000D02*
X63725002Y-61360002D01*
X68110000Y-57930000D02*
X67570000Y-58470000D01*
X56860000Y-87400000D02*
X79890000Y-87400000D01*
X67050000Y-60550000D02*
X64535004Y-60550000D01*
X79890000Y-87400000D02*
X80772157Y-86517842D01*
X67570000Y-58470000D02*
X67570000Y-60030000D01*
%TO.N,Net-(D6-K)*%
X80372157Y-86352157D02*
X80372157Y-59237843D01*
X65950000Y-87000000D02*
X79724314Y-87000000D01*
X80372157Y-59237843D02*
X79464314Y-58330000D01*
X65750000Y-86800000D02*
X65950000Y-87000000D01*
X74421471Y-58330000D02*
X73632500Y-59118971D01*
X73224997Y-60575003D02*
X70559998Y-60575003D01*
X73632500Y-59118971D02*
X73632500Y-60167500D01*
X70559998Y-60575003D02*
X69785004Y-61349997D01*
X79464314Y-58330000D02*
X74421471Y-58330000D01*
X65590000Y-86800000D02*
X65750000Y-86800000D01*
X73632500Y-60167500D02*
X73224997Y-60575003D01*
X79724314Y-87000000D02*
X80372157Y-86352157D01*
%TO.N,Net-(D10-K)*%
X79944314Y-59375686D02*
X79944314Y-86214314D01*
X79298628Y-58730000D02*
X79944314Y-59375686D01*
X79758628Y-86400000D02*
X75420000Y-86400000D01*
X76690000Y-58730000D02*
X79298628Y-58730000D01*
X79944314Y-86214314D02*
X79758628Y-86400000D01*
X75730000Y-59690000D02*
X76690000Y-58730000D01*
X75730000Y-61360000D02*
X75730000Y-59690000D01*
D20*
%TO.N,Net-(AH1-G)*%
X62200000Y-80200000D02*
X62237500Y-80200000D01*
X62948331Y-74083212D02*
X62600000Y-74431543D01*
X62600000Y-79800000D02*
X62200000Y-80200000D01*
X62600000Y-74431543D02*
X62600000Y-79800000D01*
%TO.N,Net-(AH2-G)*%
X68770000Y-74100000D02*
X68480000Y-74390000D01*
X68480000Y-80080000D02*
X68600000Y-80200000D01*
X68480000Y-74390000D02*
X68480000Y-80080000D01*
%TO.N,Net-(AH3-G)*%
X74400000Y-80870000D02*
X74070000Y-81200000D01*
X74070000Y-81200000D02*
X73800000Y-81200000D01*
X74400000Y-74590000D02*
X74400000Y-80870000D01*
X74900000Y-74090000D02*
X74400000Y-74590000D01*
%TO.N,Net-(AL1-G)*%
X62405005Y-59194995D02*
X61190000Y-60410000D01*
X61190000Y-60410000D02*
X61190000Y-80990000D01*
X61200000Y-81200000D02*
X61200000Y-81000000D01*
X61190000Y-80990000D02*
X61200000Y-81000000D01*
%TO.N,Net-(AL2-G)*%
X68020000Y-59580000D02*
X68020000Y-74178248D01*
X67962500Y-74235748D02*
X67962500Y-80886423D01*
X68020000Y-74178248D02*
X67962500Y-74235748D01*
X67962500Y-80886423D02*
X68600000Y-81523923D01*
X68400000Y-59200000D02*
X68020000Y-59580000D01*
%TO.N,Net-(AL3-G)*%
X74400000Y-59200000D02*
X74070000Y-59530000D01*
X73837500Y-74480748D02*
X73837500Y-80362500D01*
X74070000Y-59530000D02*
X74070000Y-74248248D01*
X73837500Y-80362500D02*
X73800000Y-80400000D01*
X74070000Y-74248248D02*
X73837500Y-74480748D01*
X73837500Y-80312989D02*
X73747350Y-80222839D01*
X73837500Y-80362500D02*
X73837500Y-80312989D01*
%TD*%
%TA.AperFunction,Conductor*%
%TO.N,/BLDC Power Control/Motor Phase X/X_OUT*%
G36*
X79286853Y-60619685D02*
G01*
X79332608Y-60672489D01*
X79343814Y-60724000D01*
X79343814Y-67849036D01*
X79324129Y-67916075D01*
X79307495Y-67936717D01*
X78414214Y-68829998D01*
X79307495Y-69723279D01*
X79340980Y-69784602D01*
X79343814Y-69810960D01*
X79343814Y-73676000D01*
X79324129Y-73743039D01*
X79271325Y-73788794D01*
X79219814Y-73800000D01*
X75731722Y-73800000D01*
X75664683Y-73780315D01*
X75626728Y-73741971D01*
X75584009Y-73673983D01*
X75565003Y-73608012D01*
X75565003Y-72400000D01*
X74754538Y-71751627D01*
X74714486Y-71694376D01*
X74708000Y-71654799D01*
X74708000Y-71195822D01*
X76048387Y-71195822D01*
X76048388Y-71195823D01*
X76210444Y-71259985D01*
X76521233Y-71339782D01*
X76521242Y-71339784D01*
X76839556Y-71379997D01*
X76839570Y-71379998D01*
X77160430Y-71379998D01*
X77160443Y-71379997D01*
X77478757Y-71339784D01*
X77478766Y-71339782D01*
X77789552Y-71259986D01*
X77951610Y-71195823D01*
X77951610Y-71195822D01*
X77000000Y-70244212D01*
X76048387Y-71195822D01*
X74708000Y-71195822D01*
X74708000Y-69759146D01*
X74727685Y-69692107D01*
X74744319Y-69671465D01*
X75487409Y-68928375D01*
X75750000Y-68928375D01*
X75780779Y-69122707D01*
X75841580Y-69309831D01*
X75930904Y-69485141D01*
X76046554Y-69644318D01*
X76185680Y-69783444D01*
X76344857Y-69899094D01*
X76520167Y-69988418D01*
X76707291Y-70049219D01*
X76901623Y-70079998D01*
X77098377Y-70079998D01*
X77292709Y-70049219D01*
X77479833Y-69988418D01*
X77655143Y-69899094D01*
X77814320Y-69783444D01*
X77953446Y-69644318D01*
X78069096Y-69485141D01*
X78158420Y-69309831D01*
X78219221Y-69122707D01*
X78250000Y-68928375D01*
X78250000Y-68731621D01*
X78219221Y-68537289D01*
X78158420Y-68350165D01*
X78069096Y-68174855D01*
X77953446Y-68015678D01*
X77814320Y-67876552D01*
X77655143Y-67760902D01*
X77479833Y-67671578D01*
X77292709Y-67610777D01*
X77098377Y-67579998D01*
X76901623Y-67579998D01*
X76707291Y-67610777D01*
X76520167Y-67671578D01*
X76344857Y-67760902D01*
X76185680Y-67876552D01*
X76046554Y-68015678D01*
X75930904Y-68174855D01*
X75841580Y-68350165D01*
X75780779Y-68537289D01*
X75750000Y-68731621D01*
X75750000Y-68928375D01*
X75487409Y-68928375D01*
X75585786Y-68829998D01*
X74744319Y-67988531D01*
X74710834Y-67927208D01*
X74708000Y-67900850D01*
X74708000Y-66464172D01*
X76048387Y-66464172D01*
X77000000Y-67415784D01*
X77000001Y-67415784D01*
X77951611Y-66464172D01*
X77789547Y-66400008D01*
X77478766Y-66320213D01*
X77478757Y-66320211D01*
X77160443Y-66279998D01*
X76839556Y-66279998D01*
X76521242Y-66320211D01*
X76521233Y-66320213D01*
X76210451Y-66400008D01*
X76048387Y-66464172D01*
X74708000Y-66464172D01*
X74708000Y-62136456D01*
X74727685Y-62069417D01*
X74780489Y-62023662D01*
X74849647Y-62013718D01*
X74913203Y-62042743D01*
X74929269Y-62059549D01*
X74932033Y-62063045D01*
X75051955Y-62182967D01*
X75051959Y-62182970D01*
X75196294Y-62271998D01*
X75196297Y-62271999D01*
X75196303Y-62272003D01*
X75357292Y-62325349D01*
X75456655Y-62335500D01*
X76003344Y-62335499D01*
X76003352Y-62335498D01*
X76003355Y-62335498D01*
X76057760Y-62329940D01*
X76102708Y-62325349D01*
X76263697Y-62272003D01*
X76408044Y-62182968D01*
X76527968Y-62063044D01*
X76617003Y-61918697D01*
X76641118Y-61845919D01*
X76680890Y-61788476D01*
X76745406Y-61761652D01*
X76812270Y-61773624D01*
X76829996Y-61768247D01*
X76829996Y-61033996D01*
X76849681Y-60966957D01*
X76902485Y-60921202D01*
X76953996Y-60909996D01*
X77700662Y-60909996D01*
X77612294Y-60850950D01*
X77612293Y-60850949D01*
X77585483Y-60845617D01*
X77523572Y-60813232D01*
X77488998Y-60752517D01*
X77492737Y-60682747D01*
X77533604Y-60626075D01*
X77598622Y-60600494D01*
X77609674Y-60600000D01*
X79219814Y-60600000D01*
X79286853Y-60619685D01*
G37*
%TD.AperFunction*%
%TD*%
%TA.AperFunction,Conductor*%
%TO.N,/BLDC Power Control/Motor Phase U/U_OUT*%
G36*
X67295756Y-61126212D02*
G01*
X67353618Y-61165374D01*
X67381123Y-61229602D01*
X67382000Y-61244324D01*
X67382000Y-67845847D01*
X67362315Y-67912886D01*
X67345681Y-67933528D01*
X66449211Y-68829998D01*
X67345681Y-69726468D01*
X67379166Y-69787791D01*
X67382000Y-69814149D01*
X67382000Y-73676000D01*
X67362315Y-73743039D01*
X67309511Y-73788794D01*
X67258000Y-73800000D01*
X63924000Y-73800000D01*
X63856961Y-73780315D01*
X63811206Y-73727511D01*
X63800000Y-73676000D01*
X63800000Y-72400000D01*
X62845418Y-71636334D01*
X62805366Y-71579083D01*
X62798902Y-71541849D01*
X62792373Y-71195822D01*
X64083384Y-71195822D01*
X64083385Y-71195823D01*
X64245441Y-71259985D01*
X64556230Y-71339782D01*
X64556239Y-71339784D01*
X64874553Y-71379997D01*
X64874567Y-71379998D01*
X65195427Y-71379998D01*
X65195440Y-71379997D01*
X65513754Y-71339784D01*
X65513763Y-71339782D01*
X65824549Y-71259986D01*
X65986607Y-71195823D01*
X65986607Y-71195822D01*
X65034997Y-70244212D01*
X64083384Y-71195822D01*
X62792373Y-71195822D01*
X62763903Y-69686876D01*
X63522404Y-68928375D01*
X63784997Y-68928375D01*
X63815776Y-69122707D01*
X63876577Y-69309831D01*
X63965901Y-69485141D01*
X64081551Y-69644318D01*
X64220677Y-69783444D01*
X64379854Y-69899094D01*
X64555164Y-69988418D01*
X64742288Y-70049219D01*
X64936620Y-70079998D01*
X65133374Y-70079998D01*
X65327706Y-70049219D01*
X65514830Y-69988418D01*
X65690140Y-69899094D01*
X65849317Y-69783444D01*
X65988443Y-69644318D01*
X66104093Y-69485141D01*
X66193417Y-69309831D01*
X66254218Y-69122707D01*
X66284997Y-68928375D01*
X66284997Y-68731621D01*
X66254218Y-68537289D01*
X66193417Y-68350165D01*
X66104093Y-68174855D01*
X65988443Y-68015678D01*
X65849317Y-67876552D01*
X65690140Y-67760902D01*
X65514830Y-67671578D01*
X65327706Y-67610777D01*
X65133374Y-67579998D01*
X64936620Y-67579998D01*
X64742288Y-67610777D01*
X64555164Y-67671578D01*
X64379854Y-67760902D01*
X64220677Y-67876552D01*
X64081551Y-68015678D01*
X63965901Y-68174855D01*
X63876577Y-68350165D01*
X63815776Y-68537289D01*
X63784997Y-68731621D01*
X63784997Y-68928375D01*
X63522404Y-68928375D01*
X63620782Y-68829997D01*
X62730946Y-67940161D01*
X62703097Y-66464172D01*
X64083384Y-66464172D01*
X65034997Y-67415784D01*
X65034998Y-67415784D01*
X65986608Y-66464172D01*
X65824544Y-66400008D01*
X65513763Y-66320213D01*
X65513754Y-66320211D01*
X65195440Y-66279998D01*
X64874553Y-66279998D01*
X64556239Y-66320211D01*
X64556230Y-66320213D01*
X64245448Y-66400008D01*
X64083384Y-66464172D01*
X62703097Y-66464172D01*
X62618925Y-62003062D01*
X62637341Y-61935666D01*
X62689273Y-61888923D01*
X62758232Y-61877677D01*
X62822323Y-61905498D01*
X62848441Y-61935629D01*
X62927031Y-62063042D01*
X62927034Y-62063046D01*
X63046957Y-62182969D01*
X63046961Y-62182972D01*
X63191296Y-62272000D01*
X63191299Y-62272001D01*
X63191305Y-62272005D01*
X63352294Y-62325351D01*
X63451657Y-62335502D01*
X63998346Y-62335501D01*
X63998354Y-62335500D01*
X63998357Y-62335500D01*
X64052762Y-62329942D01*
X64097710Y-62325351D01*
X64258699Y-62272005D01*
X64403046Y-62182970D01*
X64522970Y-62063046D01*
X64612005Y-61918699D01*
X64636120Y-61845921D01*
X64675892Y-61788478D01*
X64740408Y-61761654D01*
X64807272Y-61773626D01*
X64824998Y-61768249D01*
X64824998Y-61274500D01*
X64844683Y-61207461D01*
X64897487Y-61161706D01*
X64948998Y-61150500D01*
X66963331Y-61150500D01*
X66963347Y-61150501D01*
X66970943Y-61150501D01*
X67129054Y-61150501D01*
X67129057Y-61150501D01*
X67225909Y-61124549D01*
X67295756Y-61126212D01*
G37*
%TD.AperFunction*%
%TD*%
%TA.AperFunction,Conductor*%
%TO.N,/BLDC Power Control/Motor Phase V/V_OUT*%
G36*
X73138344Y-61175504D02*
G01*
X73308000Y-61175504D01*
X73375039Y-61195189D01*
X73420794Y-61247993D01*
X73432000Y-61299504D01*
X73432000Y-67760849D01*
X73412315Y-67827888D01*
X73395681Y-67848530D01*
X72414214Y-68829997D01*
X72414214Y-68829998D01*
X73395681Y-69811465D01*
X73429166Y-69872788D01*
X73432000Y-69899146D01*
X73432000Y-73676000D01*
X73412315Y-73743039D01*
X73359511Y-73788794D01*
X73308000Y-73800000D01*
X69889003Y-73800000D01*
X69821964Y-73780315D01*
X69776209Y-73727511D01*
X69765003Y-73676000D01*
X69765003Y-72400000D01*
X68810421Y-71636334D01*
X68770369Y-71579083D01*
X68763905Y-71541849D01*
X68757376Y-71195822D01*
X70048387Y-71195822D01*
X70048388Y-71195823D01*
X70210444Y-71259985D01*
X70521233Y-71339782D01*
X70521242Y-71339784D01*
X70839556Y-71379997D01*
X70839570Y-71379998D01*
X71160430Y-71379998D01*
X71160443Y-71379997D01*
X71478757Y-71339784D01*
X71478766Y-71339782D01*
X71789552Y-71259986D01*
X71951610Y-71195823D01*
X71951610Y-71195822D01*
X71000000Y-70244212D01*
X70048387Y-71195822D01*
X68757376Y-71195822D01*
X68728906Y-69686877D01*
X69487409Y-68928375D01*
X69750000Y-68928375D01*
X69780779Y-69122707D01*
X69841580Y-69309831D01*
X69930904Y-69485141D01*
X70046554Y-69644318D01*
X70185680Y-69783444D01*
X70344857Y-69899094D01*
X70520167Y-69988418D01*
X70707291Y-70049219D01*
X70901623Y-70079998D01*
X71098377Y-70079998D01*
X71292709Y-70049219D01*
X71479833Y-69988418D01*
X71655143Y-69899094D01*
X71814320Y-69783444D01*
X71953446Y-69644318D01*
X72069096Y-69485141D01*
X72158420Y-69309831D01*
X72219221Y-69122707D01*
X72250000Y-68928375D01*
X72250000Y-68731621D01*
X72219221Y-68537289D01*
X72158420Y-68350165D01*
X72069096Y-68174855D01*
X71953446Y-68015678D01*
X71814320Y-67876552D01*
X71655143Y-67760902D01*
X71479833Y-67671578D01*
X71292709Y-67610777D01*
X71098377Y-67579998D01*
X70901623Y-67579998D01*
X70707291Y-67610777D01*
X70520167Y-67671578D01*
X70344857Y-67760902D01*
X70185680Y-67876552D01*
X70046554Y-68015678D01*
X69930904Y-68174855D01*
X69841580Y-68350165D01*
X69780779Y-68537289D01*
X69750000Y-68731621D01*
X69750000Y-68928375D01*
X69487409Y-68928375D01*
X69585786Y-68829998D01*
X68695949Y-67940161D01*
X68668100Y-66464172D01*
X70048387Y-66464172D01*
X71000000Y-67415784D01*
X71000001Y-67415784D01*
X71951611Y-66464172D01*
X71789547Y-66400008D01*
X71478766Y-66320213D01*
X71478757Y-66320211D01*
X71160443Y-66279998D01*
X70839556Y-66279998D01*
X70521242Y-66320211D01*
X70521233Y-66320213D01*
X70210451Y-66400008D01*
X70048387Y-66464172D01*
X68668100Y-66464172D01*
X68658021Y-65930005D01*
X68658000Y-65927670D01*
X68658000Y-61952841D01*
X68677685Y-61885802D01*
X68730489Y-61840047D01*
X68799647Y-61830103D01*
X68863203Y-61859128D01*
X68892626Y-61903234D01*
X68894951Y-61902151D01*
X68898005Y-61908702D01*
X68987033Y-62053037D01*
X68987036Y-62053041D01*
X69106959Y-62172964D01*
X69106963Y-62172967D01*
X69251298Y-62261995D01*
X69251301Y-62261996D01*
X69251307Y-62262000D01*
X69412296Y-62315346D01*
X69511659Y-62325497D01*
X70058348Y-62325496D01*
X70058356Y-62325495D01*
X70058359Y-62325495D01*
X70112764Y-62319937D01*
X70157712Y-62315346D01*
X70318701Y-62262000D01*
X70463048Y-62172965D01*
X70582972Y-62053041D01*
X70672007Y-61908694D01*
X70696119Y-61835927D01*
X70735890Y-61778484D01*
X70800405Y-61751660D01*
X70867269Y-61763631D01*
X70884996Y-61758254D01*
X70884996Y-61299503D01*
X70904681Y-61232464D01*
X70957485Y-61186709D01*
X71008996Y-61175503D01*
X73138328Y-61175503D01*
X73138344Y-61175504D01*
G37*
%TD.AperFunction*%
%TD*%
%TA.AperFunction,Conductor*%
%TO.N,GND*%
G36*
X41179588Y-99642330D02*
G01*
X41357670Y-99820412D01*
X41459300Y-99894251D01*
X40462818Y-100890733D01*
X40462819Y-100890734D01*
X40605485Y-101010446D01*
X40605489Y-101010449D01*
X40622898Y-101021899D01*
X40668092Y-101075183D01*
X40677305Y-101144443D01*
X40647610Y-101207688D01*
X40588436Y-101244840D01*
X40554760Y-101249500D01*
X39674500Y-101249500D01*
X39607461Y-101229815D01*
X39561706Y-101177011D01*
X39550500Y-101125500D01*
X39550500Y-100127294D01*
X39570185Y-100060255D01*
X39622989Y-100014500D01*
X39692147Y-100004556D01*
X39755703Y-100033581D01*
X39781887Y-100065294D01*
X39889289Y-100251322D01*
X40097967Y-100531625D01*
X40106148Y-100540296D01*
X41105747Y-99540697D01*
X41179588Y-99642330D01*
G37*
%TD.AperFunction*%
%TA.AperFunction,Conductor*%
G36*
X81621799Y-52970185D02*
G01*
X81667554Y-53022989D01*
X81677498Y-53092147D01*
X81648473Y-53155703D01*
X81622900Y-53178100D01*
X81605482Y-53189555D01*
X81462819Y-53309264D01*
X81462818Y-53309265D01*
X82459301Y-54305748D01*
X82357670Y-54379588D01*
X82179588Y-54557670D01*
X82105748Y-54659301D01*
X81106148Y-53659701D01*
X81106147Y-53659702D01*
X81097976Y-53668363D01*
X81097972Y-53668368D01*
X80889289Y-53948677D01*
X80714561Y-54251316D01*
X80714555Y-54251329D01*
X80576145Y-54572199D01*
X80475916Y-54906988D01*
X80475914Y-54906997D01*
X80415236Y-55251119D01*
X80415235Y-55251130D01*
X80394916Y-55599996D01*
X80394916Y-55600003D01*
X80415235Y-55948869D01*
X80415236Y-55948880D01*
X80475914Y-56293002D01*
X80475916Y-56293011D01*
X80576145Y-56627800D01*
X80714555Y-56948670D01*
X80714561Y-56948683D01*
X80889289Y-57251322D01*
X81097967Y-57531625D01*
X81106148Y-57540296D01*
X82105747Y-56540697D01*
X82179588Y-56642330D01*
X82357670Y-56820412D01*
X82459300Y-56894251D01*
X81462818Y-57890733D01*
X81462819Y-57890734D01*
X81605484Y-58010445D01*
X81897461Y-58202480D01*
X82209739Y-58359314D01*
X82209745Y-58359316D01*
X82538130Y-58478838D01*
X82538133Y-58478839D01*
X82878171Y-58559429D01*
X83225276Y-58599999D01*
X83225277Y-58600000D01*
X83574723Y-58600000D01*
X83574723Y-58599999D01*
X83921827Y-58559429D01*
X83921829Y-58559429D01*
X84261866Y-58478839D01*
X84261869Y-58478838D01*
X84590254Y-58359316D01*
X84590260Y-58359314D01*
X84902538Y-58202480D01*
X85194509Y-58010449D01*
X85194510Y-58010448D01*
X85337179Y-57890734D01*
X85337180Y-57890733D01*
X84340698Y-56894251D01*
X84442330Y-56820412D01*
X84620412Y-56642330D01*
X84694251Y-56540698D01*
X85693849Y-57540296D01*
X85723699Y-57539863D01*
X85791017Y-57558572D01*
X85837534Y-57610706D01*
X85849500Y-57663850D01*
X85849500Y-96536148D01*
X85829815Y-96603187D01*
X85777011Y-96648942D01*
X85723699Y-96660135D01*
X85693851Y-96659701D01*
X84694251Y-97659301D01*
X84620412Y-97557670D01*
X84442330Y-97379588D01*
X84340698Y-97305747D01*
X85337180Y-96309265D01*
X85337179Y-96309264D01*
X85194519Y-96189557D01*
X84902538Y-95997519D01*
X84590260Y-95840685D01*
X84590254Y-95840683D01*
X84261869Y-95721161D01*
X84261866Y-95721160D01*
X83921828Y-95640570D01*
X83574723Y-95600000D01*
X83225277Y-95600000D01*
X82878172Y-95640570D01*
X82878170Y-95640570D01*
X82538133Y-95721160D01*
X82538130Y-95721161D01*
X82209745Y-95840683D01*
X82209739Y-95840685D01*
X81897461Y-95997519D01*
X81605480Y-96189557D01*
X81462819Y-96309264D01*
X81462818Y-96309265D01*
X82459301Y-97305748D01*
X82357670Y-97379588D01*
X82179588Y-97557670D01*
X82105748Y-97659301D01*
X81106148Y-96659701D01*
X81106147Y-96659702D01*
X81097976Y-96668363D01*
X81097972Y-96668368D01*
X80889289Y-96948677D01*
X80714561Y-97251316D01*
X80714555Y-97251329D01*
X80576145Y-97572199D01*
X80475916Y-97906988D01*
X80475914Y-97906997D01*
X80415236Y-98251119D01*
X80415235Y-98251130D01*
X80394916Y-98599996D01*
X80394916Y-98600003D01*
X80415235Y-98948869D01*
X80415236Y-98948880D01*
X80475914Y-99293002D01*
X80475916Y-99293011D01*
X80576145Y-99627800D01*
X80714555Y-99948670D01*
X80714561Y-99948683D01*
X80889289Y-100251322D01*
X81097967Y-100531625D01*
X81106148Y-100540296D01*
X82105747Y-99540697D01*
X82179588Y-99642330D01*
X82357670Y-99820412D01*
X82459300Y-99894251D01*
X81462818Y-100890733D01*
X81462819Y-100890734D01*
X81605485Y-101010446D01*
X81605489Y-101010449D01*
X81622898Y-101021899D01*
X81668092Y-101075183D01*
X81677305Y-101144443D01*
X81647610Y-101207688D01*
X81588436Y-101244840D01*
X81554760Y-101249500D01*
X44245240Y-101249500D01*
X44178201Y-101229815D01*
X44132446Y-101177011D01*
X44122502Y-101107853D01*
X44151527Y-101044297D01*
X44177102Y-101021899D01*
X44194502Y-101010454D01*
X44194510Y-101010448D01*
X44337179Y-100890734D01*
X44337180Y-100890733D01*
X43340698Y-99894251D01*
X43442330Y-99820412D01*
X43620412Y-99642330D01*
X43694251Y-99540698D01*
X44693849Y-100540297D01*
X44693851Y-100540296D01*
X44702022Y-100531636D01*
X44702033Y-100531623D01*
X44910710Y-100251322D01*
X45085438Y-99948683D01*
X45085444Y-99948670D01*
X45223854Y-99627800D01*
X45324083Y-99293011D01*
X45324085Y-99293002D01*
X45384763Y-98948880D01*
X45384764Y-98948869D01*
X45405084Y-98600003D01*
X45405084Y-98599996D01*
X45384764Y-98251130D01*
X45384763Y-98251119D01*
X45324085Y-97906997D01*
X45324083Y-97906988D01*
X45223854Y-97572199D01*
X45085444Y-97251329D01*
X45085438Y-97251316D01*
X44910710Y-96948677D01*
X44702032Y-96668374D01*
X44693850Y-96659702D01*
X43694251Y-97659301D01*
X43620412Y-97557670D01*
X43442330Y-97379588D01*
X43340698Y-97305747D01*
X44337180Y-96309265D01*
X44337179Y-96309264D01*
X44194519Y-96189557D01*
X43902538Y-95997519D01*
X43590260Y-95840685D01*
X43590254Y-95840683D01*
X43261869Y-95721161D01*
X43261866Y-95721160D01*
X42921828Y-95640570D01*
X42574723Y-95600000D01*
X42225277Y-95600000D01*
X41878172Y-95640570D01*
X41878170Y-95640570D01*
X41538133Y-95721160D01*
X41538130Y-95721161D01*
X41209745Y-95840683D01*
X41209739Y-95840685D01*
X40897461Y-95997519D01*
X40605480Y-96189557D01*
X40462819Y-96309264D01*
X40462818Y-96309265D01*
X41459301Y-97305748D01*
X41357670Y-97379588D01*
X41179588Y-97557670D01*
X41105748Y-97659301D01*
X40106148Y-96659701D01*
X40106147Y-96659702D01*
X40097976Y-96668363D01*
X40097972Y-96668368D01*
X39889289Y-96948677D01*
X39781887Y-97134705D01*
X39731320Y-97182921D01*
X39662713Y-97196144D01*
X39597848Y-97170176D01*
X39557320Y-97113262D01*
X39550500Y-97072705D01*
X39550500Y-95575001D01*
X62299500Y-95575001D01*
X62299501Y-95575018D01*
X62310000Y-95677796D01*
X62310001Y-95677799D01*
X62365185Y-95844331D01*
X62365187Y-95844336D01*
X62388870Y-95882732D01*
X62457288Y-95993656D01*
X62581344Y-96117712D01*
X62730666Y-96209814D01*
X62897203Y-96264999D01*
X62999991Y-96275500D01*
X63800008Y-96275499D01*
X63800016Y-96275498D01*
X63800019Y-96275498D01*
X63856302Y-96269748D01*
X63902797Y-96264999D01*
X64069334Y-96209814D01*
X64218656Y-96117712D01*
X64342712Y-95993656D01*
X64382310Y-95929456D01*
X64434258Y-95882732D01*
X64503220Y-95871509D01*
X64567303Y-95899352D01*
X64575530Y-95906872D01*
X64683072Y-96014414D01*
X64823212Y-96116232D01*
X64977555Y-96194873D01*
X65142299Y-96248402D01*
X65313389Y-96275500D01*
X65313390Y-96275500D01*
X65486610Y-96275500D01*
X65486611Y-96275500D01*
X65657701Y-96248402D01*
X65822445Y-96194873D01*
X65976788Y-96116232D01*
X66116928Y-96014414D01*
X66239414Y-95891928D01*
X66299682Y-95808975D01*
X66355012Y-95766311D01*
X66424626Y-95760332D01*
X66486421Y-95792938D01*
X66500315Y-95808973D01*
X66560586Y-95891928D01*
X66683072Y-96014414D01*
X66823212Y-96116232D01*
X66977555Y-96194873D01*
X67142299Y-96248402D01*
X67313389Y-96275500D01*
X67313390Y-96275500D01*
X67486610Y-96275500D01*
X67486611Y-96275500D01*
X67657701Y-96248402D01*
X67822445Y-96194873D01*
X67976788Y-96116232D01*
X68116928Y-96014414D01*
X68239414Y-95891928D01*
X68299682Y-95808975D01*
X68355012Y-95766311D01*
X68424626Y-95760332D01*
X68486421Y-95792938D01*
X68500315Y-95808973D01*
X68560586Y-95891928D01*
X68683072Y-96014414D01*
X68823212Y-96116232D01*
X68977555Y-96194873D01*
X69142299Y-96248402D01*
X69313389Y-96275500D01*
X69313390Y-96275500D01*
X69486610Y-96275500D01*
X69486611Y-96275500D01*
X69657701Y-96248402D01*
X69822445Y-96194873D01*
X69976788Y-96116232D01*
X70116928Y-96014414D01*
X70239414Y-95891928D01*
X70299682Y-95808975D01*
X70355012Y-95766311D01*
X70424626Y-95760332D01*
X70486421Y-95792938D01*
X70500315Y-95808973D01*
X70560586Y-95891928D01*
X70683072Y-96014414D01*
X70823212Y-96116232D01*
X70977555Y-96194873D01*
X71142299Y-96248402D01*
X71313389Y-96275500D01*
X71313390Y-96275500D01*
X71486610Y-96275500D01*
X71486611Y-96275500D01*
X71657701Y-96248402D01*
X71822445Y-96194873D01*
X71976788Y-96116232D01*
X72116928Y-96014414D01*
X72239414Y-95891928D01*
X72299682Y-95808975D01*
X72355012Y-95766311D01*
X72424626Y-95760332D01*
X72486421Y-95792938D01*
X72500315Y-95808973D01*
X72560586Y-95891928D01*
X72683072Y-96014414D01*
X72823212Y-96116232D01*
X72977555Y-96194873D01*
X73142299Y-96248402D01*
X73313389Y-96275500D01*
X73313390Y-96275500D01*
X73486610Y-96275500D01*
X73486611Y-96275500D01*
X73657701Y-96248402D01*
X73822445Y-96194873D01*
X73976788Y-96116232D01*
X74116928Y-96014414D01*
X74239414Y-95891928D01*
X74299682Y-95808975D01*
X74355012Y-95766311D01*
X74424626Y-95760332D01*
X74486421Y-95792938D01*
X74500315Y-95808973D01*
X74560586Y-95891928D01*
X74683072Y-96014414D01*
X74823212Y-96116232D01*
X74977555Y-96194873D01*
X75142299Y-96248402D01*
X75313389Y-96275500D01*
X75313390Y-96275500D01*
X75486610Y-96275500D01*
X75486611Y-96275500D01*
X75657701Y-96248402D01*
X75822445Y-96194873D01*
X75976788Y-96116232D01*
X76116928Y-96014414D01*
X76239414Y-95891928D01*
X76341232Y-95751788D01*
X76419873Y-95597445D01*
X76443136Y-95525846D01*
X76482574Y-95468172D01*
X76546932Y-95440974D01*
X76615778Y-95452889D01*
X76667254Y-95500133D01*
X76675628Y-95516713D01*
X76691047Y-95553938D01*
X76691052Y-95553948D01*
X76778598Y-95684969D01*
X76778601Y-95684973D01*
X76890026Y-95796398D01*
X76890034Y-95796404D01*
X77021047Y-95883944D01*
X77021065Y-95883954D01*
X77149999Y-95937360D01*
X77150000Y-95937360D01*
X77150000Y-95180330D01*
X77169745Y-95200075D01*
X77255255Y-95249444D01*
X77350630Y-95275000D01*
X77449370Y-95275000D01*
X77544745Y-95249444D01*
X77630255Y-95200075D01*
X77650000Y-95180330D01*
X77650000Y-95937360D01*
X77778934Y-95883954D01*
X77778952Y-95883944D01*
X77909965Y-95796404D01*
X77909973Y-95796398D01*
X78021398Y-95684973D01*
X78021401Y-95684969D01*
X78108947Y-95553948D01*
X78108952Y-95553939D01*
X78169256Y-95408351D01*
X78169258Y-95408343D01*
X78199999Y-95253797D01*
X78200000Y-95253794D01*
X78200000Y-95150000D01*
X77680330Y-95150000D01*
X77700075Y-95130255D01*
X77749444Y-95044745D01*
X77775000Y-94949370D01*
X77775000Y-94850630D01*
X77749444Y-94755255D01*
X77700075Y-94669745D01*
X77680330Y-94650000D01*
X78200000Y-94650000D01*
X78200000Y-94546206D01*
X78199999Y-94546202D01*
X78169258Y-94391656D01*
X78169256Y-94391648D01*
X78108952Y-94246060D01*
X78108947Y-94246051D01*
X78021401Y-94115030D01*
X78021398Y-94115026D01*
X77909973Y-94003601D01*
X77909969Y-94003598D01*
X77778948Y-93916052D01*
X77778938Y-93916047D01*
X77650000Y-93862639D01*
X77650000Y-94619670D01*
X77630255Y-94599925D01*
X77544745Y-94550556D01*
X77449370Y-94525000D01*
X77350630Y-94525000D01*
X77255255Y-94550556D01*
X77169745Y-94599925D01*
X77150000Y-94619670D01*
X77150000Y-93862639D01*
X77149999Y-93862639D01*
X77021061Y-93916047D01*
X77021051Y-93916052D01*
X76890030Y-94003598D01*
X76890026Y-94003601D01*
X76778601Y-94115026D01*
X76778598Y-94115030D01*
X76691052Y-94246051D01*
X76691049Y-94246058D01*
X76675628Y-94283287D01*
X76631786Y-94337690D01*
X76565492Y-94359754D01*
X76497793Y-94342474D01*
X76450183Y-94291337D01*
X76443136Y-94274152D01*
X76419873Y-94202555D01*
X76341232Y-94048212D01*
X76239414Y-93908072D01*
X76116928Y-93785586D01*
X75976788Y-93683768D01*
X75822445Y-93605127D01*
X75657701Y-93551598D01*
X75657699Y-93551597D01*
X75657698Y-93551597D01*
X75526271Y-93530781D01*
X75486611Y-93524500D01*
X75313389Y-93524500D01*
X75273728Y-93530781D01*
X75142302Y-93551597D01*
X74977552Y-93605128D01*
X74823211Y-93683768D01*
X74743256Y-93741859D01*
X74683072Y-93785586D01*
X74683070Y-93785588D01*
X74683069Y-93785588D01*
X74560588Y-93908069D01*
X74560581Y-93908078D01*
X74500317Y-93991023D01*
X74444987Y-94033689D01*
X74375374Y-94039667D01*
X74313579Y-94007061D01*
X74299683Y-93991023D01*
X74239418Y-93908078D01*
X74239414Y-93908072D01*
X74116928Y-93785586D01*
X73976788Y-93683768D01*
X73822445Y-93605127D01*
X73657701Y-93551598D01*
X73657699Y-93551597D01*
X73657698Y-93551597D01*
X73526271Y-93530781D01*
X73486611Y-93524500D01*
X73313389Y-93524500D01*
X73273728Y-93530781D01*
X73142302Y-93551597D01*
X72977552Y-93605128D01*
X72823211Y-93683768D01*
X72743256Y-93741859D01*
X72683072Y-93785586D01*
X72683070Y-93785588D01*
X72683069Y-93785588D01*
X72560588Y-93908069D01*
X72560581Y-93908078D01*
X72500317Y-93991023D01*
X72444987Y-94033689D01*
X72375374Y-94039667D01*
X72313579Y-94007061D01*
X72299683Y-93991023D01*
X72239418Y-93908078D01*
X72239414Y-93908072D01*
X72116928Y-93785586D01*
X71976788Y-93683768D01*
X71822445Y-93605127D01*
X71657701Y-93551598D01*
X71657699Y-93551597D01*
X71657698Y-93551597D01*
X71526271Y-93530781D01*
X71486611Y-93524500D01*
X71313389Y-93524500D01*
X71273728Y-93530781D01*
X71142302Y-93551597D01*
X70977552Y-93605128D01*
X70823211Y-93683768D01*
X70743256Y-93741859D01*
X70683072Y-93785586D01*
X70683070Y-93785588D01*
X70683069Y-93785588D01*
X70560588Y-93908069D01*
X70560581Y-93908078D01*
X70500317Y-93991023D01*
X70444987Y-94033689D01*
X70375374Y-94039667D01*
X70313579Y-94007061D01*
X70299683Y-93991023D01*
X70239418Y-93908078D01*
X70239414Y-93908072D01*
X70116928Y-93785586D01*
X69976788Y-93683768D01*
X69822445Y-93605127D01*
X69657701Y-93551598D01*
X69657699Y-93551597D01*
X69657698Y-93551597D01*
X69526271Y-93530781D01*
X69486611Y-93524500D01*
X69313389Y-93524500D01*
X69273728Y-93530781D01*
X69142302Y-93551597D01*
X68977552Y-93605128D01*
X68823211Y-93683768D01*
X68743256Y-93741859D01*
X68683072Y-93785586D01*
X68683070Y-93785588D01*
X68683069Y-93785588D01*
X68560588Y-93908069D01*
X68560581Y-93908078D01*
X68500317Y-93991023D01*
X68444987Y-94033689D01*
X68375374Y-94039667D01*
X68313579Y-94007061D01*
X68299683Y-93991023D01*
X68239418Y-93908078D01*
X68239414Y-93908072D01*
X68116928Y-93785586D01*
X67976788Y-93683768D01*
X67822445Y-93605127D01*
X67657701Y-93551598D01*
X67657699Y-93551597D01*
X67657698Y-93551597D01*
X67526271Y-93530781D01*
X67486611Y-93524500D01*
X67313389Y-93524500D01*
X67273728Y-93530781D01*
X67142302Y-93551597D01*
X66977552Y-93605128D01*
X66823211Y-93683768D01*
X66743256Y-93741859D01*
X66683072Y-93785586D01*
X66683070Y-93785588D01*
X66683069Y-93785588D01*
X66560588Y-93908069D01*
X66560581Y-93908078D01*
X66500317Y-93991023D01*
X66444987Y-94033689D01*
X66375374Y-94039667D01*
X66313579Y-94007061D01*
X66299683Y-93991023D01*
X66239418Y-93908078D01*
X66239414Y-93908072D01*
X66116928Y-93785586D01*
X65976788Y-93683768D01*
X65822445Y-93605127D01*
X65657701Y-93551598D01*
X65657699Y-93551597D01*
X65657698Y-93551597D01*
X65526271Y-93530781D01*
X65486611Y-93524500D01*
X65313389Y-93524500D01*
X65273728Y-93530781D01*
X65142302Y-93551597D01*
X64977552Y-93605128D01*
X64823211Y-93683768D01*
X64683073Y-93785585D01*
X64575530Y-93893128D01*
X64514207Y-93926612D01*
X64444515Y-93921628D01*
X64388582Y-93879756D01*
X64382310Y-93870543D01*
X64377435Y-93862639D01*
X64342712Y-93806344D01*
X64218656Y-93682288D01*
X64093559Y-93605128D01*
X64069336Y-93590187D01*
X64069331Y-93590185D01*
X64067862Y-93589698D01*
X63902797Y-93535001D01*
X63902795Y-93535000D01*
X63800010Y-93524500D01*
X62999998Y-93524500D01*
X62999980Y-93524501D01*
X62897203Y-93535000D01*
X62897200Y-93535001D01*
X62730668Y-93590185D01*
X62730663Y-93590187D01*
X62581342Y-93682289D01*
X62457289Y-93806342D01*
X62365187Y-93955663D01*
X62365186Y-93955666D01*
X62310001Y-94122203D01*
X62310001Y-94122204D01*
X62310000Y-94122204D01*
X62299500Y-94224983D01*
X62299500Y-95575001D01*
X39550500Y-95575001D01*
X39550500Y-87400003D01*
X56054435Y-87400003D01*
X56074630Y-87579249D01*
X56074631Y-87579254D01*
X56134211Y-87749523D01*
X56230184Y-87902262D01*
X56357738Y-88029816D01*
X56510478Y-88125789D01*
X56680745Y-88185368D01*
X56680750Y-88185369D01*
X56859996Y-88205565D01*
X56860000Y-88205565D01*
X56860004Y-88205565D01*
X57039249Y-88185369D01*
X57039252Y-88185368D01*
X57039255Y-88185368D01*
X57209522Y-88125789D01*
X57362262Y-88029816D01*
X57362267Y-88029810D01*
X57365097Y-88027555D01*
X57367275Y-88026665D01*
X57368158Y-88026111D01*
X57368255Y-88026265D01*
X57429783Y-88001145D01*
X57442412Y-88000500D01*
X79810939Y-88000500D01*
X79810943Y-88000501D01*
X79969058Y-88000500D01*
X80121785Y-87959577D01*
X80171904Y-87930639D01*
X80258716Y-87880520D01*
X80370520Y-87768716D01*
X80370520Y-87768714D01*
X80380728Y-87758507D01*
X80380729Y-87758504D01*
X81252677Y-86886558D01*
X81331734Y-86749626D01*
X81372658Y-86596899D01*
X81372657Y-86438784D01*
X81372657Y-59161216D01*
X81372658Y-59161203D01*
X81372658Y-58993102D01*
X81372658Y-58993100D01*
X81331734Y-58840372D01*
X81301666Y-58788294D01*
X81252677Y-58703441D01*
X81140873Y-58591637D01*
X81140872Y-58591636D01*
X81136542Y-58587306D01*
X81136531Y-58587296D01*
X80117590Y-57568355D01*
X80117588Y-57568352D01*
X79998717Y-57449481D01*
X79998716Y-57449480D01*
X79911904Y-57399360D01*
X79911904Y-57399359D01*
X79911900Y-57399358D01*
X79861785Y-57370423D01*
X79709057Y-57329499D01*
X79550943Y-57329499D01*
X79543347Y-57329499D01*
X79543331Y-57329500D01*
X68189057Y-57329500D01*
X68030942Y-57329500D01*
X67878215Y-57370423D01*
X67878214Y-57370423D01*
X67878212Y-57370424D01*
X67878209Y-57370425D01*
X67828096Y-57399359D01*
X67828095Y-57399360D01*
X67784689Y-57424420D01*
X67741285Y-57449479D01*
X67741282Y-57449481D01*
X67089480Y-58101283D01*
X67080075Y-58117573D01*
X67073190Y-58129500D01*
X67010423Y-58238215D01*
X66969499Y-58390943D01*
X66969499Y-58390945D01*
X66969499Y-58559046D01*
X66969500Y-58559059D01*
X66969500Y-59729903D01*
X66949815Y-59796942D01*
X66933181Y-59817584D01*
X66837584Y-59913181D01*
X66776261Y-59946666D01*
X66749903Y-59949500D01*
X64621673Y-59949500D01*
X64621657Y-59949499D01*
X64614061Y-59949499D01*
X64455947Y-59949499D01*
X64303219Y-59990423D01*
X64303218Y-59990423D01*
X64303216Y-59990424D01*
X64276994Y-60005564D01*
X64276993Y-60005565D01*
X64251279Y-60020411D01*
X64166289Y-60069479D01*
X64166286Y-60069481D01*
X64105675Y-60130093D01*
X64054484Y-60181284D01*
X64054482Y-60181286D01*
X63905365Y-60330403D01*
X63887584Y-60348184D01*
X63826261Y-60381668D01*
X63799903Y-60384502D01*
X63451664Y-60384502D01*
X63451646Y-60384503D01*
X63352294Y-60394652D01*
X63352291Y-60394653D01*
X63191307Y-60447998D01*
X63191296Y-60448003D01*
X63046961Y-60537031D01*
X63046957Y-60537034D01*
X62927034Y-60656957D01*
X62927031Y-60656961D01*
X62838003Y-60801296D01*
X62837998Y-60801307D01*
X62784653Y-60962292D01*
X62774502Y-61061649D01*
X62774502Y-61257429D01*
X62754817Y-61324468D01*
X62702013Y-61370223D01*
X62670461Y-61379812D01*
X62608526Y-61389913D01*
X62607929Y-61390007D01*
X62517570Y-61418401D01*
X62470646Y-61433146D01*
X62470644Y-61433146D01*
X62470644Y-61433147D01*
X62470642Y-61433147D01*
X62351100Y-61513198D01*
X62350917Y-61513363D01*
X62299163Y-61559946D01*
X62207009Y-61670441D01*
X62162978Y-61771874D01*
X62149720Y-61802418D01*
X62149716Y-61802428D01*
X62131744Y-61868198D01*
X62131319Y-61869674D01*
X62131301Y-61869821D01*
X62113515Y-62012598D01*
X62161269Y-64543546D01*
X62197687Y-66473708D01*
X62221736Y-67748379D01*
X62211860Y-67798617D01*
X62211906Y-67798634D01*
X62211800Y-67798924D01*
X62211626Y-67799811D01*
X62210674Y-67802017D01*
X62210673Y-67802020D01*
X62110427Y-68136863D01*
X62110425Y-68136870D01*
X62074116Y-68342795D01*
X62043089Y-68405398D01*
X61983142Y-68441289D01*
X61913308Y-68439072D01*
X61855758Y-68399452D01*
X61828764Y-68335007D01*
X61828000Y-68321263D01*
X61828000Y-60725630D01*
X61847685Y-60658591D01*
X61864319Y-60637949D01*
X62171865Y-60330403D01*
X62483308Y-60018959D01*
X62544629Y-59985476D01*
X62557091Y-59983423D01*
X62584260Y-59980363D01*
X62754527Y-59920784D01*
X62907267Y-59824811D01*
X63034821Y-59697257D01*
X63130794Y-59544517D01*
X63190373Y-59374250D01*
X63190374Y-59374244D01*
X63210570Y-59194998D01*
X63210570Y-59194991D01*
X63190374Y-59015745D01*
X63190373Y-59015740D01*
X63145390Y-58887186D01*
X63130794Y-58845473D01*
X63034821Y-58692733D01*
X62907267Y-58565179D01*
X62881609Y-58549057D01*
X62754528Y-58469206D01*
X62584259Y-58409626D01*
X62584254Y-58409625D01*
X62405009Y-58389430D01*
X62405001Y-58389430D01*
X62225755Y-58409625D01*
X62225750Y-58409626D01*
X62055481Y-58469206D01*
X61902742Y-58565179D01*
X61775189Y-58692732D01*
X61679215Y-58845473D01*
X61619635Y-59015745D01*
X61616576Y-59042897D01*
X61589508Y-59107310D01*
X61581037Y-59116692D01*
X60911974Y-59785758D01*
X60783299Y-59914433D01*
X60758997Y-59938735D01*
X60694431Y-60003300D01*
X60624615Y-60107787D01*
X60624610Y-60107797D01*
X60576518Y-60223901D01*
X60576516Y-60223909D01*
X60552000Y-60347157D01*
X60552000Y-80490953D01*
X60532994Y-80556925D01*
X60474209Y-80650481D01*
X60414633Y-80820737D01*
X60414630Y-80820750D01*
X60394435Y-80999996D01*
X60394435Y-81000003D01*
X60414630Y-81179249D01*
X60414631Y-81179254D01*
X60474211Y-81349523D01*
X60570184Y-81502262D01*
X60697738Y-81629816D01*
X60766120Y-81672783D01*
X60787825Y-81690093D01*
X60793299Y-81695567D01*
X60803319Y-81702262D01*
X60897787Y-81765384D01*
X60903164Y-81768258D01*
X60901883Y-81770654D01*
X60947126Y-81807679D01*
X60968690Y-81874138D01*
X60950901Y-81941705D01*
X60932420Y-81965310D01*
X59389793Y-83507939D01*
X59328470Y-83541424D01*
X59302112Y-83544258D01*
X59040648Y-83544258D01*
X58974676Y-83525252D01*
X58865209Y-83456469D01*
X58694941Y-83396889D01*
X58694936Y-83396888D01*
X58515691Y-83376693D01*
X58515683Y-83376693D01*
X58336437Y-83396888D01*
X58336432Y-83396889D01*
X58166163Y-83456469D01*
X58013424Y-83552442D01*
X57885871Y-83679995D01*
X57789898Y-83832734D01*
X57730318Y-84003003D01*
X57730317Y-84003008D01*
X57710122Y-84182254D01*
X57710122Y-84182261D01*
X57730317Y-84361507D01*
X57730318Y-84361512D01*
X57789898Y-84531781D01*
X57819896Y-84579522D01*
X57885871Y-84684520D01*
X58013425Y-84812074D01*
X58166165Y-84908047D01*
X58302601Y-84955788D01*
X58336432Y-84967626D01*
X58336437Y-84967627D01*
X58515683Y-84987823D01*
X58515687Y-84987823D01*
X58515691Y-84987823D01*
X58694936Y-84967627D01*
X58694939Y-84967626D01*
X58694942Y-84967626D01*
X58865209Y-84908047D01*
X58974676Y-84839263D01*
X59040648Y-84820258D01*
X59680582Y-84820258D01*
X59680583Y-84820257D01*
X59803840Y-84795740D01*
X59919948Y-84747646D01*
X60024443Y-84677825D01*
X63570567Y-81131701D01*
X63640388Y-81027206D01*
X63657718Y-80985368D01*
X63688482Y-80911098D01*
X63713000Y-80787838D01*
X63713000Y-75500002D01*
X65300001Y-75500002D01*
X65300001Y-75704198D01*
X65302851Y-75734608D01*
X65347653Y-75862647D01*
X65428207Y-75971794D01*
X65537354Y-76052348D01*
X65665397Y-76097151D01*
X65695792Y-76100001D01*
X65949999Y-76100001D01*
X65950000Y-76100000D01*
X65950000Y-75500002D01*
X65300001Y-75500002D01*
X63713000Y-75500002D01*
X63713000Y-75173735D01*
X63732685Y-75106696D01*
X63749310Y-75086063D01*
X63896413Y-74938959D01*
X63957732Y-74905477D01*
X63970194Y-74903425D01*
X63997365Y-74900364D01*
X64167632Y-74840785D01*
X64320372Y-74744812D01*
X64447926Y-74617258D01*
X64543899Y-74464518D01*
X64570483Y-74388546D01*
X64611205Y-74331769D01*
X64676158Y-74306022D01*
X64687525Y-74305500D01*
X65353137Y-74305500D01*
X65420176Y-74325185D01*
X65465931Y-74377989D01*
X65475875Y-74447147D01*
X65446850Y-74510703D01*
X65431756Y-74524660D01*
X65428209Y-74528207D01*
X65347653Y-74637356D01*
X65302850Y-74765397D01*
X65302850Y-74765401D01*
X65300000Y-74795795D01*
X65300000Y-75000002D01*
X66326000Y-75000002D01*
X66393039Y-75019687D01*
X66438794Y-75072491D01*
X66450000Y-75124002D01*
X66450000Y-76100001D01*
X66704196Y-76100001D01*
X66734606Y-76097150D01*
X66862645Y-76052348D01*
X66971792Y-75971794D01*
X67052346Y-75862647D01*
X67083458Y-75773733D01*
X67124179Y-75716957D01*
X67189132Y-75691209D01*
X67257694Y-75704665D01*
X67308097Y-75753052D01*
X67324500Y-75814687D01*
X67324500Y-80949265D01*
X67349016Y-81072513D01*
X67349018Y-81072521D01*
X67397110Y-81188625D01*
X67397115Y-81188635D01*
X67466932Y-81293123D01*
X67466935Y-81293127D01*
X67776032Y-81602223D01*
X67809517Y-81663546D01*
X67811571Y-81676019D01*
X67814630Y-81703172D01*
X67874210Y-81873444D01*
X67957228Y-82005565D01*
X67970184Y-82026185D01*
X68097738Y-82153739D01*
X68250478Y-82249712D01*
X68420745Y-82309291D01*
X68420749Y-82309292D01*
X68504324Y-82318708D01*
X68568738Y-82345774D01*
X68608293Y-82403368D01*
X68610432Y-82473205D01*
X68578122Y-82529609D01*
X67701698Y-83406032D01*
X67640375Y-83439517D01*
X67627903Y-83441571D01*
X67600750Y-83444630D01*
X67430478Y-83504210D01*
X67277737Y-83600184D01*
X67150184Y-83727737D01*
X67054211Y-83880476D01*
X66994631Y-84050745D01*
X66994630Y-84050750D01*
X66974435Y-84229996D01*
X66974435Y-84230003D01*
X66994630Y-84409249D01*
X66994631Y-84409254D01*
X67054211Y-84579523D01*
X67132937Y-84704814D01*
X67150184Y-84732262D01*
X67277738Y-84859816D01*
X67430478Y-84955789D01*
X67522026Y-84987823D01*
X67600745Y-85015368D01*
X67600750Y-85015369D01*
X67779996Y-85035565D01*
X67780000Y-85035565D01*
X67780004Y-85035565D01*
X67959249Y-85015369D01*
X67959252Y-85015368D01*
X67959255Y-85015368D01*
X68129522Y-84955789D01*
X68282262Y-84859816D01*
X68409816Y-84732262D01*
X68505789Y-84579522D01*
X68565368Y-84409255D01*
X68568427Y-84382099D01*
X68595490Y-84317687D01*
X68603956Y-84308310D01*
X69815567Y-83096701D01*
X69885389Y-82992206D01*
X69933482Y-82876098D01*
X69958000Y-82752838D01*
X69958000Y-82627162D01*
X69958000Y-79837162D01*
X69958000Y-79837159D01*
X69957999Y-79837157D01*
X69933482Y-79713902D01*
X69885388Y-79597794D01*
X69885386Y-79597791D01*
X69885384Y-79597787D01*
X69815568Y-79493300D01*
X69796479Y-79474211D01*
X69726701Y-79404433D01*
X69629319Y-79307051D01*
X69595834Y-79245728D01*
X69593000Y-79219370D01*
X69593000Y-75500002D01*
X71300001Y-75500002D01*
X71300001Y-75704198D01*
X71302851Y-75734608D01*
X71347653Y-75862647D01*
X71428207Y-75971794D01*
X71537354Y-76052348D01*
X71665397Y-76097151D01*
X71695792Y-76100001D01*
X71949999Y-76100001D01*
X71950000Y-76100000D01*
X71950000Y-75500002D01*
X71300001Y-75500002D01*
X69593000Y-75500002D01*
X69593000Y-75132191D01*
X69612685Y-75065152D01*
X69629310Y-75044519D01*
X69746993Y-74926835D01*
X69808312Y-74893353D01*
X69820788Y-74891299D01*
X69962209Y-74875365D01*
X69962212Y-74875364D01*
X69962215Y-74875364D01*
X70132482Y-74815785D01*
X70285222Y-74719812D01*
X70412776Y-74592258D01*
X70508749Y-74439518D01*
X70526585Y-74388546D01*
X70567307Y-74331770D01*
X70632259Y-74306022D01*
X70643627Y-74305500D01*
X71353137Y-74305500D01*
X71420176Y-74325185D01*
X71465931Y-74377989D01*
X71475875Y-74447147D01*
X71446850Y-74510703D01*
X71431756Y-74524660D01*
X71428209Y-74528207D01*
X71347653Y-74637356D01*
X71302850Y-74765397D01*
X71302850Y-74765401D01*
X71300000Y-74795795D01*
X71300000Y-75000002D01*
X72326000Y-75000002D01*
X72393039Y-75019687D01*
X72438794Y-75072491D01*
X72450000Y-75124002D01*
X72450000Y-76100001D01*
X72704196Y-76100001D01*
X72734606Y-76097150D01*
X72862645Y-76052348D01*
X72971790Y-75971795D01*
X72975728Y-75966460D01*
X73031375Y-75924209D01*
X73101031Y-75918749D01*
X73162581Y-75951815D01*
X73196484Y-76012908D01*
X73199500Y-76040092D01*
X73199500Y-79587249D01*
X73179815Y-79654288D01*
X73163181Y-79674930D01*
X73117534Y-79720576D01*
X73021561Y-79873315D01*
X72961981Y-80043584D01*
X72961980Y-80043589D01*
X72941785Y-80222835D01*
X72941785Y-80222842D01*
X72961980Y-80402088D01*
X72961981Y-80402093D01*
X73021561Y-80572362D01*
X73093809Y-80687343D01*
X73112809Y-80754580D01*
X73093810Y-80819285D01*
X73074209Y-80850480D01*
X73014633Y-81020737D01*
X73014630Y-81020750D01*
X72994435Y-81199996D01*
X72994435Y-81200003D01*
X73014630Y-81379249D01*
X73014631Y-81379254D01*
X73074211Y-81549523D01*
X73107325Y-81602223D01*
X73170184Y-81702262D01*
X73297738Y-81829816D01*
X73450478Y-81925789D01*
X73563423Y-81965310D01*
X73620745Y-81985368D01*
X73620750Y-81985369D01*
X73799996Y-82005565D01*
X73800000Y-82005565D01*
X73800004Y-82005565D01*
X73979249Y-81985369D01*
X73979252Y-81985368D01*
X73979255Y-81985368D01*
X74149522Y-81925789D01*
X74302262Y-81829816D01*
X74347346Y-81784730D01*
X74367715Y-81769636D01*
X74367139Y-81768774D01*
X74476701Y-81695567D01*
X74895564Y-81276704D01*
X74895567Y-81276701D01*
X74911304Y-81253149D01*
X74964915Y-81208343D01*
X75034240Y-81199634D01*
X75097268Y-81229788D01*
X75102088Y-81234357D01*
X76927606Y-83059874D01*
X76961091Y-83121197D01*
X76963925Y-83147555D01*
X76963925Y-83550037D01*
X76944919Y-83616009D01*
X76876134Y-83725480D01*
X76816558Y-83895736D01*
X76816555Y-83895749D01*
X76796360Y-84074995D01*
X76796360Y-84075002D01*
X76816555Y-84254248D01*
X76816556Y-84254253D01*
X76876136Y-84424522D01*
X76943531Y-84531780D01*
X76972109Y-84577261D01*
X77099663Y-84704815D01*
X77143345Y-84732262D01*
X77244370Y-84795741D01*
X77252403Y-84800788D01*
X77362361Y-84839264D01*
X77422670Y-84860367D01*
X77422675Y-84860368D01*
X77601921Y-84880564D01*
X77601925Y-84880564D01*
X77601929Y-84880564D01*
X77781174Y-84860368D01*
X77781177Y-84860367D01*
X77781180Y-84860367D01*
X77951447Y-84800788D01*
X78104187Y-84704815D01*
X78231741Y-84577261D01*
X78327714Y-84424521D01*
X78387293Y-84254254D01*
X78387294Y-84254248D01*
X78407490Y-84075002D01*
X78407490Y-84074995D01*
X78387294Y-83895749D01*
X78387291Y-83895736D01*
X78327715Y-83725480D01*
X78327714Y-83725477D01*
X78258931Y-83616009D01*
X78239925Y-83550037D01*
X78239925Y-82769084D01*
X78239924Y-82769082D01*
X78215408Y-82645832D01*
X78215405Y-82645821D01*
X78201321Y-82611822D01*
X78201318Y-82611816D01*
X78167314Y-82529720D01*
X78167314Y-82529719D01*
X78097832Y-82425732D01*
X78097496Y-82425228D01*
X78097490Y-82425220D01*
X75754319Y-80082049D01*
X75720834Y-80020726D01*
X75718000Y-79994368D01*
X75718000Y-75500002D01*
X77300001Y-75500002D01*
X77300001Y-75704198D01*
X77302851Y-75734608D01*
X77347653Y-75862647D01*
X77428207Y-75971794D01*
X77537354Y-76052348D01*
X77665397Y-76097151D01*
X77695792Y-76100001D01*
X77949999Y-76100001D01*
X77950000Y-76100000D01*
X77950000Y-75500002D01*
X77300001Y-75500002D01*
X75718000Y-75500002D01*
X75718000Y-75134952D01*
X75737685Y-75067913D01*
X75754310Y-75047280D01*
X75861790Y-74939799D01*
X75923109Y-74906317D01*
X75935571Y-74904265D01*
X75962742Y-74901204D01*
X76133009Y-74841625D01*
X76285749Y-74745652D01*
X76413303Y-74618098D01*
X76509276Y-74465358D01*
X76536154Y-74388544D01*
X76576876Y-74331769D01*
X76641829Y-74306022D01*
X76653196Y-74305500D01*
X77353137Y-74305500D01*
X77420176Y-74325185D01*
X77465931Y-74377989D01*
X77475875Y-74447147D01*
X77446850Y-74510703D01*
X77431756Y-74524660D01*
X77428209Y-74528207D01*
X77347653Y-74637356D01*
X77302850Y-74765397D01*
X77302850Y-74765401D01*
X77300000Y-74795795D01*
X77300000Y-75000002D01*
X78326000Y-75000002D01*
X78393039Y-75019687D01*
X78438794Y-75072491D01*
X78450000Y-75124002D01*
X78450000Y-76100001D01*
X78704196Y-76100001D01*
X78734606Y-76097150D01*
X78862645Y-76052348D01*
X78971792Y-75971794D01*
X79052346Y-75862647D01*
X79097149Y-75734605D01*
X79098670Y-75727644D01*
X79132206Y-75666349D01*
X79193558Y-75632916D01*
X79263245Y-75637959D01*
X79319143Y-75679877D01*
X79343505Y-75745362D01*
X79343814Y-75754104D01*
X79343814Y-85675500D01*
X79324129Y-85742539D01*
X79271325Y-85788294D01*
X79219814Y-85799500D01*
X76002412Y-85799500D01*
X75935373Y-85779815D01*
X75925097Y-85772445D01*
X75922263Y-85770185D01*
X75922262Y-85770184D01*
X75865496Y-85734515D01*
X75769523Y-85674211D01*
X75599254Y-85614631D01*
X75599249Y-85614630D01*
X75420004Y-85594435D01*
X75419996Y-85594435D01*
X75240750Y-85614630D01*
X75240745Y-85614631D01*
X75070476Y-85674211D01*
X74917737Y-85770184D01*
X74790184Y-85897737D01*
X74694210Y-86050478D01*
X74634630Y-86220750D01*
X74626898Y-86289383D01*
X74599832Y-86353797D01*
X74542237Y-86393352D01*
X74503678Y-86399500D01*
X66352290Y-86399500D01*
X66285251Y-86379815D01*
X66247297Y-86341473D01*
X66219817Y-86297739D01*
X66092262Y-86170184D01*
X65939523Y-86074211D01*
X65769254Y-86014631D01*
X65769249Y-86014630D01*
X65590004Y-85994435D01*
X65589996Y-85994435D01*
X65410750Y-86014630D01*
X65410745Y-86014631D01*
X65240476Y-86074211D01*
X65087737Y-86170184D01*
X64960184Y-86297737D01*
X64864210Y-86450478D01*
X64804630Y-86620750D01*
X64796898Y-86689383D01*
X64769832Y-86753797D01*
X64712237Y-86793352D01*
X64673678Y-86799500D01*
X57442412Y-86799500D01*
X57375373Y-86779815D01*
X57365097Y-86772445D01*
X57362263Y-86770185D01*
X57362262Y-86770184D01*
X57305496Y-86734515D01*
X57209523Y-86674211D01*
X57039254Y-86614631D01*
X57039249Y-86614630D01*
X56860004Y-86594435D01*
X56859996Y-86594435D01*
X56680750Y-86614630D01*
X56680745Y-86614631D01*
X56510476Y-86674211D01*
X56357737Y-86770184D01*
X56230184Y-86897737D01*
X56134211Y-87050476D01*
X56074631Y-87220745D01*
X56074630Y-87220750D01*
X56054435Y-87399996D01*
X56054435Y-87400003D01*
X39550500Y-87400003D01*
X39550500Y-72425003D01*
X51144726Y-72425003D01*
X51163808Y-72776955D01*
X51220833Y-73124794D01*
X51220834Y-73124797D01*
X51315126Y-73464409D01*
X51315127Y-73464411D01*
X51445588Y-73791845D01*
X51445597Y-73791863D01*
X51569115Y-74024842D01*
X51610695Y-74103270D01*
X51804116Y-74388545D01*
X51808498Y-74395007D01*
X51808505Y-74395017D01*
X51976044Y-74592258D01*
X52036686Y-74663651D01*
X52292580Y-74906047D01*
X52573182Y-75119355D01*
X52875202Y-75301075D01*
X52875206Y-75301076D01*
X52875210Y-75301079D01*
X53195088Y-75449071D01*
X53195092Y-75449071D01*
X53195099Y-75449075D01*
X53529122Y-75561620D01*
X53873355Y-75637392D01*
X54223763Y-75675501D01*
X54223769Y-75675501D01*
X54576231Y-75675501D01*
X54576237Y-75675501D01*
X54926645Y-75637392D01*
X55270878Y-75561620D01*
X55604901Y-75449075D01*
X55604908Y-75449071D01*
X55604911Y-75449071D01*
X55924789Y-75301079D01*
X55924798Y-75301075D01*
X56226818Y-75119355D01*
X56507420Y-74906047D01*
X56763314Y-74663651D01*
X56991501Y-74395009D01*
X57189305Y-74103270D01*
X57354407Y-73791855D01*
X57484871Y-73464415D01*
X57485496Y-73462166D01*
X57526459Y-73314630D01*
X57579168Y-73124789D01*
X57636191Y-72776958D01*
X57649965Y-72522922D01*
X57655274Y-72425003D01*
X57655274Y-72424998D01*
X57636191Y-72073046D01*
X57629309Y-72031065D01*
X57579168Y-71725213D01*
X57536704Y-71572272D01*
X57484873Y-71385592D01*
X57484872Y-71385590D01*
X57354411Y-71058156D01*
X57354402Y-71058138D01*
X57189304Y-70746731D01*
X56991501Y-70454993D01*
X56991497Y-70454988D01*
X56991494Y-70454984D01*
X56763314Y-70186351D01*
X56507420Y-69943955D01*
X56507413Y-69943949D01*
X56507410Y-69943947D01*
X56226815Y-69730645D01*
X55924802Y-69548929D01*
X55924789Y-69548922D01*
X55604911Y-69400930D01*
X55604906Y-69400929D01*
X55604903Y-69400928D01*
X55604901Y-69400927D01*
X55498432Y-69365053D01*
X55270880Y-69288382D01*
X54926643Y-69212609D01*
X54576238Y-69174501D01*
X54576237Y-69174501D01*
X54223763Y-69174501D01*
X54223761Y-69174501D01*
X53873356Y-69212609D01*
X53529119Y-69288382D01*
X53195093Y-69400929D01*
X53195088Y-69400930D01*
X52875210Y-69548922D01*
X52875197Y-69548929D01*
X52573184Y-69730645D01*
X52292589Y-69943947D01*
X52292580Y-69943955D01*
X52036685Y-70186351D01*
X51808505Y-70454984D01*
X51808498Y-70454994D01*
X51610695Y-70746731D01*
X51445597Y-71058138D01*
X51445588Y-71058156D01*
X51315127Y-71385590D01*
X51315126Y-71385592D01*
X51220834Y-71725204D01*
X51220833Y-71725207D01*
X51163808Y-72073046D01*
X51144726Y-72424998D01*
X51144726Y-72425003D01*
X39550500Y-72425003D01*
X39550500Y-65225002D01*
X51445001Y-65225002D01*
X51464982Y-65568053D01*
X51464983Y-65568064D01*
X51524649Y-65906451D01*
X51524653Y-65906467D01*
X51623208Y-66235667D01*
X51759312Y-66551191D01*
X51759318Y-66551204D01*
X51931131Y-66848792D01*
X51931138Y-66848804D01*
X52136338Y-67124437D01*
X52141517Y-67129925D01*
X52141519Y-67129926D01*
X52606117Y-66665328D01*
X52667058Y-66744748D01*
X52880251Y-66957941D01*
X52959669Y-67018880D01*
X52498308Y-67480241D01*
X52498309Y-67480242D01*
X52635394Y-67595270D01*
X52635402Y-67595276D01*
X52922496Y-67784101D01*
X53229577Y-67938323D01*
X53229583Y-67938326D01*
X53552484Y-68055852D01*
X53552505Y-68055859D01*
X53886854Y-68135102D01*
X53886869Y-68135104D01*
X54228188Y-68174998D01*
X54228189Y-68174999D01*
X54571811Y-68174999D01*
X54571811Y-68174998D01*
X54913130Y-68135104D01*
X54913145Y-68135102D01*
X55247494Y-68055859D01*
X55247515Y-68055852D01*
X55570416Y-67938326D01*
X55570422Y-67938323D01*
X55877503Y-67784101D01*
X56164597Y-67595276D01*
X56164605Y-67595270D01*
X56301689Y-67480242D01*
X56301690Y-67480241D01*
X55840329Y-67018881D01*
X55919749Y-66957941D01*
X56132942Y-66744748D01*
X56193882Y-66665329D01*
X56658478Y-67129925D01*
X56658479Y-67129925D01*
X56663659Y-67124437D01*
X56663661Y-67124435D01*
X56868866Y-66848795D01*
X56868868Y-66848792D01*
X57040681Y-66551204D01*
X57040687Y-66551191D01*
X57176791Y-66235667D01*
X57275346Y-65906467D01*
X57275350Y-65906451D01*
X57335016Y-65568064D01*
X57335017Y-65568053D01*
X57354999Y-65225002D01*
X57354999Y-65224995D01*
X57335017Y-64881944D01*
X57335016Y-64881933D01*
X57275350Y-64543546D01*
X57275346Y-64543530D01*
X57176791Y-64214330D01*
X57040687Y-63898806D01*
X57040681Y-63898793D01*
X56868868Y-63601205D01*
X56868861Y-63601193D01*
X56663673Y-63325577D01*
X56663654Y-63325554D01*
X56658480Y-63320070D01*
X56193881Y-63784668D01*
X56132942Y-63705250D01*
X55919749Y-63492057D01*
X55840329Y-63431116D01*
X56301690Y-62969755D01*
X56301689Y-62969754D01*
X56164605Y-62854727D01*
X56164597Y-62854721D01*
X55877503Y-62665896D01*
X55570422Y-62511674D01*
X55570416Y-62511671D01*
X55247515Y-62394145D01*
X55247494Y-62394138D01*
X54913145Y-62314895D01*
X54913130Y-62314893D01*
X54571811Y-62274999D01*
X54228189Y-62274999D01*
X53886869Y-62314893D01*
X53886854Y-62314895D01*
X53552505Y-62394138D01*
X53552484Y-62394145D01*
X53229583Y-62511671D01*
X53229577Y-62511674D01*
X52922496Y-62665896D01*
X52635403Y-62854721D01*
X52635396Y-62854726D01*
X52498308Y-62969754D01*
X52959670Y-63431116D01*
X52880251Y-63492057D01*
X52667058Y-63705250D01*
X52606117Y-63784668D01*
X52141519Y-63320070D01*
X52141519Y-63320071D01*
X52136334Y-63325567D01*
X52136333Y-63325568D01*
X51931138Y-63601193D01*
X51931131Y-63601205D01*
X51759318Y-63898793D01*
X51759312Y-63898806D01*
X51623208Y-64214330D01*
X51524653Y-64543530D01*
X51524649Y-64543546D01*
X51464983Y-64881933D01*
X51464982Y-64881944D01*
X51445001Y-65224995D01*
X51445001Y-65225002D01*
X39550500Y-65225002D01*
X39550500Y-57127294D01*
X39570185Y-57060255D01*
X39622989Y-57014500D01*
X39692147Y-57004556D01*
X39755703Y-57033581D01*
X39781887Y-57065294D01*
X39889289Y-57251322D01*
X40097967Y-57531625D01*
X40106148Y-57540296D01*
X41105747Y-56540697D01*
X41179588Y-56642330D01*
X41357670Y-56820412D01*
X41459300Y-56894251D01*
X40462818Y-57890733D01*
X40462819Y-57890734D01*
X40605484Y-58010445D01*
X40897461Y-58202480D01*
X41209739Y-58359314D01*
X41209745Y-58359316D01*
X41538130Y-58478838D01*
X41538133Y-58478839D01*
X41878171Y-58559429D01*
X42225276Y-58599999D01*
X42225277Y-58600000D01*
X42574723Y-58600000D01*
X42574723Y-58599999D01*
X42921827Y-58559429D01*
X42921829Y-58559429D01*
X43261866Y-58478839D01*
X43261869Y-58478838D01*
X43590254Y-58359316D01*
X43590260Y-58359314D01*
X43902538Y-58202480D01*
X44194509Y-58010449D01*
X44194510Y-58010448D01*
X44337179Y-57890734D01*
X44337180Y-57890733D01*
X43340698Y-56894251D01*
X43442330Y-56820412D01*
X43620412Y-56642330D01*
X43694251Y-56540698D01*
X44693849Y-57540297D01*
X44693851Y-57540296D01*
X44702022Y-57531636D01*
X44702033Y-57531623D01*
X44910710Y-57251322D01*
X45085438Y-56948683D01*
X45085444Y-56948670D01*
X45223854Y-56627800D01*
X45324083Y-56293011D01*
X45324085Y-56293002D01*
X45384763Y-55948880D01*
X45384764Y-55948869D01*
X45405084Y-55600003D01*
X45405084Y-55599996D01*
X45384764Y-55251130D01*
X45384763Y-55251119D01*
X45324085Y-54906997D01*
X45324083Y-54906988D01*
X45223854Y-54572199D01*
X45085444Y-54251329D01*
X45085438Y-54251316D01*
X44910710Y-53948677D01*
X44702032Y-53668374D01*
X44693850Y-53659702D01*
X43694251Y-54659301D01*
X43620412Y-54557670D01*
X43442330Y-54379588D01*
X43340698Y-54305747D01*
X44337180Y-53309265D01*
X44337179Y-53309264D01*
X44194517Y-53189555D01*
X44177100Y-53178100D01*
X44131907Y-53124814D01*
X44122696Y-53055555D01*
X44152392Y-52992310D01*
X44211567Y-52955160D01*
X44245240Y-52950500D01*
X81554760Y-52950500D01*
X81621799Y-52970185D01*
G37*
%TD.AperFunction*%
%TA.AperFunction,Conductor*%
G36*
X85693849Y-100540296D02*
G01*
X85723699Y-100539863D01*
X85791017Y-100558572D01*
X85837534Y-100610706D01*
X85849500Y-100663850D01*
X85849500Y-101125500D01*
X85829815Y-101192539D01*
X85777011Y-101238294D01*
X85725500Y-101249500D01*
X85245240Y-101249500D01*
X85178201Y-101229815D01*
X85132446Y-101177011D01*
X85122502Y-101107853D01*
X85151527Y-101044297D01*
X85177102Y-101021899D01*
X85194502Y-101010454D01*
X85194510Y-101010448D01*
X85337179Y-100890734D01*
X85337180Y-100890733D01*
X84340698Y-99894251D01*
X84442330Y-99820412D01*
X84620412Y-99642330D01*
X84694251Y-99540698D01*
X85693849Y-100540296D01*
G37*
%TD.AperFunction*%
%TA.AperFunction,Conductor*%
G36*
X40621799Y-52970185D02*
G01*
X40667554Y-53022989D01*
X40677498Y-53092147D01*
X40648473Y-53155703D01*
X40622900Y-53178100D01*
X40605482Y-53189555D01*
X40462819Y-53309264D01*
X40462818Y-53309265D01*
X41459301Y-54305748D01*
X41357670Y-54379588D01*
X41179588Y-54557670D01*
X41105748Y-54659301D01*
X40106148Y-53659701D01*
X40106147Y-53659702D01*
X40097976Y-53668363D01*
X40097972Y-53668368D01*
X39889289Y-53948677D01*
X39781887Y-54134705D01*
X39731320Y-54182921D01*
X39662713Y-54196144D01*
X39597848Y-54170176D01*
X39557320Y-54113262D01*
X39550500Y-54072705D01*
X39550500Y-53074500D01*
X39570185Y-53007461D01*
X39622989Y-52961706D01*
X39674500Y-52950500D01*
X40554760Y-52950500D01*
X40621799Y-52970185D01*
G37*
%TD.AperFunction*%
%TA.AperFunction,Conductor*%
G36*
X85792539Y-52970185D02*
G01*
X85838294Y-53022989D01*
X85849500Y-53074500D01*
X85849500Y-53536148D01*
X85829815Y-53603187D01*
X85777011Y-53648942D01*
X85723699Y-53660135D01*
X85693851Y-53659701D01*
X84694251Y-54659301D01*
X84620412Y-54557670D01*
X84442330Y-54379588D01*
X84340698Y-54305747D01*
X85337180Y-53309265D01*
X85337179Y-53309264D01*
X85194517Y-53189555D01*
X85177100Y-53178100D01*
X85131907Y-53124814D01*
X85122696Y-53055555D01*
X85152392Y-52992310D01*
X85211567Y-52955160D01*
X85245240Y-52950500D01*
X85725500Y-52950500D01*
X85792539Y-52970185D01*
G37*
%TD.AperFunction*%
%TD*%
D22*
X71400000Y-80400000D03*
X63818110Y-74114996D03*
X58515687Y-84182258D03*
X60400000Y-90100000D03*
X70650000Y-92100000D03*
X73400000Y-92100000D03*
X55000000Y-93200000D03*
X63328577Y-86114281D03*
X67780000Y-84230000D03*
X69782960Y-74089996D03*
X75783487Y-74115836D03*
X77601925Y-84074999D03*
X56860000Y-87400000D03*
X65590000Y-86800000D03*
X75420000Y-86400000D03*
X62948331Y-74083212D03*
X62237500Y-80200000D03*
X68600000Y-80200000D03*
X68770000Y-74100000D03*
X73800000Y-81200000D03*
X74900000Y-74090000D03*
X61200000Y-81000000D03*
X62405005Y-59194995D03*
X68600000Y-81523923D03*
X68400000Y-59200000D03*
X74400000Y-59200000D03*
X73747350Y-80222839D03*
D23*
X54400000Y-65224999D03*
X54400000Y-72425001D03*
X71000000Y-68829998D03*
X77000000Y-68829998D03*
X42400000Y-55600000D03*
X63400000Y-94900000D03*
X65400000Y-94900000D03*
X67400000Y-94900000D03*
X69400000Y-94900000D03*
X71400000Y-94900000D03*
X73400000Y-94900000D03*
X75400000Y-94900000D03*
X77400000Y-94900000D03*
X65034997Y-68829998D03*
X42400000Y-98600000D03*
X83400000Y-98600000D03*
X83400000Y-55600000D03*
M02*
