M48
METRIC,TZ
T1C0.100
T2C0.200
T3C0.300
T4C0.900
T5C1.000
T6C3.200
T7C4.500
T8C4.600
%
G90
G05
T1
X156075Y-38405
T2
X170517Y-87355
X171224Y-88062
X171436Y-86436
X171931Y-88769
X172143Y-87143
X172850Y-87850
T3
X137350Y-82400
X137850Y-35450
X137850Y-56350
X137900Y-57450
X138250Y-34400
X138818Y-81118
X139350Y-34400
X139350Y-47000
X139463Y-69200
X139500Y-35500
X139550Y-57450
X139600Y-56300
X139700Y-91700
X140200Y-78450
X142350Y-33750
X142563Y-56050
X142600Y-31200
X142740Y-78463
X144400Y-38400
X144450Y-83150
X144650Y-60900
X144850Y-41250
X144976Y-85920
X145013Y-63500
X146596Y-34861
X146600Y-38000
X146740Y-82663
X146763Y-57100
X146763Y-60300
X146940Y-79529
X148100Y-38500
X148250Y-36200
X148300Y-60775
X148350Y-80900
X148350Y-83150
X148400Y-58550
X151550Y-55538
X151850Y-40750
X152190Y-85413
X152263Y-62600
X152325Y-77650
X154100Y-47000
X154263Y-69200
X154450Y-91650
X155463Y-60700
X156195Y-83056
X157403Y-50803
X157403Y-52103
X157450Y-49550
X157553Y-95453
X157553Y-96753
X157600Y-73100
X157600Y-74400
X157600Y-94200
X157647Y-71847
X158203Y-50803
X158203Y-52103
X158250Y-49550
X158353Y-95453
X158353Y-96753
X158400Y-73100
X158400Y-74400
X158400Y-94200
X158447Y-71847
X159612Y-55742
X159612Y-54142
X159613Y-54942
X159613Y-56542
X160763Y-75850
X160763Y-76650
X160763Y-77450
X160763Y-78250
X160888Y-54150
X160888Y-54950
X160907Y-52581
X161075Y-51275
X162038Y-75850
X162038Y-76650
X162038Y-77450
X162038Y-78250
X164643Y-43557
X167250Y-91750
X168400Y-44600
X168750Y-93250
X170100Y-45600
X171425Y-53275
X171426Y-52374
X171700Y-40250
X171700Y-44800
X171750Y-43550
X173700Y-43400
X174450Y-83750
X174800Y-41050
X174900Y-35550
X176600Y-86600
X176800Y-83200
X179413Y-79350
X180688Y-79326
T4
X175360Y-46390
X175360Y-48430
X175400Y-44350
X177900Y-45370
X177900Y-47410
X177900Y-49450
T5
X177750Y-68385
X177750Y-58225
X177750Y-60765
X177750Y-65845
X177750Y-73465
X177750Y-76005
X177750Y-63305
X177750Y-70925
X180290Y-60765
X180290Y-58225
X180290Y-70925
X180290Y-63305
X180290Y-65845
X180290Y-68385
X180290Y-73465
X180290Y-76005
T6
X114400Y-33100
X114400Y-102100
X183400Y-33100
X183400Y-102100
T7
X164340Y-66600
X169100Y-69350
X169100Y-63850
T8
X122700Y-34600
X129900Y-34600
M30
