M48
; DRILL file {KiCad 8.0.1} date 2024-09-08T16:38:14+0100
; FORMAT={-:-/ absolute / metric / decimal}
; #@! TF.CreationDate,2024-09-08T16:38:14+01:00
; #@! TF.GenerationSoftware,Kicad,Pcbnew,8.0.1
; #@! TF.FileFunction,Plated,1,2,PTH
FMAT,2
METRIC
; #@! TA.AperFunction,Plated,PTH,ComponentDrill
T1C0.200
; #@! TA.AperFunction,Plated,PTH,ViaDrill
T2C0.300
; #@! TA.AperFunction,Plated,PTH,ComponentDrill
T3C0.900
; #@! TA.AperFunction,Plated,PTH,ComponentDrill
T4C1.000
; #@! TA.AperFunction,Plated,PTH,ComponentDrill
T5C3.200
; #@! TA.AperFunction,Plated,PTH,ComponentDrill
T6C4.500
; #@! TA.AperFunction,Plated,PTH,ComponentDrill
T7C4.600
%
G90
G05
T1
X171.228Y-96.042
X171.228Y-94.742
X172.228Y-96.042
X172.228Y-94.742
X173.228Y-96.042
X173.228Y-94.742
T2
X155.65Y-59.1
X156.87Y-90.78
X156.87Y-91.694
X156.87Y-92.761
X156.87Y-93.726
X158.496Y-62.128
X160.02Y-54.102
X160.782Y-63.5
X161.15Y-53.35
X161.544Y-66.142
X161.9Y-92.812
X161.95Y-91.034
X162.865Y-77.521
X162.9Y-73.6
X163.322Y-84.328
X163.322Y-87.722
X163.992Y-74.168
X164.338Y-82.042
X164.592Y-63.195
X164.676Y-69.766
X164.744Y-91.034
X164.846Y-92.812
X165.15Y-53.85
X165.184Y-82.72
X165.192Y-74.168
X165.524Y-68.918
X166.032Y-81.872
X167.132Y-68.072
X167.132Y-78.486
X167.3Y-94.5
X167.8Y-93.875
X168.391Y-81.811
X168.427Y-93.379
X168.91Y-83.82
X168.91Y-74.168
X168.91Y-90.272
X170.15Y-54.6
X170.15Y-63.35
X170.4Y-58.85
X170.434Y-71.374
X172.872Y-97.18
X172.872Y-98.552
X175.15Y-70.6
X175.15Y-78.6
X175.3Y-80.85
X175.613Y-74.063
X175.65Y-86.85
X175.768Y-96.926
X175.768Y-97.892
X175.768Y-99.111
X176.593Y-52.116
X176.9Y-64.6
X183.15Y-78.35
X183.15Y-85.69
X183.642Y-69.858
X183.896Y-51.562
X184.65Y-67.064
X185.921Y-86.621
X186.9Y-73.35
X186.9Y-81.75
X187.15Y-58.6
X187.65Y-62.1
X188.15Y-65.85
X188.15Y-66.6
X188.15Y-67.35
X188.15Y-68.1
X188.15Y-74.85
X188.15Y-75.6
X188.15Y-76.35
X188.15Y-77.1
X188.15Y-83.1
X188.15Y-83.85
X188.15Y-84.6
X188.15Y-85.35
X188.15Y-86.6
X188.65Y-58.6
X189.15Y-62.1
X189.65Y-65.85
X189.65Y-66.6
X189.65Y-67.35
X189.65Y-68.1
X189.65Y-74.85
X189.65Y-75.6
X189.65Y-76.35
X189.65Y-77.1
X189.65Y-83.1
X189.65Y-83.85
X189.65Y-84.6
X189.65Y-85.35
X190.15Y-58.6
X190.65Y-62.1
X191.15Y-65.85
X191.15Y-66.6
X191.15Y-67.35
X191.15Y-68.1
X191.15Y-74.85
X191.15Y-75.6
X191.15Y-76.35
X191.15Y-77.1
X191.15Y-83.1
X191.15Y-83.85
X191.15Y-84.6
X191.15Y-85.35
X191.65Y-58.6
X192.15Y-62.1
X192.65Y-65.85
X192.65Y-66.6
X192.65Y-67.35
X192.65Y-68.1
X192.65Y-74.85
X192.65Y-75.6
X192.65Y-76.35
X192.65Y-77.1
X192.65Y-83.1
X192.65Y-83.85
X192.65Y-84.6
X192.65Y-85.35
X194.9Y-58.6
X195.9Y-58.6
X201.15Y-88.35
X201.93Y-60.96
X204.216Y-81.75
X204.4Y-73.1
X205.232Y-61.35
X205.74Y-65.786
X207.65Y-63.6
X207.9Y-55.6
X210.82Y-90.729
X210.9Y-58.35
X210.922Y-54.508
X211.65Y-51.6
X212.09Y-57.912
X212.496Y-86.36
X212.547Y-85.09
X212.573Y-76.276
X212.598Y-77.572
X212.776Y-68.936
X212.827Y-67.666
X212.9Y-65.85
X213.15Y-82.35
X213.36Y-85.09
X213.36Y-86.36
X213.49Y-74.295
X213.639Y-67.666
X213.639Y-68.936
X213.639Y-76.251
X213.716Y-77.546
X213.868Y-54.343
X214.63Y-61.468
X216.103Y-91.288
X217.932Y-64.008
X218.15Y-80.1
X218.9Y-53.35
X221.488Y-57.912
X221.9Y-62.35
X223.008Y-56.537
X223.266Y-62.716
X223.52Y-64.316
X223.994Y-61.35
X224.536Y-65.278
X224.65Y-62.6
X225.15Y-51.6
X226.4Y-54.35
X226.67Y-55.728
X226.698Y-62.6
X227.15Y-56.85
X227.9Y-62.6
X228.65Y-55.85
X230.632Y-57.658
X231.546Y-51.613
X233.121Y-56.134
X235.052Y-56.134
T3
X158.496Y-55.868
X158.496Y-59.948
X158.496Y-57.908
X160.996Y-60.968
X161.036Y-56.888
X161.036Y-58.928
T4
X154.686Y-75.692
X154.686Y-68.072
X154.686Y-70.612
X154.686Y-78.232
X154.686Y-73.152
X154.686Y-85.852
X154.686Y-80.772
X154.686Y-83.312
X157.226Y-68.072
X157.226Y-80.772
X157.226Y-73.152
X157.226Y-70.612
X157.226Y-78.232
X157.226Y-83.312
X157.226Y-85.852
X157.226Y-75.692
T5
X153.9Y-46.85
X153.9Y-103.6
X235.9Y-46.85
X235.9Y-103.6
T6
X229.199Y-78.742
X231.949Y-73.978
X234.696Y-78.74
T7
X189.694Y-54.356
X196.894Y-54.356
M30
