%TF.GenerationSoftware,KiCad,Pcbnew,8.0.1*%
%TF.CreationDate,2024-09-08T16:38:14+01:00*%
%TF.ProjectId,BaselineRP2040MotorController,42617365-6c69-46e6-9552-50323034304d,rev?*%
%TF.SameCoordinates,Original*%
%TF.FileFunction,Copper,L2,Bot*%
%TF.FilePolarity,Positive*%
%FSLAX46Y46*%
G04 Gerber Fmt 4.6, Leading zero omitted, Abs format (unit mm)*
G04 Created by KiCad (PCBNEW 8.0.1) date 2024-09-08 16:38:14*
%MOMM*%
%LPD*%
G01*
G04 APERTURE LIST*
%TA.AperFunction,ComponentPad*%
%ADD10C,5.200000*%
%TD*%
%TA.AperFunction,ComponentPad*%
%ADD11C,5.500000*%
%TD*%
%TA.AperFunction,ComponentPad*%
%ADD12O,1.500000X1.500000*%
%TD*%
%TA.AperFunction,ComponentPad*%
%ADD13C,3.600000*%
%TD*%
%TA.AperFunction,ConnectorPad*%
%ADD14C,5.600000*%
%TD*%
%TA.AperFunction,HeatsinkPad*%
%ADD15C,0.500000*%
%TD*%
%TA.AperFunction,HeatsinkPad*%
%ADD16R,2.500000X1.800000*%
%TD*%
%TA.AperFunction,ComponentPad*%
%ADD17R,1.700000X1.700000*%
%TD*%
%TA.AperFunction,ComponentPad*%
%ADD18O,1.700000X1.700000*%
%TD*%
%TA.AperFunction,ViaPad*%
%ADD19C,0.600000*%
%TD*%
%TA.AperFunction,Conductor*%
%ADD20C,0.200000*%
%TD*%
%TA.AperFunction,Conductor*%
%ADD21C,0.275000*%
%TD*%
%ADD22C,0.300000*%
%ADD23C,0.350000*%
%ADD24C,0.200000*%
G04 APERTURE END LIST*
D10*
%TO.P,J3,1,Pin_1*%
%TO.N,/BLDC Power Control/Motor Phase U/A_N*%
X231948719Y-73978431D03*
%TO.P,J3,2,Pin_2*%
%TO.N,/BLDC Power Control/Motor Phase V/A_N*%
X229198719Y-78741569D03*
%TO.P,J3,3,Pin_3*%
%TO.N,/BLDC Power Control/Motor Phase X/A_N*%
X234696000Y-78740000D03*
%TD*%
D11*
%TO.P,J4,1,Pin_1*%
%TO.N,GND*%
X189693999Y-54356000D03*
%TO.P,J4,2,Pin_2*%
%TO.N,VMOT_PWR*%
X196894001Y-54356000D03*
%TD*%
D12*
%TO.P,J2,1,Pin_1*%
%TO.N,/Hall Effect Encoders/TH_MOTOR1*%
X160995997Y-60967997D03*
%TO.P,J2,2,Pin_2*%
%TO.N,+3V3*%
X158495997Y-59947999D03*
%TO.P,J2,3,Pin_3*%
%TO.N,/Encoder RX*%
X161035997Y-58928000D03*
%TO.P,J2,4,Pin_4*%
%TO.N,/Encoder CS*%
X158495998Y-57907999D03*
%TO.P,J2,5,Pin_5*%
%TO.N,/Encoder SCK*%
X161035997Y-56887998D03*
%TO.P,J2,6,Pin_6*%
%TO.N,GND*%
X158495996Y-55867997D03*
%TD*%
D13*
%TO.P,H2,1,1*%
%TO.N,GND*%
X235900000Y-103600000D03*
D14*
X235900000Y-103600000D03*
%TD*%
D15*
%TO.P,U13,9,ILIM*%
%TO.N,Net-(R56-Pad1)*%
X172228000Y-96042003D03*
X171228000Y-96042002D03*
X173228000Y-96042001D03*
D16*
X172228001Y-95392001D03*
D15*
X171228002Y-94742001D03*
X173228002Y-94742000D03*
X172228002Y-94741999D03*
%TD*%
D13*
%TO.P,H3,1,1*%
%TO.N,GND*%
X153900000Y-46850000D03*
D14*
X153900000Y-46850000D03*
%TD*%
D17*
%TO.P,J5,1,Pin_1*%
%TO.N,+12V*%
X157225998Y-85851999D03*
D18*
%TO.P,J5,2,Pin_2*%
%TO.N,GND*%
X154685998Y-85851999D03*
%TO.P,J5,3,Pin_3*%
%TO.N,/Encoder CS*%
X157225998Y-83311999D03*
%TO.P,J5,4,Pin_4*%
%TO.N,/Encoder SCK*%
X154686000Y-83312000D03*
%TO.P,J5,5,Pin_5*%
%TO.N,/CurrentSense3*%
X157225995Y-80772000D03*
%TO.P,J5,6,Pin_6*%
%TO.N,/Encoder RX*%
X154685999Y-80772001D03*
%TO.P,J5,7,Pin_7*%
%TO.N,/CurrentSense1*%
X157225998Y-78231999D03*
%TO.P,J5,8,Pin_8*%
%TO.N,/CurrentSense2*%
X154685997Y-78232000D03*
%TO.P,J5,9,Pin_9*%
%TO.N,/PWM H X*%
X157225999Y-75691999D03*
%TO.P,J5,10,Pin_10*%
%TO.N,/PWM L X*%
X154685996Y-75691999D03*
%TO.P,J5,11,Pin_11*%
%TO.N,/PWM H V*%
X157225996Y-73152000D03*
%TO.P,J5,12,Pin_12*%
%TO.N,/PWM L V*%
X154685998Y-73151999D03*
%TO.P,J5,13,Pin_13*%
%TO.N,/PWM H U*%
X157225998Y-70611999D03*
%TO.P,J5,14,Pin_14*%
%TO.N,/PWM L U*%
X154685997Y-70611997D03*
%TO.P,J5,15,Pin_15*%
%TO.N,+3V3*%
X157225995Y-68071997D03*
%TO.P,J5,16,Pin_16*%
%TO.N,GND*%
X154685997Y-68072000D03*
%TD*%
D13*
%TO.P,H4,1,1*%
%TO.N,GND*%
X235900000Y-46850000D03*
D14*
X235900000Y-46850000D03*
%TD*%
D13*
%TO.P,H1,1,1*%
%TO.N,GND*%
X153900000Y-103600000D03*
D14*
X153900000Y-103600000D03*
%TD*%
D19*
%TO.N,+3V3*%
X158496000Y-62128400D03*
X228650000Y-55850000D03*
X210921600Y-54508400D03*
X227150000Y-56850000D03*
X161544000Y-66141600D03*
X176592996Y-52115998D03*
X218900000Y-53350000D03*
X161150000Y-53350000D03*
X155650000Y-59100000D03*
X165150000Y-53850000D03*
X213867998Y-54343002D03*
%TO.N,GND*%
X189650000Y-67350000D03*
X191150000Y-83850000D03*
X191150000Y-77100000D03*
X189650000Y-77100000D03*
X192650000Y-85350000D03*
X191150000Y-83100000D03*
X192150000Y-62100000D03*
X192650000Y-76350000D03*
X189650000Y-65850000D03*
X192650000Y-74850000D03*
X189650000Y-84600000D03*
X212547200Y-85090000D03*
X191150000Y-68100000D03*
X190150000Y-58600000D03*
X191150000Y-67350000D03*
X235051600Y-56134000D03*
X213715600Y-77546200D03*
X188650000Y-58600000D03*
X188150000Y-74850000D03*
X187150000Y-58600000D03*
X188150000Y-68100000D03*
X213639400Y-68935600D03*
X192650000Y-77100000D03*
X189650000Y-83850000D03*
X191150000Y-75600000D03*
X192650000Y-68100000D03*
X216103200Y-91287600D03*
X192650000Y-83850000D03*
X191150000Y-66600000D03*
X191150000Y-76350000D03*
X188150000Y-75600000D03*
X192650000Y-84600000D03*
X164592000Y-63195200D03*
X189650000Y-83100000D03*
X191650000Y-58600000D03*
X213639400Y-67665600D03*
X170400000Y-58850000D03*
X189650000Y-74850000D03*
X225150000Y-51600000D03*
X188150000Y-83850000D03*
X188150000Y-84600000D03*
X188150000Y-77100000D03*
X189650000Y-66600000D03*
X185921000Y-86621000D03*
X226400000Y-54350000D03*
X191150000Y-84600000D03*
X188150000Y-66600000D03*
X188150000Y-85350000D03*
X192650000Y-65850000D03*
X191150000Y-65850000D03*
X190650000Y-62100000D03*
X192650000Y-83100000D03*
X191150000Y-74850000D03*
X212572600Y-76276200D03*
X213360000Y-85090000D03*
X189650000Y-75600000D03*
X213639400Y-76250800D03*
X189650000Y-76350000D03*
X212496400Y-86360000D03*
X212826600Y-67665600D03*
X189150000Y-62100000D03*
X212598000Y-77571600D03*
X226669600Y-55727600D03*
X188150000Y-65850000D03*
X188150000Y-86600000D03*
X231546400Y-51612800D03*
X191150000Y-85350000D03*
X233121200Y-56134000D03*
X170150000Y-54600000D03*
X162900000Y-73600000D03*
X211650000Y-51600000D03*
X162864800Y-77520800D03*
X192650000Y-67350000D03*
X223008413Y-56536571D03*
X192650000Y-66600000D03*
X213360000Y-86360000D03*
X170150000Y-63350000D03*
X210820000Y-90728800D03*
X212775800Y-68935600D03*
X188150000Y-83100000D03*
X189650000Y-85350000D03*
X207900000Y-55600000D03*
X188150000Y-67350000D03*
X192650000Y-75600000D03*
X187650000Y-62100000D03*
X188150000Y-76350000D03*
X189650000Y-68100000D03*
%TO.N,/CurrentSense3*%
X164337997Y-82042000D03*
%TO.N,/PWM H U*%
X164675731Y-69766264D03*
X165524262Y-68917735D03*
%TO.N,/PWM H V*%
X165191997Y-74168000D03*
X163991997Y-74168000D03*
%TO.N,/Encoder RX*%
X160781997Y-63500000D03*
%TO.N,+12V*%
X170434000Y-71374000D03*
X168910000Y-90271600D03*
X168910000Y-74168000D03*
X164744400Y-91033600D03*
X156870400Y-90779600D03*
X167132000Y-78486000D03*
X168390742Y-81811397D03*
X168909997Y-83820000D03*
X167132000Y-68072000D03*
X164846000Y-92811600D03*
X156870400Y-93726000D03*
X161950400Y-91033600D03*
X156870400Y-91694000D03*
X161899600Y-92811600D03*
X156870400Y-92760800D03*
%TO.N,/BLDC Power Control/Motor Phase U/A_P*%
X207650000Y-63600000D03*
X175150000Y-70600000D03*
%TO.N,Net-(U5-VB)*%
X210900000Y-58350000D03*
X176900000Y-64600000D03*
%TO.N,/BLDC Power Control/Motor Phase V/A_P*%
X175150000Y-78600000D03*
X218150000Y-80100000D03*
%TO.N,Net-(U7-VB)*%
X221900000Y-62350000D03*
X175612751Y-74062751D03*
%TO.N,/BLDC Power Control/Motor Phase X/A_P*%
X175650000Y-86850000D03*
X201150000Y-88350000D03*
%TO.N,Net-(U9-VB)*%
X175300000Y-80850000D03*
X224650000Y-62600000D03*
X226698000Y-62600000D03*
X227900000Y-62600000D03*
%TO.N,VMOT*%
X175768000Y-96926400D03*
X175768000Y-97891600D03*
X175768000Y-99110800D03*
X172872400Y-98552000D03*
X172872400Y-97180400D03*
%TO.N,/BLDC Power Control/Motor Phase U/A_N*%
X217932000Y-64008000D03*
X224536000Y-65278000D03*
%TO.N,/BLDC Power Control/Motor Phase V/A_N*%
X223520000Y-64316000D03*
X223266000Y-62716000D03*
%TO.N,/Encoder SCK*%
X160019997Y-54102000D03*
%TO.N,Net-(AH1-G)*%
X205740005Y-65786001D03*
X184650000Y-67064000D03*
%TO.N,Net-(AH2-G)*%
X186900000Y-73350000D03*
X204400000Y-73100000D03*
%TO.N,Net-(AH3-G)*%
X204216000Y-81750000D03*
X186900000Y-81750000D03*
%TO.N,Net-(AL1-G)*%
X212900000Y-65850000D03*
X183642002Y-69857998D03*
%TO.N,Net-(AL2-G)*%
X213490002Y-74295000D03*
X183150000Y-78350000D03*
%TO.N,Net-(AL3-G)*%
X213150000Y-82350000D03*
X183150000Y-85689998D03*
%TO.N,/PWM L X*%
X165183732Y-82720265D03*
X166032262Y-81871735D03*
%TO.N,Net-(R4-Pad1)*%
X168426940Y-93378668D03*
X212090000Y-57912000D03*
%TO.N,Net-(R5-Pad1)*%
X167799758Y-93875303D03*
X221488000Y-57912000D03*
%TO.N,Net-(R6-Pad1)*%
X163322000Y-84328000D03*
X230632000Y-57658000D03*
X163322000Y-87722000D03*
X167300000Y-94500000D03*
%TO.N,VMOT_PWR*%
X214630000Y-61468000D03*
X205232000Y-61350146D03*
X195900000Y-58600000D03*
X194900000Y-58600000D03*
X223993963Y-61350146D03*
X201930000Y-60960000D03*
X183896000Y-51562000D03*
%TD*%
D20*
%TO.N,Net-(R4-Pad1)*%
X224882000Y-58512000D02*
X212690000Y-58512000D01*
X212690000Y-58512000D02*
X212090000Y-57912000D01*
X225298000Y-58928000D02*
X224882000Y-58512000D01*
X225298000Y-78936314D02*
X225298000Y-58928000D01*
X210842313Y-93392001D02*
X225298000Y-78936314D01*
X168648272Y-93600000D02*
X170138632Y-93600000D01*
X168426940Y-93378668D02*
X168648272Y-93600000D01*
X170138632Y-93600000D02*
X170346631Y-93392001D01*
X170346631Y-93392001D02*
X210842313Y-93392001D01*
%TO.N,Net-(R5-Pad1)*%
X211007998Y-93792001D02*
X225698000Y-79101999D01*
X225698000Y-79101999D02*
X225698000Y-78994000D01*
X170512316Y-93792001D02*
X211007998Y-93792001D01*
X170204316Y-94100000D02*
X170512316Y-93792001D01*
X168024455Y-94100000D02*
X170204316Y-94100000D01*
X167799758Y-93875303D02*
X168024455Y-94100000D01*
%TO.N,Net-(R6-Pad1)*%
X230378000Y-57912000D02*
X230632000Y-57658000D01*
X226098000Y-58128000D02*
X226314000Y-57912000D01*
X226314000Y-57912000D02*
X230378000Y-57912000D01*
X170678001Y-94192001D02*
X211173683Y-94192001D01*
X167400000Y-94600000D02*
X170270002Y-94600000D01*
X170270002Y-94600000D02*
X170678001Y-94192001D01*
X167300000Y-94500000D02*
X167400000Y-94600000D01*
X226098000Y-79267684D02*
X226098000Y-58128000D01*
X211173683Y-94192001D02*
X226098000Y-79267684D01*
%TO.N,+3V3*%
X210921600Y-54508400D02*
X213766400Y-54508400D01*
X176650000Y-52058994D02*
X176592996Y-52115998D01*
X161544000Y-66141600D02*
X161544000Y-66192400D01*
X212400000Y-53030000D02*
X212400000Y-50600000D01*
X227150000Y-56850000D02*
X227650000Y-56850000D01*
X210921600Y-54508400D02*
X212400000Y-53030000D01*
X212018001Y-50218001D02*
X177650000Y-50218000D01*
X159664403Y-68071997D02*
X157225995Y-68071997D01*
X213867998Y-54343002D02*
X217906998Y-54343002D01*
X165150000Y-52100000D02*
X167032000Y-50218000D01*
X158495997Y-59947999D02*
X155997999Y-59947999D01*
X155997999Y-59947999D02*
X155650000Y-59600000D01*
X158496000Y-62128400D02*
X158496000Y-66801992D01*
X161150000Y-53350000D02*
X161650000Y-53850000D01*
X217906998Y-54343002D02*
X218900000Y-53350000D01*
X213867998Y-54406802D02*
X213867998Y-54343002D01*
X213766400Y-54508400D02*
X213867998Y-54406802D01*
X227650000Y-56850000D02*
X228650000Y-55850000D01*
X161650000Y-53850000D02*
X165150000Y-53850000D01*
X212400000Y-50600000D02*
X212018001Y-50218001D01*
X161544000Y-66192400D02*
X159664403Y-68071997D01*
X158496000Y-66801992D02*
X157225995Y-68071997D01*
X165150000Y-53850000D02*
X165150000Y-52100000D01*
X176650000Y-51218000D02*
X176650000Y-52058994D01*
X155650000Y-59600000D02*
X155650000Y-59100000D01*
X177650000Y-50218000D02*
X176650000Y-51218000D01*
X167032000Y-50218000D02*
X177650000Y-50218000D01*
%TO.N,GND*%
X185921000Y-86621000D02*
X185942000Y-86600000D01*
X211650000Y-51850000D02*
X211650000Y-51600000D01*
X226669600Y-55727600D02*
X227025200Y-55727600D01*
X231140000Y-51612800D02*
X231546400Y-51612800D01*
X185942000Y-86600000D02*
X188150000Y-86600000D01*
X233121200Y-56134000D02*
X235051600Y-56134000D01*
X226400000Y-54350000D02*
X225150000Y-53100000D01*
X207900000Y-55600000D02*
X211650000Y-51850000D01*
X227025200Y-55727600D02*
X231140000Y-51612800D01*
X225150000Y-53100000D02*
X225150000Y-51600000D01*
%TO.N,/CurrentSense3*%
X158495995Y-82042000D02*
X164337997Y-82042000D01*
X157225995Y-80772000D02*
X158495995Y-82042000D01*
%TO.N,/PWM H U*%
X165524262Y-68917735D02*
X164675733Y-69766264D01*
X164675733Y-69766264D02*
X164675731Y-69766264D01*
%TO.N,/PWM H V*%
X163991997Y-74168000D02*
X165191997Y-74168000D01*
%TO.N,/Encoder RX*%
X162045997Y-59938000D02*
X162045997Y-62236000D01*
X153535997Y-62872000D02*
X155295597Y-61112400D01*
X158851597Y-61112400D02*
X161035997Y-58928000D01*
X153535997Y-79621999D02*
X153535997Y-62872000D01*
X162045997Y-62236000D02*
X160781997Y-63500000D01*
X155295597Y-61112400D02*
X158851597Y-61112400D01*
X161035997Y-58928000D02*
X162045997Y-59938000D01*
X154685999Y-80772001D02*
X153535997Y-79621999D01*
%TO.N,/BLDC Power Control/Motor Phase U/A_P*%
X183294946Y-59750000D02*
X199871473Y-59750000D01*
X175150000Y-70600000D02*
X175650000Y-70100000D01*
X182442003Y-60602943D02*
X183294946Y-59750000D01*
X202971473Y-62850000D02*
X206900000Y-62850000D01*
X206900000Y-62850000D02*
X207650000Y-63600000D01*
X175650000Y-70100000D02*
X175650000Y-67968628D01*
X199871473Y-59750000D02*
X202971473Y-62850000D01*
X182442002Y-61176626D02*
X182442003Y-60602943D01*
X175650000Y-67968628D02*
X182442002Y-61176626D01*
%TO.N,Net-(U5-VB)*%
X209900000Y-59350000D02*
X210900000Y-58350000D01*
X177952942Y-65100000D02*
X182042002Y-61010940D01*
X182042002Y-61010940D02*
X182042003Y-60437257D01*
X177400000Y-65100000D02*
X177952942Y-65100000D01*
X182042003Y-60437257D02*
X183129260Y-59350000D01*
X176900000Y-64600000D02*
X177400000Y-65100000D01*
X183129260Y-59350000D02*
X209900000Y-59350000D01*
%TO.N,/BLDC Power Control/Motor Phase V/A_P*%
X174900000Y-78850000D02*
X175900000Y-79850000D01*
X175900000Y-81098529D02*
X174900000Y-82098529D01*
X175150000Y-78600000D02*
X174900000Y-78850000D01*
X174900000Y-91350000D02*
X176447157Y-92897157D01*
X210102843Y-92897157D02*
X218150000Y-84850000D01*
X176447157Y-92897157D02*
X210102843Y-92897157D01*
X175900000Y-79850000D02*
X175900000Y-81098529D01*
X218150000Y-84850000D02*
X218150000Y-80100000D01*
X174900000Y-82098529D02*
X174900000Y-91350000D01*
%TO.N,Net-(U7-VB)*%
X207050000Y-63565686D02*
X207050000Y-63848529D01*
X176150000Y-73525502D02*
X176150000Y-68034314D01*
X183460631Y-60150000D02*
X199705788Y-60150000D01*
X209150000Y-62350000D02*
X221900000Y-62350000D01*
X182842002Y-60768629D02*
X183460631Y-60150000D01*
X176150000Y-68034314D02*
X182842002Y-61342312D01*
X208550000Y-64200000D02*
X208900000Y-63850000D01*
X208900000Y-63850000D02*
X208900000Y-62600000D01*
X208900000Y-62600000D02*
X209150000Y-62350000D01*
X182842002Y-61342312D02*
X182842002Y-60768629D01*
X207050000Y-63848529D02*
X207401471Y-64200000D01*
X199705788Y-60150000D02*
X202805788Y-63250000D01*
X202805788Y-63250000D02*
X206734314Y-63250000D01*
X207401471Y-64200000D02*
X208550000Y-64200000D01*
X175612751Y-74062751D02*
X176150000Y-73525502D01*
X206734314Y-63250000D02*
X207050000Y-63565686D01*
%TO.N,/BLDC Power Control/Motor Phase X/A_P*%
X175650000Y-86850000D02*
X177150000Y-88350000D01*
X177150000Y-88350000D02*
X201150000Y-88350000D01*
%TO.N,Net-(U9-VB)*%
X221651471Y-62950000D02*
X222183471Y-62950000D01*
X224650000Y-62600000D02*
X224525000Y-62475000D01*
X207235786Y-64600000D02*
X208715686Y-64600000D01*
X183626317Y-60550000D02*
X199540103Y-60550000D01*
X183242002Y-60934315D02*
X183626317Y-60550000D01*
X175300000Y-80850000D02*
X174400000Y-79950000D01*
X222183471Y-62950000D02*
X223017471Y-62116000D01*
X223017471Y-62116000D02*
X224166000Y-62116000D01*
X209300000Y-62950000D02*
X209500000Y-62750000D01*
X224166000Y-62116000D02*
X224650000Y-62600000D01*
X176650000Y-68100000D02*
X183242002Y-61507998D01*
X176650000Y-74600000D02*
X176650000Y-68100000D01*
X226698000Y-62600000D02*
X227900000Y-62600000D01*
X208715686Y-64600000D02*
X209300000Y-64015685D01*
X174400000Y-79950000D02*
X174400000Y-76850000D01*
X209300000Y-64015685D02*
X209300000Y-62950000D01*
X209500000Y-62750000D02*
X221451471Y-62750000D01*
X174400000Y-76850000D02*
X176650000Y-74600000D01*
X221451471Y-62750000D02*
X221651471Y-62950000D01*
X183242002Y-61507998D02*
X183242002Y-60934315D01*
X202640103Y-63650000D02*
X206568628Y-63650000D01*
X206650000Y-64014215D02*
X207235786Y-64600000D01*
X199540103Y-60550000D02*
X202640103Y-63650000D01*
X206650000Y-63731372D02*
X206650000Y-64014215D01*
X206568628Y-63650000D02*
X206650000Y-63731372D01*
%TO.N,/BLDC Power Control/Motor Phase U/A_N*%
X219202000Y-65278000D02*
X224536000Y-65278000D01*
X217932000Y-64008000D02*
X219202000Y-65278000D01*
%TO.N,/BLDC Power Control/Motor Phase V/A_N*%
X223266000Y-64262000D02*
X223320000Y-64316000D01*
X223266000Y-62716000D02*
X223266000Y-64262000D01*
X223320000Y-64316000D02*
X223520000Y-64316000D01*
%TO.N,/Encoder CS*%
X152907997Y-80620345D02*
X152907997Y-62541686D01*
X157225998Y-83311999D02*
X155835997Y-81921998D01*
X155835997Y-81921998D02*
X154209650Y-81921998D01*
X152907997Y-62541686D02*
X154577997Y-60871686D01*
X154209650Y-81921998D02*
X152907997Y-80620345D01*
X154577997Y-58172003D02*
X154842001Y-57907999D01*
X154577997Y-60871686D02*
X154577997Y-58172003D01*
X154842001Y-57907999D02*
X158495998Y-57907999D01*
%TO.N,/Encoder SCK*%
X152399997Y-80678030D02*
X156183966Y-84461999D01*
X161035997Y-56887998D02*
X161035997Y-55118000D01*
X161035997Y-55118000D02*
X160019997Y-54102000D01*
X154177997Y-55822003D02*
X154177997Y-60706000D01*
X161035997Y-56887998D02*
X158965996Y-54817997D01*
X155182003Y-54817997D02*
X154177997Y-55822003D01*
X154177997Y-60706000D02*
X152399997Y-62484000D01*
X156183966Y-84461999D02*
X155835999Y-84461999D01*
X152399997Y-62484000D02*
X152399997Y-80678030D01*
X158965996Y-54817997D02*
X155182003Y-54817997D01*
X155835999Y-84461999D02*
X154686000Y-83312000D01*
%TO.N,Net-(AH1-G)*%
X184042002Y-66456002D02*
X184042002Y-61350000D01*
X184650000Y-67064000D02*
X184042002Y-66456002D01*
X184042002Y-61350000D02*
X199208733Y-61350000D01*
X199208733Y-61350000D02*
X202308733Y-64450000D01*
X205650000Y-64450000D02*
X205650000Y-65695996D01*
X202308733Y-64450000D02*
X205650000Y-64450000D01*
X205650000Y-65695996D02*
X205740005Y-65786001D01*
D21*
%TO.N,Net-(AH2-G)*%
X204150000Y-73350000D02*
X204400000Y-73100000D01*
X186900000Y-73350000D02*
X204150000Y-73350000D01*
%TO.N,Net-(AH3-G)*%
X186900000Y-81750000D02*
X204216000Y-81750000D01*
D20*
%TO.N,Net-(AL1-G)*%
X183642002Y-69857998D02*
X183642002Y-61100001D01*
X206250001Y-64179901D02*
X207070101Y-65000000D01*
X212050000Y-65000000D02*
X212900000Y-65850000D01*
X183642002Y-61100001D02*
X183792003Y-60950000D01*
X183792003Y-60950000D02*
X199374418Y-60950000D01*
X199374418Y-60950000D02*
X202474418Y-64050000D01*
X207070101Y-65000000D02*
X212050000Y-65000000D01*
X202474418Y-64050000D02*
X206250000Y-64050000D01*
X206250000Y-64050000D02*
X206250001Y-64179901D01*
%TO.N,Net-(AL2-G)*%
X187650000Y-73850000D02*
X212900000Y-73850000D01*
X183150000Y-78350000D02*
X187650000Y-73850000D01*
X213345000Y-74295000D02*
X213490002Y-74295000D01*
X212900000Y-73850000D02*
X213345000Y-74295000D01*
%TO.N,Net-(AL3-G)*%
X183150000Y-85689998D02*
X186489998Y-82350000D01*
X186489998Y-82350000D02*
X213150000Y-82350000D01*
%TO.N,/PWM L X*%
X166032262Y-81871735D02*
X165183732Y-82720265D01*
%TO.N,Net-(R5-Pad1)*%
X225698000Y-58312000D02*
X225298000Y-57912000D01*
X225298000Y-57912000D02*
X221488000Y-57912000D01*
X225698000Y-78994000D02*
X225698000Y-78740000D01*
X225698000Y-78994000D02*
X225698000Y-58312000D01*
%TO.N,Net-(R6-Pad1)*%
X163322000Y-84328000D02*
X163322000Y-87722000D01*
%TO.N,VMOT_PWR*%
X202320146Y-61350146D02*
X202184000Y-61214000D01*
X184108000Y-51350000D02*
X183896000Y-51562000D01*
X193844001Y-51306000D02*
X184194000Y-51306000D01*
X202184000Y-61214000D02*
X201930000Y-60960000D01*
X184150000Y-51350000D02*
X184108000Y-51350000D01*
X223993963Y-61350146D02*
X205232000Y-61350146D01*
X184194000Y-51306000D02*
X184150000Y-51350000D01*
X205232000Y-61350146D02*
X202320146Y-61350146D01*
X196894001Y-54356000D02*
X193844001Y-51306000D01*
%TD*%
%TA.AperFunction,Conductor*%
%TO.N,GND*%
G36*
X198975675Y-61970185D02*
G01*
X198996317Y-61986819D01*
X201823872Y-64814374D01*
X201823882Y-64814385D01*
X201828212Y-64818715D01*
X201828213Y-64818716D01*
X201881097Y-64871600D01*
X187604400Y-64871600D01*
X187604400Y-70612000D01*
X187960000Y-70967600D01*
X214071200Y-70967600D01*
X214680800Y-70358000D01*
X214680800Y-64871600D01*
X212770835Y-64871600D01*
X212537590Y-64638355D01*
X212537588Y-64638352D01*
X212418717Y-64519481D01*
X212418716Y-64519480D01*
X212331904Y-64469360D01*
X212331904Y-64469359D01*
X212331900Y-64469358D01*
X212281785Y-64440423D01*
X212129057Y-64399499D01*
X211970943Y-64399499D01*
X211963347Y-64399499D01*
X211963331Y-64399500D01*
X209980440Y-64399500D01*
X209913401Y-64379815D01*
X209867646Y-64327011D01*
X209857702Y-64257853D01*
X209860661Y-64243420D01*
X209900500Y-64094742D01*
X209900500Y-63936627D01*
X209900500Y-63474500D01*
X209920185Y-63407461D01*
X209972989Y-63361706D01*
X210024500Y-63350500D01*
X217175365Y-63350500D01*
X217242404Y-63370185D01*
X217288159Y-63422989D01*
X217298103Y-63492147D01*
X217280359Y-63540472D01*
X217206211Y-63658476D01*
X217146631Y-63828745D01*
X217146630Y-63828750D01*
X217126435Y-64007996D01*
X217126435Y-64008003D01*
X217146630Y-64187249D01*
X217146631Y-64187254D01*
X217206211Y-64357523D01*
X217278416Y-64472435D01*
X217302184Y-64510262D01*
X217429738Y-64637816D01*
X217582478Y-64733789D01*
X217752745Y-64793368D01*
X217839669Y-64803161D01*
X217904080Y-64830226D01*
X217913465Y-64838700D01*
X218717139Y-65642374D01*
X218717149Y-65642385D01*
X218721479Y-65646715D01*
X218721480Y-65646716D01*
X218833284Y-65758520D01*
X218833286Y-65758521D01*
X218833290Y-65758524D01*
X218891406Y-65792077D01*
X218891411Y-65792079D01*
X218970209Y-65837574D01*
X218970210Y-65837574D01*
X218970215Y-65837577D01*
X219122942Y-65878500D01*
X219122943Y-65878500D01*
X223953588Y-65878500D01*
X224020627Y-65898185D01*
X224030903Y-65905555D01*
X224033736Y-65907814D01*
X224033738Y-65907816D01*
X224186478Y-66003789D01*
X224259253Y-66029254D01*
X224356745Y-66063368D01*
X224356750Y-66063369D01*
X224535996Y-66083565D01*
X224536000Y-66083565D01*
X224536001Y-66083565D01*
X224545039Y-66082546D01*
X224559615Y-66080904D01*
X224628437Y-66092958D01*
X224679817Y-66140306D01*
X224697500Y-66204124D01*
X224697500Y-78636216D01*
X224677815Y-78703255D01*
X224661181Y-78723897D01*
X218962181Y-84422897D01*
X218900858Y-84456382D01*
X218831166Y-84451398D01*
X218775233Y-84409526D01*
X218750816Y-84344062D01*
X218750500Y-84335216D01*
X218750500Y-80682412D01*
X218770185Y-80615373D01*
X218777555Y-80605097D01*
X218779810Y-80602267D01*
X218779816Y-80602262D01*
X218875789Y-80449522D01*
X218935368Y-80279255D01*
X218955565Y-80100000D01*
X218954908Y-80094172D01*
X218935369Y-79920750D01*
X218935368Y-79920745D01*
X218926209Y-79894569D01*
X218875789Y-79750478D01*
X218865125Y-79733507D01*
X218792679Y-79618209D01*
X218779816Y-79597738D01*
X218652262Y-79470184D01*
X218628097Y-79455000D01*
X218499523Y-79374211D01*
X218329254Y-79314631D01*
X218329249Y-79314630D01*
X218150004Y-79294435D01*
X218149996Y-79294435D01*
X217970750Y-79314630D01*
X217970745Y-79314631D01*
X217800476Y-79374211D01*
X217647737Y-79470184D01*
X217520184Y-79597737D01*
X217424211Y-79750476D01*
X217364631Y-79920745D01*
X217364630Y-79920750D01*
X217344435Y-80099996D01*
X217344435Y-80100003D01*
X217364630Y-80279249D01*
X217364631Y-80279254D01*
X217424211Y-80449523D01*
X217478917Y-80536586D01*
X217518117Y-80598973D01*
X217520185Y-80602263D01*
X217522445Y-80605097D01*
X217523334Y-80607275D01*
X217523889Y-80608158D01*
X217523734Y-80608255D01*
X217548855Y-80669783D01*
X217549500Y-80682412D01*
X217549500Y-84549902D01*
X217529815Y-84616941D01*
X217513181Y-84637583D01*
X209890427Y-92260338D01*
X209829104Y-92293823D01*
X209802746Y-92296657D01*
X176747254Y-92296657D01*
X176680215Y-92276972D01*
X176659573Y-92260338D01*
X175536819Y-91137584D01*
X175503334Y-91076261D01*
X175500500Y-91049903D01*
X175500500Y-87849097D01*
X175520185Y-87782058D01*
X175572989Y-87736303D01*
X175642147Y-87726359D01*
X175705703Y-87755384D01*
X175712181Y-87761416D01*
X176665139Y-88714374D01*
X176665149Y-88714385D01*
X176669479Y-88718715D01*
X176669480Y-88718716D01*
X176781284Y-88830520D01*
X176781286Y-88830521D01*
X176781290Y-88830524D01*
X176843051Y-88866181D01*
X176918216Y-88909577D01*
X177030019Y-88939534D01*
X177070942Y-88950500D01*
X177070943Y-88950500D01*
X200567588Y-88950500D01*
X200634627Y-88970185D01*
X200644903Y-88977555D01*
X200647736Y-88979814D01*
X200647738Y-88979816D01*
X200800478Y-89075789D01*
X200970745Y-89135368D01*
X200970750Y-89135369D01*
X201149996Y-89155565D01*
X201150000Y-89155565D01*
X201150004Y-89155565D01*
X201329249Y-89135369D01*
X201329252Y-89135368D01*
X201329255Y-89135368D01*
X201499522Y-89075789D01*
X201652262Y-88979816D01*
X201779816Y-88852262D01*
X201875789Y-88699522D01*
X201935368Y-88529255D01*
X201935369Y-88529249D01*
X201950833Y-88392000D01*
X213664800Y-88392000D01*
X214274400Y-87782400D01*
X214274400Y-82296000D01*
X213949481Y-82296000D01*
X213935369Y-82170750D01*
X213935368Y-82170745D01*
X213875788Y-82000476D01*
X213825375Y-81920245D01*
X213779816Y-81847738D01*
X213652262Y-81720184D01*
X213650600Y-81719140D01*
X213499523Y-81624211D01*
X213329254Y-81564631D01*
X213329249Y-81564630D01*
X213150004Y-81544435D01*
X213149996Y-81544435D01*
X212970750Y-81564630D01*
X212970745Y-81564631D01*
X212800476Y-81624211D01*
X212647736Y-81720185D01*
X212644903Y-81722445D01*
X212642724Y-81723334D01*
X212641842Y-81723889D01*
X212641744Y-81723734D01*
X212580217Y-81748855D01*
X212567588Y-81749500D01*
X205132322Y-81749500D01*
X205065283Y-81729815D01*
X205019528Y-81677011D01*
X205009102Y-81639383D01*
X205001369Y-81570750D01*
X205001368Y-81570748D01*
X205001368Y-81570745D01*
X204941789Y-81400478D01*
X204845816Y-81247738D01*
X204718262Y-81120184D01*
X204705237Y-81112000D01*
X204565523Y-81024211D01*
X204395254Y-80964631D01*
X204395249Y-80964630D01*
X204216004Y-80944435D01*
X204215996Y-80944435D01*
X204036750Y-80964630D01*
X204036745Y-80964631D01*
X203866477Y-81024211D01*
X203757011Y-81092994D01*
X203691039Y-81112000D01*
X187424961Y-81112000D01*
X187358989Y-81092994D01*
X187350907Y-81087916D01*
X187249522Y-81024211D01*
X187235976Y-81019471D01*
X187079254Y-80964631D01*
X187079249Y-80964630D01*
X186900004Y-80944435D01*
X186899996Y-80944435D01*
X186720750Y-80964630D01*
X186720745Y-80964631D01*
X186550476Y-81024211D01*
X186397737Y-81120184D01*
X186270184Y-81247737D01*
X186174211Y-81400476D01*
X186114631Y-81570745D01*
X186114630Y-81570750D01*
X186094435Y-81749996D01*
X186094435Y-81750002D01*
X186102566Y-81822169D01*
X186090511Y-81890991D01*
X186067028Y-81923732D01*
X186009478Y-81981283D01*
X186009476Y-81981286D01*
X183131465Y-84859296D01*
X183070142Y-84892781D01*
X183057668Y-84894835D01*
X182970750Y-84904628D01*
X182800478Y-84964208D01*
X182647737Y-85060182D01*
X182520184Y-85187735D01*
X182424211Y-85340474D01*
X182364631Y-85510743D01*
X182364630Y-85510748D01*
X182344435Y-85689994D01*
X182344435Y-85690001D01*
X182364630Y-85869247D01*
X182364631Y-85869252D01*
X182424211Y-86039521D01*
X182463469Y-86101999D01*
X182520184Y-86192260D01*
X182647738Y-86319814D01*
X182800478Y-86415787D01*
X182970745Y-86475366D01*
X182970750Y-86475367D01*
X183149996Y-86495563D01*
X183150000Y-86495563D01*
X183150004Y-86495563D01*
X183329249Y-86475367D01*
X183329252Y-86475366D01*
X183329255Y-86475366D01*
X183499522Y-86415787D01*
X183652262Y-86319814D01*
X183779816Y-86192260D01*
X183875789Y-86039520D01*
X183935368Y-85869253D01*
X183945161Y-85782327D01*
X183972226Y-85717916D01*
X183980690Y-85708541D01*
X186702414Y-82986819D01*
X186763737Y-82953334D01*
X186790095Y-82950500D01*
X187198000Y-82950500D01*
X187198000Y-87749500D01*
X177450097Y-87749500D01*
X177383058Y-87729815D01*
X177362416Y-87713181D01*
X176480700Y-86831465D01*
X176447215Y-86770142D01*
X176445163Y-86757686D01*
X176435368Y-86670745D01*
X176375789Y-86500478D01*
X176279816Y-86347738D01*
X176152262Y-86220184D01*
X176147690Y-86217311D01*
X175999523Y-86124211D01*
X175829254Y-86064631D01*
X175829249Y-86064630D01*
X175650004Y-86044435D01*
X175650001Y-86044435D01*
X175650000Y-86044435D01*
X175645975Y-86044888D01*
X175638380Y-86045744D01*
X175569558Y-86033687D01*
X175518180Y-85986336D01*
X175500500Y-85922523D01*
X175500500Y-82398626D01*
X175520185Y-82331587D01*
X175536819Y-82310945D01*
X175927519Y-81920245D01*
X176380520Y-81467245D01*
X176459577Y-81330313D01*
X176500501Y-81177586D01*
X176500501Y-81019471D01*
X176500501Y-81011876D01*
X176500500Y-81011858D01*
X176500500Y-79939060D01*
X176500501Y-79939047D01*
X176500501Y-79770944D01*
X176495017Y-79750478D01*
X176459577Y-79618216D01*
X176441470Y-79586853D01*
X176380524Y-79481290D01*
X176380518Y-79481282D01*
X175923876Y-79024640D01*
X175890391Y-78963317D01*
X175894516Y-78896004D01*
X175935366Y-78779262D01*
X175935369Y-78779249D01*
X175955565Y-78600003D01*
X175955565Y-78599996D01*
X175935369Y-78420750D01*
X175935368Y-78420745D01*
X175927834Y-78399215D01*
X175910614Y-78350003D01*
X182344435Y-78350003D01*
X182364630Y-78529249D01*
X182364631Y-78529254D01*
X182424211Y-78699523D01*
X182474315Y-78779262D01*
X182520184Y-78852262D01*
X182647738Y-78979816D01*
X182800478Y-79075789D01*
X182970745Y-79135368D01*
X182970750Y-79135369D01*
X183149996Y-79155565D01*
X183150000Y-79155565D01*
X183150004Y-79155565D01*
X183329249Y-79135369D01*
X183329252Y-79135368D01*
X183329255Y-79135368D01*
X183499522Y-79075789D01*
X183652262Y-78979816D01*
X183779816Y-78852262D01*
X183875789Y-78699522D01*
X183935368Y-78529255D01*
X183945161Y-78442329D01*
X183972226Y-78377918D01*
X183980690Y-78368543D01*
X187553600Y-74795634D01*
X187553600Y-78994000D01*
X187909200Y-79349600D01*
X214020400Y-79349600D01*
X214630000Y-78740000D01*
X214630000Y-73253600D01*
X212994362Y-73253600D01*
X212979057Y-73249499D01*
X212820943Y-73249499D01*
X212813347Y-73249499D01*
X212813331Y-73249500D01*
X205327476Y-73249500D01*
X205260437Y-73229815D01*
X205214682Y-73177011D01*
X205204256Y-73111614D01*
X205205565Y-73099998D01*
X205205565Y-73099996D01*
X205185369Y-72920750D01*
X205185368Y-72920745D01*
X205125788Y-72750476D01*
X205029818Y-72597741D01*
X205029816Y-72597738D01*
X204902262Y-72470184D01*
X204895853Y-72466157D01*
X204749523Y-72374211D01*
X204579254Y-72314631D01*
X204579249Y-72314630D01*
X204400004Y-72294435D01*
X204399996Y-72294435D01*
X204220750Y-72314630D01*
X204220745Y-72314631D01*
X204050476Y-72374211D01*
X203897737Y-72470184D01*
X203770182Y-72597739D01*
X203770181Y-72597741D01*
X203734848Y-72653973D01*
X203682514Y-72700263D01*
X203629855Y-72712000D01*
X187424961Y-72712000D01*
X187358989Y-72692994D01*
X187351577Y-72688337D01*
X187249522Y-72624211D01*
X187079254Y-72564631D01*
X187079249Y-72564630D01*
X186900004Y-72544435D01*
X186899996Y-72544435D01*
X186720750Y-72564630D01*
X186720745Y-72564631D01*
X186550476Y-72624211D01*
X186397737Y-72720184D01*
X186270184Y-72847737D01*
X186174211Y-73000476D01*
X186114631Y-73170745D01*
X186114630Y-73170750D01*
X186094435Y-73349996D01*
X186094435Y-73350003D01*
X186114630Y-73529249D01*
X186114631Y-73529254D01*
X186174211Y-73699523D01*
X186261123Y-73837842D01*
X186270184Y-73852262D01*
X186397738Y-73979816D01*
X186433864Y-74002516D01*
X186480155Y-74054849D01*
X186490804Y-74123903D01*
X186462429Y-74187751D01*
X186455573Y-74195190D01*
X183131465Y-77519298D01*
X183070142Y-77552783D01*
X183057668Y-77554837D01*
X182970750Y-77564630D01*
X182800478Y-77624210D01*
X182647737Y-77720184D01*
X182520184Y-77847737D01*
X182424211Y-78000476D01*
X182364631Y-78170745D01*
X182364630Y-78170750D01*
X182344435Y-78349996D01*
X182344435Y-78350003D01*
X175910614Y-78350003D01*
X175875789Y-78250478D01*
X175864692Y-78232818D01*
X175836582Y-78188080D01*
X175779816Y-78097738D01*
X175652262Y-77970184D01*
X175499523Y-77874211D01*
X175329254Y-77814631D01*
X175329249Y-77814630D01*
X175150004Y-77794435D01*
X175150001Y-77794435D01*
X175150000Y-77794435D01*
X175145975Y-77794888D01*
X175138380Y-77795744D01*
X175069558Y-77783687D01*
X175018180Y-77736336D01*
X175000500Y-77672523D01*
X175000500Y-77150097D01*
X175020185Y-77083058D01*
X175036819Y-77062416D01*
X175988640Y-76110595D01*
X177130520Y-74968716D01*
X177209577Y-74831784D01*
X177250501Y-74679057D01*
X177250501Y-74520942D01*
X177250501Y-74513347D01*
X177250500Y-74513329D01*
X177250500Y-68400097D01*
X177270185Y-68333058D01*
X177286819Y-68312416D01*
X182829821Y-62769414D01*
X182891144Y-62735929D01*
X182960836Y-62740913D01*
X183016769Y-62782785D01*
X183041186Y-62848249D01*
X183041502Y-62857095D01*
X183041502Y-69275585D01*
X183021817Y-69342624D01*
X183014452Y-69352894D01*
X183012188Y-69355732D01*
X182916213Y-69508474D01*
X182856633Y-69678743D01*
X182856632Y-69678748D01*
X182836437Y-69857994D01*
X182836437Y-69858001D01*
X182856632Y-70037247D01*
X182856633Y-70037252D01*
X182916213Y-70207521D01*
X183012186Y-70360260D01*
X183139740Y-70487814D01*
X183292480Y-70583787D01*
X183462747Y-70643366D01*
X183462752Y-70643367D01*
X183641998Y-70663563D01*
X183642002Y-70663563D01*
X183642006Y-70663563D01*
X183821251Y-70643367D01*
X183821254Y-70643366D01*
X183821257Y-70643366D01*
X183991524Y-70583787D01*
X184144264Y-70487814D01*
X184271818Y-70360260D01*
X184367791Y-70207520D01*
X184427370Y-70037253D01*
X184437707Y-69945513D01*
X184447567Y-69858001D01*
X184447567Y-69857994D01*
X184427371Y-69678748D01*
X184427370Y-69678743D01*
X184415046Y-69643524D01*
X184367791Y-69508476D01*
X184271818Y-69355736D01*
X184271816Y-69355734D01*
X184271815Y-69355732D01*
X184269552Y-69352894D01*
X184268661Y-69350713D01*
X184268113Y-69349840D01*
X184268266Y-69349743D01*
X184243146Y-69288207D01*
X184242502Y-69275585D01*
X184242502Y-67944264D01*
X184262187Y-67877225D01*
X184314991Y-67831470D01*
X184384149Y-67821526D01*
X184407457Y-67827223D01*
X184470737Y-67849366D01*
X184470743Y-67849367D01*
X184470745Y-67849368D01*
X184470746Y-67849368D01*
X184470750Y-67849369D01*
X184649996Y-67869565D01*
X184650000Y-67869565D01*
X184650004Y-67869565D01*
X184829249Y-67849369D01*
X184829252Y-67849368D01*
X184829255Y-67849368D01*
X184999522Y-67789789D01*
X185152262Y-67693816D01*
X185279816Y-67566262D01*
X185375789Y-67413522D01*
X185435368Y-67243255D01*
X185439652Y-67205236D01*
X185455565Y-67064003D01*
X185455565Y-67063996D01*
X185435369Y-66884750D01*
X185435368Y-66884745D01*
X185429295Y-66867389D01*
X185375789Y-66714478D01*
X185279816Y-66561738D01*
X185152262Y-66434184D01*
X185123030Y-66415816D01*
X184999521Y-66338210D01*
X184829249Y-66278630D01*
X184752618Y-66269996D01*
X184688204Y-66242929D01*
X184648649Y-66185334D01*
X184642502Y-66146776D01*
X184642502Y-62074500D01*
X184662187Y-62007461D01*
X184714991Y-61961706D01*
X184766502Y-61950500D01*
X198908636Y-61950500D01*
X198975675Y-61970185D01*
G37*
%TD.AperFunction*%
%TA.AperFunction,Conductor*%
G36*
X157685574Y-61732585D02*
G01*
X157731329Y-61785389D01*
X157741273Y-61854547D01*
X157735577Y-61877854D01*
X157710632Y-61949142D01*
X157710630Y-61949150D01*
X157690435Y-62128396D01*
X157690435Y-62128403D01*
X157710630Y-62307649D01*
X157710631Y-62307653D01*
X157770211Y-62477923D01*
X157866185Y-62630663D01*
X157868445Y-62633497D01*
X157869334Y-62635675D01*
X157869889Y-62636558D01*
X157869734Y-62636655D01*
X157894855Y-62698183D01*
X157895500Y-62710812D01*
X157895500Y-66501894D01*
X157875815Y-66568933D01*
X157859181Y-66589576D01*
X157709525Y-66739231D01*
X157648202Y-66772715D01*
X157589751Y-66771324D01*
X157461408Y-66736935D01*
X157461398Y-66736933D01*
X157225996Y-66716338D01*
X157225994Y-66716338D01*
X156990591Y-66736933D01*
X156990581Y-66736935D01*
X156762339Y-66798091D01*
X156762330Y-66798095D01*
X156548166Y-66897961D01*
X156548164Y-66897962D01*
X156354592Y-67033502D01*
X156187500Y-67200594D01*
X156051960Y-67394166D01*
X156051959Y-67394168D01*
X155952093Y-67608332D01*
X155952089Y-67608341D01*
X155890933Y-67836583D01*
X155890931Y-67836593D01*
X155870336Y-68071996D01*
X155870336Y-68071997D01*
X155890931Y-68307400D01*
X155890933Y-68307410D01*
X155952089Y-68535652D01*
X155952091Y-68535656D01*
X155952092Y-68535660D01*
X156015901Y-68672498D01*
X156051960Y-68749827D01*
X156051962Y-68749831D01*
X156104879Y-68825403D01*
X156184857Y-68939624D01*
X156187496Y-68943392D01*
X156187501Y-68943399D01*
X156354592Y-69110490D01*
X156354598Y-69110495D01*
X156540156Y-69240424D01*
X156583781Y-69295001D01*
X156590975Y-69364499D01*
X156559452Y-69426854D01*
X156540156Y-69443574D01*
X156354595Y-69573504D01*
X156187506Y-69740593D01*
X156057572Y-69926158D01*
X156002995Y-69969783D01*
X155933496Y-69976975D01*
X155871142Y-69945453D01*
X155854423Y-69926158D01*
X155724492Y-69740596D01*
X155557398Y-69573502D01*
X155518518Y-69546278D01*
X155363831Y-69437964D01*
X155363827Y-69437962D01*
X155325301Y-69419997D01*
X155149660Y-69338094D01*
X155149656Y-69338093D01*
X155149652Y-69338091D01*
X154921410Y-69276935D01*
X154921400Y-69276933D01*
X154685998Y-69256338D01*
X154685996Y-69256338D01*
X154450593Y-69276933D01*
X154450580Y-69276936D01*
X154292589Y-69319268D01*
X154222739Y-69317605D01*
X154164877Y-69278442D01*
X154137374Y-69214213D01*
X154136497Y-69199493D01*
X154136497Y-69062362D01*
X154156182Y-68995323D01*
X154208986Y-68949568D01*
X154278144Y-68939624D01*
X154315010Y-68951712D01*
X154315057Y-68951601D01*
X154316519Y-68952206D01*
X154318951Y-68953004D01*
X154320686Y-68953931D01*
X154435997Y-68988910D01*
X154435997Y-68505012D01*
X154493004Y-68537925D01*
X154620171Y-68572000D01*
X154751823Y-68572000D01*
X154878990Y-68537925D01*
X154935997Y-68505012D01*
X154935997Y-68988910D01*
X155051309Y-68953931D01*
X155216337Y-68865721D01*
X155216344Y-68865716D01*
X155360999Y-68747002D01*
X155479713Y-68602347D01*
X155479718Y-68602340D01*
X155567928Y-68437312D01*
X155602908Y-68322000D01*
X155119009Y-68322000D01*
X155151922Y-68264993D01*
X155185997Y-68137826D01*
X155185997Y-68006174D01*
X155151922Y-67879007D01*
X155119009Y-67822000D01*
X155602908Y-67822000D01*
X155567928Y-67706687D01*
X155479718Y-67541659D01*
X155479713Y-67541652D01*
X155360999Y-67396997D01*
X155216344Y-67278283D01*
X155216337Y-67278278D01*
X155051306Y-67190067D01*
X154935997Y-67155087D01*
X154935997Y-67638988D01*
X154878990Y-67606075D01*
X154751823Y-67572000D01*
X154620171Y-67572000D01*
X154493004Y-67606075D01*
X154435997Y-67638988D01*
X154435997Y-67155087D01*
X154320685Y-67190067D01*
X154320684Y-67190068D01*
X154318939Y-67191001D01*
X154317920Y-67191212D01*
X154315057Y-67192399D01*
X154314831Y-67191855D01*
X154250535Y-67205236D01*
X154185294Y-67180229D01*
X154143929Y-67123920D01*
X154136497Y-67081637D01*
X154136497Y-64528220D01*
X154795496Y-64528220D01*
X154829981Y-64745951D01*
X154898099Y-64955602D01*
X154898100Y-64955605D01*
X154956483Y-65070185D01*
X154984010Y-65124210D01*
X154998183Y-65152024D01*
X155127748Y-65330357D01*
X155127752Y-65330362D01*
X155283632Y-65486242D01*
X155283637Y-65486246D01*
X155384570Y-65559577D01*
X155461974Y-65615814D01*
X155569781Y-65670745D01*
X155658389Y-65715894D01*
X155658392Y-65715895D01*
X155754107Y-65746994D01*
X155868045Y-65784014D01*
X156085774Y-65818499D01*
X156085775Y-65818499D01*
X156306217Y-65818499D01*
X156306218Y-65818499D01*
X156523947Y-65784014D01*
X156733602Y-65715894D01*
X156930018Y-65615814D01*
X157108361Y-65486241D01*
X157264238Y-65330364D01*
X157393811Y-65152021D01*
X157493891Y-64955605D01*
X157562011Y-64745950D01*
X157596496Y-64528221D01*
X157596496Y-64307777D01*
X157562011Y-64090048D01*
X157512162Y-63936627D01*
X157493892Y-63880395D01*
X157493891Y-63880392D01*
X157450093Y-63794435D01*
X157393811Y-63683977D01*
X157327228Y-63592333D01*
X157264243Y-63505640D01*
X157264239Y-63505635D01*
X157108359Y-63349755D01*
X157108354Y-63349751D01*
X156930020Y-63220185D01*
X156733602Y-63120103D01*
X156733599Y-63120102D01*
X156523948Y-63051984D01*
X156415082Y-63034741D01*
X156306218Y-63017499D01*
X156085774Y-63017499D01*
X156013197Y-63028994D01*
X155868043Y-63051984D01*
X155658392Y-63120102D01*
X155658389Y-63120103D01*
X155461972Y-63220185D01*
X155283637Y-63349751D01*
X155283632Y-63349755D01*
X155127752Y-63505635D01*
X155127748Y-63505640D01*
X154998183Y-63683973D01*
X154898100Y-63880392D01*
X154898099Y-63880395D01*
X154829981Y-64090046D01*
X154795496Y-64307777D01*
X154795496Y-64528220D01*
X154136497Y-64528220D01*
X154136497Y-63172097D01*
X154156182Y-63105058D01*
X154172816Y-63084416D01*
X155508013Y-61749219D01*
X155569336Y-61715734D01*
X155595694Y-61712900D01*
X157618535Y-61712900D01*
X157685574Y-61732585D01*
G37*
%TD.AperFunction*%
%TA.AperFunction,Conductor*%
G36*
X157644672Y-55438182D02*
G01*
X157690427Y-55490986D01*
X157700371Y-55560144D01*
X157695564Y-55580815D01*
X157683483Y-55617996D01*
X157683483Y-55617997D01*
X158120718Y-55617997D01*
X158076663Y-55694303D01*
X158045996Y-55808753D01*
X158045996Y-55927241D01*
X158076663Y-56041691D01*
X158120718Y-56117997D01*
X157683483Y-56117997D01*
X157715202Y-56215621D01*
X157715205Y-56215627D01*
X157804541Y-56370362D01*
X157804545Y-56370367D01*
X157924101Y-56503149D01*
X157924103Y-56503151D01*
X157998381Y-56557117D01*
X158041047Y-56612447D01*
X158047026Y-56682060D01*
X158014420Y-56743855D01*
X157977901Y-56769817D01*
X157868359Y-56820897D01*
X157868355Y-56820899D01*
X157689119Y-56946401D01*
X157534400Y-57101120D01*
X157426918Y-57254622D01*
X157372341Y-57298247D01*
X157325343Y-57307499D01*
X154928670Y-57307499D01*
X154928654Y-57307498D01*
X154921058Y-57307498D01*
X154902497Y-57307498D01*
X154835458Y-57287813D01*
X154789703Y-57235009D01*
X154778497Y-57183498D01*
X154778497Y-56122100D01*
X154798182Y-56055061D01*
X154814816Y-56034419D01*
X155394419Y-55454816D01*
X155455742Y-55421331D01*
X155482100Y-55418497D01*
X157577633Y-55418497D01*
X157644672Y-55438182D01*
G37*
%TD.AperFunction*%
%TA.AperFunction,Conductor*%
G36*
X234456859Y-44120185D02*
G01*
X234502614Y-44172989D01*
X234512558Y-44242147D01*
X234483533Y-44305703D01*
X234450184Y-44331643D01*
X234450661Y-44332469D01*
X234447539Y-44334270D01*
X234165302Y-44519901D01*
X234033799Y-44630245D01*
X234033799Y-44630246D01*
X234959301Y-45555748D01*
X234857670Y-45629588D01*
X234679588Y-45807670D01*
X234605748Y-45909300D01*
X233676889Y-44980441D01*
X233676888Y-44980442D01*
X233674708Y-44982753D01*
X233674705Y-44982757D01*
X233472979Y-45253721D01*
X233304075Y-45546272D01*
X233304069Y-45546285D01*
X233170273Y-45856459D01*
X233073385Y-46180088D01*
X233073383Y-46180097D01*
X233014728Y-46512748D01*
X233014727Y-46512759D01*
X232995085Y-46849996D01*
X232995085Y-46850003D01*
X233014727Y-47187240D01*
X233014728Y-47187251D01*
X233073383Y-47519902D01*
X233073385Y-47519911D01*
X233170273Y-47843540D01*
X233304069Y-48153714D01*
X233304075Y-48153727D01*
X233472979Y-48446278D01*
X233674705Y-48717241D01*
X233676889Y-48719556D01*
X234605747Y-47790698D01*
X234679588Y-47892330D01*
X234857670Y-48070412D01*
X234959300Y-48144250D01*
X234033798Y-49069752D01*
X234033799Y-49069753D01*
X234165301Y-49180097D01*
X234447545Y-49365731D01*
X234749414Y-49517336D01*
X234749420Y-49517339D01*
X235066848Y-49632873D01*
X235066869Y-49632880D01*
X235395551Y-49710780D01*
X235395566Y-49710782D01*
X235731100Y-49749999D01*
X235731101Y-49750000D01*
X236068899Y-49750000D01*
X236068899Y-49749999D01*
X236404433Y-49710782D01*
X236404448Y-49710780D01*
X236733130Y-49632880D01*
X236733151Y-49632873D01*
X237050579Y-49517339D01*
X237050585Y-49517336D01*
X237352454Y-49365731D01*
X237634692Y-49180101D01*
X237634693Y-49180100D01*
X237766199Y-49069753D01*
X237766200Y-49069752D01*
X236840698Y-48144251D01*
X236942330Y-48070412D01*
X237120412Y-47892330D01*
X237194251Y-47790698D01*
X238123109Y-48719556D01*
X238125299Y-48717235D01*
X238327020Y-48446278D01*
X238418113Y-48288500D01*
X238468679Y-48240285D01*
X238537286Y-48227061D01*
X238602151Y-48253029D01*
X238642680Y-48309943D01*
X238649500Y-48350500D01*
X238649500Y-102099499D01*
X238629815Y-102166538D01*
X238577011Y-102212293D01*
X238507853Y-102222237D01*
X238444297Y-102193212D01*
X238418113Y-102161499D01*
X238327020Y-102003721D01*
X238125291Y-101732753D01*
X238123110Y-101730442D01*
X238123109Y-101730441D01*
X237194250Y-102659300D01*
X237120412Y-102557670D01*
X236942330Y-102379588D01*
X236840698Y-102305748D01*
X237766200Y-101380246D01*
X237766199Y-101380245D01*
X237634698Y-101269902D01*
X237352454Y-101084268D01*
X237050585Y-100932663D01*
X237050579Y-100932660D01*
X236733151Y-100817126D01*
X236733130Y-100817119D01*
X236404448Y-100739219D01*
X236404433Y-100739217D01*
X236068899Y-100700000D01*
X235731101Y-100700000D01*
X235395566Y-100739217D01*
X235395551Y-100739219D01*
X235066869Y-100817119D01*
X235066848Y-100817126D01*
X234749420Y-100932660D01*
X234749414Y-100932663D01*
X234447538Y-101084271D01*
X234165302Y-101269901D01*
X234033799Y-101380245D01*
X234033799Y-101380246D01*
X234959301Y-102305748D01*
X234857670Y-102379588D01*
X234679588Y-102557670D01*
X234605748Y-102659300D01*
X233676889Y-101730441D01*
X233676888Y-101730442D01*
X233674708Y-101732753D01*
X233674705Y-101732757D01*
X233472979Y-102003721D01*
X233304075Y-102296272D01*
X233304069Y-102296285D01*
X233170273Y-102606459D01*
X233073385Y-102930088D01*
X233073383Y-102930097D01*
X233014728Y-103262748D01*
X233014727Y-103262759D01*
X232995085Y-103599996D01*
X232995085Y-103600003D01*
X233014727Y-103937240D01*
X233014728Y-103937251D01*
X233073383Y-104269902D01*
X233073385Y-104269911D01*
X233170273Y-104593540D01*
X233304069Y-104903714D01*
X233304075Y-104903727D01*
X233472979Y-105196278D01*
X233674705Y-105467241D01*
X233676889Y-105469556D01*
X234605747Y-104540698D01*
X234679588Y-104642330D01*
X234857670Y-104820412D01*
X234959300Y-104894250D01*
X234033798Y-105819752D01*
X234033799Y-105819753D01*
X234165301Y-105930097D01*
X234447551Y-106115736D01*
X234450661Y-106117531D01*
X234449909Y-106118833D01*
X234496543Y-106162363D01*
X234513735Y-106230085D01*
X234491585Y-106296351D01*
X234437126Y-106340122D01*
X234389820Y-106349500D01*
X155410180Y-106349500D01*
X155343141Y-106329815D01*
X155297386Y-106277011D01*
X155287442Y-106207853D01*
X155316467Y-106144297D01*
X155349815Y-106118356D01*
X155349339Y-106117531D01*
X155352448Y-106115736D01*
X155634692Y-105930101D01*
X155634693Y-105930100D01*
X155766199Y-105819753D01*
X155766200Y-105819752D01*
X154840698Y-104894251D01*
X154942330Y-104820412D01*
X155120412Y-104642330D01*
X155194251Y-104540698D01*
X156123109Y-105469556D01*
X156125299Y-105467235D01*
X156327020Y-105196278D01*
X156495924Y-104903727D01*
X156495930Y-104903714D01*
X156629726Y-104593540D01*
X156726614Y-104269911D01*
X156726616Y-104269902D01*
X156785271Y-103937251D01*
X156785272Y-103937240D01*
X156804915Y-103600003D01*
X156804915Y-103599996D01*
X156785272Y-103262759D01*
X156785271Y-103262748D01*
X156726616Y-102930097D01*
X156726614Y-102930088D01*
X156629726Y-102606459D01*
X156495930Y-102296285D01*
X156495924Y-102296272D01*
X156327020Y-102003721D01*
X156125291Y-101732753D01*
X156123110Y-101730442D01*
X156123109Y-101730441D01*
X155194250Y-102659300D01*
X155120412Y-102557670D01*
X154942330Y-102379588D01*
X154840698Y-102305748D01*
X155766200Y-101380246D01*
X155766199Y-101380245D01*
X155634698Y-101269902D01*
X155352454Y-101084268D01*
X155050585Y-100932663D01*
X155050579Y-100932660D01*
X154733151Y-100817126D01*
X154733130Y-100817119D01*
X154404448Y-100739219D01*
X154404433Y-100739217D01*
X154068899Y-100700000D01*
X153731101Y-100700000D01*
X153395566Y-100739217D01*
X153395551Y-100739219D01*
X153066869Y-100817119D01*
X153066848Y-100817126D01*
X152749420Y-100932660D01*
X152749414Y-100932663D01*
X152447538Y-101084271D01*
X152165302Y-101269901D01*
X152033799Y-101380245D01*
X152033799Y-101380246D01*
X152959301Y-102305748D01*
X152857670Y-102379588D01*
X152679588Y-102557670D01*
X152605748Y-102659301D01*
X151676889Y-101730441D01*
X151676888Y-101730442D01*
X151674708Y-101732753D01*
X151674705Y-101732757D01*
X151472979Y-102003721D01*
X151381887Y-102161499D01*
X151331320Y-102209715D01*
X151262713Y-102222938D01*
X151197848Y-102196970D01*
X151157320Y-102140056D01*
X151150500Y-102099499D01*
X151150500Y-87722003D01*
X162516435Y-87722003D01*
X162536630Y-87901249D01*
X162536631Y-87901254D01*
X162596211Y-88071523D01*
X162658557Y-88170745D01*
X162692184Y-88224262D01*
X162819738Y-88351816D01*
X162972478Y-88447789D01*
X163142745Y-88507368D01*
X163142750Y-88507369D01*
X163321996Y-88527565D01*
X163322000Y-88527565D01*
X163322004Y-88527565D01*
X163501249Y-88507369D01*
X163501252Y-88507368D01*
X163501255Y-88507368D01*
X163671522Y-88447789D01*
X163824262Y-88351816D01*
X163951816Y-88224262D01*
X164047789Y-88071522D01*
X164107368Y-87901255D01*
X164124467Y-87749500D01*
X164127565Y-87722003D01*
X164127565Y-87721996D01*
X164107369Y-87542750D01*
X164107368Y-87542745D01*
X164047788Y-87372476D01*
X163951813Y-87219734D01*
X163949550Y-87216896D01*
X163948659Y-87214715D01*
X163948111Y-87213842D01*
X163948264Y-87213745D01*
X163923144Y-87152209D01*
X163922500Y-87139587D01*
X163922500Y-84910412D01*
X163942185Y-84843373D01*
X163949555Y-84833097D01*
X163951810Y-84830267D01*
X163951816Y-84830262D01*
X164047789Y-84677522D01*
X164107368Y-84507255D01*
X164109759Y-84486034D01*
X164127565Y-84328003D01*
X164127565Y-84327996D01*
X164107369Y-84148750D01*
X164107368Y-84148745D01*
X164047789Y-83978478D01*
X163951816Y-83825738D01*
X163824262Y-83698184D01*
X163671523Y-83602211D01*
X163501254Y-83542631D01*
X163501249Y-83542630D01*
X163322004Y-83522435D01*
X163321996Y-83522435D01*
X163142750Y-83542630D01*
X163142745Y-83542631D01*
X162972476Y-83602211D01*
X162819737Y-83698184D01*
X162692184Y-83825737D01*
X162596211Y-83978476D01*
X162536631Y-84148745D01*
X162536630Y-84148750D01*
X162516435Y-84327996D01*
X162516435Y-84328003D01*
X162536630Y-84507249D01*
X162536631Y-84507254D01*
X162596211Y-84677523D01*
X162647824Y-84759663D01*
X162689747Y-84826384D01*
X162692185Y-84830263D01*
X162694445Y-84833097D01*
X162695334Y-84835275D01*
X162695889Y-84836158D01*
X162695734Y-84836255D01*
X162720855Y-84897783D01*
X162721500Y-84910412D01*
X162721500Y-87139587D01*
X162701815Y-87206626D01*
X162694450Y-87216896D01*
X162692186Y-87219734D01*
X162596211Y-87372476D01*
X162536631Y-87542745D01*
X162536630Y-87542750D01*
X162516435Y-87721996D01*
X162516435Y-87722003D01*
X151150500Y-87722003D01*
X151150500Y-80757084D01*
X151799495Y-80757084D01*
X151799496Y-80757087D01*
X151829358Y-80868533D01*
X151840421Y-80909817D01*
X151855444Y-80935837D01*
X151855445Y-80935839D01*
X151919474Y-81046742D01*
X151919478Y-81046747D01*
X152038346Y-81165615D01*
X152038352Y-81165620D01*
X153448959Y-82576227D01*
X153482444Y-82637550D01*
X153477460Y-82707242D01*
X153473660Y-82716312D01*
X153412099Y-82848330D01*
X153412094Y-82848344D01*
X153350938Y-83076586D01*
X153350936Y-83076596D01*
X153330341Y-83311999D01*
X153330341Y-83312000D01*
X153350936Y-83547403D01*
X153350938Y-83547413D01*
X153412094Y-83775655D01*
X153412096Y-83775659D01*
X153412097Y-83775663D01*
X153506671Y-83978476D01*
X153511965Y-83989830D01*
X153511967Y-83989834D01*
X153620281Y-84144521D01*
X153647505Y-84183401D01*
X153814599Y-84350495D01*
X153898904Y-84409526D01*
X154008165Y-84486032D01*
X154008167Y-84486033D01*
X154008170Y-84486035D01*
X154222337Y-84585903D01*
X154450592Y-84647063D01*
X154638918Y-84663539D01*
X154685999Y-84667659D01*
X154686000Y-84667659D01*
X154686001Y-84667659D01*
X154725234Y-84664226D01*
X154921408Y-84647063D01*
X155049757Y-84612672D01*
X155119606Y-84614335D01*
X155169531Y-84644766D01*
X155351138Y-84826373D01*
X155351148Y-84826384D01*
X155355478Y-84830714D01*
X155355479Y-84830715D01*
X155467283Y-84942519D01*
X155554094Y-84992638D01*
X155554096Y-84992640D01*
X155592150Y-85014610D01*
X155604214Y-85021576D01*
X155756942Y-85062499D01*
X155756950Y-85062499D01*
X155765002Y-85063560D01*
X155764633Y-85066356D01*
X155818537Y-85082184D01*
X155864292Y-85134988D01*
X155875498Y-85186499D01*
X155875498Y-85712931D01*
X155855813Y-85779970D01*
X155803009Y-85825725D01*
X155733851Y-85835669D01*
X155670295Y-85806644D01*
X155632521Y-85747866D01*
X155628095Y-85725084D01*
X155622253Y-85665769D01*
X155567928Y-85486685D01*
X155479719Y-85321658D01*
X155479714Y-85321651D01*
X155361000Y-85176996D01*
X155216345Y-85058282D01*
X155216338Y-85058277D01*
X155051307Y-84970066D01*
X154935998Y-84935086D01*
X154935998Y-85418987D01*
X154878991Y-85386074D01*
X154751824Y-85351999D01*
X154620172Y-85351999D01*
X154493005Y-85386074D01*
X154435998Y-85418987D01*
X154435998Y-84935086D01*
X154320688Y-84970066D01*
X154155657Y-85058277D01*
X154155650Y-85058282D01*
X154010995Y-85176996D01*
X153892281Y-85321651D01*
X153892276Y-85321658D01*
X153804066Y-85486686D01*
X153769087Y-85601999D01*
X154252986Y-85601999D01*
X154220073Y-85659006D01*
X154185998Y-85786173D01*
X154185998Y-85917825D01*
X154220073Y-86044992D01*
X154252986Y-86101999D01*
X153769087Y-86101999D01*
X153804066Y-86217311D01*
X153892276Y-86382339D01*
X153892281Y-86382346D01*
X154010995Y-86527001D01*
X154155650Y-86645715D01*
X154155657Y-86645720D01*
X154320685Y-86733930D01*
X154435998Y-86768909D01*
X154435998Y-86285011D01*
X154493005Y-86317924D01*
X154620172Y-86351999D01*
X154751824Y-86351999D01*
X154878991Y-86317924D01*
X154935998Y-86285011D01*
X154935998Y-86768909D01*
X155051310Y-86733930D01*
X155216338Y-86645720D01*
X155216345Y-86645715D01*
X155361000Y-86527001D01*
X155479714Y-86382346D01*
X155479719Y-86382339D01*
X155567928Y-86217312D01*
X155622253Y-86038229D01*
X155628095Y-85978911D01*
X155654255Y-85914124D01*
X155711289Y-85873764D01*
X155781089Y-85870647D01*
X155841494Y-85905761D01*
X155873326Y-85967958D01*
X155875498Y-85991064D01*
X155875498Y-86749869D01*
X155875499Y-86749875D01*
X155881906Y-86809482D01*
X155932200Y-86944327D01*
X155932204Y-86944334D01*
X156018450Y-87059543D01*
X156018453Y-87059546D01*
X156133662Y-87145792D01*
X156133669Y-87145796D01*
X156268515Y-87196090D01*
X156268514Y-87196090D01*
X156275442Y-87196834D01*
X156328125Y-87202499D01*
X158123870Y-87202498D01*
X158183481Y-87196090D01*
X158318329Y-87145795D01*
X158433544Y-87059545D01*
X158519794Y-86944330D01*
X158570089Y-86809482D01*
X158576498Y-86749872D01*
X158576497Y-84954127D01*
X158570089Y-84894516D01*
X158568396Y-84889978D01*
X158519795Y-84759670D01*
X158519791Y-84759663D01*
X158433545Y-84644454D01*
X158433542Y-84644451D01*
X158318333Y-84558205D01*
X158318326Y-84558201D01*
X158186915Y-84509188D01*
X158130981Y-84467317D01*
X158106564Y-84401852D01*
X158121416Y-84333579D01*
X158142561Y-84305331D01*
X158264493Y-84183400D01*
X158400033Y-83989829D01*
X158499901Y-83775662D01*
X158561061Y-83547407D01*
X158581657Y-83311999D01*
X158561061Y-83076591D01*
X158499901Y-82848336D01*
X158499898Y-82848329D01*
X158486177Y-82818904D01*
X158475685Y-82749827D01*
X158504205Y-82686043D01*
X158562682Y-82647804D01*
X158598559Y-82642500D01*
X163755585Y-82642500D01*
X163822624Y-82662185D01*
X163832900Y-82669555D01*
X163835733Y-82671814D01*
X163835735Y-82671816D01*
X163988475Y-82767789D01*
X164116532Y-82812598D01*
X164158742Y-82827368D01*
X164158747Y-82827369D01*
X164304490Y-82843790D01*
X164368904Y-82870856D01*
X164407649Y-82926055D01*
X164457943Y-83069788D01*
X164462221Y-83076596D01*
X164553916Y-83222527D01*
X164681470Y-83350081D01*
X164834210Y-83446054D01*
X165004477Y-83505633D01*
X165004482Y-83505634D01*
X165183728Y-83525830D01*
X165183732Y-83525830D01*
X165183736Y-83525830D01*
X165362981Y-83505634D01*
X165362984Y-83505633D01*
X165362987Y-83505633D01*
X165533254Y-83446054D01*
X165685994Y-83350081D01*
X165813548Y-83222527D01*
X165909521Y-83069787D01*
X165969100Y-82899520D01*
X165978893Y-82812594D01*
X166005958Y-82748183D01*
X166014422Y-82738808D01*
X166050797Y-82702433D01*
X166112118Y-82668950D01*
X166124573Y-82666898D01*
X166211517Y-82657103D01*
X166211527Y-82657099D01*
X166218301Y-82655554D01*
X166218841Y-82657922D01*
X166277288Y-82654921D01*
X166337926Y-82689632D01*
X166370172Y-82751616D01*
X166372500Y-82775533D01*
X166372500Y-87369254D01*
X166352815Y-87436293D01*
X166336181Y-87456935D01*
X164926935Y-88866181D01*
X164865612Y-88899666D01*
X164839254Y-88902500D01*
X157277360Y-88902500D01*
X157223311Y-88905397D01*
X157223310Y-88905397D01*
X157196977Y-88908229D01*
X157196950Y-88908232D01*
X157143554Y-88916885D01*
X157143552Y-88916885D01*
X157008747Y-88967166D01*
X156947422Y-89000651D01*
X156832240Y-89086876D01*
X156832228Y-89086886D01*
X156142892Y-89776223D01*
X156142855Y-89776262D01*
X156106728Y-89816480D01*
X156106718Y-89816492D01*
X156090076Y-89837143D01*
X156058433Y-89881025D01*
X155998663Y-90011899D01*
X155978976Y-90078944D01*
X155958500Y-90221363D01*
X155958500Y-93674640D01*
X155961397Y-93728688D01*
X155961397Y-93728689D01*
X155964229Y-93755022D01*
X155964232Y-93755049D01*
X155972885Y-93808445D01*
X155972885Y-93808447D01*
X156023166Y-93943252D01*
X156023168Y-93943257D01*
X156056653Y-94004580D01*
X156142877Y-94119761D01*
X156212457Y-94189341D01*
X156229766Y-94211046D01*
X156240584Y-94228262D01*
X156368138Y-94355816D01*
X156520878Y-94451789D01*
X156617219Y-94485500D01*
X156691145Y-94511368D01*
X156691150Y-94511369D01*
X156870396Y-94531565D01*
X156870400Y-94531565D01*
X156870404Y-94531565D01*
X157049646Y-94511369D01*
X157049645Y-94511369D01*
X157049655Y-94511368D01*
X157103693Y-94492458D01*
X157144648Y-94485500D01*
X166381988Y-94485500D01*
X166449027Y-94505185D01*
X166494782Y-94557989D01*
X166505208Y-94595617D01*
X166514630Y-94679249D01*
X166514631Y-94679254D01*
X166574211Y-94849523D01*
X166670184Y-95002262D01*
X166797738Y-95129816D01*
X166855458Y-95166084D01*
X166950474Y-95225787D01*
X166950478Y-95225789D01*
X167085371Y-95272990D01*
X167120745Y-95285368D01*
X167120750Y-95285369D01*
X167299996Y-95305565D01*
X167300000Y-95305565D01*
X167300004Y-95305565D01*
X167479249Y-95285369D01*
X167479252Y-95285368D01*
X167479255Y-95285368D01*
X167649522Y-95225789D01*
X167650488Y-95225181D01*
X167659523Y-95219506D01*
X167725494Y-95200500D01*
X170183333Y-95200500D01*
X170183349Y-95200501D01*
X170353501Y-95200501D01*
X170420540Y-95220186D01*
X170466295Y-95272990D01*
X170477501Y-95324501D01*
X170477501Y-95992871D01*
X170476722Y-96006751D01*
X170472751Y-96042001D01*
X170476722Y-96077250D01*
X170477501Y-96091131D01*
X170477501Y-96339870D01*
X170477502Y-96339877D01*
X170483909Y-96399484D01*
X170534203Y-96534329D01*
X170534207Y-96534336D01*
X170620453Y-96649545D01*
X170620456Y-96649548D01*
X170735665Y-96735794D01*
X170735672Y-96735798D01*
X170780619Y-96752562D01*
X170870518Y-96786092D01*
X170930128Y-96792501D01*
X171178877Y-96792500D01*
X171192763Y-96793280D01*
X171228000Y-96797251D01*
X171263237Y-96793280D01*
X171277123Y-96792500D01*
X171734900Y-96792500D01*
X171801939Y-96812185D01*
X171847694Y-96864989D01*
X171858900Y-96916500D01*
X171858900Y-99821440D01*
X171861797Y-99875488D01*
X171861797Y-99875489D01*
X171864629Y-99901822D01*
X171864632Y-99901849D01*
X171873285Y-99955245D01*
X171873285Y-99955247D01*
X171898601Y-100023119D01*
X171923568Y-100090057D01*
X171957053Y-100151380D01*
X172043277Y-100266561D01*
X172043281Y-100266565D01*
X172043286Y-100266571D01*
X172326223Y-100549507D01*
X172326239Y-100549523D01*
X172326255Y-100549537D01*
X172326262Y-100549544D01*
X172366480Y-100585671D01*
X172366492Y-100585681D01*
X172366500Y-100585688D01*
X172387142Y-100602322D01*
X172431026Y-100633967D01*
X172561903Y-100693738D01*
X172628942Y-100713423D01*
X172628946Y-100713424D01*
X172771362Y-100733900D01*
X172771365Y-100733900D01*
X175767440Y-100733900D01*
X175777586Y-100733355D01*
X175821478Y-100731003D01*
X175821486Y-100731002D01*
X175821488Y-100731002D01*
X175821489Y-100731002D01*
X175828482Y-100730249D01*
X175847836Y-100728169D01*
X175847846Y-100728167D01*
X175847849Y-100728167D01*
X175857448Y-100726611D01*
X175901248Y-100719514D01*
X176036057Y-100669232D01*
X176097380Y-100635747D01*
X176212561Y-100549523D01*
X176698723Y-100063361D01*
X176734888Y-100023100D01*
X176751522Y-100002458D01*
X176783167Y-99958574D01*
X176842938Y-99827697D01*
X176862623Y-99760658D01*
X176862624Y-99760654D01*
X176883100Y-99618238D01*
X176883100Y-96694800D01*
X176871547Y-96587344D01*
X176860341Y-96535833D01*
X176859840Y-96534329D01*
X176826216Y-96433302D01*
X176826213Y-96433296D01*
X176804483Y-96399484D01*
X176748425Y-96312257D01*
X176748420Y-96312251D01*
X176702676Y-96259459D01*
X176702672Y-96259456D01*
X176702670Y-96259453D01*
X176593936Y-96165233D01*
X176593933Y-96165231D01*
X176593931Y-96165230D01*
X176463065Y-96105464D01*
X176463060Y-96105462D01*
X176463059Y-96105462D01*
X176396020Y-96085777D01*
X176396022Y-96085777D01*
X176396017Y-96085776D01*
X176336715Y-96077250D01*
X176253600Y-96065300D01*
X176253598Y-96065300D01*
X174102500Y-96065300D01*
X174035461Y-96045615D01*
X173989706Y-95992811D01*
X173978500Y-95941300D01*
X173978500Y-94916501D01*
X173998185Y-94849462D01*
X174050989Y-94803707D01*
X174102500Y-94792501D01*
X211087014Y-94792501D01*
X211087030Y-94792502D01*
X211094626Y-94792502D01*
X211252737Y-94792502D01*
X211252740Y-94792502D01*
X211405468Y-94751578D01*
X211455587Y-94722640D01*
X211542399Y-94672521D01*
X211654203Y-94560717D01*
X211654203Y-94560715D01*
X211664411Y-94550508D01*
X211664412Y-94550505D01*
X226189128Y-80025790D01*
X226250449Y-79992307D01*
X226320141Y-79997291D01*
X226376074Y-80039163D01*
X226391368Y-80066021D01*
X226400860Y-80088938D01*
X226400862Y-80088942D01*
X226527854Y-80318716D01*
X226569314Y-80393733D01*
X226770831Y-80677745D01*
X227002880Y-80937408D01*
X227262543Y-81169457D01*
X227546555Y-81370974D01*
X227851343Y-81539424D01*
X228173075Y-81672690D01*
X228507706Y-81769096D01*
X228851026Y-81827428D01*
X229198719Y-81846954D01*
X229546412Y-81827428D01*
X229889732Y-81769096D01*
X230224363Y-81672690D01*
X230546095Y-81539424D01*
X230850883Y-81370974D01*
X231134895Y-81169457D01*
X231394558Y-80937408D01*
X231626607Y-80677745D01*
X231828124Y-80393733D01*
X231839265Y-80373575D01*
X231888921Y-80324422D01*
X231957268Y-80309918D01*
X232022607Y-80334667D01*
X232056321Y-80373575D01*
X232066595Y-80392164D01*
X232268112Y-80676176D01*
X232500161Y-80935839D01*
X232759824Y-81167888D01*
X233043836Y-81369405D01*
X233348624Y-81537855D01*
X233670356Y-81671121D01*
X234004987Y-81767527D01*
X234348307Y-81825859D01*
X234696000Y-81845385D01*
X235043693Y-81825859D01*
X235387013Y-81767527D01*
X235721644Y-81671121D01*
X236043376Y-81537855D01*
X236348164Y-81369405D01*
X236632176Y-81167888D01*
X236891839Y-80935839D01*
X237123888Y-80676176D01*
X237325405Y-80392164D01*
X237493855Y-80087376D01*
X237627121Y-79765644D01*
X237723527Y-79431013D01*
X237781859Y-79087693D01*
X237801385Y-78740000D01*
X237781859Y-78392307D01*
X237723527Y-78048987D01*
X237627121Y-77714356D01*
X237493855Y-77392624D01*
X237325405Y-77087836D01*
X237123888Y-76803824D01*
X236891839Y-76544161D01*
X236632176Y-76312112D01*
X236348164Y-76110595D01*
X236043376Y-75942145D01*
X236007807Y-75927412D01*
X235976741Y-75914544D01*
X235721644Y-75808879D01*
X235392463Y-75714043D01*
X235387017Y-75712474D01*
X235387009Y-75712472D01*
X235043700Y-75654142D01*
X235043688Y-75654140D01*
X234776551Y-75639138D01*
X234710721Y-75615725D01*
X234667999Y-75560439D01*
X234661949Y-75490831D01*
X234674975Y-75455354D01*
X234746574Y-75325807D01*
X234879840Y-75004075D01*
X234976246Y-74669444D01*
X235034578Y-74326124D01*
X235054104Y-73978431D01*
X235034578Y-73630738D01*
X234976246Y-73287418D01*
X234879840Y-72952787D01*
X234746574Y-72631055D01*
X234578124Y-72326267D01*
X234376607Y-72042255D01*
X234144558Y-71782592D01*
X233884895Y-71550543D01*
X233600883Y-71349026D01*
X233296095Y-71180576D01*
X232974363Y-71047310D01*
X232807047Y-70999107D01*
X232639736Y-70950905D01*
X232639728Y-70950903D01*
X232296419Y-70892573D01*
X232296407Y-70892571D01*
X231948719Y-70873046D01*
X231601030Y-70892571D01*
X231601018Y-70892573D01*
X231257709Y-70950903D01*
X231257701Y-70950905D01*
X230923078Y-71047309D01*
X230923075Y-71047310D01*
X230854625Y-71075663D01*
X230601344Y-71180575D01*
X230296554Y-71349026D01*
X230107649Y-71483062D01*
X230012543Y-71550543D01*
X229752880Y-71782592D01*
X229520831Y-72042255D01*
X229470276Y-72113506D01*
X229319314Y-72326266D01*
X229150863Y-72631056D01*
X229127137Y-72688337D01*
X229032591Y-72916592D01*
X229017597Y-72952790D01*
X228921193Y-73287413D01*
X228921191Y-73287421D01*
X228862861Y-73630730D01*
X228862859Y-73630742D01*
X228843334Y-73978431D01*
X228862859Y-74326119D01*
X228862861Y-74326131D01*
X228921191Y-74669440D01*
X228921193Y-74669448D01*
X228962787Y-74813824D01*
X229017598Y-75004075D01*
X229057566Y-75100565D01*
X229150863Y-75325805D01*
X229223220Y-75456726D01*
X229238420Y-75524922D01*
X229214337Y-75590510D01*
X229158617Y-75632666D01*
X229121645Y-75640512D01*
X228851030Y-75655709D01*
X228851018Y-75655711D01*
X228507709Y-75714041D01*
X228507701Y-75714043D01*
X228178521Y-75808879D01*
X228173075Y-75810448D01*
X228078843Y-75849480D01*
X227851344Y-75943713D01*
X227546554Y-76112164D01*
X227473459Y-76164028D01*
X227264755Y-76312112D01*
X227262542Y-76313682D01*
X227002875Y-76545734D01*
X226914959Y-76644113D01*
X226855610Y-76680984D01*
X226785749Y-76679915D01*
X226727555Y-76641245D01*
X226699506Y-76577253D01*
X226698500Y-76561486D01*
X226698500Y-63516321D01*
X226718185Y-63449282D01*
X226770989Y-63403527D01*
X226808612Y-63393101D01*
X226877255Y-63385368D01*
X227047522Y-63325789D01*
X227200262Y-63229816D01*
X227200267Y-63229810D01*
X227203097Y-63227555D01*
X227205275Y-63226665D01*
X227206158Y-63226111D01*
X227206255Y-63226265D01*
X227267783Y-63201145D01*
X227280412Y-63200500D01*
X227317588Y-63200500D01*
X227384627Y-63220185D01*
X227394903Y-63227555D01*
X227397736Y-63229814D01*
X227397738Y-63229816D01*
X227506908Y-63298412D01*
X227542450Y-63320745D01*
X227550478Y-63325789D01*
X227700214Y-63378184D01*
X227720745Y-63385368D01*
X227720750Y-63385369D01*
X227899996Y-63405565D01*
X227900000Y-63405565D01*
X227900004Y-63405565D01*
X228079249Y-63385369D01*
X228079252Y-63385368D01*
X228079255Y-63385368D01*
X228249522Y-63325789D01*
X228402262Y-63229816D01*
X228529816Y-63102262D01*
X228625789Y-62949522D01*
X228685368Y-62779255D01*
X228685369Y-62779249D01*
X228705565Y-62600003D01*
X228705565Y-62599996D01*
X228685369Y-62420750D01*
X228685368Y-62420745D01*
X228639767Y-62290425D01*
X228625789Y-62250478D01*
X228625174Y-62249500D01*
X228567014Y-62156939D01*
X228529816Y-62097738D01*
X228402262Y-61970184D01*
X228372194Y-61951291D01*
X228249523Y-61874211D01*
X228079254Y-61814631D01*
X228079249Y-61814630D01*
X227900004Y-61794435D01*
X227899996Y-61794435D01*
X227720750Y-61814630D01*
X227720745Y-61814631D01*
X227550476Y-61874211D01*
X227397736Y-61970185D01*
X227394903Y-61972445D01*
X227392724Y-61973334D01*
X227391842Y-61973889D01*
X227391744Y-61973734D01*
X227330217Y-61998855D01*
X227317588Y-61999500D01*
X227280412Y-61999500D01*
X227213373Y-61979815D01*
X227203097Y-61972445D01*
X227200263Y-61970185D01*
X227200262Y-61970184D01*
X227053320Y-61877854D01*
X227047521Y-61874210D01*
X226877249Y-61814630D01*
X226808616Y-61806897D01*
X226744202Y-61779830D01*
X226704647Y-61722235D01*
X226698500Y-61683677D01*
X226698500Y-58636500D01*
X226718185Y-58569461D01*
X226770989Y-58523706D01*
X226822500Y-58512500D01*
X230291331Y-58512500D01*
X230291347Y-58512501D01*
X230298943Y-58512501D01*
X230457054Y-58512501D01*
X230457057Y-58512501D01*
X230609785Y-58471577D01*
X230609794Y-58471571D01*
X230611868Y-58470713D01*
X230645447Y-58462049D01*
X230729634Y-58452564D01*
X230811250Y-58443369D01*
X230811253Y-58443368D01*
X230811255Y-58443368D01*
X230981522Y-58383789D01*
X231134262Y-58287816D01*
X231261816Y-58160262D01*
X231357789Y-58007522D01*
X231417368Y-57837255D01*
X231417369Y-57837249D01*
X231437565Y-57658003D01*
X231437565Y-57657996D01*
X231417369Y-57478750D01*
X231417368Y-57478745D01*
X231383844Y-57382940D01*
X231357789Y-57308478D01*
X231351360Y-57298247D01*
X231261815Y-57155737D01*
X231134262Y-57028184D01*
X230981523Y-56932211D01*
X230811254Y-56872631D01*
X230811249Y-56872630D01*
X230632004Y-56852435D01*
X230631996Y-56852435D01*
X230452750Y-56872630D01*
X230452745Y-56872631D01*
X230282476Y-56932211D01*
X230129737Y-57028184D01*
X230002184Y-57155737D01*
X229970603Y-57205999D01*
X229954217Y-57232078D01*
X229940774Y-57253472D01*
X229888439Y-57299763D01*
X229835780Y-57311500D01*
X228337096Y-57311500D01*
X228270057Y-57291815D01*
X228224302Y-57239011D01*
X228214358Y-57169853D01*
X228243383Y-57106297D01*
X228249415Y-57099819D01*
X228417023Y-56932211D01*
X228668535Y-56680698D01*
X228729856Y-56647215D01*
X228742311Y-56645163D01*
X228829255Y-56635368D01*
X228999522Y-56575789D01*
X229152262Y-56479816D01*
X229279816Y-56352262D01*
X229375789Y-56199522D01*
X229435368Y-56029255D01*
X229447142Y-55924756D01*
X229455565Y-55850003D01*
X229455565Y-55849996D01*
X229435369Y-55670750D01*
X229435368Y-55670745D01*
X229396667Y-55560144D01*
X229375789Y-55500478D01*
X229279816Y-55347738D01*
X229152262Y-55220184D01*
X229131353Y-55207046D01*
X228999523Y-55124211D01*
X228829254Y-55064631D01*
X228829249Y-55064630D01*
X228650004Y-55044435D01*
X228649996Y-55044435D01*
X228470750Y-55064630D01*
X228470745Y-55064631D01*
X228300476Y-55124211D01*
X228147737Y-55220184D01*
X228020184Y-55347737D01*
X227924210Y-55500478D01*
X227864630Y-55670750D01*
X227854837Y-55757668D01*
X227827770Y-55822082D01*
X227819298Y-55831465D01*
X227574639Y-56076123D01*
X227513316Y-56109608D01*
X227446003Y-56105483D01*
X227329262Y-56064633D01*
X227329249Y-56064630D01*
X227150004Y-56044435D01*
X227149996Y-56044435D01*
X226970750Y-56064630D01*
X226970745Y-56064631D01*
X226800476Y-56124211D01*
X226647737Y-56220184D01*
X226520184Y-56347737D01*
X226424211Y-56500476D01*
X226364631Y-56670745D01*
X226364630Y-56670750D01*
X226344435Y-56849996D01*
X226344435Y-56850003D01*
X226364630Y-57029249D01*
X226364633Y-57029262D01*
X226405673Y-57146545D01*
X226409235Y-57216324D01*
X226374507Y-57276951D01*
X226312513Y-57309179D01*
X226288632Y-57311500D01*
X226234943Y-57311500D01*
X226082215Y-57352423D01*
X226060229Y-57365116D01*
X226054338Y-57368518D01*
X226054337Y-57368517D01*
X225945287Y-57431477D01*
X225945282Y-57431481D01*
X225893681Y-57483083D01*
X225832358Y-57516568D01*
X225762666Y-57511584D01*
X225718319Y-57483083D01*
X225666717Y-57431481D01*
X225666716Y-57431480D01*
X225557660Y-57368517D01*
X225557659Y-57368516D01*
X225529783Y-57352422D01*
X225468278Y-57335942D01*
X225377057Y-57311499D01*
X225218943Y-57311499D01*
X225211347Y-57311499D01*
X225211331Y-57311500D01*
X222070412Y-57311500D01*
X222003373Y-57291815D01*
X221993097Y-57284445D01*
X221990263Y-57282185D01*
X221990262Y-57282184D01*
X221921553Y-57239011D01*
X221837523Y-57186211D01*
X221667254Y-57126631D01*
X221667249Y-57126630D01*
X221488004Y-57106435D01*
X221487996Y-57106435D01*
X221308750Y-57126630D01*
X221308745Y-57126631D01*
X221138476Y-57186211D01*
X220985737Y-57282184D01*
X220858184Y-57409737D01*
X220762210Y-57562478D01*
X220702630Y-57732750D01*
X220694898Y-57801383D01*
X220667832Y-57865797D01*
X220610237Y-57905352D01*
X220571678Y-57911500D01*
X213006321Y-57911500D01*
X212939282Y-57891815D01*
X212893527Y-57839011D01*
X212883101Y-57801383D01*
X212875368Y-57732745D01*
X212815789Y-57562478D01*
X212719816Y-57409738D01*
X212592262Y-57282184D01*
X212583934Y-57276951D01*
X212439523Y-57186211D01*
X212269254Y-57126631D01*
X212269249Y-57126630D01*
X212090004Y-57106435D01*
X212089996Y-57106435D01*
X211910750Y-57126630D01*
X211910745Y-57126631D01*
X211740476Y-57186211D01*
X211587737Y-57282184D01*
X211460182Y-57409739D01*
X211364351Y-57562253D01*
X211312017Y-57608543D01*
X211242963Y-57619191D01*
X211218403Y-57613322D01*
X211079254Y-57564631D01*
X211079249Y-57564630D01*
X210900004Y-57544435D01*
X210899996Y-57544435D01*
X210720750Y-57564630D01*
X210720745Y-57564631D01*
X210550476Y-57624211D01*
X210397737Y-57720184D01*
X210270184Y-57847737D01*
X210174210Y-58000478D01*
X210114630Y-58170750D01*
X210104837Y-58257668D01*
X210077770Y-58322082D01*
X210069298Y-58331465D01*
X209687584Y-58713181D01*
X209626261Y-58746666D01*
X209599903Y-58749500D01*
X196827476Y-58749500D01*
X196760437Y-58729815D01*
X196714682Y-58677011D01*
X196704256Y-58611614D01*
X196705565Y-58599998D01*
X196705565Y-58599996D01*
X196685369Y-58420750D01*
X196685368Y-58420745D01*
X196676424Y-58395184D01*
X196625789Y-58250478D01*
X196529816Y-58097738D01*
X196402262Y-57970184D01*
X196334027Y-57927309D01*
X196249523Y-57874211D01*
X196079254Y-57814631D01*
X196079249Y-57814630D01*
X195900004Y-57794435D01*
X195899996Y-57794435D01*
X195720750Y-57814630D01*
X195720737Y-57814633D01*
X195550479Y-57874209D01*
X195465971Y-57927309D01*
X195398734Y-57946309D01*
X195334029Y-57927309D01*
X195249520Y-57874209D01*
X195079262Y-57814633D01*
X195079249Y-57814630D01*
X194900004Y-57794435D01*
X194899996Y-57794435D01*
X194720750Y-57814630D01*
X194720745Y-57814631D01*
X194550476Y-57874211D01*
X194397737Y-57970184D01*
X194270184Y-58097737D01*
X194174211Y-58250476D01*
X194114631Y-58420745D01*
X194114630Y-58420750D01*
X194094435Y-58599996D01*
X194094435Y-58599998D01*
X194095744Y-58611614D01*
X194083691Y-58680436D01*
X194036343Y-58731816D01*
X193972524Y-58749500D01*
X183215930Y-58749500D01*
X183215914Y-58749499D01*
X183208318Y-58749499D01*
X183050203Y-58749499D01*
X182973839Y-58769961D01*
X182897474Y-58790423D01*
X182897469Y-58790426D01*
X182760550Y-58869475D01*
X182760542Y-58869481D01*
X181561486Y-60068537D01*
X181561482Y-60068543D01*
X181551480Y-60085867D01*
X181505229Y-60165976D01*
X181482426Y-60205472D01*
X181441502Y-60358200D01*
X181441502Y-60358202D01*
X181441502Y-60710842D01*
X181421817Y-60777881D01*
X181405183Y-60798523D01*
X177850209Y-64353497D01*
X177788886Y-64386982D01*
X177719194Y-64381998D01*
X177663261Y-64340126D01*
X177645486Y-64306769D01*
X177625790Y-64250479D01*
X177529815Y-64097737D01*
X177402262Y-63970184D01*
X177249523Y-63874211D01*
X177079254Y-63814631D01*
X177079249Y-63814630D01*
X176900004Y-63794435D01*
X176899996Y-63794435D01*
X176720750Y-63814630D01*
X176720745Y-63814631D01*
X176550476Y-63874211D01*
X176397737Y-63970184D01*
X176270184Y-64097737D01*
X176174211Y-64250476D01*
X176114631Y-64420745D01*
X176114630Y-64420750D01*
X176094435Y-64599996D01*
X176094435Y-64600003D01*
X176114630Y-64779249D01*
X176114631Y-64779254D01*
X176174211Y-64949523D01*
X176237333Y-65049980D01*
X176270184Y-65102262D01*
X176397738Y-65229816D01*
X176550478Y-65325789D01*
X176720745Y-65385368D01*
X176807669Y-65395161D01*
X176872080Y-65422226D01*
X176881463Y-65430698D01*
X177022398Y-65571634D01*
X177055882Y-65632955D01*
X177050898Y-65702647D01*
X177022397Y-65746994D01*
X175281286Y-67488106D01*
X175169481Y-67599910D01*
X175169479Y-67599912D01*
X175143268Y-67645311D01*
X175132190Y-67664501D01*
X175115265Y-67693816D01*
X175096141Y-67726940D01*
X175090423Y-67736843D01*
X175049499Y-67889571D01*
X175049499Y-67889573D01*
X175049499Y-68057674D01*
X175049500Y-68057687D01*
X175049500Y-69699092D01*
X175029815Y-69766131D01*
X174977011Y-69811886D01*
X174966463Y-69816130D01*
X174910093Y-69835854D01*
X174800478Y-69874210D01*
X174647737Y-69970184D01*
X174520184Y-70097737D01*
X174424211Y-70250476D01*
X174364631Y-70420745D01*
X174364630Y-70420750D01*
X174344435Y-70599996D01*
X174344435Y-70600003D01*
X174364630Y-70779249D01*
X174364631Y-70779254D01*
X174424211Y-70949523D01*
X174485655Y-71047310D01*
X174520184Y-71102262D01*
X174647738Y-71229816D01*
X174800478Y-71325789D01*
X174970742Y-71385367D01*
X174970745Y-71385368D01*
X174970750Y-71385369D01*
X175149996Y-71405565D01*
X175150000Y-71405565D01*
X175150004Y-71405565D01*
X175329249Y-71385369D01*
X175329250Y-71385368D01*
X175329255Y-71385368D01*
X175384545Y-71366020D01*
X175454322Y-71362458D01*
X175514950Y-71397186D01*
X175547178Y-71459179D01*
X175549500Y-71483062D01*
X175549500Y-73153498D01*
X175529815Y-73220537D01*
X175477011Y-73266292D01*
X175439392Y-73276717D01*
X175433503Y-73277380D01*
X175263229Y-73336961D01*
X175110488Y-73432935D01*
X174982935Y-73560488D01*
X174886962Y-73713227D01*
X174827382Y-73883496D01*
X174827381Y-73883501D01*
X174807186Y-74062747D01*
X174807186Y-74062754D01*
X174827381Y-74242000D01*
X174827382Y-74242005D01*
X174886962Y-74412274D01*
X174925904Y-74474249D01*
X174982935Y-74565013D01*
X175110489Y-74692567D01*
X175186859Y-74740553D01*
X175263230Y-74788541D01*
X175335487Y-74813824D01*
X175392264Y-74854545D01*
X175418012Y-74919498D01*
X175404556Y-74988059D01*
X175382215Y-75018547D01*
X174031286Y-76369478D01*
X173919481Y-76481282D01*
X173919477Y-76481287D01*
X173872071Y-76563399D01*
X173872070Y-76563398D01*
X173840424Y-76618211D01*
X173840423Y-76618215D01*
X173799499Y-76770943D01*
X173799499Y-76770945D01*
X173799499Y-76939046D01*
X173799500Y-76939059D01*
X173799500Y-79863330D01*
X173799499Y-79863348D01*
X173799499Y-80029054D01*
X173799498Y-80029054D01*
X173840423Y-80181785D01*
X173869358Y-80231900D01*
X173869359Y-80231904D01*
X173869360Y-80231904D01*
X173919479Y-80318714D01*
X173919481Y-80318717D01*
X174038349Y-80437585D01*
X174038355Y-80437590D01*
X174469298Y-80868533D01*
X174502783Y-80929856D01*
X174504837Y-80942330D01*
X174514630Y-81029249D01*
X174574210Y-81199521D01*
X174666520Y-81346431D01*
X174685520Y-81413668D01*
X174665152Y-81480503D01*
X174649208Y-81500083D01*
X174531287Y-81618006D01*
X174531286Y-81618007D01*
X174419481Y-81729811D01*
X174419477Y-81729816D01*
X174372378Y-81811396D01*
X174372378Y-81811397D01*
X174340423Y-81866743D01*
X174333926Y-81890991D01*
X174299499Y-82019472D01*
X174299499Y-82019474D01*
X174299499Y-82187575D01*
X174299500Y-82187588D01*
X174299500Y-91263330D01*
X174299499Y-91263348D01*
X174299499Y-91429054D01*
X174299498Y-91429054D01*
X174340423Y-91581785D01*
X174369358Y-91631900D01*
X174369359Y-91631904D01*
X174369360Y-91631904D01*
X174419479Y-91718714D01*
X174419481Y-91718717D01*
X174538349Y-91837585D01*
X174538355Y-91837590D01*
X175280585Y-92579820D01*
X175314070Y-92641143D01*
X175309086Y-92710835D01*
X175267214Y-92766768D01*
X175201750Y-92791185D01*
X175192904Y-92791501D01*
X170433300Y-92791501D01*
X170433284Y-92791500D01*
X170425688Y-92791500D01*
X170267574Y-92791500D01*
X170160218Y-92820266D01*
X170114841Y-92832425D01*
X170114840Y-92832426D01*
X170064727Y-92861360D01*
X170064726Y-92861361D01*
X170038669Y-92876405D01*
X169977916Y-92911480D01*
X169977913Y-92911482D01*
X169926215Y-92963181D01*
X169864892Y-92996666D01*
X169838534Y-92999500D01*
X169202633Y-92999500D01*
X169135594Y-92979815D01*
X169097640Y-92941473D01*
X169056756Y-92876406D01*
X168929202Y-92748852D01*
X168840284Y-92692981D01*
X168793993Y-92640646D01*
X168783345Y-92571592D01*
X168811720Y-92507744D01*
X168818562Y-92500319D01*
X171263123Y-90055761D01*
X171299288Y-90015499D01*
X171315922Y-89994857D01*
X171347567Y-89950973D01*
X171407338Y-89820096D01*
X171427023Y-89753057D01*
X171427024Y-89753053D01*
X171447500Y-89610637D01*
X171447500Y-67615362D01*
X171444603Y-67561322D01*
X171441769Y-67534964D01*
X171433114Y-67481552D01*
X171382832Y-67346743D01*
X171349347Y-67285420D01*
X171263123Y-67170239D01*
X171263118Y-67170234D01*
X171263113Y-67170228D01*
X171081776Y-66988892D01*
X171081770Y-66988886D01*
X171081761Y-66988877D01*
X171081737Y-66988855D01*
X171041519Y-66952728D01*
X171041507Y-66952718D01*
X171020856Y-66936076D01*
X170976974Y-66904433D01*
X170846100Y-66844663D01*
X170779055Y-66824976D01*
X170731582Y-66818150D01*
X170636638Y-66804500D01*
X167437362Y-66804500D01*
X167437360Y-66804500D01*
X167383311Y-66807397D01*
X167383310Y-66807397D01*
X167356977Y-66810229D01*
X167356950Y-66810232D01*
X167303554Y-66818885D01*
X167303552Y-66818885D01*
X167168747Y-66869166D01*
X167107422Y-66902651D01*
X166992240Y-66988876D01*
X166992228Y-66988886D01*
X166556892Y-67424223D01*
X166556855Y-67424262D01*
X166520728Y-67464480D01*
X166520718Y-67464492D01*
X166504076Y-67485143D01*
X166472433Y-67529025D01*
X166412663Y-67659899D01*
X166392977Y-67726940D01*
X166392975Y-67726949D01*
X166386550Y-67771636D01*
X166380854Y-67794941D01*
X166346631Y-67892747D01*
X166326435Y-68071996D01*
X166326435Y-68072003D01*
X166346630Y-68251246D01*
X166346632Y-68251255D01*
X166359235Y-68287273D01*
X166362796Y-68357052D01*
X166328066Y-68417679D01*
X166266073Y-68449905D01*
X166196497Y-68443499D01*
X166154512Y-68415907D01*
X166026524Y-68287919D01*
X165873785Y-68191946D01*
X165703516Y-68132366D01*
X165703511Y-68132365D01*
X165524266Y-68112170D01*
X165524258Y-68112170D01*
X165345012Y-68132365D01*
X165345007Y-68132366D01*
X165174738Y-68191946D01*
X165021999Y-68287919D01*
X164894446Y-68415472D01*
X164798472Y-68568213D01*
X164738892Y-68738485D01*
X164729099Y-68825403D01*
X164702032Y-68889817D01*
X164693560Y-68899200D01*
X164657198Y-68935562D01*
X164595875Y-68969047D01*
X164583401Y-68971101D01*
X164496481Y-68980894D01*
X164326209Y-69040474D01*
X164173468Y-69136448D01*
X164045915Y-69264001D01*
X163949942Y-69416740D01*
X163890362Y-69587009D01*
X163890361Y-69587014D01*
X163870166Y-69766260D01*
X163870166Y-69766267D01*
X163890361Y-69945513D01*
X163890362Y-69945518D01*
X163949942Y-70115787D01*
X164007582Y-70207520D01*
X164045915Y-70268526D01*
X164173469Y-70396080D01*
X164212723Y-70420745D01*
X164319462Y-70487814D01*
X164326209Y-70492053D01*
X164496476Y-70551632D01*
X164496481Y-70551633D01*
X164675727Y-70571829D01*
X164675731Y-70571829D01*
X164675735Y-70571829D01*
X164854980Y-70551633D01*
X164854983Y-70551632D01*
X164854986Y-70551632D01*
X165025253Y-70492053D01*
X165177993Y-70396080D01*
X165305547Y-70268526D01*
X165401520Y-70115786D01*
X165461099Y-69945519D01*
X165470892Y-69858594D01*
X165497957Y-69794184D01*
X165506421Y-69784809D01*
X165542797Y-69748433D01*
X165604118Y-69714950D01*
X165616573Y-69712898D01*
X165703517Y-69703103D01*
X165873784Y-69643524D01*
X166026524Y-69547551D01*
X166154078Y-69419997D01*
X166154078Y-69419996D01*
X166159002Y-69415073D01*
X166160685Y-69416756D01*
X166208727Y-69383027D01*
X166278539Y-69380168D01*
X166338813Y-69415507D01*
X166370413Y-69477822D01*
X166372500Y-69500475D01*
X166372500Y-78211748D01*
X166365542Y-78252702D01*
X166346631Y-78306747D01*
X166326435Y-78485996D01*
X166326435Y-78486003D01*
X166346630Y-78665246D01*
X166346632Y-78665256D01*
X166365541Y-78719293D01*
X166372500Y-78760248D01*
X166372500Y-80967935D01*
X166352815Y-81034974D01*
X166300011Y-81080729D01*
X166230853Y-81090673D01*
X166218372Y-81087623D01*
X166218306Y-81087916D01*
X166211515Y-81086366D01*
X166032266Y-81066170D01*
X166032258Y-81066170D01*
X165853012Y-81086365D01*
X165853007Y-81086366D01*
X165682738Y-81145946D01*
X165529999Y-81241919D01*
X165402446Y-81369472D01*
X165306471Y-81522215D01*
X165266440Y-81636617D01*
X165225719Y-81693393D01*
X165160766Y-81719140D01*
X165092204Y-81705684D01*
X165044405Y-81661634D01*
X165016992Y-81618007D01*
X164967813Y-81539738D01*
X164840259Y-81412184D01*
X164774674Y-81370974D01*
X164687520Y-81316211D01*
X164517251Y-81256631D01*
X164517246Y-81256630D01*
X164338001Y-81236435D01*
X164337993Y-81236435D01*
X164158747Y-81256630D01*
X164158742Y-81256631D01*
X163988473Y-81316211D01*
X163835733Y-81412185D01*
X163832900Y-81414445D01*
X163830721Y-81415334D01*
X163829839Y-81415889D01*
X163829741Y-81415734D01*
X163768214Y-81440855D01*
X163755585Y-81441500D01*
X158796092Y-81441500D01*
X158729053Y-81421815D01*
X158708411Y-81405181D01*
X158558761Y-81255531D01*
X158525276Y-81194208D01*
X158526667Y-81135757D01*
X158530840Y-81120184D01*
X158561058Y-81007408D01*
X158581654Y-80772000D01*
X158561058Y-80536592D01*
X158502679Y-80318716D01*
X158499900Y-80308344D01*
X158499899Y-80308343D01*
X158499898Y-80308337D01*
X158400030Y-80094171D01*
X158395273Y-80087376D01*
X158264489Y-79900597D01*
X158097397Y-79733506D01*
X158097396Y-79733505D01*
X157911837Y-79603575D01*
X157868213Y-79548998D01*
X157861020Y-79479499D01*
X157892542Y-79417145D01*
X157911838Y-79400425D01*
X158097399Y-79270494D01*
X158264493Y-79103400D01*
X158400033Y-78909829D01*
X158499901Y-78695662D01*
X158561061Y-78467407D01*
X158581657Y-78231999D01*
X158561061Y-77996591D01*
X158499901Y-77768336D01*
X158400033Y-77554170D01*
X158397100Y-77549980D01*
X158264492Y-77360596D01*
X158097400Y-77193505D01*
X158097394Y-77193500D01*
X157911840Y-77063574D01*
X157868215Y-77008997D01*
X157861021Y-76939499D01*
X157892544Y-76877144D01*
X157911836Y-76860427D01*
X158097400Y-76730494D01*
X158264494Y-76563400D01*
X158400034Y-76369829D01*
X158499902Y-76155662D01*
X158561062Y-75927407D01*
X158581658Y-75691999D01*
X158561062Y-75456591D01*
X158499902Y-75228336D01*
X158400034Y-75014170D01*
X158394426Y-75006160D01*
X158264493Y-74820596D01*
X158097401Y-74653505D01*
X158097400Y-74653504D01*
X157911842Y-74523575D01*
X157911838Y-74523572D01*
X157868215Y-74468996D01*
X157861022Y-74399497D01*
X157892544Y-74337143D01*
X157911839Y-74320424D01*
X158097397Y-74190495D01*
X158119889Y-74168003D01*
X163186432Y-74168003D01*
X163206627Y-74347249D01*
X163206628Y-74347254D01*
X163266208Y-74517523D01*
X163361667Y-74669444D01*
X163362181Y-74670262D01*
X163489735Y-74797816D01*
X163642475Y-74893789D01*
X163731145Y-74924816D01*
X163812742Y-74953368D01*
X163812747Y-74953369D01*
X163991993Y-74973565D01*
X163991997Y-74973565D01*
X163992001Y-74973565D01*
X164171246Y-74953369D01*
X164171249Y-74953368D01*
X164171252Y-74953368D01*
X164341519Y-74893789D01*
X164494259Y-74797816D01*
X164494264Y-74797810D01*
X164497094Y-74795555D01*
X164499272Y-74794665D01*
X164500155Y-74794111D01*
X164500252Y-74794265D01*
X164561780Y-74769145D01*
X164574409Y-74768500D01*
X164609585Y-74768500D01*
X164676624Y-74788185D01*
X164686900Y-74795555D01*
X164689733Y-74797814D01*
X164689735Y-74797816D01*
X164842475Y-74893789D01*
X164931145Y-74924816D01*
X165012742Y-74953368D01*
X165012747Y-74953369D01*
X165191993Y-74973565D01*
X165191997Y-74973565D01*
X165192001Y-74973565D01*
X165371246Y-74953369D01*
X165371249Y-74953368D01*
X165371252Y-74953368D01*
X165541519Y-74893789D01*
X165694259Y-74797816D01*
X165821813Y-74670262D01*
X165917786Y-74517522D01*
X165977365Y-74347255D01*
X165977366Y-74347249D01*
X165997562Y-74168003D01*
X165997562Y-74167996D01*
X165977366Y-73988750D01*
X165977365Y-73988745D01*
X165962225Y-73945478D01*
X165917786Y-73818478D01*
X165902542Y-73794218D01*
X165878579Y-73756080D01*
X165821813Y-73665738D01*
X165694259Y-73538184D01*
X165648819Y-73509632D01*
X165541520Y-73442211D01*
X165371251Y-73382631D01*
X165371246Y-73382630D01*
X165192001Y-73362435D01*
X165191993Y-73362435D01*
X165012747Y-73382630D01*
X165012742Y-73382631D01*
X164842473Y-73442211D01*
X164689733Y-73538185D01*
X164686900Y-73540445D01*
X164684721Y-73541334D01*
X164683839Y-73541889D01*
X164683741Y-73541734D01*
X164622214Y-73566855D01*
X164609585Y-73567500D01*
X164574409Y-73567500D01*
X164507370Y-73547815D01*
X164497094Y-73540445D01*
X164494260Y-73538185D01*
X164494259Y-73538184D01*
X164422365Y-73493010D01*
X164341520Y-73442211D01*
X164171251Y-73382631D01*
X164171246Y-73382630D01*
X163992001Y-73362435D01*
X163991993Y-73362435D01*
X163812747Y-73382630D01*
X163812742Y-73382631D01*
X163642473Y-73442211D01*
X163489734Y-73538184D01*
X163362181Y-73665737D01*
X163266208Y-73818476D01*
X163206628Y-73988745D01*
X163206627Y-73988750D01*
X163186432Y-74167996D01*
X163186432Y-74168003D01*
X158119889Y-74168003D01*
X158264491Y-74023401D01*
X158400031Y-73829830D01*
X158499899Y-73615663D01*
X158561059Y-73387408D01*
X158581655Y-73152000D01*
X158561059Y-72916592D01*
X158499899Y-72688337D01*
X158400031Y-72474171D01*
X158400030Y-72474169D01*
X158264490Y-72280597D01*
X158097398Y-72113506D01*
X158097392Y-72113501D01*
X157911838Y-71983575D01*
X157868213Y-71928998D01*
X157861019Y-71859500D01*
X157892542Y-71797145D01*
X157911838Y-71780425D01*
X158097399Y-71650494D01*
X158264493Y-71483400D01*
X158400033Y-71289829D01*
X158499901Y-71075662D01*
X158561061Y-70847407D01*
X158581657Y-70611999D01*
X158580607Y-70600003D01*
X158561061Y-70376595D01*
X158561061Y-70376591D01*
X158499901Y-70148336D01*
X158400033Y-69934170D01*
X158394423Y-69926157D01*
X158264492Y-69740596D01*
X158097400Y-69573505D01*
X158097399Y-69573504D01*
X157911836Y-69443571D01*
X157868212Y-69388994D01*
X157861019Y-69319495D01*
X157892541Y-69257141D01*
X157911834Y-69240424D01*
X158097396Y-69110492D01*
X158264490Y-68943398D01*
X158400030Y-68749827D01*
X158402702Y-68744094D01*
X158448873Y-68691655D01*
X158515086Y-68672497D01*
X159577734Y-68672497D01*
X159577750Y-68672498D01*
X159585346Y-68672498D01*
X159743457Y-68672498D01*
X159743460Y-68672498D01*
X159896188Y-68631574D01*
X159961456Y-68593891D01*
X160033119Y-68552517D01*
X160144923Y-68440713D01*
X160144923Y-68440711D01*
X160155127Y-68430508D01*
X160155130Y-68430503D01*
X161619786Y-66965848D01*
X161681107Y-66932365D01*
X161693568Y-66930312D01*
X161723255Y-66926968D01*
X161893522Y-66867389D01*
X162046262Y-66771416D01*
X162173816Y-66643862D01*
X162269789Y-66491122D01*
X162329368Y-66320855D01*
X162329369Y-66320849D01*
X162349565Y-66141603D01*
X162349565Y-66141596D01*
X162329369Y-65962350D01*
X162329368Y-65962345D01*
X162269788Y-65792076D01*
X162178450Y-65646713D01*
X162173816Y-65639338D01*
X162046262Y-65511784D01*
X162028269Y-65500478D01*
X161893523Y-65415811D01*
X161723254Y-65356231D01*
X161723249Y-65356230D01*
X161544004Y-65336035D01*
X161543996Y-65336035D01*
X161364750Y-65356230D01*
X161364745Y-65356231D01*
X161194476Y-65415811D01*
X161041737Y-65511784D01*
X160914184Y-65639337D01*
X160818211Y-65792076D01*
X160758631Y-65962345D01*
X160758630Y-65962349D01*
X160742387Y-66106518D01*
X160715320Y-66170932D01*
X160706848Y-66180315D01*
X160385270Y-66501894D01*
X159763245Y-67123920D01*
X159451987Y-67435178D01*
X159390664Y-67468663D01*
X159364306Y-67471497D01*
X158975093Y-67471497D01*
X158908054Y-67451812D01*
X158862299Y-67399008D01*
X158852355Y-67329850D01*
X158881380Y-67266294D01*
X158887412Y-67259816D01*
X158903979Y-67243249D01*
X158976520Y-67170708D01*
X159033799Y-67071497D01*
X159055577Y-67033777D01*
X159096500Y-66881050D01*
X159096500Y-66722935D01*
X159096500Y-62710812D01*
X159116185Y-62643773D01*
X159123555Y-62633497D01*
X159125810Y-62630667D01*
X159125816Y-62630662D01*
X159221789Y-62477922D01*
X159278778Y-62315057D01*
X159281369Y-62307653D01*
X159281369Y-62307649D01*
X159301565Y-62128403D01*
X159301565Y-62128396D01*
X159281369Y-61949150D01*
X159281366Y-61949137D01*
X159221790Y-61778881D01*
X159221786Y-61778872D01*
X159202073Y-61747498D01*
X159183073Y-61680261D01*
X159203441Y-61613426D01*
X159219386Y-61593845D01*
X159220308Y-61592922D01*
X159220313Y-61592920D01*
X159332117Y-61481116D01*
X159332118Y-61481113D01*
X159579916Y-61233314D01*
X159641237Y-61199831D01*
X159710929Y-61204815D01*
X159766862Y-61246687D01*
X159787370Y-61288904D01*
X159816419Y-61397319D01*
X159816421Y-61397323D01*
X159816422Y-61397327D01*
X159862658Y-61496481D01*
X159908894Y-61595635D01*
X159908895Y-61595636D01*
X160034399Y-61774874D01*
X160189120Y-61929595D01*
X160368358Y-62055099D01*
X160566667Y-62147572D01*
X160778020Y-62204204D01*
X160927404Y-62217273D01*
X160992473Y-62242725D01*
X161033452Y-62299316D01*
X161037330Y-62369078D01*
X161004278Y-62428482D01*
X160763462Y-62669298D01*
X160702139Y-62702783D01*
X160689665Y-62704837D01*
X160602747Y-62714630D01*
X160432475Y-62774210D01*
X160279734Y-62870184D01*
X160152181Y-62997737D01*
X160056208Y-63150476D01*
X159996628Y-63320745D01*
X159996627Y-63320750D01*
X159976432Y-63499996D01*
X159976432Y-63500003D01*
X159996627Y-63679249D01*
X159996628Y-63679254D01*
X160056208Y-63849523D01*
X160124862Y-63958784D01*
X160152181Y-64002262D01*
X160279735Y-64129816D01*
X160432475Y-64225789D01*
X160503035Y-64250479D01*
X160602742Y-64285368D01*
X160602747Y-64285369D01*
X160781993Y-64305565D01*
X160781997Y-64305565D01*
X160782001Y-64305565D01*
X160961246Y-64285369D01*
X160961249Y-64285368D01*
X160961252Y-64285368D01*
X161131519Y-64225789D01*
X161284259Y-64129816D01*
X161411813Y-64002262D01*
X161507786Y-63849522D01*
X161567365Y-63679255D01*
X161577158Y-63592329D01*
X161604223Y-63527918D01*
X161612687Y-63518543D01*
X162404503Y-62726728D01*
X162404508Y-62726724D01*
X162414711Y-62716520D01*
X162414713Y-62716520D01*
X162526517Y-62604716D01*
X162544794Y-62573059D01*
X162585069Y-62503301D01*
X162585072Y-62503292D01*
X162585078Y-62503284D01*
X162605574Y-62467785D01*
X162646498Y-62315057D01*
X162646498Y-62156943D01*
X162646498Y-62149348D01*
X162646497Y-62149330D01*
X162646497Y-60027060D01*
X162646498Y-60027047D01*
X162646498Y-59858944D01*
X162608923Y-59718716D01*
X162605574Y-59706216D01*
X162605570Y-59706209D01*
X162526521Y-59569290D01*
X162526515Y-59569282D01*
X162287114Y-59329881D01*
X162253629Y-59268558D01*
X162255020Y-59210106D01*
X162272204Y-59145977D01*
X162291274Y-58928000D01*
X162290639Y-58920745D01*
X162286757Y-58876374D01*
X162272204Y-58710023D01*
X162215572Y-58498670D01*
X162123099Y-58300362D01*
X162123097Y-58300359D01*
X162123096Y-58300357D01*
X161997594Y-58121121D01*
X161872152Y-57995679D01*
X161838667Y-57934356D01*
X161843651Y-57864664D01*
X161872148Y-57820321D01*
X161997595Y-57694875D01*
X162123099Y-57515637D01*
X162215572Y-57317328D01*
X162272204Y-57105975D01*
X162291274Y-56887998D01*
X162272204Y-56670021D01*
X162226775Y-56500478D01*
X162215574Y-56458675D01*
X162215573Y-56458674D01*
X162215572Y-56458668D01*
X162123099Y-56260360D01*
X162123097Y-56260357D01*
X162123096Y-56260355D01*
X161997596Y-56081122D01*
X161945723Y-56029249D01*
X161842874Y-55926400D01*
X161806685Y-55901060D01*
X161689373Y-55818916D01*
X161645748Y-55764339D01*
X161636497Y-55717342D01*
X161636497Y-55207059D01*
X161636498Y-55207046D01*
X161636498Y-55038945D01*
X161636498Y-55038943D01*
X161595574Y-54886215D01*
X161559378Y-54823522D01*
X161559377Y-54823520D01*
X161559377Y-54823519D01*
X161516521Y-54749290D01*
X161516518Y-54749286D01*
X161516517Y-54749284D01*
X161415680Y-54648447D01*
X161382196Y-54587124D01*
X161387180Y-54517432D01*
X161429052Y-54461499D01*
X161494517Y-54437082D01*
X161535454Y-54440991D01*
X161570943Y-54450501D01*
X161570944Y-54450501D01*
X161736654Y-54450501D01*
X161736670Y-54450500D01*
X164567588Y-54450500D01*
X164634627Y-54470185D01*
X164644903Y-54477555D01*
X164647736Y-54479814D01*
X164647738Y-54479816D01*
X164800478Y-54575789D01*
X164832872Y-54587124D01*
X164970745Y-54635368D01*
X164970750Y-54635369D01*
X165149996Y-54655565D01*
X165150000Y-54655565D01*
X165150004Y-54655565D01*
X165329249Y-54635369D01*
X165329252Y-54635368D01*
X165329255Y-54635368D01*
X165499522Y-54575789D01*
X165652262Y-54479816D01*
X165779816Y-54352262D01*
X165875789Y-54199522D01*
X165935368Y-54029255D01*
X165937973Y-54006137D01*
X165955565Y-53850003D01*
X165955565Y-53849996D01*
X165935369Y-53670750D01*
X165935368Y-53670745D01*
X165915898Y-53615103D01*
X165875789Y-53500478D01*
X165779816Y-53347738D01*
X165779814Y-53347736D01*
X165779813Y-53347734D01*
X165777550Y-53344896D01*
X165776659Y-53342715D01*
X165776111Y-53341842D01*
X165776264Y-53341745D01*
X165751144Y-53280209D01*
X165750500Y-53267587D01*
X165750500Y-52400097D01*
X165770185Y-52333058D01*
X165786819Y-52312416D01*
X167244416Y-50854819D01*
X167305739Y-50821334D01*
X167332097Y-50818500D01*
X175974314Y-50818500D01*
X176041353Y-50838185D01*
X176087108Y-50890989D01*
X176097052Y-50960147D01*
X176092086Y-50978246D01*
X176092527Y-50978365D01*
X176090424Y-50986213D01*
X176090423Y-50986215D01*
X176049499Y-51138943D01*
X176049499Y-51138945D01*
X176049499Y-51307046D01*
X176049500Y-51307059D01*
X176049500Y-51476054D01*
X176029815Y-51543093D01*
X176013181Y-51563735D01*
X175963180Y-51613735D01*
X175867207Y-51766474D01*
X175807627Y-51936743D01*
X175807626Y-51936748D01*
X175787431Y-52115994D01*
X175787431Y-52116001D01*
X175807626Y-52295247D01*
X175807627Y-52295252D01*
X175867207Y-52465521D01*
X175929483Y-52564632D01*
X175963180Y-52618260D01*
X176090734Y-52745814D01*
X176156666Y-52787242D01*
X176234663Y-52836251D01*
X176243474Y-52841787D01*
X176413741Y-52901366D01*
X176413746Y-52901367D01*
X176592992Y-52921563D01*
X176592996Y-52921563D01*
X176593000Y-52921563D01*
X176772245Y-52901367D01*
X176772248Y-52901366D01*
X176772251Y-52901366D01*
X176942518Y-52841787D01*
X177095258Y-52745814D01*
X177222812Y-52618260D01*
X177318785Y-52465520D01*
X177378364Y-52295253D01*
X177379205Y-52287788D01*
X177398561Y-52116001D01*
X177398561Y-52115994D01*
X177378365Y-51936748D01*
X177378364Y-51936743D01*
X177368327Y-51908058D01*
X177318785Y-51766476D01*
X177296673Y-51731285D01*
X177269506Y-51688048D01*
X177250500Y-51622076D01*
X177250500Y-51518097D01*
X177270185Y-51451058D01*
X177286819Y-51430416D01*
X177862416Y-50854819D01*
X177923739Y-50821334D01*
X177950097Y-50818500D01*
X183208060Y-50818500D01*
X183275099Y-50838185D01*
X183320854Y-50890989D01*
X183330798Y-50960147D01*
X183301773Y-51023703D01*
X183295741Y-51030181D01*
X183266184Y-51059737D01*
X183170211Y-51212476D01*
X183110631Y-51382745D01*
X183110630Y-51382750D01*
X183090435Y-51561996D01*
X183090435Y-51562003D01*
X183110630Y-51741249D01*
X183110631Y-51741254D01*
X183170211Y-51911523D01*
X183212603Y-51978989D01*
X183266184Y-52064262D01*
X183393738Y-52191816D01*
X183546478Y-52287789D01*
X183716745Y-52347368D01*
X183716750Y-52347369D01*
X183895996Y-52367565D01*
X183896000Y-52367565D01*
X183896004Y-52367565D01*
X184075249Y-52347369D01*
X184075252Y-52347368D01*
X184075255Y-52347368D01*
X184245522Y-52287789D01*
X184398262Y-52191816D01*
X184525816Y-52064262D01*
X184588483Y-51964528D01*
X184640816Y-51918237D01*
X184693476Y-51906500D01*
X187838699Y-51906500D01*
X187905738Y-51926185D01*
X187951493Y-51978989D01*
X187961437Y-52048147D01*
X187932412Y-52111703D01*
X187918404Y-52125490D01*
X187863288Y-52171735D01*
X188253670Y-52562117D01*
X188174250Y-52623058D01*
X187961057Y-52836251D01*
X187900116Y-52915671D01*
X187506356Y-52521911D01*
X187506355Y-52521911D01*
X187308828Y-52787236D01*
X187308824Y-52787242D01*
X187142832Y-53074750D01*
X187142826Y-53074763D01*
X187011335Y-53379591D01*
X186916120Y-53697634D01*
X186916117Y-53697648D01*
X186858473Y-54024562D01*
X186858472Y-54024573D01*
X186839169Y-54355996D01*
X186839169Y-54356003D01*
X186858472Y-54687426D01*
X186858473Y-54687437D01*
X186916117Y-55014351D01*
X186916120Y-55014365D01*
X187011335Y-55332408D01*
X187142826Y-55637236D01*
X187142832Y-55637249D01*
X187308823Y-55924755D01*
X187506356Y-56190087D01*
X187900115Y-55796328D01*
X187961057Y-55875749D01*
X188174250Y-56088942D01*
X188253669Y-56149882D01*
X187863288Y-56540263D01*
X187989214Y-56645925D01*
X188266587Y-56828356D01*
X188563251Y-56977347D01*
X188563257Y-56977350D01*
X188875212Y-57090892D01*
X188875233Y-57090899D01*
X189198247Y-57167456D01*
X189198262Y-57167458D01*
X189528011Y-57205999D01*
X189528012Y-57206000D01*
X189859986Y-57206000D01*
X189859986Y-57205999D01*
X190189735Y-57167458D01*
X190189750Y-57167456D01*
X190512764Y-57090899D01*
X190512785Y-57090892D01*
X190824740Y-56977350D01*
X190824746Y-56977347D01*
X191121410Y-56828356D01*
X191398788Y-56645922D01*
X191524707Y-56540263D01*
X191524708Y-56540262D01*
X191134328Y-56149882D01*
X191213748Y-56088942D01*
X191426941Y-55875749D01*
X191487881Y-55796329D01*
X191881640Y-56190088D01*
X192079174Y-55924756D01*
X192245165Y-55637249D01*
X192245171Y-55637236D01*
X192376662Y-55332408D01*
X192471877Y-55014365D01*
X192471880Y-55014351D01*
X192529524Y-54687437D01*
X192529525Y-54687426D01*
X192548829Y-54356003D01*
X192548829Y-54355996D01*
X192529525Y-54024573D01*
X192529524Y-54024562D01*
X192471880Y-53697648D01*
X192471877Y-53697634D01*
X192376662Y-53379591D01*
X192245171Y-53074763D01*
X192245165Y-53074750D01*
X192079171Y-52787239D01*
X191881641Y-52521910D01*
X191487881Y-52915670D01*
X191426941Y-52836251D01*
X191213748Y-52623058D01*
X191134327Y-52562116D01*
X191524708Y-52171736D01*
X191524708Y-52171735D01*
X191469594Y-52125490D01*
X191430891Y-52067319D01*
X191429782Y-51997458D01*
X191466619Y-51938088D01*
X191529706Y-51908058D01*
X191549299Y-51906500D01*
X193543904Y-51906500D01*
X193610943Y-51926185D01*
X193631585Y-51942819D01*
X194138022Y-52449256D01*
X194171507Y-52510579D01*
X194166523Y-52580271D01*
X194152975Y-52606523D01*
X194104696Y-52677730D01*
X193939598Y-52989137D01*
X193939589Y-52989155D01*
X193809128Y-53316589D01*
X193809127Y-53316591D01*
X193714835Y-53656203D01*
X193714834Y-53656206D01*
X193657809Y-54004045D01*
X193638727Y-54355997D01*
X193638727Y-54356002D01*
X193657809Y-54707954D01*
X193687033Y-54886214D01*
X193712071Y-55038943D01*
X193714834Y-55055793D01*
X193714835Y-55055796D01*
X193809127Y-55395408D01*
X193809128Y-55395410D01*
X193939589Y-55722844D01*
X193939598Y-55722862D01*
X194039369Y-55911049D01*
X194104696Y-56034269D01*
X194297068Y-56317997D01*
X194302499Y-56326006D01*
X194302506Y-56326016D01*
X194498806Y-56557117D01*
X194530687Y-56594650D01*
X194786581Y-56837046D01*
X194786588Y-56837051D01*
X194786590Y-56837053D01*
X194806825Y-56852435D01*
X195067183Y-57050354D01*
X195369203Y-57232074D01*
X195369207Y-57232075D01*
X195369211Y-57232078D01*
X195689089Y-57380070D01*
X195689093Y-57380070D01*
X195689100Y-57380074D01*
X196023123Y-57492619D01*
X196367356Y-57568391D01*
X196717764Y-57606500D01*
X196717770Y-57606500D01*
X197070232Y-57606500D01*
X197070238Y-57606500D01*
X197420646Y-57568391D01*
X197764879Y-57492619D01*
X198098902Y-57380074D01*
X198098909Y-57380070D01*
X198098912Y-57380070D01*
X198418790Y-57232078D01*
X198418799Y-57232074D01*
X198720819Y-57050354D01*
X199001421Y-56837046D01*
X199257315Y-56594650D01*
X199485502Y-56326008D01*
X199683306Y-56034269D01*
X199848408Y-55722854D01*
X199978872Y-55395414D01*
X199992110Y-55347737D01*
X200023636Y-55234188D01*
X200073169Y-55055788D01*
X200130192Y-54707957D01*
X200149275Y-54356000D01*
X200148270Y-54337472D01*
X200131305Y-54024573D01*
X200130192Y-54004043D01*
X200073169Y-53656212D01*
X200029929Y-53500476D01*
X199978874Y-53316591D01*
X199978873Y-53316589D01*
X199962969Y-53276674D01*
X199913303Y-53152019D01*
X199848412Y-52989155D01*
X199848403Y-52989137D01*
X199683306Y-52677731D01*
X199485502Y-52385992D01*
X199485498Y-52385987D01*
X199485495Y-52385983D01*
X199257315Y-52117350D01*
X199234094Y-52095354D01*
X199001421Y-51874954D01*
X199001414Y-51874948D01*
X199001411Y-51874946D01*
X198720816Y-51661644D01*
X198418803Y-51479928D01*
X198418790Y-51479921D01*
X198098912Y-51331929D01*
X198098907Y-51331928D01*
X198098904Y-51331927D01*
X198098902Y-51331926D01*
X197992433Y-51296052D01*
X197764881Y-51219381D01*
X197420644Y-51143608D01*
X197070239Y-51105500D01*
X197070238Y-51105500D01*
X196717764Y-51105500D01*
X196717762Y-51105500D01*
X196367357Y-51143608D01*
X196023120Y-51219381D01*
X195689094Y-51331928D01*
X195689089Y-51331929D01*
X195369211Y-51479921D01*
X195369203Y-51479925D01*
X195138818Y-51618543D01*
X195071227Y-51636238D01*
X195004798Y-51614581D01*
X194987209Y-51599973D01*
X194417417Y-51030181D01*
X194383932Y-50968858D01*
X194388916Y-50899166D01*
X194430788Y-50843233D01*
X194496252Y-50818816D01*
X194505098Y-50818500D01*
X211675500Y-50818500D01*
X211742539Y-50838185D01*
X211788294Y-50890989D01*
X211799500Y-50942500D01*
X211799500Y-52729902D01*
X211779815Y-52796941D01*
X211763181Y-52817583D01*
X210903065Y-53677698D01*
X210841742Y-53711183D01*
X210829268Y-53713237D01*
X210742350Y-53723030D01*
X210572078Y-53782610D01*
X210419337Y-53878584D01*
X210291784Y-54006137D01*
X210195811Y-54158876D01*
X210136231Y-54329145D01*
X210136230Y-54329150D01*
X210116035Y-54508396D01*
X210116035Y-54508403D01*
X210136230Y-54687649D01*
X210136231Y-54687654D01*
X210195811Y-54857923D01*
X210249585Y-54943503D01*
X210291784Y-55010662D01*
X210419338Y-55138216D01*
X210572078Y-55234189D01*
X210742345Y-55293768D01*
X210742350Y-55293769D01*
X210921596Y-55313965D01*
X210921600Y-55313965D01*
X210921604Y-55313965D01*
X211100849Y-55293769D01*
X211100852Y-55293768D01*
X211100855Y-55293768D01*
X211271122Y-55234189D01*
X211423862Y-55138216D01*
X211423867Y-55138210D01*
X211426697Y-55135955D01*
X211428875Y-55135065D01*
X211429758Y-55134511D01*
X211429855Y-55134665D01*
X211491383Y-55109545D01*
X211504012Y-55108900D01*
X213612032Y-55108900D01*
X213652985Y-55115858D01*
X213663738Y-55119620D01*
X213688743Y-55128370D01*
X213688750Y-55128370D01*
X213688751Y-55128371D01*
X213867994Y-55148567D01*
X213867998Y-55148567D01*
X213868002Y-55148567D01*
X214047247Y-55128371D01*
X214047250Y-55128370D01*
X214047253Y-55128370D01*
X214217520Y-55068791D01*
X214370260Y-54972818D01*
X214370265Y-54972812D01*
X214373095Y-54970557D01*
X214375273Y-54969667D01*
X214376156Y-54969113D01*
X214376253Y-54969267D01*
X214437781Y-54944147D01*
X214450410Y-54943502D01*
X217820329Y-54943502D01*
X217820345Y-54943503D01*
X217827941Y-54943503D01*
X217986052Y-54943503D01*
X217986055Y-54943503D01*
X218138783Y-54902579D01*
X218188902Y-54873641D01*
X218275714Y-54823522D01*
X218387518Y-54711718D01*
X218387518Y-54711716D01*
X218397726Y-54701509D01*
X218397728Y-54701506D01*
X218918535Y-54180698D01*
X218979856Y-54147215D01*
X218992311Y-54145163D01*
X219079255Y-54135368D01*
X219249522Y-54075789D01*
X219402262Y-53979816D01*
X219529816Y-53852262D01*
X219625789Y-53699522D01*
X219685368Y-53529255D01*
X219685369Y-53529249D01*
X219705565Y-53350003D01*
X219705565Y-53349996D01*
X219685369Y-53170750D01*
X219685368Y-53170745D01*
X219625788Y-53000476D01*
X219529815Y-52847737D01*
X219402262Y-52720184D01*
X219249523Y-52624211D01*
X219079254Y-52564631D01*
X219079249Y-52564630D01*
X218900004Y-52544435D01*
X218899996Y-52544435D01*
X218720750Y-52564630D01*
X218720745Y-52564631D01*
X218550476Y-52624211D01*
X218397737Y-52720184D01*
X218270184Y-52847737D01*
X218174210Y-53000478D01*
X218114630Y-53170750D01*
X218104837Y-53257668D01*
X218077770Y-53322082D01*
X218069298Y-53331465D01*
X217694582Y-53706183D01*
X217633259Y-53739668D01*
X217606901Y-53742502D01*
X214450410Y-53742502D01*
X214383371Y-53722817D01*
X214373095Y-53715447D01*
X214370261Y-53713187D01*
X214370260Y-53713186D01*
X214302716Y-53670745D01*
X214217521Y-53617213D01*
X214047252Y-53557633D01*
X214047247Y-53557632D01*
X213868002Y-53537437D01*
X213867994Y-53537437D01*
X213688748Y-53557632D01*
X213688743Y-53557633D01*
X213518474Y-53617213D01*
X213365735Y-53713186D01*
X213238182Y-53840739D01*
X213238180Y-53840742D01*
X213232443Y-53849873D01*
X213180108Y-53896164D01*
X213127450Y-53907900D01*
X212670696Y-53907900D01*
X212603657Y-53888215D01*
X212557902Y-53835411D01*
X212547958Y-53766253D01*
X212576983Y-53702697D01*
X212583015Y-53696219D01*
X212664131Y-53615103D01*
X212758506Y-53520727D01*
X212758511Y-53520724D01*
X212768714Y-53510520D01*
X212768716Y-53510520D01*
X212880520Y-53398716D01*
X212959577Y-53261784D01*
X213000500Y-53109057D01*
X213000500Y-50520943D01*
X212959577Y-50368216D01*
X212959577Y-50368215D01*
X212942212Y-50338140D01*
X212918494Y-50297057D01*
X212880522Y-50231287D01*
X212880521Y-50231286D01*
X212880520Y-50231284D01*
X212768716Y-50119480D01*
X212768715Y-50119479D01*
X212764385Y-50115149D01*
X212764374Y-50115139D01*
X212505591Y-49856356D01*
X212505589Y-49856353D01*
X212386718Y-49737482D01*
X212386717Y-49737481D01*
X212299905Y-49687361D01*
X212299905Y-49687360D01*
X212299901Y-49687359D01*
X212249786Y-49658424D01*
X212097058Y-49617500D01*
X212097055Y-49617500D01*
X177739060Y-49617500D01*
X177739048Y-49617499D01*
X177729058Y-49617499D01*
X177570943Y-49617499D01*
X177563347Y-49617499D01*
X177563331Y-49617500D01*
X167118669Y-49617500D01*
X167118653Y-49617499D01*
X167111057Y-49617499D01*
X166952943Y-49617499D01*
X166845587Y-49646265D01*
X166800210Y-49658424D01*
X166800209Y-49658425D01*
X166750096Y-49687359D01*
X166750095Y-49687360D01*
X166709530Y-49710780D01*
X166663285Y-49737479D01*
X166663282Y-49737481D01*
X164669481Y-51731282D01*
X164669479Y-51731285D01*
X164663724Y-51741254D01*
X164623182Y-51811475D01*
X164590423Y-51868215D01*
X164549499Y-52020943D01*
X164549499Y-52020945D01*
X164549499Y-52189046D01*
X164549500Y-52189059D01*
X164549500Y-53125500D01*
X164529815Y-53192539D01*
X164477011Y-53238294D01*
X164425500Y-53249500D01*
X162050909Y-53249500D01*
X161983870Y-53229815D01*
X161938115Y-53177011D01*
X161933867Y-53166455D01*
X161913782Y-53109055D01*
X161875789Y-53000478D01*
X161779816Y-52847738D01*
X161652262Y-52720184D01*
X161584697Y-52677730D01*
X161499523Y-52624211D01*
X161329254Y-52564631D01*
X161329249Y-52564630D01*
X161150004Y-52544435D01*
X161149996Y-52544435D01*
X160970750Y-52564630D01*
X160970745Y-52564631D01*
X160800476Y-52624211D01*
X160647737Y-52720184D01*
X160520184Y-52847737D01*
X160424211Y-53000476D01*
X160364631Y-53170745D01*
X160364631Y-53170748D01*
X160359953Y-53212261D01*
X160332885Y-53276674D01*
X160275289Y-53316228D01*
X160205452Y-53318365D01*
X160201300Y-53317099D01*
X160199243Y-53316630D01*
X160020001Y-53296435D01*
X160019993Y-53296435D01*
X159840747Y-53316630D01*
X159840742Y-53316631D01*
X159670473Y-53376211D01*
X159517734Y-53472184D01*
X159390181Y-53599737D01*
X159294208Y-53752476D01*
X159234628Y-53922745D01*
X159234627Y-53922750D01*
X159213652Y-54108919D01*
X159212236Y-54108759D01*
X159194747Y-54168320D01*
X159141943Y-54214075D01*
X159072785Y-54224019D01*
X159058340Y-54221056D01*
X159045055Y-54217496D01*
X159045053Y-54217496D01*
X158886939Y-54217496D01*
X158879343Y-54217496D01*
X158879327Y-54217497D01*
X155268672Y-54217497D01*
X155268656Y-54217496D01*
X155261060Y-54217496D01*
X155102946Y-54217496D01*
X154995590Y-54246262D01*
X154950213Y-54258421D01*
X154950212Y-54258422D01*
X154910668Y-54281254D01*
X154910666Y-54281255D01*
X154813293Y-54337472D01*
X154813285Y-54337478D01*
X153697478Y-55453285D01*
X153697476Y-55453288D01*
X153670233Y-55500476D01*
X153670232Y-55500478D01*
X153618420Y-55590217D01*
X153606004Y-55636553D01*
X153577496Y-55742946D01*
X153577496Y-55742948D01*
X153577496Y-55911049D01*
X153577497Y-55911062D01*
X153577497Y-60405902D01*
X153557812Y-60472941D01*
X153541178Y-60493583D01*
X151919478Y-62115282D01*
X151919476Y-62115285D01*
X151869358Y-62202094D01*
X151869356Y-62202096D01*
X151840422Y-62252209D01*
X151840421Y-62252210D01*
X151840420Y-62252215D01*
X151799496Y-62404943D01*
X151799496Y-62404945D01*
X151799496Y-62573046D01*
X151799497Y-62573059D01*
X151799497Y-80591360D01*
X151799496Y-80591378D01*
X151799496Y-80757084D01*
X151799495Y-80757084D01*
X151150500Y-80757084D01*
X151150500Y-52528219D01*
X154795497Y-52528219D01*
X154801264Y-52564630D01*
X154829982Y-52745949D01*
X154898100Y-52955600D01*
X154898101Y-52955603D01*
X154998184Y-53152022D01*
X155127749Y-53330355D01*
X155127753Y-53330360D01*
X155283633Y-53486240D01*
X155283638Y-53486244D01*
X155381898Y-53557633D01*
X155461975Y-53615812D01*
X155541264Y-53656212D01*
X155658390Y-53715892D01*
X155658393Y-53715893D01*
X155731567Y-53739668D01*
X155868046Y-53784012D01*
X156085775Y-53818497D01*
X156085776Y-53818497D01*
X156306218Y-53818497D01*
X156306219Y-53818497D01*
X156523948Y-53784012D01*
X156733603Y-53715892D01*
X156930019Y-53615812D01*
X157108362Y-53486239D01*
X157264239Y-53330362D01*
X157393812Y-53152019D01*
X157493892Y-52955603D01*
X157562012Y-52745948D01*
X157596497Y-52528219D01*
X157596497Y-52307775D01*
X157562012Y-52090046D01*
X157504007Y-51911522D01*
X157493893Y-51880393D01*
X157493892Y-51880390D01*
X157458777Y-51811474D01*
X157393812Y-51683975D01*
X157346954Y-51619480D01*
X157264244Y-51505638D01*
X157264240Y-51505633D01*
X157108360Y-51349753D01*
X157108355Y-51349749D01*
X156930022Y-51220184D01*
X156930021Y-51220183D01*
X156930019Y-51220182D01*
X156867093Y-51188119D01*
X156733603Y-51120101D01*
X156733600Y-51120100D01*
X156523949Y-51051982D01*
X156386302Y-51030181D01*
X156306219Y-51017497D01*
X156085775Y-51017497D01*
X156046592Y-51023703D01*
X155868044Y-51051982D01*
X155658393Y-51120100D01*
X155658390Y-51120101D01*
X155461971Y-51220184D01*
X155283638Y-51349749D01*
X155283633Y-51349753D01*
X155127753Y-51505633D01*
X155127749Y-51505638D01*
X154998184Y-51683971D01*
X154898101Y-51880390D01*
X154898100Y-51880393D01*
X154829982Y-52090044D01*
X154814302Y-52189046D01*
X154795497Y-52307775D01*
X154795497Y-52528219D01*
X151150500Y-52528219D01*
X151150500Y-48350500D01*
X151170185Y-48283461D01*
X151222989Y-48237706D01*
X151292147Y-48227762D01*
X151355703Y-48256787D01*
X151381887Y-48288500D01*
X151472979Y-48446278D01*
X151674705Y-48717241D01*
X151676889Y-48719556D01*
X152605747Y-47790697D01*
X152679588Y-47892330D01*
X152857670Y-48070412D01*
X152959300Y-48144250D01*
X152033798Y-49069752D01*
X152033799Y-49069753D01*
X152165301Y-49180097D01*
X152447545Y-49365731D01*
X152749414Y-49517336D01*
X152749420Y-49517339D01*
X153066848Y-49632873D01*
X153066869Y-49632880D01*
X153395551Y-49710780D01*
X153395566Y-49710782D01*
X153731100Y-49749999D01*
X153731101Y-49750000D01*
X154068899Y-49750000D01*
X154068899Y-49749999D01*
X154404433Y-49710782D01*
X154404448Y-49710780D01*
X154733130Y-49632880D01*
X154733151Y-49632873D01*
X155050579Y-49517339D01*
X155050585Y-49517336D01*
X155352454Y-49365731D01*
X155634692Y-49180101D01*
X155634693Y-49180100D01*
X155766199Y-49069753D01*
X155766200Y-49069752D01*
X154840698Y-48144251D01*
X154942330Y-48070412D01*
X155120412Y-47892330D01*
X155194251Y-47790698D01*
X156123109Y-48719556D01*
X156125299Y-48717235D01*
X156327020Y-48446278D01*
X156495924Y-48153727D01*
X156495930Y-48153714D01*
X156629726Y-47843540D01*
X156726614Y-47519911D01*
X156726616Y-47519902D01*
X156785271Y-47187251D01*
X156785272Y-47187240D01*
X156804915Y-46850003D01*
X156804915Y-46849996D01*
X156785272Y-46512759D01*
X156785271Y-46512748D01*
X156726616Y-46180097D01*
X156726614Y-46180088D01*
X156629726Y-45856459D01*
X156495930Y-45546285D01*
X156495924Y-45546272D01*
X156327020Y-45253721D01*
X156125291Y-44982753D01*
X156123110Y-44980442D01*
X156123109Y-44980441D01*
X155194250Y-45909300D01*
X155120412Y-45807670D01*
X154942330Y-45629588D01*
X154840698Y-45555748D01*
X155766200Y-44630246D01*
X155766199Y-44630245D01*
X155634698Y-44519902D01*
X155352448Y-44334263D01*
X155349339Y-44332469D01*
X155350090Y-44331166D01*
X155303457Y-44287637D01*
X155286265Y-44219915D01*
X155308415Y-44153649D01*
X155362874Y-44109878D01*
X155410180Y-44100500D01*
X234389820Y-44100500D01*
X234456859Y-44120185D01*
G37*
%TD.AperFunction*%
%TD*%
%TA.AperFunction,Conductor*%
%TO.N,VMOT*%
G36*
X176320639Y-96590485D02*
G01*
X176366394Y-96643289D01*
X176377600Y-96694800D01*
X176377600Y-99618238D01*
X176357915Y-99685277D01*
X176341281Y-99705919D01*
X175855119Y-100192081D01*
X175793796Y-100225566D01*
X175767438Y-100228400D01*
X172771362Y-100228400D01*
X172704323Y-100208715D01*
X172683681Y-100192081D01*
X172400719Y-99909119D01*
X172367234Y-99847796D01*
X172364400Y-99821438D01*
X172364400Y-96916500D01*
X172384085Y-96849461D01*
X172436889Y-96803706D01*
X172488400Y-96792500D01*
X173178882Y-96792500D01*
X173192765Y-96793279D01*
X173205136Y-96794673D01*
X173227999Y-96797250D01*
X173228000Y-96797250D01*
X173228001Y-96797250D01*
X173248661Y-96794921D01*
X173263233Y-96793279D01*
X173277117Y-96792500D01*
X173525872Y-96792500D01*
X173525873Y-96792500D01*
X173585484Y-96786092D01*
X173720332Y-96735797D01*
X173835547Y-96649547D01*
X173857300Y-96620487D01*
X173913233Y-96578618D01*
X173956566Y-96570800D01*
X176253600Y-96570800D01*
X176320639Y-96590485D01*
G37*
%TD.AperFunction*%
%TD*%
%TA.AperFunction,Conductor*%
%TO.N,+12V*%
G36*
X170703677Y-67329685D02*
G01*
X170724319Y-67346319D01*
X170905681Y-67527681D01*
X170939166Y-67589004D01*
X170942000Y-67615362D01*
X170942000Y-89610637D01*
X170922315Y-89677676D01*
X170905681Y-89698318D01*
X167471548Y-93132450D01*
X167449839Y-93149763D01*
X167297495Y-93245487D01*
X167169942Y-93373040D01*
X167074218Y-93525384D01*
X167056905Y-93547093D01*
X166660319Y-93943681D01*
X166598996Y-93977166D01*
X166572638Y-93980000D01*
X156769362Y-93980000D01*
X156702323Y-93960315D01*
X156681681Y-93943681D01*
X156500319Y-93762319D01*
X156466834Y-93700996D01*
X156464000Y-93674638D01*
X156464000Y-90221362D01*
X156483685Y-90154323D01*
X156500319Y-90133681D01*
X157189681Y-89444319D01*
X157251004Y-89410834D01*
X157277362Y-89408000D01*
X165100000Y-89408000D01*
X166878000Y-87630000D01*
X166878000Y-67869362D01*
X166897685Y-67802323D01*
X166914319Y-67781681D01*
X167349681Y-67346319D01*
X167411004Y-67312834D01*
X167437362Y-67310000D01*
X170636638Y-67310000D01*
X170703677Y-67329685D01*
G37*
%TD.AperFunction*%
%TD*%
%TA.AperFunction,Conductor*%
%TO.N,GND*%
G36*
X214630000Y-78740000D02*
G01*
X214020400Y-79349600D01*
X187909200Y-79349600D01*
X187553600Y-78994000D01*
X187553600Y-74795635D01*
X187862416Y-74486819D01*
X187923739Y-74453334D01*
X187950097Y-74450500D01*
X212599903Y-74450500D01*
X212666942Y-74470185D01*
X212687584Y-74486819D01*
X212700559Y-74499794D01*
X212729919Y-74546520D01*
X212764211Y-74644519D01*
X212764213Y-74644522D01*
X212860186Y-74797262D01*
X212987740Y-74924816D01*
X213140480Y-75020789D01*
X213310747Y-75080368D01*
X213310752Y-75080369D01*
X213489998Y-75100565D01*
X213490002Y-75100565D01*
X213490006Y-75100565D01*
X213669251Y-75080369D01*
X213669254Y-75080368D01*
X213669257Y-75080368D01*
X213839524Y-75020789D01*
X213992264Y-74924816D01*
X214119818Y-74797262D01*
X214215791Y-74644522D01*
X214275370Y-74474255D01*
X214275829Y-74470185D01*
X214295567Y-74295003D01*
X214295567Y-74294996D01*
X214275371Y-74115750D01*
X214275370Y-74115745D01*
X214215790Y-73945476D01*
X214119817Y-73792737D01*
X213992264Y-73665184D01*
X213839525Y-73569211D01*
X213669256Y-73509631D01*
X213669251Y-73509630D01*
X213490006Y-73489435D01*
X213490004Y-73489435D01*
X213490002Y-73489435D01*
X213481265Y-73490419D01*
X213458267Y-73493010D01*
X213389446Y-73480953D01*
X213356706Y-73457470D01*
X213268717Y-73369481D01*
X213268716Y-73369480D01*
X213181904Y-73319360D01*
X213181904Y-73319359D01*
X213181900Y-73319358D01*
X213131785Y-73290423D01*
X212994362Y-73253600D01*
X214630000Y-73253600D01*
X214630000Y-78740000D01*
G37*
%TD.AperFunction*%
%TD*%
%TA.AperFunction,Conductor*%
%TO.N,GND*%
G36*
X214274400Y-87782400D02*
G01*
X213664800Y-88392000D01*
X201950833Y-88392000D01*
X201955565Y-88350003D01*
X201955565Y-88349996D01*
X201935369Y-88170750D01*
X201935368Y-88170745D01*
X201875788Y-88000476D01*
X201779815Y-87847737D01*
X201652262Y-87720184D01*
X201499523Y-87624211D01*
X201329254Y-87564631D01*
X201329249Y-87564630D01*
X201150004Y-87544435D01*
X201149996Y-87544435D01*
X200970750Y-87564630D01*
X200970745Y-87564631D01*
X200800476Y-87624211D01*
X200647736Y-87720185D01*
X200644903Y-87722445D01*
X200642724Y-87723334D01*
X200641842Y-87723889D01*
X200641744Y-87723734D01*
X200580217Y-87748855D01*
X200567588Y-87749500D01*
X187198000Y-87749500D01*
X187198000Y-82950500D01*
X212567588Y-82950500D01*
X212634627Y-82970185D01*
X212644903Y-82977555D01*
X212647736Y-82979814D01*
X212647738Y-82979816D01*
X212800478Y-83075789D01*
X212970745Y-83135368D01*
X212970750Y-83135369D01*
X213149996Y-83155565D01*
X213150000Y-83155565D01*
X213150004Y-83155565D01*
X213329249Y-83135369D01*
X213329252Y-83135368D01*
X213329255Y-83135368D01*
X213499522Y-83075789D01*
X213652262Y-82979816D01*
X213779816Y-82852262D01*
X213875789Y-82699522D01*
X213935368Y-82529255D01*
X213935369Y-82529249D01*
X213955565Y-82350003D01*
X213955565Y-82349996D01*
X213949481Y-82296000D01*
X214274400Y-82296000D01*
X214274400Y-87782400D01*
G37*
%TD.AperFunction*%
%TD*%
%TA.AperFunction,Conductor*%
%TO.N,GND*%
G36*
X201940017Y-64930520D02*
G01*
X202006175Y-64968716D01*
X202076948Y-65009577D01*
X202229676Y-65050501D01*
X202229679Y-65050501D01*
X202395386Y-65050501D01*
X202395402Y-65050500D01*
X204925500Y-65050500D01*
X204992539Y-65070185D01*
X205038294Y-65122989D01*
X205049500Y-65174500D01*
X205049500Y-65344601D01*
X205030494Y-65410573D01*
X205014214Y-65436482D01*
X204954638Y-65606738D01*
X204954635Y-65606751D01*
X204934440Y-65785997D01*
X204934440Y-65786004D01*
X204954635Y-65965250D01*
X204954636Y-65965255D01*
X205014216Y-66135524D01*
X205054429Y-66199522D01*
X205110189Y-66288263D01*
X205237743Y-66415817D01*
X205390483Y-66511790D01*
X205560750Y-66571369D01*
X205560755Y-66571370D01*
X205740001Y-66591566D01*
X205740005Y-66591566D01*
X205740009Y-66591566D01*
X205919254Y-66571370D01*
X205919257Y-66571369D01*
X205919260Y-66571369D01*
X206089527Y-66511790D01*
X206242267Y-66415817D01*
X206369821Y-66288263D01*
X206465794Y-66135523D01*
X206525373Y-65965256D01*
X206545570Y-65786001D01*
X206545570Y-65785997D01*
X206525417Y-65607131D01*
X206537472Y-65538309D01*
X206584821Y-65486930D01*
X206652431Y-65469306D01*
X206710636Y-65485861D01*
X206735954Y-65500478D01*
X206838317Y-65559577D01*
X206991044Y-65600501D01*
X206991046Y-65600501D01*
X207156755Y-65600501D01*
X207156771Y-65600500D01*
X211749903Y-65600500D01*
X211816942Y-65620185D01*
X211837584Y-65636819D01*
X212069298Y-65868533D01*
X212102783Y-65929856D01*
X212104837Y-65942330D01*
X212114630Y-66029249D01*
X212174210Y-66199521D01*
X212229971Y-66288263D01*
X212270184Y-66352262D01*
X212397738Y-66479816D01*
X212488080Y-66536582D01*
X212543443Y-66571369D01*
X212550478Y-66575789D01*
X212720745Y-66635368D01*
X212720750Y-66635369D01*
X212899996Y-66655565D01*
X212900000Y-66655565D01*
X212900004Y-66655565D01*
X213079249Y-66635369D01*
X213079252Y-66635368D01*
X213079255Y-66635368D01*
X213249522Y-66575789D01*
X213402262Y-66479816D01*
X213529816Y-66352262D01*
X213625789Y-66199522D01*
X213685368Y-66029255D01*
X213695162Y-65942330D01*
X213705565Y-65850003D01*
X213705565Y-65849996D01*
X213685369Y-65670750D01*
X213685368Y-65670745D01*
X213663108Y-65607131D01*
X213625789Y-65500478D01*
X213529816Y-65347738D01*
X213402262Y-65220184D01*
X213249521Y-65124210D01*
X213101849Y-65072538D01*
X213079255Y-65064632D01*
X213079254Y-65064631D01*
X213079249Y-65064630D01*
X212992330Y-65054837D01*
X212927916Y-65027770D01*
X212918533Y-65019298D01*
X212770835Y-64871600D01*
X214680800Y-64871600D01*
X214680800Y-70358000D01*
X214071200Y-70967600D01*
X187960000Y-70967600D01*
X187604400Y-70612000D01*
X187604400Y-64871600D01*
X201881097Y-64871600D01*
X201940017Y-64930520D01*
G37*
%TD.AperFunction*%
%TD*%
D22*
X158496000Y-62128400D03*
X228650000Y-55850000D03*
X210921600Y-54508400D03*
X227150000Y-56850000D03*
X161544000Y-66141600D03*
X176592996Y-52115998D03*
X218900000Y-53350000D03*
X161150000Y-53350000D03*
X155650000Y-59100000D03*
X165150000Y-53850000D03*
X213867998Y-54343002D03*
X189650000Y-67350000D03*
X191150000Y-83850000D03*
X191150000Y-77100000D03*
X189650000Y-77100000D03*
X192650000Y-85350000D03*
X191150000Y-83100000D03*
X192150000Y-62100000D03*
X192650000Y-76350000D03*
X189650000Y-65850000D03*
X192650000Y-74850000D03*
X189650000Y-84600000D03*
X212547200Y-85090000D03*
X191150000Y-68100000D03*
X190150000Y-58600000D03*
X191150000Y-67350000D03*
X235051600Y-56134000D03*
X213715600Y-77546200D03*
X188650000Y-58600000D03*
X188150000Y-74850000D03*
X187150000Y-58600000D03*
X188150000Y-68100000D03*
X213639400Y-68935600D03*
X192650000Y-77100000D03*
X189650000Y-83850000D03*
X191150000Y-75600000D03*
X192650000Y-68100000D03*
X216103200Y-91287600D03*
X192650000Y-83850000D03*
X191150000Y-66600000D03*
X191150000Y-76350000D03*
X188150000Y-75600000D03*
X192650000Y-84600000D03*
X164592000Y-63195200D03*
X189650000Y-83100000D03*
X191650000Y-58600000D03*
X213639400Y-67665600D03*
X170400000Y-58850000D03*
X189650000Y-74850000D03*
X225150000Y-51600000D03*
X188150000Y-83850000D03*
X188150000Y-84600000D03*
X188150000Y-77100000D03*
X189650000Y-66600000D03*
X185921000Y-86621000D03*
X226400000Y-54350000D03*
X191150000Y-84600000D03*
X188150000Y-66600000D03*
X188150000Y-85350000D03*
X192650000Y-65850000D03*
X191150000Y-65850000D03*
X190650000Y-62100000D03*
X192650000Y-83100000D03*
X191150000Y-74850000D03*
X212572600Y-76276200D03*
X213360000Y-85090000D03*
X189650000Y-75600000D03*
X213639400Y-76250800D03*
X189650000Y-76350000D03*
X212496400Y-86360000D03*
X212826600Y-67665600D03*
X189150000Y-62100000D03*
X212598000Y-77571600D03*
X226669600Y-55727600D03*
X188150000Y-65850000D03*
X188150000Y-86600000D03*
X231546400Y-51612800D03*
X191150000Y-85350000D03*
X233121200Y-56134000D03*
X170150000Y-54600000D03*
X162900000Y-73600000D03*
X211650000Y-51600000D03*
X162864800Y-77520800D03*
X192650000Y-67350000D03*
X223008413Y-56536571D03*
X192650000Y-66600000D03*
X213360000Y-86360000D03*
X170150000Y-63350000D03*
X210820000Y-90728800D03*
X212775800Y-68935600D03*
X188150000Y-83100000D03*
X189650000Y-85350000D03*
X207900000Y-55600000D03*
X188150000Y-67350000D03*
X192650000Y-75600000D03*
X187650000Y-62100000D03*
X188150000Y-76350000D03*
X189650000Y-68100000D03*
X164337997Y-82042000D03*
X164675731Y-69766264D03*
X165524262Y-68917735D03*
X165191997Y-74168000D03*
X163991997Y-74168000D03*
X160781997Y-63500000D03*
X170434000Y-71374000D03*
X168910000Y-90271600D03*
X168910000Y-74168000D03*
X164744400Y-91033600D03*
X156870400Y-90779600D03*
X167132000Y-78486000D03*
X168390742Y-81811397D03*
X168909997Y-83820000D03*
X167132000Y-68072000D03*
X164846000Y-92811600D03*
X156870400Y-93726000D03*
X161950400Y-91033600D03*
X156870400Y-91694000D03*
X161899600Y-92811600D03*
X156870400Y-92760800D03*
X207650000Y-63600000D03*
X175150000Y-70600000D03*
X210900000Y-58350000D03*
X176900000Y-64600000D03*
X175150000Y-78600000D03*
X218150000Y-80100000D03*
X221900000Y-62350000D03*
X175612751Y-74062751D03*
X175650000Y-86850000D03*
X201150000Y-88350000D03*
X175300000Y-80850000D03*
X224650000Y-62600000D03*
X226698000Y-62600000D03*
X227900000Y-62600000D03*
X175768000Y-96926400D03*
X175768000Y-97891600D03*
X175768000Y-99110800D03*
X172872400Y-98552000D03*
X172872400Y-97180400D03*
X217932000Y-64008000D03*
X224536000Y-65278000D03*
X223520000Y-64316000D03*
X223266000Y-62716000D03*
X160019997Y-54102000D03*
X205740005Y-65786001D03*
X184650000Y-67064000D03*
X186900000Y-73350000D03*
X204400000Y-73100000D03*
X204216000Y-81750000D03*
X186900000Y-81750000D03*
X212900000Y-65850000D03*
X183642002Y-69857998D03*
X213490002Y-74295000D03*
X183150000Y-78350000D03*
X213150000Y-82350000D03*
X183150000Y-85689998D03*
X165183732Y-82720265D03*
X166032262Y-81871735D03*
X168426940Y-93378668D03*
X212090000Y-57912000D03*
X167799758Y-93875303D03*
X221488000Y-57912000D03*
X163322000Y-84328000D03*
X230632000Y-57658000D03*
X163322000Y-87722000D03*
X167300000Y-94500000D03*
X214630000Y-61468000D03*
X205232000Y-61350146D03*
X195900000Y-58600000D03*
X194900000Y-58600000D03*
X223993963Y-61350146D03*
X201930000Y-60960000D03*
X183896000Y-51562000D03*
D23*
X231948719Y-73978431D03*
X229198719Y-78741569D03*
X234696000Y-78740000D03*
X189693999Y-54356000D03*
X196894001Y-54356000D03*
X156195997Y-52417997D03*
X156195996Y-64417999D03*
X160995997Y-60967997D03*
X158495997Y-59947999D03*
X161035997Y-58928000D03*
X158495998Y-57907999D03*
X161035997Y-56887998D03*
X158495996Y-55867997D03*
X235900000Y-103600000D03*
D24*
X172228000Y-96042003D03*
X171228000Y-96042002D03*
X173228000Y-96042001D03*
X171228002Y-94742001D03*
X173228002Y-94742000D03*
X172228002Y-94741999D03*
D23*
X153900000Y-46850000D03*
X157225998Y-85851999D03*
X154685998Y-85851999D03*
X157225998Y-83311999D03*
X154686000Y-83312000D03*
X157225995Y-80772000D03*
X154685999Y-80772001D03*
X157225998Y-78231999D03*
X154685997Y-78232000D03*
X157225999Y-75691999D03*
X154685996Y-75691999D03*
X157225996Y-73152000D03*
X154685998Y-73151999D03*
X157225998Y-70611999D03*
X154685997Y-70611997D03*
X157225995Y-68071997D03*
X154685997Y-68072000D03*
X235900000Y-46850000D03*
X153900000Y-103600000D03*
M02*
