%TF.GenerationSoftware,KiCad,Pcbnew,8.0.1*%
%TF.CreationDate,2024-09-08T16:24:45+01:00*%
%TF.ProjectId,BaselineRP2040MotorController,42617365-6c69-46e6-9552-50323034304d,rev?*%
%TF.SameCoordinates,Original*%
%TF.FileFunction,Legend,Bot*%
%TF.FilePolarity,Positive*%
%FSLAX46Y46*%
G04 Gerber Fmt 4.6, Leading zero omitted, Abs format (unit mm)*
G04 Created by KiCad (PCBNEW 8.0.1) date 2024-09-08 16:24:45*
%MOMM*%
%LPD*%
G01*
G04 APERTURE LIST*
%ADD10C,1.000000*%
%ADD11C,0.150000*%
%ADD12C,0.120000*%
%ADD13C,0.350000*%
G04 APERTURE END LIST*
D10*
X85900000Y-57600000D02*
X85900000Y-96600000D01*
X39400000Y-96100000D02*
X39400000Y-58100000D01*
X80400000Y-101260000D02*
X44400000Y-101260000D01*
X44400000Y-53100000D02*
X80400000Y-53100000D01*
D11*
X71202857Y-60279580D02*
X71250476Y-60327200D01*
X71250476Y-60327200D02*
X71393333Y-60374819D01*
X71393333Y-60374819D02*
X71488571Y-60374819D01*
X71488571Y-60374819D02*
X71631428Y-60327200D01*
X71631428Y-60327200D02*
X71726666Y-60231961D01*
X71726666Y-60231961D02*
X71774285Y-60136723D01*
X71774285Y-60136723D02*
X71821904Y-59946247D01*
X71821904Y-59946247D02*
X71821904Y-59803390D01*
X71821904Y-59803390D02*
X71774285Y-59612914D01*
X71774285Y-59612914D02*
X71726666Y-59517676D01*
X71726666Y-59517676D02*
X71631428Y-59422438D01*
X71631428Y-59422438D02*
X71488571Y-59374819D01*
X71488571Y-59374819D02*
X71393333Y-59374819D01*
X71393333Y-59374819D02*
X71250476Y-59422438D01*
X71250476Y-59422438D02*
X71202857Y-59470057D01*
X70821904Y-59470057D02*
X70774285Y-59422438D01*
X70774285Y-59422438D02*
X70679047Y-59374819D01*
X70679047Y-59374819D02*
X70440952Y-59374819D01*
X70440952Y-59374819D02*
X70345714Y-59422438D01*
X70345714Y-59422438D02*
X70298095Y-59470057D01*
X70298095Y-59470057D02*
X70250476Y-59565295D01*
X70250476Y-59565295D02*
X70250476Y-59660533D01*
X70250476Y-59660533D02*
X70298095Y-59803390D01*
X70298095Y-59803390D02*
X70869523Y-60374819D01*
X70869523Y-60374819D02*
X70250476Y-60374819D01*
X69393333Y-59374819D02*
X69583809Y-59374819D01*
X69583809Y-59374819D02*
X69679047Y-59422438D01*
X69679047Y-59422438D02*
X69726666Y-59470057D01*
X69726666Y-59470057D02*
X69821904Y-59612914D01*
X69821904Y-59612914D02*
X69869523Y-59803390D01*
X69869523Y-59803390D02*
X69869523Y-60184342D01*
X69869523Y-60184342D02*
X69821904Y-60279580D01*
X69821904Y-60279580D02*
X69774285Y-60327200D01*
X69774285Y-60327200D02*
X69679047Y-60374819D01*
X69679047Y-60374819D02*
X69488571Y-60374819D01*
X69488571Y-60374819D02*
X69393333Y-60327200D01*
X69393333Y-60327200D02*
X69345714Y-60279580D01*
X69345714Y-60279580D02*
X69298095Y-60184342D01*
X69298095Y-60184342D02*
X69298095Y-59946247D01*
X69298095Y-59946247D02*
X69345714Y-59851009D01*
X69345714Y-59851009D02*
X69393333Y-59803390D01*
X69393333Y-59803390D02*
X69488571Y-59755771D01*
X69488571Y-59755771D02*
X69679047Y-59755771D01*
X69679047Y-59755771D02*
X69774285Y-59803390D01*
X69774285Y-59803390D02*
X69821904Y-59851009D01*
X69821904Y-59851009D02*
X69869523Y-59946247D01*
X77147855Y-60289578D02*
X77195474Y-60337198D01*
X77195474Y-60337198D02*
X77338331Y-60384817D01*
X77338331Y-60384817D02*
X77433569Y-60384817D01*
X77433569Y-60384817D02*
X77576426Y-60337198D01*
X77576426Y-60337198D02*
X77671664Y-60241959D01*
X77671664Y-60241959D02*
X77719283Y-60146721D01*
X77719283Y-60146721D02*
X77766902Y-59956245D01*
X77766902Y-59956245D02*
X77766902Y-59813388D01*
X77766902Y-59813388D02*
X77719283Y-59622912D01*
X77719283Y-59622912D02*
X77671664Y-59527674D01*
X77671664Y-59527674D02*
X77576426Y-59432436D01*
X77576426Y-59432436D02*
X77433569Y-59384817D01*
X77433569Y-59384817D02*
X77338331Y-59384817D01*
X77338331Y-59384817D02*
X77195474Y-59432436D01*
X77195474Y-59432436D02*
X77147855Y-59480055D01*
X76814521Y-59384817D02*
X76195474Y-59384817D01*
X76195474Y-59384817D02*
X76528807Y-59765769D01*
X76528807Y-59765769D02*
X76385950Y-59765769D01*
X76385950Y-59765769D02*
X76290712Y-59813388D01*
X76290712Y-59813388D02*
X76243093Y-59861007D01*
X76243093Y-59861007D02*
X76195474Y-59956245D01*
X76195474Y-59956245D02*
X76195474Y-60194340D01*
X76195474Y-60194340D02*
X76243093Y-60289578D01*
X76243093Y-60289578D02*
X76290712Y-60337198D01*
X76290712Y-60337198D02*
X76385950Y-60384817D01*
X76385950Y-60384817D02*
X76671664Y-60384817D01*
X76671664Y-60384817D02*
X76766902Y-60337198D01*
X76766902Y-60337198D02*
X76814521Y-60289578D01*
X75814521Y-59480055D02*
X75766902Y-59432436D01*
X75766902Y-59432436D02*
X75671664Y-59384817D01*
X75671664Y-59384817D02*
X75433569Y-59384817D01*
X75433569Y-59384817D02*
X75338331Y-59432436D01*
X75338331Y-59432436D02*
X75290712Y-59480055D01*
X75290712Y-59480055D02*
X75243093Y-59575293D01*
X75243093Y-59575293D02*
X75243093Y-59670531D01*
X75243093Y-59670531D02*
X75290712Y-59813388D01*
X75290712Y-59813388D02*
X75862140Y-60384817D01*
X75862140Y-60384817D02*
X75243093Y-60384817D01*
X76654819Y-72585715D02*
X75654819Y-72585715D01*
X75654819Y-72585715D02*
X75654819Y-72823810D01*
X75654819Y-72823810D02*
X75702438Y-72966667D01*
X75702438Y-72966667D02*
X75797676Y-73061905D01*
X75797676Y-73061905D02*
X75892914Y-73109524D01*
X75892914Y-73109524D02*
X76083390Y-73157143D01*
X76083390Y-73157143D02*
X76226247Y-73157143D01*
X76226247Y-73157143D02*
X76416723Y-73109524D01*
X76416723Y-73109524D02*
X76511961Y-73061905D01*
X76511961Y-73061905D02*
X76607200Y-72966667D01*
X76607200Y-72966667D02*
X76654819Y-72823810D01*
X76654819Y-72823810D02*
X76654819Y-72585715D01*
X76654819Y-74109524D02*
X76654819Y-73538096D01*
X76654819Y-73823810D02*
X75654819Y-73823810D01*
X75654819Y-73823810D02*
X75797676Y-73728572D01*
X75797676Y-73728572D02*
X75892914Y-73633334D01*
X75892914Y-73633334D02*
X75940533Y-73538096D01*
X75654819Y-74442858D02*
X75654819Y-75061905D01*
X75654819Y-75061905D02*
X76035771Y-74728572D01*
X76035771Y-74728572D02*
X76035771Y-74871429D01*
X76035771Y-74871429D02*
X76083390Y-74966667D01*
X76083390Y-74966667D02*
X76131009Y-75014286D01*
X76131009Y-75014286D02*
X76226247Y-75061905D01*
X76226247Y-75061905D02*
X76464342Y-75061905D01*
X76464342Y-75061905D02*
X76559580Y-75014286D01*
X76559580Y-75014286D02*
X76607200Y-74966667D01*
X76607200Y-74966667D02*
X76654819Y-74871429D01*
X76654819Y-74871429D02*
X76654819Y-74585715D01*
X76654819Y-74585715D02*
X76607200Y-74490477D01*
X76607200Y-74490477D02*
X76559580Y-74442858D01*
X70654817Y-73061904D02*
X69654817Y-73061904D01*
X69654817Y-73061904D02*
X69654817Y-73299999D01*
X69654817Y-73299999D02*
X69702436Y-73442856D01*
X69702436Y-73442856D02*
X69797674Y-73538094D01*
X69797674Y-73538094D02*
X69892912Y-73585713D01*
X69892912Y-73585713D02*
X70083388Y-73633332D01*
X70083388Y-73633332D02*
X70226245Y-73633332D01*
X70226245Y-73633332D02*
X70416721Y-73585713D01*
X70416721Y-73585713D02*
X70511959Y-73538094D01*
X70511959Y-73538094D02*
X70607198Y-73442856D01*
X70607198Y-73442856D02*
X70654817Y-73299999D01*
X70654817Y-73299999D02*
X70654817Y-73061904D01*
X70654817Y-74109523D02*
X70654817Y-74299999D01*
X70654817Y-74299999D02*
X70607198Y-74395237D01*
X70607198Y-74395237D02*
X70559578Y-74442856D01*
X70559578Y-74442856D02*
X70416721Y-74538094D01*
X70416721Y-74538094D02*
X70226245Y-74585713D01*
X70226245Y-74585713D02*
X69845293Y-74585713D01*
X69845293Y-74585713D02*
X69750055Y-74538094D01*
X69750055Y-74538094D02*
X69702436Y-74490475D01*
X69702436Y-74490475D02*
X69654817Y-74395237D01*
X69654817Y-74395237D02*
X69654817Y-74204761D01*
X69654817Y-74204761D02*
X69702436Y-74109523D01*
X69702436Y-74109523D02*
X69750055Y-74061904D01*
X69750055Y-74061904D02*
X69845293Y-74014285D01*
X69845293Y-74014285D02*
X70083388Y-74014285D01*
X70083388Y-74014285D02*
X70178626Y-74061904D01*
X70178626Y-74061904D02*
X70226245Y-74109523D01*
X70226245Y-74109523D02*
X70273864Y-74204761D01*
X70273864Y-74204761D02*
X70273864Y-74395237D01*
X70273864Y-74395237D02*
X70226245Y-74490475D01*
X70226245Y-74490475D02*
X70178626Y-74538094D01*
X70178626Y-74538094D02*
X70083388Y-74585713D01*
X65142857Y-60289580D02*
X65190476Y-60337200D01*
X65190476Y-60337200D02*
X65333333Y-60384819D01*
X65333333Y-60384819D02*
X65428571Y-60384819D01*
X65428571Y-60384819D02*
X65571428Y-60337200D01*
X65571428Y-60337200D02*
X65666666Y-60241961D01*
X65666666Y-60241961D02*
X65714285Y-60146723D01*
X65714285Y-60146723D02*
X65761904Y-59956247D01*
X65761904Y-59956247D02*
X65761904Y-59813390D01*
X65761904Y-59813390D02*
X65714285Y-59622914D01*
X65714285Y-59622914D02*
X65666666Y-59527676D01*
X65666666Y-59527676D02*
X65571428Y-59432438D01*
X65571428Y-59432438D02*
X65428571Y-59384819D01*
X65428571Y-59384819D02*
X65333333Y-59384819D01*
X65333333Y-59384819D02*
X65190476Y-59432438D01*
X65190476Y-59432438D02*
X65142857Y-59480057D01*
X64761904Y-59480057D02*
X64714285Y-59432438D01*
X64714285Y-59432438D02*
X64619047Y-59384819D01*
X64619047Y-59384819D02*
X64380952Y-59384819D01*
X64380952Y-59384819D02*
X64285714Y-59432438D01*
X64285714Y-59432438D02*
X64238095Y-59480057D01*
X64238095Y-59480057D02*
X64190476Y-59575295D01*
X64190476Y-59575295D02*
X64190476Y-59670533D01*
X64190476Y-59670533D02*
X64238095Y-59813390D01*
X64238095Y-59813390D02*
X64809523Y-60384819D01*
X64809523Y-60384819D02*
X64190476Y-60384819D01*
X63571428Y-59384819D02*
X63476190Y-59384819D01*
X63476190Y-59384819D02*
X63380952Y-59432438D01*
X63380952Y-59432438D02*
X63333333Y-59480057D01*
X63333333Y-59480057D02*
X63285714Y-59575295D01*
X63285714Y-59575295D02*
X63238095Y-59765771D01*
X63238095Y-59765771D02*
X63238095Y-60003866D01*
X63238095Y-60003866D02*
X63285714Y-60194342D01*
X63285714Y-60194342D02*
X63333333Y-60289580D01*
X63333333Y-60289580D02*
X63380952Y-60337200D01*
X63380952Y-60337200D02*
X63476190Y-60384819D01*
X63476190Y-60384819D02*
X63571428Y-60384819D01*
X63571428Y-60384819D02*
X63666666Y-60337200D01*
X63666666Y-60337200D02*
X63714285Y-60289580D01*
X63714285Y-60289580D02*
X63761904Y-60194342D01*
X63761904Y-60194342D02*
X63809523Y-60003866D01*
X63809523Y-60003866D02*
X63809523Y-59765771D01*
X63809523Y-59765771D02*
X63761904Y-59575295D01*
X63761904Y-59575295D02*
X63714285Y-59480057D01*
X63714285Y-59480057D02*
X63666666Y-59432438D01*
X63666666Y-59432438D02*
X63571428Y-59384819D01*
X64654819Y-73061906D02*
X63654819Y-73061906D01*
X63654819Y-73061906D02*
X63654819Y-73300001D01*
X63654819Y-73300001D02*
X63702438Y-73442858D01*
X63702438Y-73442858D02*
X63797676Y-73538096D01*
X63797676Y-73538096D02*
X63892914Y-73585715D01*
X63892914Y-73585715D02*
X64083390Y-73633334D01*
X64083390Y-73633334D02*
X64226247Y-73633334D01*
X64226247Y-73633334D02*
X64416723Y-73585715D01*
X64416723Y-73585715D02*
X64511961Y-73538096D01*
X64511961Y-73538096D02*
X64607200Y-73442858D01*
X64607200Y-73442858D02*
X64654819Y-73300001D01*
X64654819Y-73300001D02*
X64654819Y-73061906D01*
X63654819Y-74538096D02*
X63654819Y-74061906D01*
X63654819Y-74061906D02*
X64131009Y-74014287D01*
X64131009Y-74014287D02*
X64083390Y-74061906D01*
X64083390Y-74061906D02*
X64035771Y-74157144D01*
X64035771Y-74157144D02*
X64035771Y-74395239D01*
X64035771Y-74395239D02*
X64083390Y-74490477D01*
X64083390Y-74490477D02*
X64131009Y-74538096D01*
X64131009Y-74538096D02*
X64226247Y-74585715D01*
X64226247Y-74585715D02*
X64464342Y-74585715D01*
X64464342Y-74585715D02*
X64559580Y-74538096D01*
X64559580Y-74538096D02*
X64607200Y-74490477D01*
X64607200Y-74490477D02*
X64654819Y-74395239D01*
X64654819Y-74395239D02*
X64654819Y-74157144D01*
X64654819Y-74157144D02*
X64607200Y-74061906D01*
X64607200Y-74061906D02*
X64559580Y-74014287D01*
D12*
%TO.C,C26*%
X70419420Y-60840000D02*
X70700579Y-60839999D01*
X70419421Y-61860001D02*
X70700580Y-61860000D01*
%TO.C,C32*%
X76364416Y-61870003D02*
X76645574Y-61870002D01*
X76364422Y-60849994D02*
X76645580Y-60849993D01*
%TO.C,D13*%
X77190001Y-75200001D02*
X77190001Y-71440001D01*
X79210000Y-71439998D02*
X77190001Y-71440001D01*
X79210000Y-75200002D02*
X79210000Y-71439998D01*
%TO.C,D9*%
X71190001Y-75200001D02*
X71190000Y-71439998D01*
X73210000Y-71440003D02*
X71190000Y-71439998D01*
X73210000Y-75200002D02*
X73210000Y-71440003D01*
%TO.C,C20*%
X64359418Y-61870004D02*
X64640575Y-61870004D01*
X64359425Y-60849996D02*
X64640582Y-60849996D01*
%TO.C,D5*%
X65190001Y-75200001D02*
X65190001Y-71440001D01*
X67210000Y-71439998D02*
X65190001Y-71440001D01*
X67210000Y-75200002D02*
X67210000Y-71439998D01*
%TD*%
D13*
X54400000Y-65224999D03*
X54400000Y-72425001D03*
X71000000Y-68829998D03*
X77000000Y-68829998D03*
X42400000Y-55600000D03*
X63400000Y-94900000D03*
X65400000Y-94900000D03*
X67400000Y-94900000D03*
X69400000Y-94900000D03*
X71400000Y-94900000D03*
X73400000Y-94900000D03*
X75400000Y-94900000D03*
X77400000Y-94900000D03*
X65034997Y-68829998D03*
X42400000Y-98600000D03*
X83400000Y-98600000D03*
X83400000Y-55600000D03*
M02*
