M48
METRIC,TZ
T1C0.300
T2C0.750
T3C2.500
T4C3.200
T5C4.600
%
G90
G05
T1
X55000Y-93200
X56860Y-87400
X58516Y-84182
X60400Y-90100
X61200Y-81000
X62238Y-80200
X62405Y-59195
X62948Y-74083
X63329Y-86114
X63818Y-74115
X65590Y-86800
X67780Y-84230
X68400Y-59200
X68600Y-80200
X68600Y-81524
X68770Y-74100
X69783Y-74090
X70650Y-92100
X71400Y-80400
X73400Y-92100
X73747Y-80223
X73800Y-81200
X74400Y-59200
X74900Y-74090
X75420Y-86400
X75783Y-74116
X77602Y-84075
T2
X63400Y-94900
X65400Y-94900
X67400Y-94900
X69400Y-94900
X71400Y-94900
X73400Y-94900
X75400Y-94900
X77400Y-94900
T3
X65035Y-68830
X71000Y-68830
X77000Y-68830
T4
X42400Y-55600
X42400Y-98600
X83400Y-55600
X83400Y-98600
T5
X54400Y-65225
X54400Y-72425
M30
