M48
METRIC,TZ
T1C0.200
T2C0.300
T3C0.900
T4C1.000
T5C3.200
T6C4.500
T7C4.600
%
G90
G05
T1
X171228Y-96042
X171228Y-94742
X172228Y-96042
X172228Y-94742
X173228Y-96042
X173228Y-94742
T2
X155650Y-59100
X156870Y-90780
X156870Y-91694
X156870Y-92761
X156870Y-93726
X158496Y-62128
X160020Y-54102
X160782Y-63500
X161150Y-53350
X161544Y-66142
X161900Y-92812
X161950Y-91034
X162865Y-77521
X162900Y-73600
X163322Y-84328
X163322Y-87722
X163992Y-74168
X164338Y-82042
X164592Y-63195
X164676Y-69766
X164744Y-91034
X164846Y-92812
X165150Y-53850
X165184Y-82720
X165192Y-74168
X165524Y-68918
X166032Y-81872
X167132Y-68072
X167132Y-78486
X167300Y-94500
X167800Y-93875
X168391Y-81811
X168427Y-93379
X168910Y-83820
X168910Y-74168
X168910Y-90272
X170150Y-54600
X170150Y-63350
X170400Y-58850
X170434Y-71374
X172872Y-97180
X172872Y-98552
X175150Y-70600
X175150Y-78600
X175300Y-80850
X175613Y-74063
X175650Y-86850
X175768Y-96926
X175768Y-97892
X175768Y-99111
X176593Y-52116
X176900Y-64600
X183150Y-78350
X183150Y-85690
X183642Y-69858
X183896Y-51562
X184650Y-67064
X185921Y-86621
X186900Y-73350
X186900Y-81750
X187150Y-58600
X187650Y-62100
X188150Y-65850
X188150Y-66600
X188150Y-67350
X188150Y-68100
X188150Y-74850
X188150Y-75600
X188150Y-76350
X188150Y-77100
X188150Y-83100
X188150Y-83850
X188150Y-84600
X188150Y-85350
X188150Y-86600
X188650Y-58600
X189150Y-62100
X189650Y-65850
X189650Y-66600
X189650Y-67350
X189650Y-68100
X189650Y-74850
X189650Y-75600
X189650Y-76350
X189650Y-77100
X189650Y-83100
X189650Y-83850
X189650Y-84600
X189650Y-85350
X190150Y-58600
X190650Y-62100
X191150Y-65850
X191150Y-66600
X191150Y-67350
X191150Y-68100
X191150Y-74850
X191150Y-75600
X191150Y-76350
X191150Y-77100
X191150Y-83100
X191150Y-83850
X191150Y-84600
X191150Y-85350
X191650Y-58600
X192150Y-62100
X192650Y-65850
X192650Y-66600
X192650Y-67350
X192650Y-68100
X192650Y-74850
X192650Y-75600
X192650Y-76350
X192650Y-77100
X192650Y-83100
X192650Y-83850
X192650Y-84600
X192650Y-85350
X194900Y-58600
X195900Y-58600
X201150Y-88350
X201930Y-60960
X204216Y-81750
X204400Y-73100
X205232Y-61350
X205740Y-65786
X207650Y-63600
X207900Y-55600
X210820Y-90729
X210900Y-58350
X210922Y-54508
X211650Y-51600
X212090Y-57912
X212496Y-86360
X212547Y-85090
X212573Y-76276
X212598Y-77572
X212776Y-68936
X212827Y-67666
X212900Y-65850
X213150Y-82350
X213360Y-85090
X213360Y-86360
X213490Y-74295
X213639Y-67666
X213639Y-68936
X213639Y-76251
X213716Y-77546
X213868Y-54343
X214630Y-61468
X216103Y-91288
X217932Y-64008
X218150Y-80100
X218900Y-53350
X221488Y-57912
X221900Y-62350
X223008Y-56537
X223266Y-62716
X223520Y-64316
X223994Y-61350
X224536Y-65278
X224650Y-62600
X225150Y-51600
X226400Y-54350
X226670Y-55728
X226698Y-62600
X227150Y-56850
X227900Y-62600
X228650Y-55850
X230632Y-57658
X231546Y-51613
X233121Y-56134
X235052Y-56134
T3
X158496Y-55868
X158496Y-59948
X158496Y-57908
X160996Y-60968
X161036Y-56888
X161036Y-58928
T4
X154686Y-75692
X154686Y-68072
X154686Y-70612
X154686Y-78232
X154686Y-73152
X154686Y-85852
X154686Y-80772
X154686Y-83312
X157226Y-68072
X157226Y-80772
X157226Y-73152
X157226Y-70612
X157226Y-78232
X157226Y-83312
X157226Y-85852
X157226Y-75692
T5
X153900Y-46850
X153900Y-103600
X235900Y-46850
X235900Y-103600
T6
X229199Y-78742
X231949Y-73978
X234696Y-78740
T7
X189694Y-54356
X196894Y-54356
M30
