%TF.GenerationSoftware,KiCad,Pcbnew,8.0.1*%
%TF.CreationDate,2024-09-08T16:38:15+01:00*%
%TF.ProjectId,BaselineRP2040MotorController,42617365-6c69-46e6-9552-50323034304d,rev?*%
%TF.SameCoordinates,Original*%
%TF.FileFunction,Legend,Bot*%
%TF.FilePolarity,Positive*%
%FSLAX46Y46*%
G04 Gerber Fmt 4.6, Leading zero omitted, Abs format (unit mm)*
G04 Created by KiCad (PCBNEW 8.0.1) date 2024-09-08 16:38:15*
%MOMM*%
%LPD*%
G01*
G04 APERTURE LIST*
%ADD10C,1.000000*%
%ADD11C,0.100000*%
%ADD12C,0.350000*%
%ADD13C,0.200000*%
G04 APERTURE END LIST*
D10*
X156300000Y-106300000D02*
X233500000Y-106300000D01*
X156200000Y-44100000D02*
X233600000Y-44100000D01*
D11*
X190471429Y-38885990D02*
X190376191Y-38838371D01*
X190376191Y-38838371D02*
X190328572Y-38790752D01*
X190328572Y-38790752D02*
X190280953Y-38695514D01*
X190280953Y-38695514D02*
X190280953Y-38647895D01*
X190280953Y-38647895D02*
X190328572Y-38552657D01*
X190328572Y-38552657D02*
X190376191Y-38505038D01*
X190376191Y-38505038D02*
X190471429Y-38457419D01*
X190471429Y-38457419D02*
X190661905Y-38457419D01*
X190661905Y-38457419D02*
X190757143Y-38505038D01*
X190757143Y-38505038D02*
X190804762Y-38552657D01*
X190804762Y-38552657D02*
X190852381Y-38647895D01*
X190852381Y-38647895D02*
X190852381Y-38695514D01*
X190852381Y-38695514D02*
X190804762Y-38790752D01*
X190804762Y-38790752D02*
X190757143Y-38838371D01*
X190757143Y-38838371D02*
X190661905Y-38885990D01*
X190661905Y-38885990D02*
X190471429Y-38885990D01*
X190471429Y-38885990D02*
X190376191Y-38933609D01*
X190376191Y-38933609D02*
X190328572Y-38981228D01*
X190328572Y-38981228D02*
X190280953Y-39076466D01*
X190280953Y-39076466D02*
X190280953Y-39266942D01*
X190280953Y-39266942D02*
X190328572Y-39362180D01*
X190328572Y-39362180D02*
X190376191Y-39409800D01*
X190376191Y-39409800D02*
X190471429Y-39457419D01*
X190471429Y-39457419D02*
X190661905Y-39457419D01*
X190661905Y-39457419D02*
X190757143Y-39409800D01*
X190757143Y-39409800D02*
X190804762Y-39362180D01*
X190804762Y-39362180D02*
X190852381Y-39266942D01*
X190852381Y-39266942D02*
X190852381Y-39076466D01*
X190852381Y-39076466D02*
X190804762Y-38981228D01*
X190804762Y-38981228D02*
X190757143Y-38933609D01*
X190757143Y-38933609D02*
X190661905Y-38885990D01*
X191423810Y-38885990D02*
X191328572Y-38838371D01*
X191328572Y-38838371D02*
X191280953Y-38790752D01*
X191280953Y-38790752D02*
X191233334Y-38695514D01*
X191233334Y-38695514D02*
X191233334Y-38647895D01*
X191233334Y-38647895D02*
X191280953Y-38552657D01*
X191280953Y-38552657D02*
X191328572Y-38505038D01*
X191328572Y-38505038D02*
X191423810Y-38457419D01*
X191423810Y-38457419D02*
X191614286Y-38457419D01*
X191614286Y-38457419D02*
X191709524Y-38505038D01*
X191709524Y-38505038D02*
X191757143Y-38552657D01*
X191757143Y-38552657D02*
X191804762Y-38647895D01*
X191804762Y-38647895D02*
X191804762Y-38695514D01*
X191804762Y-38695514D02*
X191757143Y-38790752D01*
X191757143Y-38790752D02*
X191709524Y-38838371D01*
X191709524Y-38838371D02*
X191614286Y-38885990D01*
X191614286Y-38885990D02*
X191423810Y-38885990D01*
X191423810Y-38885990D02*
X191328572Y-38933609D01*
X191328572Y-38933609D02*
X191280953Y-38981228D01*
X191280953Y-38981228D02*
X191233334Y-39076466D01*
X191233334Y-39076466D02*
X191233334Y-39266942D01*
X191233334Y-39266942D02*
X191280953Y-39362180D01*
X191280953Y-39362180D02*
X191328572Y-39409800D01*
X191328572Y-39409800D02*
X191423810Y-39457419D01*
X191423810Y-39457419D02*
X191614286Y-39457419D01*
X191614286Y-39457419D02*
X191709524Y-39409800D01*
X191709524Y-39409800D02*
X191757143Y-39362180D01*
X191757143Y-39362180D02*
X191804762Y-39266942D01*
X191804762Y-39266942D02*
X191804762Y-39076466D01*
X191804762Y-39076466D02*
X191757143Y-38981228D01*
X191757143Y-38981228D02*
X191709524Y-38933609D01*
X191709524Y-38933609D02*
X191614286Y-38885990D01*
X192233334Y-39362180D02*
X192280953Y-39409800D01*
X192280953Y-39409800D02*
X192233334Y-39457419D01*
X192233334Y-39457419D02*
X192185715Y-39409800D01*
X192185715Y-39409800D02*
X192233334Y-39362180D01*
X192233334Y-39362180D02*
X192233334Y-39457419D01*
X193233333Y-39457419D02*
X192661905Y-39457419D01*
X192947619Y-39457419D02*
X192947619Y-38457419D01*
X192947619Y-38457419D02*
X192852381Y-38600276D01*
X192852381Y-38600276D02*
X192757143Y-38695514D01*
X192757143Y-38695514D02*
X192661905Y-38743133D01*
X193852381Y-38457419D02*
X193947619Y-38457419D01*
X193947619Y-38457419D02*
X194042857Y-38505038D01*
X194042857Y-38505038D02*
X194090476Y-38552657D01*
X194090476Y-38552657D02*
X194138095Y-38647895D01*
X194138095Y-38647895D02*
X194185714Y-38838371D01*
X194185714Y-38838371D02*
X194185714Y-39076466D01*
X194185714Y-39076466D02*
X194138095Y-39266942D01*
X194138095Y-39266942D02*
X194090476Y-39362180D01*
X194090476Y-39362180D02*
X194042857Y-39409800D01*
X194042857Y-39409800D02*
X193947619Y-39457419D01*
X193947619Y-39457419D02*
X193852381Y-39457419D01*
X193852381Y-39457419D02*
X193757143Y-39409800D01*
X193757143Y-39409800D02*
X193709524Y-39362180D01*
X193709524Y-39362180D02*
X193661905Y-39266942D01*
X193661905Y-39266942D02*
X193614286Y-39076466D01*
X193614286Y-39076466D02*
X193614286Y-38838371D01*
X193614286Y-38838371D02*
X193661905Y-38647895D01*
X193661905Y-38647895D02*
X193709524Y-38552657D01*
X193709524Y-38552657D02*
X193757143Y-38505038D01*
X193757143Y-38505038D02*
X193852381Y-38457419D01*
X194804762Y-38457419D02*
X194900000Y-38457419D01*
X194900000Y-38457419D02*
X194995238Y-38505038D01*
X194995238Y-38505038D02*
X195042857Y-38552657D01*
X195042857Y-38552657D02*
X195090476Y-38647895D01*
X195090476Y-38647895D02*
X195138095Y-38838371D01*
X195138095Y-38838371D02*
X195138095Y-39076466D01*
X195138095Y-39076466D02*
X195090476Y-39266942D01*
X195090476Y-39266942D02*
X195042857Y-39362180D01*
X195042857Y-39362180D02*
X194995238Y-39409800D01*
X194995238Y-39409800D02*
X194900000Y-39457419D01*
X194900000Y-39457419D02*
X194804762Y-39457419D01*
X194804762Y-39457419D02*
X194709524Y-39409800D01*
X194709524Y-39409800D02*
X194661905Y-39362180D01*
X194661905Y-39362180D02*
X194614286Y-39266942D01*
X194614286Y-39266942D02*
X194566667Y-39076466D01*
X194566667Y-39076466D02*
X194566667Y-38838371D01*
X194566667Y-38838371D02*
X194614286Y-38647895D01*
X194614286Y-38647895D02*
X194661905Y-38552657D01*
X194661905Y-38552657D02*
X194709524Y-38505038D01*
X194709524Y-38505038D02*
X194804762Y-38457419D01*
X195757143Y-38457419D02*
X195852381Y-38457419D01*
X195852381Y-38457419D02*
X195947619Y-38505038D01*
X195947619Y-38505038D02*
X195995238Y-38552657D01*
X195995238Y-38552657D02*
X196042857Y-38647895D01*
X196042857Y-38647895D02*
X196090476Y-38838371D01*
X196090476Y-38838371D02*
X196090476Y-39076466D01*
X196090476Y-39076466D02*
X196042857Y-39266942D01*
X196042857Y-39266942D02*
X195995238Y-39362180D01*
X195995238Y-39362180D02*
X195947619Y-39409800D01*
X195947619Y-39409800D02*
X195852381Y-39457419D01*
X195852381Y-39457419D02*
X195757143Y-39457419D01*
X195757143Y-39457419D02*
X195661905Y-39409800D01*
X195661905Y-39409800D02*
X195614286Y-39362180D01*
X195614286Y-39362180D02*
X195566667Y-39266942D01*
X195566667Y-39266942D02*
X195519048Y-39076466D01*
X195519048Y-39076466D02*
X195519048Y-38838371D01*
X195519048Y-38838371D02*
X195566667Y-38647895D01*
X195566667Y-38647895D02*
X195614286Y-38552657D01*
X195614286Y-38552657D02*
X195661905Y-38505038D01*
X195661905Y-38505038D02*
X195757143Y-38457419D01*
X197280953Y-39457419D02*
X197280953Y-38790752D01*
X197280953Y-38885990D02*
X197328572Y-38838371D01*
X197328572Y-38838371D02*
X197423810Y-38790752D01*
X197423810Y-38790752D02*
X197566667Y-38790752D01*
X197566667Y-38790752D02*
X197661905Y-38838371D01*
X197661905Y-38838371D02*
X197709524Y-38933609D01*
X197709524Y-38933609D02*
X197709524Y-39457419D01*
X197709524Y-38933609D02*
X197757143Y-38838371D01*
X197757143Y-38838371D02*
X197852381Y-38790752D01*
X197852381Y-38790752D02*
X197995238Y-38790752D01*
X197995238Y-38790752D02*
X198090477Y-38838371D01*
X198090477Y-38838371D02*
X198138096Y-38933609D01*
X198138096Y-38933609D02*
X198138096Y-39457419D01*
X198614286Y-39457419D02*
X198614286Y-38790752D01*
X198614286Y-38885990D02*
X198661905Y-38838371D01*
X198661905Y-38838371D02*
X198757143Y-38790752D01*
X198757143Y-38790752D02*
X198900000Y-38790752D01*
X198900000Y-38790752D02*
X198995238Y-38838371D01*
X198995238Y-38838371D02*
X199042857Y-38933609D01*
X199042857Y-38933609D02*
X199042857Y-39457419D01*
X199042857Y-38933609D02*
X199090476Y-38838371D01*
X199090476Y-38838371D02*
X199185714Y-38790752D01*
X199185714Y-38790752D02*
X199328571Y-38790752D01*
X199328571Y-38790752D02*
X199423810Y-38838371D01*
X199423810Y-38838371D02*
X199471429Y-38933609D01*
X199471429Y-38933609D02*
X199471429Y-39457419D01*
X150850000Y-46350000D02*
X150850000Y-39513580D01*
X238950000Y-46350000D02*
X238950000Y-39513580D01*
X150850000Y-40100000D02*
X238950000Y-40100000D01*
X150850000Y-40100000D02*
X238950000Y-40100000D01*
X150850000Y-40100000D02*
X151976504Y-39513579D01*
X150850000Y-40100000D02*
X151976504Y-40686421D01*
X238950000Y-40100000D02*
X237823496Y-40686421D01*
X238950000Y-40100000D02*
X237823496Y-39513579D01*
X137257419Y-79467856D02*
X137257419Y-79658332D01*
X137257419Y-79658332D02*
X137305038Y-79753570D01*
X137305038Y-79753570D02*
X137352657Y-79801189D01*
X137352657Y-79801189D02*
X137495514Y-79896427D01*
X137495514Y-79896427D02*
X137685990Y-79944046D01*
X137685990Y-79944046D02*
X138066942Y-79944046D01*
X138066942Y-79944046D02*
X138162180Y-79896427D01*
X138162180Y-79896427D02*
X138209800Y-79848808D01*
X138209800Y-79848808D02*
X138257419Y-79753570D01*
X138257419Y-79753570D02*
X138257419Y-79563094D01*
X138257419Y-79563094D02*
X138209800Y-79467856D01*
X138209800Y-79467856D02*
X138162180Y-79420237D01*
X138162180Y-79420237D02*
X138066942Y-79372618D01*
X138066942Y-79372618D02*
X137828847Y-79372618D01*
X137828847Y-79372618D02*
X137733609Y-79420237D01*
X137733609Y-79420237D02*
X137685990Y-79467856D01*
X137685990Y-79467856D02*
X137638371Y-79563094D01*
X137638371Y-79563094D02*
X137638371Y-79753570D01*
X137638371Y-79753570D02*
X137685990Y-79848808D01*
X137685990Y-79848808D02*
X137733609Y-79896427D01*
X137733609Y-79896427D02*
X137828847Y-79944046D01*
X137257419Y-79039284D02*
X137257419Y-78420237D01*
X137257419Y-78420237D02*
X137638371Y-78753570D01*
X137638371Y-78753570D02*
X137638371Y-78610713D01*
X137638371Y-78610713D02*
X137685990Y-78515475D01*
X137685990Y-78515475D02*
X137733609Y-78467856D01*
X137733609Y-78467856D02*
X137828847Y-78420237D01*
X137828847Y-78420237D02*
X138066942Y-78420237D01*
X138066942Y-78420237D02*
X138162180Y-78467856D01*
X138162180Y-78467856D02*
X138209800Y-78515475D01*
X138209800Y-78515475D02*
X138257419Y-78610713D01*
X138257419Y-78610713D02*
X138257419Y-78896427D01*
X138257419Y-78896427D02*
X138209800Y-78991665D01*
X138209800Y-78991665D02*
X138162180Y-79039284D01*
X138162180Y-77991665D02*
X138209800Y-77944046D01*
X138209800Y-77944046D02*
X138257419Y-77991665D01*
X138257419Y-77991665D02*
X138209800Y-78039284D01*
X138209800Y-78039284D02*
X138162180Y-77991665D01*
X138162180Y-77991665D02*
X138257419Y-77991665D01*
X137257419Y-77324999D02*
X137257419Y-77229761D01*
X137257419Y-77229761D02*
X137305038Y-77134523D01*
X137305038Y-77134523D02*
X137352657Y-77086904D01*
X137352657Y-77086904D02*
X137447895Y-77039285D01*
X137447895Y-77039285D02*
X137638371Y-76991666D01*
X137638371Y-76991666D02*
X137876466Y-76991666D01*
X137876466Y-76991666D02*
X138066942Y-77039285D01*
X138066942Y-77039285D02*
X138162180Y-77086904D01*
X138162180Y-77086904D02*
X138209800Y-77134523D01*
X138209800Y-77134523D02*
X138257419Y-77229761D01*
X138257419Y-77229761D02*
X138257419Y-77324999D01*
X138257419Y-77324999D02*
X138209800Y-77420237D01*
X138209800Y-77420237D02*
X138162180Y-77467856D01*
X138162180Y-77467856D02*
X138066942Y-77515475D01*
X138066942Y-77515475D02*
X137876466Y-77563094D01*
X137876466Y-77563094D02*
X137638371Y-77563094D01*
X137638371Y-77563094D02*
X137447895Y-77515475D01*
X137447895Y-77515475D02*
X137352657Y-77467856D01*
X137352657Y-77467856D02*
X137305038Y-77420237D01*
X137305038Y-77420237D02*
X137257419Y-77324999D01*
X137257419Y-76086904D02*
X137257419Y-76563094D01*
X137257419Y-76563094D02*
X137733609Y-76610713D01*
X137733609Y-76610713D02*
X137685990Y-76563094D01*
X137685990Y-76563094D02*
X137638371Y-76467856D01*
X137638371Y-76467856D02*
X137638371Y-76229761D01*
X137638371Y-76229761D02*
X137685990Y-76134523D01*
X137685990Y-76134523D02*
X137733609Y-76086904D01*
X137733609Y-76086904D02*
X137828847Y-76039285D01*
X137828847Y-76039285D02*
X138066942Y-76039285D01*
X138066942Y-76039285D02*
X138162180Y-76086904D01*
X138162180Y-76086904D02*
X138209800Y-76134523D01*
X138209800Y-76134523D02*
X138257419Y-76229761D01*
X138257419Y-76229761D02*
X138257419Y-76467856D01*
X138257419Y-76467856D02*
X138209800Y-76563094D01*
X138209800Y-76563094D02*
X138162180Y-76610713D01*
X137257419Y-75420237D02*
X137257419Y-75324999D01*
X137257419Y-75324999D02*
X137305038Y-75229761D01*
X137305038Y-75229761D02*
X137352657Y-75182142D01*
X137352657Y-75182142D02*
X137447895Y-75134523D01*
X137447895Y-75134523D02*
X137638371Y-75086904D01*
X137638371Y-75086904D02*
X137876466Y-75086904D01*
X137876466Y-75086904D02*
X138066942Y-75134523D01*
X138066942Y-75134523D02*
X138162180Y-75182142D01*
X138162180Y-75182142D02*
X138209800Y-75229761D01*
X138209800Y-75229761D02*
X138257419Y-75324999D01*
X138257419Y-75324999D02*
X138257419Y-75420237D01*
X138257419Y-75420237D02*
X138209800Y-75515475D01*
X138209800Y-75515475D02*
X138162180Y-75563094D01*
X138162180Y-75563094D02*
X138066942Y-75610713D01*
X138066942Y-75610713D02*
X137876466Y-75658332D01*
X137876466Y-75658332D02*
X137638371Y-75658332D01*
X137638371Y-75658332D02*
X137447895Y-75610713D01*
X137447895Y-75610713D02*
X137352657Y-75563094D01*
X137352657Y-75563094D02*
X137305038Y-75515475D01*
X137305038Y-75515475D02*
X137257419Y-75420237D01*
X137257419Y-74467856D02*
X137257419Y-74372618D01*
X137257419Y-74372618D02*
X137305038Y-74277380D01*
X137305038Y-74277380D02*
X137352657Y-74229761D01*
X137352657Y-74229761D02*
X137447895Y-74182142D01*
X137447895Y-74182142D02*
X137638371Y-74134523D01*
X137638371Y-74134523D02*
X137876466Y-74134523D01*
X137876466Y-74134523D02*
X138066942Y-74182142D01*
X138066942Y-74182142D02*
X138162180Y-74229761D01*
X138162180Y-74229761D02*
X138209800Y-74277380D01*
X138209800Y-74277380D02*
X138257419Y-74372618D01*
X138257419Y-74372618D02*
X138257419Y-74467856D01*
X138257419Y-74467856D02*
X138209800Y-74563094D01*
X138209800Y-74563094D02*
X138162180Y-74610713D01*
X138162180Y-74610713D02*
X138066942Y-74658332D01*
X138066942Y-74658332D02*
X137876466Y-74705951D01*
X137876466Y-74705951D02*
X137638371Y-74705951D01*
X137638371Y-74705951D02*
X137447895Y-74658332D01*
X137447895Y-74658332D02*
X137352657Y-74610713D01*
X137352657Y-74610713D02*
X137305038Y-74563094D01*
X137305038Y-74563094D02*
X137257419Y-74467856D01*
X138257419Y-72944046D02*
X137590752Y-72944046D01*
X137685990Y-72944046D02*
X137638371Y-72896427D01*
X137638371Y-72896427D02*
X137590752Y-72801189D01*
X137590752Y-72801189D02*
X137590752Y-72658332D01*
X137590752Y-72658332D02*
X137638371Y-72563094D01*
X137638371Y-72563094D02*
X137733609Y-72515475D01*
X137733609Y-72515475D02*
X138257419Y-72515475D01*
X137733609Y-72515475D02*
X137638371Y-72467856D01*
X137638371Y-72467856D02*
X137590752Y-72372618D01*
X137590752Y-72372618D02*
X137590752Y-72229761D01*
X137590752Y-72229761D02*
X137638371Y-72134522D01*
X137638371Y-72134522D02*
X137733609Y-72086903D01*
X137733609Y-72086903D02*
X138257419Y-72086903D01*
X138257419Y-71610713D02*
X137590752Y-71610713D01*
X137685990Y-71610713D02*
X137638371Y-71563094D01*
X137638371Y-71563094D02*
X137590752Y-71467856D01*
X137590752Y-71467856D02*
X137590752Y-71324999D01*
X137590752Y-71324999D02*
X137638371Y-71229761D01*
X137638371Y-71229761D02*
X137733609Y-71182142D01*
X137733609Y-71182142D02*
X138257419Y-71182142D01*
X137733609Y-71182142D02*
X137638371Y-71134523D01*
X137638371Y-71134523D02*
X137590752Y-71039285D01*
X137590752Y-71039285D02*
X137590752Y-70896428D01*
X137590752Y-70896428D02*
X137638371Y-70801189D01*
X137638371Y-70801189D02*
X137733609Y-70753570D01*
X137733609Y-70753570D02*
X138257419Y-70753570D01*
X153400000Y-43800000D02*
X138313580Y-43800000D01*
X153400000Y-106850000D02*
X138313580Y-106850000D01*
X138900000Y-43800000D02*
X138900000Y-106850000D01*
X138900000Y-43800000D02*
X138900000Y-106850000D01*
X138900000Y-43800000D02*
X139486421Y-44926504D01*
X138900000Y-43800000D02*
X138313579Y-44926504D01*
X138900000Y-106850000D02*
X138313579Y-105723496D01*
X138900000Y-106850000D02*
X139486421Y-105723496D01*
D12*
X231948719Y-73978431D03*
X229198719Y-78741569D03*
X234696000Y-78740000D03*
X189693999Y-54356000D03*
X196894001Y-54356000D03*
X156195997Y-52417997D03*
X156195996Y-64417999D03*
X160995997Y-60967997D03*
X158495997Y-59947999D03*
X161035997Y-58928000D03*
X158495998Y-57907999D03*
X161035997Y-56887998D03*
X158495996Y-55867997D03*
X235900000Y-103600000D03*
D13*
X172228000Y-96042003D03*
X171228000Y-96042002D03*
X173228000Y-96042001D03*
X171228002Y-94742001D03*
X173228002Y-94742000D03*
X172228002Y-94741999D03*
D12*
X153900000Y-46850000D03*
X157225998Y-85851999D03*
X154685998Y-85851999D03*
X157225998Y-83311999D03*
X154686000Y-83312000D03*
X157225995Y-80772000D03*
X154685999Y-80772001D03*
X157225998Y-78231999D03*
X154685997Y-78232000D03*
X157225999Y-75691999D03*
X154685996Y-75691999D03*
X157225996Y-73152000D03*
X154685998Y-73151999D03*
X157225998Y-70611999D03*
X154685997Y-70611997D03*
X157225995Y-68071997D03*
X154685997Y-68072000D03*
X235900000Y-46850000D03*
X153900000Y-103600000D03*
M02*
