%TF.GenerationSoftware,KiCad,Pcbnew,8.0.1*%
%TF.CreationDate,2024-09-08T16:24:45+01:00*%
%TF.ProjectId,BaselineRP2040MotorController,42617365-6c69-46e6-9552-50323034304d,rev?*%
%TF.SameCoordinates,Original*%
%TF.FileFunction,Legend,Top*%
%TF.FilePolarity,Positive*%
%FSLAX46Y46*%
G04 Gerber Fmt 4.6, Leading zero omitted, Abs format (unit mm)*
G04 Created by KiCad (PCBNEW 8.0.1) date 2024-09-08 16:24:45*
%MOMM*%
%LPD*%
G01*
G04 APERTURE LIST*
%ADD10C,0.100000*%
%ADD11C,1.000000*%
%ADD12C,0.187499*%
%ADD13C,0.049999*%
%ADD14C,0.000000*%
%ADD15C,0.254000*%
%ADD16C,0.120000*%
%ADD17C,0.350000*%
G04 APERTURE END LIST*
D10*
G36*
X57807120Y-55672948D02*
G01*
X58005429Y-55735645D01*
X58063857Y-55790485D01*
X58063925Y-55790732D01*
X58130159Y-55916441D01*
X58133274Y-56107540D01*
X58074094Y-56232479D01*
X58073291Y-56233016D01*
X58015103Y-56295010D01*
X58014857Y-56295078D01*
X57889245Y-56361260D01*
X57372814Y-56364589D01*
X57371086Y-55675160D01*
X57805415Y-55671976D01*
X57807120Y-55672948D01*
G37*
G36*
X57929897Y-55017209D02*
G01*
X57930434Y-55018012D01*
X57992428Y-55076200D01*
X57992496Y-55076446D01*
X58058770Y-55202229D01*
X58061592Y-55322362D01*
X58002665Y-55446764D01*
X58001861Y-55447302D01*
X57943673Y-55509296D01*
X57943428Y-55509364D01*
X57817807Y-55575551D01*
X57370845Y-55578828D01*
X57369297Y-54960888D01*
X57804264Y-54957699D01*
X57929897Y-55017209D01*
G37*
G36*
X59419016Y-56307940D02*
G01*
X59317780Y-56361280D01*
X58984237Y-56364653D01*
X58862029Y-56306767D01*
X58801378Y-56191654D01*
X58798556Y-56071522D01*
X58855964Y-55950325D01*
X58970939Y-55889747D01*
X59316219Y-55886255D01*
X59326476Y-55889674D01*
X59339830Y-55886016D01*
X59342065Y-55885994D01*
X59342876Y-55885182D01*
X59345292Y-55884521D01*
X59416835Y-55846825D01*
X59419016Y-56307940D01*
G37*
G36*
X61640976Y-55515690D02*
G01*
X61701627Y-55630801D01*
X61703889Y-55727104D01*
X61085007Y-55854160D01*
X61083655Y-55644250D01*
X61141677Y-55521755D01*
X61256677Y-55461163D01*
X61518951Y-55457888D01*
X61640976Y-55515690D01*
G37*
G36*
X75021406Y-55672948D02*
G01*
X75219715Y-55735645D01*
X75278143Y-55790485D01*
X75278211Y-55790732D01*
X75344445Y-55916441D01*
X75347560Y-56107540D01*
X75288380Y-56232479D01*
X75287577Y-56233016D01*
X75229389Y-56295010D01*
X75229143Y-56295078D01*
X75103531Y-56361260D01*
X74587100Y-56364589D01*
X74585372Y-55675160D01*
X75019701Y-55671976D01*
X75021406Y-55672948D01*
G37*
G36*
X75144183Y-55017209D02*
G01*
X75144720Y-55018012D01*
X75206714Y-55076200D01*
X75206782Y-55076446D01*
X75273056Y-55202229D01*
X75275878Y-55322362D01*
X75216951Y-55446764D01*
X75216147Y-55447302D01*
X75157959Y-55509296D01*
X75157714Y-55509364D01*
X75032093Y-55575551D01*
X74585131Y-55578828D01*
X74583583Y-54960888D01*
X75018550Y-54957699D01*
X75144183Y-55017209D01*
G37*
G36*
X77592835Y-54958662D02*
G01*
X77790993Y-55021312D01*
X77920737Y-55146668D01*
X77921068Y-55147875D01*
X77988483Y-55275824D01*
X77988711Y-55280498D01*
X78059507Y-55549755D01*
X78058646Y-55554085D01*
X78061882Y-55752554D01*
X78060139Y-55756244D01*
X77995828Y-56027431D01*
X77992497Y-56031724D01*
X77931237Y-56161050D01*
X77930434Y-56161587D01*
X77802522Y-56293978D01*
X77609990Y-56361495D01*
X77608646Y-56361228D01*
X77301385Y-56364335D01*
X77297869Y-54960759D01*
X77591306Y-54957790D01*
X77592835Y-54958662D01*
G37*
G36*
X79821507Y-56627895D02*
G01*
X57106264Y-56627895D01*
X57106264Y-54911228D01*
X57272931Y-54911228D01*
X57276737Y-56430362D01*
X57303797Y-56457422D01*
X57322931Y-56461228D01*
X57887369Y-56457590D01*
X57897904Y-56461102D01*
X57911290Y-56457436D01*
X57913494Y-56457422D01*
X57914305Y-56456610D01*
X57916721Y-56455949D01*
X58049493Y-56385994D01*
X58056351Y-56385994D01*
X58072572Y-56375155D01*
X58135497Y-56308112D01*
X58141406Y-56306143D01*
X58153367Y-56290732D01*
X58219229Y-56151686D01*
X58226268Y-56144648D01*
X58228949Y-56131165D01*
X58229948Y-56129058D01*
X58229585Y-56127970D01*
X58230074Y-56125514D01*
X58228909Y-56054085D01*
X58701503Y-56054085D01*
X58704724Y-56191199D01*
X58701629Y-56200486D01*
X58705253Y-56213721D01*
X58705309Y-56216076D01*
X58706120Y-56216887D01*
X58706782Y-56219302D01*
X58781075Y-56360309D01*
X58785159Y-56372560D01*
X58789169Y-56375672D01*
X58790171Y-56377573D01*
X58792707Y-56378418D01*
X58800571Y-56384521D01*
X58939616Y-56450383D01*
X58946655Y-56457422D01*
X58960137Y-56460103D01*
X58962245Y-56461102D01*
X58963332Y-56460739D01*
X58965789Y-56461228D01*
X59316219Y-56457683D01*
X59326475Y-56461102D01*
X59339829Y-56457444D01*
X59342065Y-56457422D01*
X59342876Y-56456610D01*
X59345291Y-56455949D01*
X59419531Y-56416833D01*
X59419595Y-56430362D01*
X59446655Y-56457422D01*
X59484923Y-56457422D01*
X59511983Y-56430362D01*
X59515789Y-56411228D01*
X59515437Y-56336932D01*
X59515663Y-56336256D01*
X59515432Y-56335794D01*
X59512773Y-55773494D01*
X59515663Y-55764826D01*
X59512704Y-55758908D01*
X59512107Y-55632637D01*
X59515663Y-55621969D01*
X59511993Y-55608569D01*
X59511983Y-55606380D01*
X59511171Y-55605568D01*
X59510510Y-55603153D01*
X59436215Y-55462145D01*
X59432132Y-55449897D01*
X59428121Y-55446783D01*
X59427120Y-55444884D01*
X59424583Y-55444038D01*
X59416721Y-55437936D01*
X59360338Y-55411228D01*
X60130074Y-55411228D01*
X60131120Y-55691453D01*
X60130200Y-55693397D01*
X60131138Y-55696212D01*
X60133880Y-56430362D01*
X60160940Y-56457422D01*
X60199208Y-56457422D01*
X60226268Y-56430362D01*
X60230074Y-56411228D01*
X60227468Y-55713658D01*
X60269221Y-55625514D01*
X60987217Y-55625514D01*
X60988987Y-55900295D01*
X60988168Y-55901525D01*
X60989023Y-55905801D01*
X60990854Y-56189951D01*
X60987343Y-56200486D01*
X60991008Y-56213871D01*
X60991023Y-56216076D01*
X60991834Y-56216887D01*
X60992496Y-56219302D01*
X61066789Y-56360309D01*
X61070873Y-56372560D01*
X61074883Y-56375672D01*
X61075885Y-56377573D01*
X61078421Y-56378418D01*
X61086285Y-56384521D01*
X61225330Y-56450383D01*
X61232369Y-56457422D01*
X61245851Y-56460103D01*
X61247959Y-56461102D01*
X61249046Y-56460739D01*
X61251503Y-56461228D01*
X61530682Y-56457742D01*
X61540761Y-56461102D01*
X61554096Y-56457450D01*
X61556351Y-56457422D01*
X61557162Y-56456610D01*
X61559578Y-56455949D01*
X61717847Y-56372560D01*
X61729948Y-56336255D01*
X61712835Y-56302027D01*
X61676530Y-56289926D01*
X61657714Y-56295078D01*
X61532042Y-56361292D01*
X61269768Y-56364567D01*
X61147743Y-56306767D01*
X61087184Y-56191828D01*
X61085640Y-55952328D01*
X61756675Y-55814565D01*
X61770637Y-55814565D01*
X61774243Y-55810958D01*
X61779325Y-55809915D01*
X61787401Y-55797800D01*
X61797697Y-55787505D01*
X61799156Y-55780169D01*
X61800553Y-55778074D01*
X61800061Y-55775617D01*
X61801503Y-55768371D01*
X61798281Y-55631256D01*
X61801377Y-55621969D01*
X61797752Y-55608733D01*
X61797697Y-55606380D01*
X61796885Y-55605568D01*
X61796224Y-55603153D01*
X61721929Y-55462145D01*
X61717846Y-55449897D01*
X61713835Y-55446783D01*
X61712834Y-55444884D01*
X61710297Y-55444038D01*
X61702435Y-55437936D01*
X61563389Y-55372072D01*
X61556351Y-55365034D01*
X61542869Y-55362352D01*
X61540762Y-55361354D01*
X61539673Y-55361716D01*
X61537217Y-55361228D01*
X61258037Y-55364713D01*
X61247958Y-55361354D01*
X61234623Y-55365005D01*
X61232369Y-55365034D01*
X61231557Y-55365845D01*
X61229142Y-55366507D01*
X61088137Y-55440800D01*
X61075885Y-55444884D01*
X61072771Y-55448896D01*
X61070872Y-55449897D01*
X61070026Y-55452432D01*
X61063924Y-55460296D01*
X60998061Y-55599341D01*
X60991023Y-55606380D01*
X60988341Y-55619862D01*
X60987343Y-55621970D01*
X60987705Y-55623057D01*
X60987217Y-55625514D01*
X60269221Y-55625514D01*
X60286054Y-55589978D01*
X60286858Y-55589441D01*
X60345047Y-55527445D01*
X60345293Y-55527378D01*
X60471076Y-55461103D01*
X60627780Y-55457422D01*
X60654840Y-55430362D01*
X60654840Y-55392094D01*
X60627780Y-55365034D01*
X60608646Y-55361228D01*
X60471531Y-55364449D01*
X60462244Y-55361354D01*
X60449008Y-55364978D01*
X60446655Y-55365034D01*
X60445843Y-55365845D01*
X60443428Y-55366507D01*
X60310656Y-55436463D01*
X60303798Y-55436463D01*
X60287577Y-55447302D01*
X60226716Y-55512142D01*
X60226268Y-55392094D01*
X60199208Y-55365034D01*
X60160940Y-55365034D01*
X60133880Y-55392094D01*
X60130074Y-55411228D01*
X59360338Y-55411228D01*
X59277675Y-55372072D01*
X59270637Y-55365034D01*
X59257155Y-55362352D01*
X59255048Y-55361354D01*
X59253959Y-55361716D01*
X59251503Y-55361228D01*
X58972323Y-55364713D01*
X58962244Y-55361354D01*
X58948909Y-55365005D01*
X58946655Y-55365034D01*
X58945843Y-55365845D01*
X58943428Y-55366507D01*
X58785158Y-55449897D01*
X58773057Y-55486202D01*
X58790171Y-55520430D01*
X58826476Y-55532531D01*
X58845292Y-55527378D01*
X58970963Y-55461163D01*
X59233237Y-55457888D01*
X59355262Y-55515690D01*
X59415813Y-55630611D01*
X59416320Y-55737932D01*
X59317779Y-55789852D01*
X58972501Y-55793344D01*
X58962245Y-55789926D01*
X58948887Y-55793583D01*
X58946655Y-55793606D01*
X58945844Y-55794416D01*
X58943429Y-55795078D01*
X58802426Y-55869370D01*
X58790171Y-55873455D01*
X58787056Y-55877468D01*
X58785159Y-55878468D01*
X58784314Y-55881001D01*
X58778210Y-55888867D01*
X58712347Y-56027912D01*
X58705309Y-56034951D01*
X58702627Y-56048433D01*
X58701629Y-56050541D01*
X58701991Y-56051628D01*
X58701503Y-56054085D01*
X58228909Y-56054085D01*
X58226681Y-55917482D01*
X58229948Y-55907684D01*
X58226305Y-55894380D01*
X58226268Y-55892094D01*
X58225457Y-55891283D01*
X58224796Y-55888868D01*
X58154840Y-55756095D01*
X58154840Y-55749237D01*
X58144001Y-55733016D01*
X58074092Y-55667400D01*
X58069977Y-55659169D01*
X58058125Y-55652413D01*
X58056351Y-55650748D01*
X58055203Y-55650748D01*
X58053028Y-55649508D01*
X57947783Y-55616233D01*
X57978064Y-55600279D01*
X57984923Y-55600279D01*
X58001144Y-55589440D01*
X58064068Y-55522399D01*
X58069977Y-55520430D01*
X58081938Y-55505018D01*
X58147801Y-55365972D01*
X58154840Y-55358934D01*
X58157521Y-55345452D01*
X58158520Y-55343345D01*
X58158157Y-55342256D01*
X58158646Y-55339800D01*
X58155424Y-55202684D01*
X58158520Y-55193397D01*
X58154895Y-55180161D01*
X58154840Y-55177808D01*
X58154028Y-55176996D01*
X58153367Y-55174581D01*
X58083411Y-55041808D01*
X58083411Y-55034950D01*
X58072572Y-55018729D01*
X58005530Y-54955804D01*
X58003561Y-54949897D01*
X57988150Y-54937936D01*
X57931767Y-54911228D01*
X63487216Y-54911228D01*
X63491022Y-56430362D01*
X63518082Y-56457422D01*
X63556350Y-56457422D01*
X63583410Y-56430362D01*
X63587216Y-56411228D01*
X63584001Y-55128096D01*
X63994749Y-56001046D01*
X64000342Y-56016426D01*
X64002448Y-56017409D01*
X64003447Y-56019531D01*
X64019519Y-56025375D01*
X64035020Y-56032609D01*
X64037216Y-56031810D01*
X64039412Y-56032609D01*
X64054912Y-56025375D01*
X64070985Y-56019531D01*
X64072832Y-56017012D01*
X64074090Y-56016426D01*
X64074902Y-56014190D01*
X64082525Y-56003801D01*
X64487759Y-55128214D01*
X64491022Y-56430362D01*
X64518082Y-56457422D01*
X64556350Y-56457422D01*
X64583410Y-56430362D01*
X64587216Y-56411228D01*
X64584710Y-55411228D01*
X65201502Y-55411228D01*
X65205308Y-56430362D01*
X65232368Y-56457422D01*
X65270636Y-56457422D01*
X65297696Y-56430362D01*
X65301502Y-56411228D01*
X65297767Y-55411228D01*
X65915788Y-55411228D01*
X65919594Y-56430362D01*
X65946654Y-56457422D01*
X65984922Y-56457422D01*
X66011982Y-56430362D01*
X66015788Y-56411228D01*
X66012673Y-55577156D01*
X66059332Y-55527445D01*
X66059578Y-55527378D01*
X66185287Y-55461142D01*
X66376386Y-55458027D01*
X66498119Y-55515690D01*
X66558670Y-55630611D01*
X66562452Y-56430362D01*
X66589512Y-56457422D01*
X66627780Y-56457422D01*
X66654840Y-56430362D01*
X66658646Y-56411228D01*
X66654964Y-55632637D01*
X66658520Y-55621969D01*
X66654850Y-55608569D01*
X66654840Y-55606380D01*
X66654028Y-55605568D01*
X66653367Y-55603153D01*
X66579072Y-55462145D01*
X66574989Y-55449897D01*
X66570978Y-55446783D01*
X66569977Y-55444884D01*
X66567440Y-55444038D01*
X66559578Y-55437936D01*
X66503195Y-55411228D01*
X67272931Y-55411228D01*
X67276737Y-56430362D01*
X67303797Y-56457422D01*
X67342065Y-56457422D01*
X67369125Y-56430362D01*
X67372931Y-56411228D01*
X67369196Y-55411228D01*
X67987217Y-55411228D01*
X67991023Y-56430362D01*
X68018083Y-56457422D01*
X68056351Y-56457422D01*
X68083411Y-56430362D01*
X68087217Y-56411228D01*
X68084102Y-55577156D01*
X68130761Y-55527445D01*
X68131007Y-55527378D01*
X68256716Y-55461142D01*
X68447815Y-55458027D01*
X68569548Y-55515690D01*
X68630099Y-55630611D01*
X68633881Y-56430362D01*
X68660941Y-56457422D01*
X68699209Y-56457422D01*
X68726269Y-56430362D01*
X68730075Y-56411228D01*
X68726448Y-55644385D01*
X68784535Y-55521755D01*
X68899573Y-55461142D01*
X69090672Y-55458027D01*
X69212405Y-55515690D01*
X69272956Y-55630611D01*
X69276738Y-56430362D01*
X69303798Y-56457422D01*
X69342066Y-56457422D01*
X69369126Y-56430362D01*
X69372932Y-56411228D01*
X69369250Y-55632637D01*
X69372806Y-55621969D01*
X69369136Y-55608569D01*
X69369126Y-55606380D01*
X69368314Y-55605568D01*
X69367653Y-55603153D01*
X69293358Y-55462145D01*
X69289275Y-55449897D01*
X69285264Y-55446783D01*
X69284263Y-55444884D01*
X69281726Y-55444038D01*
X69273864Y-55437936D01*
X69217481Y-55411228D01*
X69987217Y-55411228D01*
X69990898Y-56189818D01*
X69987343Y-56200487D01*
X69991012Y-56213886D01*
X69991023Y-56216076D01*
X69991834Y-56216887D01*
X69992496Y-56219303D01*
X70066789Y-56360307D01*
X70070874Y-56372560D01*
X70074885Y-56375673D01*
X70075886Y-56377572D01*
X70078419Y-56378416D01*
X70086285Y-56384521D01*
X70225330Y-56450383D01*
X70232369Y-56457422D01*
X70245851Y-56460103D01*
X70247959Y-56461102D01*
X70249046Y-56460739D01*
X70251503Y-56461228D01*
X70459535Y-56457835D01*
X70469333Y-56461102D01*
X70482634Y-56457459D01*
X70484923Y-56457422D01*
X70485734Y-56456610D01*
X70488150Y-56455949D01*
X70620922Y-56385994D01*
X70627780Y-56385994D01*
X70633700Y-56382037D01*
X70633881Y-56430362D01*
X70660941Y-56457422D01*
X70699209Y-56457422D01*
X70726269Y-56430362D01*
X70730075Y-56411228D01*
X70726340Y-55411228D01*
X71344360Y-55411228D01*
X71348166Y-56430362D01*
X71375226Y-56457422D01*
X71413494Y-56457422D01*
X71440554Y-56430362D01*
X71444360Y-56411228D01*
X71441245Y-55577156D01*
X71487904Y-55527445D01*
X71488150Y-55527378D01*
X71613859Y-55461142D01*
X71804958Y-55458027D01*
X71926691Y-55515690D01*
X71987242Y-55630611D01*
X71991024Y-56430362D01*
X72018084Y-56457422D01*
X72056352Y-56457422D01*
X72083412Y-56430362D01*
X72087218Y-56411228D01*
X72083591Y-55644385D01*
X72141678Y-55521755D01*
X72256716Y-55461142D01*
X72447815Y-55458027D01*
X72569548Y-55515690D01*
X72630099Y-55630611D01*
X72633881Y-56430362D01*
X72660941Y-56457422D01*
X72699209Y-56457422D01*
X72726269Y-56430362D01*
X72730075Y-56411228D01*
X72726393Y-55632637D01*
X72729949Y-55621969D01*
X72726279Y-55608569D01*
X72726269Y-55606380D01*
X72725457Y-55605568D01*
X72724796Y-55603153D01*
X72650501Y-55462145D01*
X72646418Y-55449897D01*
X72642407Y-55446783D01*
X72641406Y-55444884D01*
X72638869Y-55444038D01*
X72631007Y-55437936D01*
X72491961Y-55372072D01*
X72484923Y-55365034D01*
X72471441Y-55362352D01*
X72469334Y-55361354D01*
X72468245Y-55361716D01*
X72465789Y-55361228D01*
X72257756Y-55364620D01*
X72247958Y-55361354D01*
X72234656Y-55364996D01*
X72232369Y-55365034D01*
X72231557Y-55365845D01*
X72229142Y-55366507D01*
X72088138Y-55440800D01*
X72075886Y-55444884D01*
X72072772Y-55448896D01*
X72070873Y-55449897D01*
X72070027Y-55452432D01*
X72063925Y-55460296D01*
X72036819Y-55517519D01*
X72007644Y-55462145D01*
X72003561Y-55449897D01*
X71999550Y-55446783D01*
X71998549Y-55444884D01*
X71996012Y-55444038D01*
X71988150Y-55437936D01*
X71849104Y-55372072D01*
X71842066Y-55365034D01*
X71828584Y-55362352D01*
X71826477Y-55361354D01*
X71825388Y-55361716D01*
X71822932Y-55361228D01*
X71614899Y-55364620D01*
X71605101Y-55361354D01*
X71591799Y-55364996D01*
X71589512Y-55365034D01*
X71588700Y-55365845D01*
X71586285Y-55366507D01*
X71453513Y-55436463D01*
X71446655Y-55436463D01*
X71440734Y-55440419D01*
X71440554Y-55392094D01*
X71413494Y-55365034D01*
X71375226Y-55365034D01*
X71348166Y-55392094D01*
X71344360Y-55411228D01*
X70726340Y-55411228D01*
X70726269Y-55392094D01*
X70699209Y-55365034D01*
X70660941Y-55365034D01*
X70633881Y-55392094D01*
X70630075Y-55411228D01*
X70633189Y-56245300D01*
X70586532Y-56295010D01*
X70586286Y-56295078D01*
X70460576Y-56361312D01*
X70269476Y-56364428D01*
X70147744Y-56306767D01*
X70087192Y-56191843D01*
X70083411Y-55392094D01*
X70056351Y-55365034D01*
X70018083Y-55365034D01*
X69991023Y-55392094D01*
X69987217Y-55411228D01*
X69217481Y-55411228D01*
X69134818Y-55372072D01*
X69127780Y-55365034D01*
X69114298Y-55362352D01*
X69112191Y-55361354D01*
X69111102Y-55361716D01*
X69108646Y-55361228D01*
X68900613Y-55364620D01*
X68890815Y-55361354D01*
X68877513Y-55364996D01*
X68875226Y-55365034D01*
X68874414Y-55365845D01*
X68871999Y-55366507D01*
X68730995Y-55440800D01*
X68718743Y-55444884D01*
X68715629Y-55448896D01*
X68713730Y-55449897D01*
X68712884Y-55452432D01*
X68706782Y-55460296D01*
X68679676Y-55517519D01*
X68650501Y-55462145D01*
X68646418Y-55449897D01*
X68642407Y-55446783D01*
X68641406Y-55444884D01*
X68638869Y-55444038D01*
X68631007Y-55437936D01*
X68491961Y-55372072D01*
X68484923Y-55365034D01*
X68471441Y-55362352D01*
X68469334Y-55361354D01*
X68468245Y-55361716D01*
X68465789Y-55361228D01*
X68257756Y-55364620D01*
X68247958Y-55361354D01*
X68234656Y-55364996D01*
X68232369Y-55365034D01*
X68231557Y-55365845D01*
X68229142Y-55366507D01*
X68096370Y-55436463D01*
X68089512Y-55436463D01*
X68083591Y-55440419D01*
X68083411Y-55392094D01*
X68056351Y-55365034D01*
X68018083Y-55365034D01*
X67991023Y-55392094D01*
X67987217Y-55411228D01*
X67369196Y-55411228D01*
X67369125Y-55392094D01*
X67342065Y-55365034D01*
X67303797Y-55365034D01*
X67276737Y-55392094D01*
X67272931Y-55411228D01*
X66503195Y-55411228D01*
X66420532Y-55372072D01*
X66413494Y-55365034D01*
X66400012Y-55362352D01*
X66397905Y-55361354D01*
X66396816Y-55361716D01*
X66394360Y-55361228D01*
X66186327Y-55364620D01*
X66176529Y-55361354D01*
X66163227Y-55364996D01*
X66160940Y-55365034D01*
X66160128Y-55365845D01*
X66157713Y-55366507D01*
X66024941Y-55436463D01*
X66018083Y-55436463D01*
X66012162Y-55440419D01*
X66011982Y-55392094D01*
X65984922Y-55365034D01*
X65946654Y-55365034D01*
X65919594Y-55392094D01*
X65915788Y-55411228D01*
X65297767Y-55411228D01*
X65297696Y-55392094D01*
X65270636Y-55365034D01*
X65232368Y-55365034D01*
X65205308Y-55392094D01*
X65201502Y-55411228D01*
X64584710Y-55411228D01*
X64583684Y-55001792D01*
X65133880Y-55001792D01*
X65133882Y-55001794D01*
X65144719Y-55018012D01*
X65232367Y-55100279D01*
X65232368Y-55100279D01*
X65270636Y-55100279D01*
X65286857Y-55089441D01*
X65369125Y-55001792D01*
X67205309Y-55001792D01*
X67205311Y-55001794D01*
X67216148Y-55018012D01*
X67303796Y-55100279D01*
X67303797Y-55100279D01*
X67342065Y-55100279D01*
X67358286Y-55089441D01*
X67440554Y-55001792D01*
X67440554Y-54963523D01*
X67429715Y-54947302D01*
X67391281Y-54911228D01*
X74487217Y-54911228D01*
X74491023Y-56430362D01*
X74518083Y-56457422D01*
X74537217Y-56461228D01*
X75101655Y-56457590D01*
X75112190Y-56461102D01*
X75125576Y-56457436D01*
X75127780Y-56457422D01*
X75128591Y-56456610D01*
X75131007Y-56455949D01*
X75263779Y-56385994D01*
X75270637Y-56385994D01*
X75286858Y-56375155D01*
X75349783Y-56308112D01*
X75355692Y-56306143D01*
X75367653Y-56290732D01*
X75433515Y-56151686D01*
X75440554Y-56144648D01*
X75443235Y-56131165D01*
X75444234Y-56129058D01*
X75443871Y-56127970D01*
X75444360Y-56125514D01*
X75440967Y-55917482D01*
X75444234Y-55907684D01*
X75440591Y-55894380D01*
X75440554Y-55892094D01*
X75439743Y-55891283D01*
X75439082Y-55888868D01*
X75369126Y-55756095D01*
X75369126Y-55749237D01*
X75358287Y-55733016D01*
X75288378Y-55667400D01*
X75284263Y-55659169D01*
X75272411Y-55652413D01*
X75270637Y-55650748D01*
X75269489Y-55650748D01*
X75267314Y-55649508D01*
X75162069Y-55616233D01*
X75192350Y-55600279D01*
X75199209Y-55600279D01*
X75215430Y-55589440D01*
X75278354Y-55522399D01*
X75284263Y-55520430D01*
X75296224Y-55505018D01*
X75362087Y-55365972D01*
X75369126Y-55358934D01*
X75371807Y-55345452D01*
X75372806Y-55343345D01*
X75372443Y-55342256D01*
X75372932Y-55339800D01*
X75369710Y-55202684D01*
X75372806Y-55193397D01*
X75369181Y-55180161D01*
X75369126Y-55177808D01*
X75368314Y-55176996D01*
X75367653Y-55174581D01*
X75297697Y-55041808D01*
X75297697Y-55034950D01*
X75286858Y-55018729D01*
X75219816Y-54955804D01*
X75217847Y-54949897D01*
X75202436Y-54937936D01*
X75146053Y-54911228D01*
X75987217Y-54911228D01*
X75991023Y-56430362D01*
X76018083Y-56457422D01*
X76037217Y-56461228D01*
X76770637Y-56457422D01*
X76797697Y-56430362D01*
X76797697Y-56392094D01*
X76770637Y-56365034D01*
X76751503Y-56361228D01*
X76087100Y-56364675D01*
X76083459Y-54911228D01*
X77201503Y-54911228D01*
X77205309Y-56430362D01*
X77232369Y-56457422D01*
X77251503Y-56461228D01*
X77598337Y-56457719D01*
X77605102Y-56461102D01*
X77624457Y-56458662D01*
X77831679Y-56385994D01*
X77842066Y-56385994D01*
X77853537Y-56378328D01*
X77855692Y-56377573D01*
X77856205Y-56376545D01*
X77858287Y-56375155D01*
X77991801Y-56236963D01*
X77998549Y-56234715D01*
X78010510Y-56219303D01*
X78073591Y-56086131D01*
X78077392Y-56083851D01*
X78085725Y-56066212D01*
X78150879Y-55791465D01*
X78154840Y-55787505D01*
X78158646Y-55768371D01*
X78155346Y-55566034D01*
X78158101Y-55561444D01*
X78157743Y-55554085D01*
X78630075Y-55554085D01*
X78633374Y-55756421D01*
X78630620Y-55761012D01*
X78631568Y-55780498D01*
X78703197Y-56052924D01*
X78701629Y-56057630D01*
X78706782Y-56076446D01*
X78776738Y-56209217D01*
X78776738Y-56216076D01*
X78787577Y-56232297D01*
X78928440Y-56368395D01*
X78933029Y-56377573D01*
X78945003Y-56384398D01*
X78946655Y-56385994D01*
X78947803Y-56385994D01*
X78949978Y-56387234D01*
X79155837Y-56452318D01*
X79160941Y-56457422D01*
X79180075Y-56461228D01*
X79313375Y-56458096D01*
X79319388Y-56461102D01*
X79338743Y-56458662D01*
X79545965Y-56385994D01*
X79556353Y-56385994D01*
X79567825Y-56378327D01*
X79569978Y-56377573D01*
X79570491Y-56376546D01*
X79572574Y-56375155D01*
X79654840Y-56287505D01*
X79654840Y-56249236D01*
X79627780Y-56222177D01*
X79589511Y-56222177D01*
X79573290Y-56233016D01*
X79515710Y-56294363D01*
X79324276Y-56361495D01*
X79322932Y-56361228D01*
X79196591Y-56364196D01*
X79195886Y-56363794D01*
X78997727Y-56301144D01*
X78867983Y-56175789D01*
X78867653Y-56174581D01*
X78800237Y-56046630D01*
X78800010Y-56041958D01*
X78729213Y-55772700D01*
X78730075Y-55768371D01*
X78726838Y-55569901D01*
X78728582Y-55566212D01*
X78792891Y-55295025D01*
X78796224Y-55290732D01*
X78857483Y-55161405D01*
X78858287Y-55160869D01*
X78986199Y-55028477D01*
X79178731Y-54960960D01*
X79180075Y-54961228D01*
X79306415Y-54958259D01*
X79307121Y-54958662D01*
X79505430Y-55021360D01*
X79589511Y-55100279D01*
X79627780Y-55100279D01*
X79654840Y-55073219D01*
X79654840Y-55034950D01*
X79644001Y-55018729D01*
X79574093Y-54953114D01*
X79569978Y-54944884D01*
X79558126Y-54938128D01*
X79556352Y-54936463D01*
X79555204Y-54936463D01*
X79553029Y-54935223D01*
X79347169Y-54870137D01*
X79342066Y-54865034D01*
X79322932Y-54861228D01*
X79189630Y-54864359D01*
X79183619Y-54861354D01*
X79164263Y-54863794D01*
X78957042Y-54936463D01*
X78946654Y-54936463D01*
X78935181Y-54944129D01*
X78933029Y-54944884D01*
X78932515Y-54945910D01*
X78930433Y-54947302D01*
X78796917Y-55085493D01*
X78790172Y-55087742D01*
X78778211Y-55103153D01*
X78715129Y-55236324D01*
X78711329Y-55238605D01*
X78702996Y-55256244D01*
X78637841Y-55530990D01*
X78633881Y-55534951D01*
X78630075Y-55554085D01*
X78157743Y-55554085D01*
X78157153Y-55541958D01*
X78085523Y-55269531D01*
X78087092Y-55264826D01*
X78081939Y-55246010D01*
X78011983Y-55113237D01*
X78011983Y-55106379D01*
X78001144Y-55090158D01*
X77860280Y-54954061D01*
X77855692Y-54944884D01*
X77843717Y-54938058D01*
X77842066Y-54936463D01*
X77840918Y-54936463D01*
X77838743Y-54935223D01*
X77632883Y-54870137D01*
X77627780Y-54865034D01*
X77608646Y-54861228D01*
X77232369Y-54865034D01*
X77205309Y-54892094D01*
X77201503Y-54911228D01*
X76083459Y-54911228D01*
X76083411Y-54892094D01*
X76056351Y-54865034D01*
X76018083Y-54865034D01*
X75991023Y-54892094D01*
X75987217Y-54911228D01*
X75146053Y-54911228D01*
X75063388Y-54872071D01*
X75056351Y-54865034D01*
X75042869Y-54862352D01*
X75040762Y-54861354D01*
X75039673Y-54861716D01*
X75037217Y-54861228D01*
X74518083Y-54865034D01*
X74491023Y-54892094D01*
X74487217Y-54911228D01*
X67391281Y-54911228D01*
X67342065Y-54865034D01*
X67303796Y-54865034D01*
X67287575Y-54875873D01*
X67205309Y-54963523D01*
X67205309Y-55001792D01*
X65369125Y-55001792D01*
X65369125Y-54963523D01*
X65358286Y-54947302D01*
X65270636Y-54865034D01*
X65232367Y-54865034D01*
X65216146Y-54875873D01*
X65133880Y-54963523D01*
X65133880Y-55001792D01*
X64583684Y-55001792D01*
X64583483Y-54921385D01*
X64587168Y-54913424D01*
X64583437Y-54903165D01*
X64583410Y-54892094D01*
X64577127Y-54885811D01*
X64574090Y-54877459D01*
X64564124Y-54872808D01*
X64556350Y-54865034D01*
X64547465Y-54865034D01*
X64539412Y-54861276D01*
X64529077Y-54865034D01*
X64518082Y-54865034D01*
X64511799Y-54871316D01*
X64503447Y-54874354D01*
X64491907Y-54890083D01*
X64038921Y-55868844D01*
X63583431Y-54900806D01*
X63583410Y-54892094D01*
X63575708Y-54884392D01*
X63570985Y-54874354D01*
X63562632Y-54871316D01*
X63556350Y-54865034D01*
X63545355Y-54865034D01*
X63535020Y-54861276D01*
X63526967Y-54865034D01*
X63518082Y-54865034D01*
X63510307Y-54872808D01*
X63500342Y-54877459D01*
X63497304Y-54885811D01*
X63491022Y-54892094D01*
X63487216Y-54911228D01*
X57931767Y-54911228D01*
X57849102Y-54872071D01*
X57842065Y-54865034D01*
X57828583Y-54862352D01*
X57826476Y-54861354D01*
X57825387Y-54861716D01*
X57822931Y-54861228D01*
X57303797Y-54865034D01*
X57276737Y-54892094D01*
X57272931Y-54911228D01*
X57106264Y-54911228D01*
X57106264Y-54694561D01*
X79821507Y-54694561D01*
X79821507Y-56627895D01*
G37*
D11*
X39400000Y-96600000D02*
X39400000Y-57600000D01*
X85900000Y-58100000D02*
X85900000Y-96100000D01*
X80900000Y-101260000D02*
X44900000Y-101260000D01*
X44900000Y-53100000D02*
X80900000Y-53100000D01*
D12*
%TO.C,REF\u002A\u002A*%
X46775000Y-55725000D02*
X46775000Y-55225000D01*
X47725001Y-57049997D02*
X47013535Y-56389369D01*
X48900000Y-57350000D02*
X48400000Y-57350000D01*
X48999998Y-55125002D02*
X48350001Y-55775003D01*
D13*
X45900000Y-53600000D02*
X55899998Y-53600000D01*
X55899998Y-58600000D01*
X45900000Y-58600000D01*
X45900000Y-53600000D01*
D14*
G36*
X50932848Y-54143648D02*
G01*
X50945300Y-54161600D01*
X50953001Y-54194551D01*
X50955550Y-54245104D01*
X50953001Y-54293848D01*
X50945300Y-54326097D01*
X50932848Y-54344049D01*
X50916350Y-54349550D01*
X50440100Y-54349550D01*
X50440100Y-54677797D01*
X50843100Y-54677797D01*
X50860300Y-54683649D01*
X50873148Y-54701601D01*
X50880850Y-54733850D01*
X50883398Y-54783648D01*
X50880850Y-54834253D01*
X50873148Y-54866098D01*
X50860300Y-54883699D01*
X50843100Y-54888803D01*
X50440100Y-54888803D01*
X50440100Y-55263948D01*
X50920401Y-55263948D01*
X50937601Y-55269854D01*
X50950449Y-55287798D01*
X50958151Y-55320047D01*
X50960699Y-55369501D01*
X50958151Y-55419298D01*
X50950449Y-55451548D01*
X50937601Y-55469500D01*
X50920401Y-55475000D01*
X50250700Y-55475000D01*
X50193549Y-55454851D01*
X50170451Y-55389254D01*
X50170451Y-54224253D01*
X50193549Y-54158648D01*
X50250700Y-54138498D01*
X50916350Y-54138498D01*
X50932848Y-54143648D01*
G37*
G36*
X53218249Y-56568003D02*
G01*
X53257798Y-56576799D01*
X53279047Y-56590754D01*
X53285298Y-56609049D01*
X53285298Y-57415400D01*
X53557497Y-57055651D01*
X53575798Y-57034403D01*
X53603299Y-57020449D01*
X53645398Y-57012804D01*
X53709898Y-57010202D01*
X53773999Y-57012804D01*
X53816147Y-57020449D01*
X53838498Y-57032953D01*
X53844698Y-57051599D01*
X53836998Y-57084200D01*
X53813948Y-57120501D01*
X53545048Y-57420549D01*
X53856049Y-57893503D01*
X53873999Y-57928698D01*
X53879898Y-57955454D01*
X53873999Y-57973398D01*
X53853499Y-57985453D01*
X53812848Y-57992449D01*
X53745798Y-57994997D01*
X53677298Y-57993151D01*
X53633698Y-57986551D01*
X53607699Y-57973749D01*
X53591198Y-57952501D01*
X53285298Y-57476252D01*
X53285298Y-57954348D01*
X53279047Y-57972300D01*
X53257798Y-57985102D01*
X53218249Y-57992449D01*
X53155198Y-57994997D01*
X53092198Y-57992449D01*
X53052649Y-57984751D01*
X53031748Y-57971903D01*
X53025498Y-57953951D01*
X53025498Y-56608698D01*
X53031748Y-56590349D01*
X53052649Y-56576448D01*
X53092198Y-56568003D01*
X53155198Y-56564699D01*
X53218249Y-56568003D01*
G37*
G36*
X50524500Y-56664797D02*
G01*
X50530951Y-56666201D01*
X50589548Y-56691851D01*
X50630949Y-56739099D01*
X50659151Y-56808947D01*
X50659899Y-56811647D01*
X50948248Y-57604448D01*
X50952250Y-57604448D01*
X51251200Y-56813852D01*
X51278551Y-56744699D01*
X51280550Y-56740953D01*
X51317549Y-56692553D01*
X51367751Y-56666201D01*
X51434752Y-56658503D01*
X51616850Y-56658503D01*
X51664851Y-56665850D01*
X51697798Y-56686701D01*
X51717249Y-56720797D01*
X51724200Y-56766603D01*
X51724200Y-57951754D01*
X51718352Y-57970453D01*
X51697798Y-57983652D01*
X51658251Y-57992052D01*
X51595599Y-57994997D01*
X51533301Y-57992052D01*
X51494501Y-57983652D01*
X51473952Y-57970453D01*
X51467749Y-57951754D01*
X51467749Y-56869547D01*
X51465552Y-56869547D01*
X51079050Y-57950647D01*
X51065501Y-57973001D01*
X51040202Y-57986948D01*
X50999548Y-57993547D01*
X50940199Y-57994997D01*
X50880099Y-57992449D01*
X50839449Y-57984354D01*
X50814150Y-57970453D01*
X50802050Y-57950647D01*
X50429099Y-56869547D01*
X50426901Y-56869547D01*
X50426901Y-57951754D01*
X50421049Y-57970453D01*
X50400149Y-57983652D01*
X50360602Y-57992052D01*
X50298300Y-57994997D01*
X50236048Y-57992052D01*
X50196452Y-57983652D01*
X50175951Y-57970453D01*
X50170451Y-57951754D01*
X50170451Y-56766603D01*
X50190249Y-56695650D01*
X50198302Y-56686350D01*
X50266600Y-56658602D01*
X50272299Y-56658503D01*
X50449599Y-56658503D01*
X50524500Y-56664797D01*
G37*
G36*
X53236899Y-54235201D02*
G01*
X53276497Y-54243647D01*
X53297348Y-54257952D01*
X53303599Y-54277353D01*
X53303599Y-54490198D01*
X53503647Y-54490198D01*
X53521597Y-54495348D01*
X53534398Y-54512552D01*
X53542097Y-54545153D01*
X53544648Y-54595751D01*
X53536799Y-54670397D01*
X53534398Y-54677050D01*
X53504347Y-54701250D01*
X53303599Y-54701250D01*
X53303599Y-55136103D01*
X53310997Y-55209200D01*
X53327048Y-55249697D01*
X53393547Y-55286501D01*
X53411648Y-55287401D01*
X53448649Y-55283747D01*
X53477997Y-55275698D01*
X53499949Y-55267252D01*
X53515698Y-55263597D01*
X53527449Y-55267252D01*
X53536248Y-55281954D01*
X53542097Y-55310503D01*
X53544648Y-55356302D01*
X53538798Y-55424051D01*
X53523798Y-55457048D01*
X53496647Y-55474253D01*
X53454548Y-55487101D01*
X53401799Y-55495501D01*
X53344649Y-55498453D01*
X53268298Y-55492853D01*
X53210549Y-55478647D01*
X53144848Y-55444201D01*
X53117098Y-55418947D01*
X53076899Y-55356600D01*
X53062548Y-55316751D01*
X53048798Y-55244654D01*
X53044949Y-55170549D01*
X53044949Y-54701250D01*
X52935048Y-54701250D01*
X52904997Y-54677050D01*
X52894751Y-54602701D01*
X52894751Y-54595751D01*
X52897299Y-54545153D01*
X52904997Y-54512552D01*
X52917797Y-54495348D01*
X52935748Y-54490198D01*
X53044949Y-54490198D01*
X53044949Y-54277353D01*
X53050448Y-54257952D01*
X53071299Y-54243647D01*
X53111248Y-54235201D01*
X53173897Y-54232302D01*
X53236899Y-54235201D01*
G37*
G36*
X54465948Y-56990801D02*
G01*
X54539097Y-57004351D01*
X54587698Y-57020853D01*
X54653849Y-57055704D01*
X54712048Y-57104250D01*
X54722147Y-57115351D01*
X54765398Y-57176950D01*
X54796297Y-57248354D01*
X54799448Y-57258600D01*
X54816498Y-57333803D01*
X54823748Y-57408503D01*
X54824349Y-57438501D01*
X54824349Y-57479898D01*
X54803097Y-57550249D01*
X54744849Y-57572954D01*
X54185448Y-57572954D01*
X54191998Y-57649050D01*
X54199349Y-57680300D01*
X54231148Y-57746553D01*
X54243699Y-57762003D01*
X54304697Y-57806101D01*
X54322098Y-57813303D01*
X54396899Y-57829149D01*
X54436749Y-57830851D01*
X54511748Y-57826998D01*
X54556199Y-57819902D01*
X54628397Y-57801348D01*
X54645598Y-57795702D01*
X54707848Y-57771502D01*
X54748148Y-57760553D01*
X54763548Y-57764200D01*
X54773798Y-57776651D01*
X54779698Y-57802301D01*
X54781147Y-57843698D01*
X54780049Y-57881449D01*
X54776749Y-57908152D01*
X54770897Y-57926851D01*
X54759898Y-57941149D01*
X54723248Y-57961298D01*
X54652798Y-57985697D01*
X54647047Y-57987299D01*
X54573498Y-58003504D01*
X54540799Y-58008898D01*
X54467049Y-58016848D01*
X54413298Y-58018450D01*
X54339548Y-58015451D01*
X54265297Y-58005198D01*
X54198248Y-57987650D01*
X54128498Y-57957453D01*
X54064448Y-57913301D01*
X54044398Y-57894602D01*
X53996249Y-57833551D01*
X53962347Y-57765703D01*
X53952048Y-57736704D01*
X53933548Y-57660402D01*
X53924048Y-57582399D01*
X53921648Y-57512850D01*
X53924748Y-57438997D01*
X53928988Y-57408800D01*
X54185448Y-57408800D01*
X54573048Y-57408800D01*
X54568247Y-57333300D01*
X54544897Y-57262003D01*
X54529099Y-57237001D01*
X54469448Y-57189997D01*
X54396399Y-57174601D01*
X54384348Y-57174349D01*
X54310048Y-57187647D01*
X54298249Y-57193048D01*
X54240548Y-57238947D01*
X54237448Y-57242853D01*
X54202948Y-57309298D01*
X54200447Y-57317247D01*
X54186648Y-57390749D01*
X54185448Y-57408800D01*
X53928988Y-57408800D01*
X53935398Y-57363153D01*
X53953497Y-57293047D01*
X53981497Y-57223650D01*
X54020998Y-57157953D01*
X54046198Y-57126703D01*
X54099999Y-57076647D01*
X54162447Y-57037249D01*
X54194249Y-57022654D01*
X54268698Y-56999399D01*
X54343897Y-56988497D01*
X54384348Y-56987001D01*
X54390599Y-56986750D01*
X54465948Y-56990801D01*
G37*
G36*
X51605200Y-54469698D02*
G01*
X51678198Y-54479502D01*
X51713202Y-54487650D01*
X51783251Y-54514200D01*
X51839602Y-54552149D01*
X51886801Y-54608652D01*
X51911799Y-54663500D01*
X51928801Y-54738047D01*
X51934401Y-54813799D01*
X51934500Y-54825449D01*
X51934500Y-55437250D01*
X51924250Y-55460001D01*
X51891650Y-55471697D01*
X51826399Y-55475000D01*
X51758650Y-55471354D01*
X51728949Y-55459597D01*
X51720148Y-55436899D01*
X51720148Y-55363604D01*
X51663451Y-55415400D01*
X51599848Y-55456751D01*
X51590849Y-55461451D01*
X51519301Y-55488001D01*
X51446101Y-55498102D01*
X51429652Y-55498453D01*
X51355200Y-55493052D01*
X51295199Y-55479403D01*
X51225001Y-55448450D01*
X51188952Y-55422998D01*
X51138800Y-55366198D01*
X51119349Y-55330301D01*
X51098849Y-55257853D01*
X51094801Y-55200953D01*
X51095838Y-55191050D01*
X51348299Y-55191050D01*
X51368899Y-55261400D01*
X51384951Y-55279001D01*
X51452200Y-55308352D01*
X51486449Y-55310854D01*
X51560351Y-55297052D01*
X51586798Y-55284098D01*
X51647551Y-55237802D01*
X51679850Y-55205004D01*
X51679850Y-55052950D01*
X51580950Y-55052950D01*
X51506602Y-55056902D01*
X51473952Y-55062098D01*
X51403551Y-55087748D01*
X51401801Y-55088854D01*
X51361151Y-55132448D01*
X51348299Y-55191050D01*
X51095838Y-55191050D01*
X51102648Y-55126047D01*
X51126299Y-55061747D01*
X51171450Y-55001848D01*
X51220099Y-54964304D01*
X51289950Y-54930849D01*
X51363600Y-54909853D01*
X51375052Y-54907503D01*
X51448752Y-54896097D01*
X51523650Y-54890299D01*
X51580950Y-54889002D01*
X51590102Y-54888803D01*
X51679850Y-54888803D01*
X51679850Y-54831652D01*
X51672148Y-54757853D01*
X51671099Y-54753649D01*
X51642149Y-54697954D01*
X51588648Y-54664949D01*
X51515002Y-54654451D01*
X51505850Y-54654352D01*
X51430251Y-54660051D01*
X51390051Y-54669001D01*
X51320300Y-54692652D01*
X51299948Y-54701250D01*
X51234351Y-54733500D01*
X51191851Y-54748148D01*
X51171702Y-54740801D01*
X51157050Y-54719202D01*
X51148249Y-54685099D01*
X51145350Y-54640047D01*
X51150450Y-54587648D01*
X51169901Y-54552851D01*
X51220450Y-54522448D01*
X51290251Y-54499300D01*
X51305102Y-54495348D01*
X51379149Y-54479547D01*
X51410601Y-54474848D01*
X51487200Y-54467699D01*
X51528551Y-54466753D01*
X51605200Y-54469698D01*
G37*
G36*
X52443449Y-56989702D02*
G01*
X52516451Y-56999498D01*
X52551451Y-57007654D01*
X52621500Y-57034197D01*
X52677851Y-57072153D01*
X52725001Y-57128649D01*
X52749998Y-57183504D01*
X52767050Y-57258051D01*
X52772650Y-57333803D01*
X52772749Y-57345453D01*
X52772749Y-57957247D01*
X52762450Y-57979998D01*
X52729849Y-57991701D01*
X52664648Y-57994997D01*
X52596899Y-57991350D01*
X52567198Y-57979601D01*
X52558401Y-57956903D01*
X52558401Y-57883654D01*
X52501700Y-57935404D01*
X52438101Y-57976748D01*
X52429099Y-57981447D01*
X52357550Y-58007998D01*
X52284350Y-58018099D01*
X52267901Y-58018450D01*
X52193449Y-58013048D01*
X52133452Y-57999399D01*
X52063250Y-57968447D01*
X52027201Y-57943003D01*
X51977049Y-57886202D01*
X51957549Y-57850298D01*
X51937102Y-57777849D01*
X51933051Y-57720949D01*
X51934088Y-57711054D01*
X52186549Y-57711054D01*
X52207152Y-57781397D01*
X52223200Y-57798998D01*
X52290400Y-57828348D01*
X52324648Y-57830851D01*
X52398600Y-57817049D01*
X52425051Y-57804102D01*
X52485800Y-57757799D01*
X52518099Y-57725000D01*
X52518099Y-57572954D01*
X52419199Y-57572954D01*
X52344851Y-57576899D01*
X52312201Y-57582102D01*
X52241801Y-57607752D01*
X52240050Y-57608850D01*
X52199351Y-57652452D01*
X52186549Y-57711054D01*
X51934088Y-57711054D01*
X51940901Y-57646051D01*
X51964548Y-57581751D01*
X52009699Y-57521852D01*
X52058298Y-57484301D01*
X52128199Y-57450853D01*
X52201849Y-57429850D01*
X52213301Y-57427500D01*
X52287001Y-57416101D01*
X52361849Y-57410303D01*
X52419199Y-57408998D01*
X52428351Y-57408800D01*
X52518099Y-57408800D01*
X52518099Y-57351648D01*
X52510401Y-57277849D01*
X52509299Y-57273653D01*
X52480349Y-57217951D01*
X52426901Y-57184954D01*
X52353201Y-57174448D01*
X52344099Y-57174349D01*
X52268450Y-57180048D01*
X52228300Y-57188997D01*
X52158499Y-57212648D01*
X52138201Y-57221247D01*
X52072600Y-57253504D01*
X52030100Y-57268152D01*
X52009951Y-57260797D01*
X51995299Y-57239199D01*
X51986498Y-57205103D01*
X51983599Y-57160051D01*
X51988699Y-57107653D01*
X52008150Y-57072847D01*
X52058699Y-57042452D01*
X52128500Y-57019297D01*
X52143301Y-57015352D01*
X52217402Y-56999552D01*
X52248850Y-56994852D01*
X52325400Y-56987703D01*
X52366801Y-56986750D01*
X52443449Y-56989702D01*
G37*
G36*
X52585551Y-54471804D02*
G01*
X52595801Y-54473352D01*
X52667700Y-54488497D01*
X52669798Y-54489099D01*
X52725100Y-54510004D01*
X52757700Y-54529047D01*
X52771651Y-54545153D01*
X52777850Y-54564203D01*
X52781550Y-54591700D01*
X52782999Y-54631998D01*
X52781550Y-54678499D01*
X52776400Y-54706751D01*
X52766501Y-54721003D01*
X52752200Y-54724703D01*
X52722899Y-54713701D01*
X52674200Y-54689501D01*
X52606051Y-54665697D01*
X52533301Y-54654604D01*
X52518099Y-54654352D01*
X52457301Y-54661303D01*
X52415148Y-54680704D01*
X52390250Y-54710398D01*
X52382201Y-54746653D01*
X52401598Y-54800150D01*
X52453249Y-54837900D01*
X52520750Y-54866854D01*
X52525801Y-54868647D01*
X52595301Y-54894854D01*
X52608248Y-54900148D01*
X52675398Y-54931452D01*
X52690649Y-54939753D01*
X52751299Y-54983049D01*
X52763548Y-54995050D01*
X52807150Y-55056749D01*
X52814848Y-55073450D01*
X52833102Y-55147654D01*
X52834650Y-55181551D01*
X52827299Y-55254900D01*
X52805350Y-55318949D01*
X52761900Y-55382700D01*
X52722151Y-55418604D01*
X52655749Y-55457148D01*
X52595400Y-55478304D01*
X52519301Y-55493402D01*
X52442099Y-55498453D01*
X52436800Y-55498453D01*
X52361948Y-55493700D01*
X52338202Y-55490000D01*
X52266150Y-55472651D01*
X52254351Y-55468752D01*
X52192400Y-55442049D01*
X52156500Y-55416750D01*
X52138899Y-55381601D01*
X52132700Y-55312349D01*
X52134550Y-55264353D01*
X52140749Y-55235399D01*
X52151400Y-55220751D01*
X52166750Y-55217104D01*
X52200098Y-55231752D01*
X52255450Y-55263597D01*
X52323901Y-55293001D01*
X52331999Y-55295847D01*
X52404551Y-55309954D01*
X52431651Y-55310854D01*
X52493948Y-55303904D01*
X52541548Y-55283403D01*
X52571951Y-55249300D01*
X52582201Y-55202051D01*
X52563151Y-55149302D01*
X52512598Y-55110849D01*
X52443652Y-55080950D01*
X52441149Y-55080050D01*
X52370249Y-55052797D01*
X52359850Y-55048548D01*
X52293551Y-55016603D01*
X52278502Y-55008249D01*
X52217501Y-54962900D01*
X52207449Y-54952951D01*
X52164450Y-54890650D01*
X52156851Y-54873804D01*
X52139700Y-54801653D01*
X52137801Y-54763147D01*
X52146849Y-54688997D01*
X52163451Y-54642603D01*
X52204699Y-54580202D01*
X52237849Y-54548853D01*
X52302748Y-54508799D01*
X52355799Y-54488398D01*
X52429652Y-54472147D01*
X52506499Y-54466799D01*
X52511900Y-54466753D01*
X52585551Y-54471804D01*
G37*
G36*
X55429999Y-56991800D02*
G01*
X55440249Y-56993349D01*
X55512148Y-57008501D01*
X55514248Y-57009104D01*
X55569548Y-57030001D01*
X55602148Y-57049051D01*
X55616099Y-57065149D01*
X55622298Y-57084200D01*
X55625998Y-57111704D01*
X55627448Y-57152002D01*
X55625998Y-57198503D01*
X55620848Y-57226748D01*
X55610949Y-57240999D01*
X55596648Y-57244699D01*
X55567349Y-57233698D01*
X55518649Y-57209497D01*
X55450499Y-57185701D01*
X55377749Y-57174601D01*
X55362547Y-57174349D01*
X55301749Y-57181299D01*
X55259598Y-57200701D01*
X55234698Y-57230402D01*
X55226649Y-57266649D01*
X55246048Y-57320154D01*
X55297697Y-57357897D01*
X55365199Y-57386850D01*
X55370247Y-57388651D01*
X55439747Y-57414850D01*
X55452698Y-57420153D01*
X55519848Y-57451448D01*
X55535098Y-57459749D01*
X55595747Y-57503054D01*
X55608048Y-57515047D01*
X55651598Y-57576754D01*
X55659298Y-57593447D01*
X55677548Y-57667650D01*
X55679099Y-57701548D01*
X55671748Y-57774897D01*
X55649798Y-57838953D01*
X55606348Y-57902697D01*
X55566649Y-57938601D01*
X55500199Y-57977152D01*
X55439848Y-57998301D01*
X55363749Y-58013399D01*
X55286549Y-58018450D01*
X55281248Y-58018450D01*
X55206398Y-58013697D01*
X55182698Y-58010004D01*
X55110598Y-57992647D01*
X55098797Y-57988749D01*
X55036848Y-57962053D01*
X55000948Y-57936747D01*
X54983347Y-57901598D01*
X54977148Y-57832354D01*
X54978999Y-57784349D01*
X54985197Y-57755404D01*
X54995848Y-57740747D01*
X55011198Y-57737101D01*
X55044548Y-57751749D01*
X55099898Y-57783602D01*
X55168349Y-57812998D01*
X55176447Y-57815851D01*
X55248999Y-57829950D01*
X55276099Y-57830851D01*
X55338398Y-57823900D01*
X55385998Y-57803400D01*
X55416397Y-57769297D01*
X55426697Y-57722048D01*
X55407599Y-57669298D01*
X55357048Y-57630854D01*
X55288098Y-57600954D01*
X55285649Y-57600054D01*
X55214697Y-57572802D01*
X55204298Y-57568552D01*
X55137999Y-57536600D01*
X55122948Y-57528254D01*
X55061947Y-57482897D01*
X55051897Y-57472948D01*
X55008898Y-57410654D01*
X55001349Y-57393801D01*
X54984148Y-57321650D01*
X54982298Y-57283152D01*
X54991297Y-57209002D01*
X55007899Y-57162600D01*
X55049149Y-57100199D01*
X55082299Y-57068850D01*
X55147198Y-57028803D01*
X55200247Y-57008402D01*
X55274098Y-56992151D01*
X55350949Y-56986803D01*
X55356348Y-56986750D01*
X55429999Y-56991800D01*
G37*
D12*
X46794298Y-54475488D02*
X46813342Y-54476936D01*
X46832109Y-54479321D01*
X46850576Y-54482619D01*
X46868719Y-54486806D01*
X46886514Y-54491860D01*
X46903938Y-54497755D01*
X46920967Y-54504470D01*
X46937578Y-54511979D01*
X46953748Y-54520261D01*
X46969451Y-54529290D01*
X46984666Y-54539044D01*
X46999369Y-54549499D01*
X47013535Y-54560632D01*
X47027142Y-54572418D01*
X47040165Y-54584835D01*
X47052582Y-54597859D01*
X47064368Y-54611465D01*
X47075501Y-54625632D01*
X47085956Y-54640334D01*
X47095710Y-54655549D01*
X47104740Y-54671253D01*
X47113021Y-54687422D01*
X47120531Y-54704033D01*
X47127245Y-54721062D01*
X47133141Y-54738487D01*
X47138194Y-54756282D01*
X47142381Y-54774425D01*
X47145679Y-54792891D01*
X47148064Y-54811659D01*
X47149512Y-54830703D01*
X47150000Y-54850000D01*
X47149512Y-54869298D01*
X47148064Y-54888342D01*
X47145679Y-54907109D01*
X47142381Y-54925576D01*
X47138194Y-54943719D01*
X47133141Y-54961514D01*
X47127245Y-54978938D01*
X47120531Y-54995968D01*
X47113021Y-55012579D01*
X47104740Y-55028748D01*
X47095710Y-55044452D01*
X47085956Y-55059667D01*
X47075501Y-55074369D01*
X47064368Y-55088536D01*
X47052582Y-55102142D01*
X47040165Y-55115166D01*
X47027142Y-55127582D01*
X47013535Y-55139369D01*
X46999369Y-55150501D01*
X46984666Y-55160956D01*
X46969451Y-55170711D01*
X46953748Y-55179740D01*
X46937578Y-55188021D01*
X46920967Y-55195531D01*
X46903938Y-55202246D01*
X46886514Y-55208141D01*
X46868719Y-55213194D01*
X46850576Y-55217382D01*
X46832109Y-55220680D01*
X46813342Y-55223064D01*
X46794298Y-55224512D01*
X46775000Y-55225000D01*
X46755702Y-55224512D01*
X46736658Y-55223064D01*
X46717891Y-55220680D01*
X46699424Y-55217382D01*
X46681281Y-55213194D01*
X46663486Y-55208141D01*
X46646062Y-55202246D01*
X46629033Y-55195531D01*
X46612422Y-55188021D01*
X46596252Y-55179740D01*
X46580549Y-55170711D01*
X46565334Y-55160956D01*
X46550631Y-55150501D01*
X46536465Y-55139369D01*
X46522858Y-55127582D01*
X46509835Y-55115166D01*
X46497418Y-55102142D01*
X46485632Y-55088536D01*
X46474499Y-55074369D01*
X46464044Y-55059667D01*
X46454290Y-55044452D01*
X46445260Y-55028748D01*
X46436979Y-55012579D01*
X46429469Y-54995968D01*
X46422755Y-54978938D01*
X46416859Y-54961514D01*
X46411806Y-54943719D01*
X46407619Y-54925576D01*
X46404321Y-54907109D01*
X46401936Y-54888342D01*
X46400488Y-54869298D01*
X46400000Y-54850000D01*
X46400488Y-54830703D01*
X46401936Y-54811659D01*
X46404321Y-54792891D01*
X46407619Y-54774425D01*
X46411806Y-54756282D01*
X46416859Y-54738487D01*
X46422755Y-54721062D01*
X46429469Y-54704033D01*
X46436979Y-54687422D01*
X46445260Y-54671253D01*
X46454290Y-54655549D01*
X46464044Y-54640334D01*
X46474499Y-54625632D01*
X46485632Y-54611465D01*
X46497418Y-54597859D01*
X46509835Y-54584835D01*
X46522858Y-54572418D01*
X46536465Y-54560632D01*
X46550631Y-54549499D01*
X46565334Y-54539044D01*
X46580549Y-54529290D01*
X46596252Y-54520261D01*
X46612422Y-54511979D01*
X46629033Y-54504470D01*
X46646062Y-54497755D01*
X46663486Y-54491860D01*
X46681281Y-54486806D01*
X46699424Y-54482619D01*
X46717891Y-54479321D01*
X46736658Y-54476936D01*
X46755702Y-54475488D01*
X46775000Y-54475000D01*
X46794298Y-54475488D01*
X46794298Y-55725488D02*
X46813342Y-55726936D01*
X46832109Y-55729321D01*
X46850576Y-55732619D01*
X46868719Y-55736806D01*
X46886514Y-55741860D01*
X46903938Y-55747755D01*
X46920967Y-55754470D01*
X46937578Y-55761979D01*
X46953748Y-55770261D01*
X46969451Y-55779290D01*
X46984666Y-55789044D01*
X46999369Y-55799499D01*
X47013535Y-55810632D01*
X47027142Y-55822418D01*
X47040165Y-55834835D01*
X47052582Y-55847859D01*
X47064368Y-55861465D01*
X47075501Y-55875632D01*
X47085956Y-55890334D01*
X47095710Y-55905549D01*
X47104740Y-55921253D01*
X47113021Y-55937422D01*
X47120531Y-55954033D01*
X47127245Y-55971062D01*
X47133141Y-55988487D01*
X47138194Y-56006282D01*
X47142381Y-56024425D01*
X47145679Y-56042891D01*
X47148064Y-56061659D01*
X47149512Y-56080703D01*
X47150000Y-56100000D01*
X47149512Y-56119298D01*
X47148064Y-56138342D01*
X47145679Y-56157109D01*
X47142381Y-56175576D01*
X47138194Y-56193719D01*
X47133141Y-56211514D01*
X47127245Y-56228938D01*
X47120531Y-56245968D01*
X47113021Y-56262579D01*
X47104740Y-56278748D01*
X47095710Y-56294452D01*
X47085956Y-56309667D01*
X47075501Y-56324369D01*
X47064368Y-56338536D01*
X47052582Y-56352142D01*
X47040165Y-56365166D01*
X47027142Y-56377582D01*
X47013535Y-56389369D01*
X46999369Y-56400501D01*
X46984666Y-56410956D01*
X46969451Y-56420711D01*
X46953748Y-56429740D01*
X46937578Y-56438021D01*
X46920967Y-56445531D01*
X46903938Y-56452246D01*
X46886514Y-56458141D01*
X46868719Y-56463194D01*
X46850576Y-56467382D01*
X46832109Y-56470680D01*
X46813342Y-56473064D01*
X46794298Y-56474512D01*
X46775000Y-56475000D01*
X46755702Y-56474512D01*
X46736658Y-56473064D01*
X46717891Y-56470680D01*
X46699424Y-56467382D01*
X46681281Y-56463194D01*
X46663486Y-56458141D01*
X46646062Y-56452246D01*
X46629033Y-56445531D01*
X46612422Y-56438021D01*
X46596252Y-56429740D01*
X46580549Y-56420711D01*
X46565334Y-56410956D01*
X46550631Y-56400501D01*
X46536465Y-56389369D01*
X46522858Y-56377582D01*
X46509835Y-56365166D01*
X46497418Y-56352142D01*
X46485632Y-56338536D01*
X46474499Y-56324369D01*
X46464044Y-56309667D01*
X46454290Y-56294452D01*
X46445260Y-56278748D01*
X46436979Y-56262579D01*
X46429469Y-56245968D01*
X46422755Y-56228938D01*
X46416859Y-56211514D01*
X46411806Y-56193719D01*
X46407619Y-56175576D01*
X46404321Y-56157109D01*
X46401936Y-56138342D01*
X46400488Y-56119298D01*
X46400000Y-56100000D01*
X46400488Y-56080703D01*
X46401936Y-56061659D01*
X46404321Y-56042891D01*
X46407619Y-56024425D01*
X46411806Y-56006282D01*
X46416859Y-55988487D01*
X46422755Y-55971062D01*
X46429469Y-55954033D01*
X46436979Y-55937422D01*
X46445260Y-55921253D01*
X46454290Y-55905549D01*
X46464044Y-55890334D01*
X46474499Y-55875632D01*
X46485632Y-55861465D01*
X46497418Y-55847859D01*
X46509835Y-55834835D01*
X46522858Y-55822418D01*
X46536465Y-55810632D01*
X46550631Y-55799499D01*
X46565334Y-55789044D01*
X46580549Y-55779290D01*
X46596252Y-55770261D01*
X46612422Y-55761979D01*
X46629033Y-55754470D01*
X46646062Y-55747755D01*
X46663486Y-55741860D01*
X46681281Y-55736806D01*
X46699424Y-55732619D01*
X46717891Y-55729321D01*
X46736658Y-55726936D01*
X46755702Y-55725488D01*
X46775000Y-55725000D01*
X46794298Y-55725488D01*
X46799947Y-56966837D02*
X46818991Y-56968285D01*
X46837759Y-56970669D01*
X46856225Y-56973967D01*
X46874368Y-56978155D01*
X46892163Y-56983208D01*
X46909587Y-56989103D01*
X46926617Y-56995818D01*
X46943228Y-57003328D01*
X46959397Y-57011609D01*
X46975101Y-57020638D01*
X46990316Y-57030393D01*
X47005018Y-57040848D01*
X47019185Y-57051980D01*
X47032791Y-57063767D01*
X47045815Y-57076183D01*
X47058232Y-57089207D01*
X47070018Y-57102813D01*
X47081151Y-57116980D01*
X47091606Y-57131682D01*
X47101360Y-57146897D01*
X47110389Y-57162601D01*
X47118671Y-57178770D01*
X47126180Y-57195381D01*
X47132895Y-57212411D01*
X47138790Y-57229835D01*
X47143844Y-57247630D01*
X47148031Y-57265773D01*
X47151329Y-57284240D01*
X47153713Y-57303007D01*
X47155162Y-57322051D01*
X47155650Y-57341349D01*
X47155162Y-57360646D01*
X47153713Y-57379690D01*
X47151329Y-57398458D01*
X47148031Y-57416924D01*
X47143844Y-57435067D01*
X47138790Y-57452862D01*
X47132895Y-57470287D01*
X47126180Y-57487316D01*
X47118671Y-57503927D01*
X47110389Y-57520096D01*
X47101360Y-57535800D01*
X47091606Y-57551015D01*
X47081151Y-57565717D01*
X47070018Y-57579884D01*
X47058232Y-57593490D01*
X47045815Y-57606514D01*
X47032791Y-57618931D01*
X47019185Y-57630717D01*
X47005018Y-57641850D01*
X46990316Y-57652305D01*
X46975101Y-57662059D01*
X46959397Y-57671088D01*
X46943228Y-57679370D01*
X46926617Y-57686879D01*
X46909587Y-57693594D01*
X46892163Y-57699489D01*
X46874368Y-57704543D01*
X46856225Y-57708730D01*
X46837759Y-57712028D01*
X46818991Y-57714413D01*
X46799947Y-57715861D01*
X46780650Y-57716349D01*
X46761352Y-57715861D01*
X46742308Y-57714413D01*
X46723541Y-57712028D01*
X46705074Y-57708730D01*
X46686931Y-57704543D01*
X46669136Y-57699489D01*
X46651712Y-57693594D01*
X46634682Y-57686879D01*
X46618071Y-57679370D01*
X46601902Y-57671088D01*
X46586198Y-57662059D01*
X46570983Y-57652305D01*
X46556281Y-57641850D01*
X46542114Y-57630717D01*
X46528508Y-57618931D01*
X46515484Y-57606514D01*
X46503068Y-57593490D01*
X46491281Y-57579884D01*
X46480149Y-57565717D01*
X46469693Y-57551015D01*
X46459939Y-57535800D01*
X46450910Y-57520096D01*
X46442629Y-57503927D01*
X46435119Y-57487316D01*
X46428404Y-57470287D01*
X46422509Y-57452862D01*
X46417456Y-57435067D01*
X46413268Y-57416924D01*
X46409970Y-57398458D01*
X46407586Y-57379690D01*
X46406138Y-57360646D01*
X46405650Y-57341349D01*
X46406138Y-57322051D01*
X46407586Y-57303007D01*
X46409970Y-57284240D01*
X46413268Y-57265773D01*
X46417456Y-57247630D01*
X46422509Y-57229835D01*
X46428404Y-57212411D01*
X46435119Y-57195381D01*
X46442629Y-57178770D01*
X46450910Y-57162601D01*
X46459939Y-57146897D01*
X46469693Y-57131682D01*
X46480149Y-57116980D01*
X46491281Y-57102813D01*
X46503068Y-57089207D01*
X46515484Y-57076183D01*
X46528508Y-57063767D01*
X46542114Y-57051980D01*
X46556281Y-57040848D01*
X46570983Y-57030393D01*
X46586198Y-57020638D01*
X46601902Y-57011609D01*
X46618071Y-57003328D01*
X46634682Y-56995818D01*
X46651712Y-56989103D01*
X46669136Y-56983208D01*
X46686931Y-56978155D01*
X46705074Y-56973967D01*
X46723541Y-56970669D01*
X46742308Y-56968285D01*
X46761352Y-56966837D01*
X46780650Y-56966349D01*
X46799947Y-56966837D01*
X48044298Y-54475488D02*
X48063342Y-54476936D01*
X48082109Y-54479321D01*
X48100576Y-54482619D01*
X48118719Y-54486806D01*
X48136514Y-54491860D01*
X48153938Y-54497755D01*
X48170967Y-54504470D01*
X48187578Y-54511979D01*
X48203748Y-54520261D01*
X48219451Y-54529290D01*
X48234666Y-54539044D01*
X48249369Y-54549499D01*
X48263535Y-54560632D01*
X48277142Y-54572418D01*
X48290165Y-54584835D01*
X48302582Y-54597859D01*
X48314368Y-54611465D01*
X48325501Y-54625632D01*
X48335956Y-54640334D01*
X48345710Y-54655549D01*
X48354740Y-54671253D01*
X48363021Y-54687422D01*
X48370531Y-54704033D01*
X48377245Y-54721062D01*
X48383141Y-54738487D01*
X48388194Y-54756282D01*
X48392381Y-54774425D01*
X48395679Y-54792891D01*
X48398064Y-54811659D01*
X48399512Y-54830703D01*
X48400000Y-54850000D01*
X48399512Y-54869298D01*
X48398064Y-54888342D01*
X48395679Y-54907109D01*
X48392381Y-54925576D01*
X48388194Y-54943719D01*
X48383141Y-54961514D01*
X48377245Y-54978938D01*
X48370531Y-54995968D01*
X48363021Y-55012579D01*
X48354740Y-55028748D01*
X48345710Y-55044452D01*
X48335956Y-55059667D01*
X48325501Y-55074369D01*
X48314368Y-55088536D01*
X48302582Y-55102142D01*
X48290165Y-55115166D01*
X48277142Y-55127582D01*
X48263535Y-55139369D01*
X48249369Y-55150501D01*
X48234666Y-55160956D01*
X48219451Y-55170711D01*
X48203748Y-55179740D01*
X48187578Y-55188021D01*
X48170967Y-55195531D01*
X48153938Y-55202246D01*
X48136514Y-55208141D01*
X48118719Y-55213194D01*
X48100576Y-55217382D01*
X48082109Y-55220680D01*
X48063342Y-55223064D01*
X48044298Y-55224512D01*
X48025000Y-55225000D01*
X48005702Y-55224512D01*
X47986658Y-55223064D01*
X47967891Y-55220680D01*
X47949424Y-55217382D01*
X47931281Y-55213194D01*
X47913486Y-55208141D01*
X47896062Y-55202246D01*
X47879033Y-55195531D01*
X47862422Y-55188021D01*
X47846252Y-55179740D01*
X47830549Y-55170711D01*
X47815334Y-55160956D01*
X47800631Y-55150501D01*
X47786465Y-55139369D01*
X47772858Y-55127582D01*
X47759835Y-55115166D01*
X47747418Y-55102142D01*
X47735632Y-55088536D01*
X47724499Y-55074369D01*
X47714044Y-55059667D01*
X47704290Y-55044452D01*
X47695260Y-55028748D01*
X47686979Y-55012579D01*
X47679469Y-54995968D01*
X47672755Y-54978938D01*
X47666859Y-54961514D01*
X47661806Y-54943719D01*
X47657619Y-54925576D01*
X47654321Y-54907109D01*
X47651936Y-54888342D01*
X47650488Y-54869298D01*
X47650000Y-54850000D01*
X47650488Y-54830703D01*
X47651936Y-54811659D01*
X47654321Y-54792891D01*
X47657619Y-54774425D01*
X47661806Y-54756282D01*
X47666859Y-54738487D01*
X47672755Y-54721062D01*
X47679469Y-54704033D01*
X47686979Y-54687422D01*
X47695260Y-54671253D01*
X47704290Y-54655549D01*
X47714044Y-54640334D01*
X47724499Y-54625632D01*
X47735632Y-54611465D01*
X47747418Y-54597859D01*
X47759835Y-54584835D01*
X47772858Y-54572418D01*
X47786465Y-54560632D01*
X47800631Y-54549499D01*
X47815334Y-54539044D01*
X47830549Y-54529290D01*
X47846252Y-54520261D01*
X47862422Y-54511979D01*
X47879033Y-54504470D01*
X47896062Y-54497755D01*
X47913486Y-54491860D01*
X47931281Y-54486806D01*
X47949424Y-54482619D01*
X47967891Y-54479321D01*
X47986658Y-54476936D01*
X48005702Y-54475488D01*
X48025000Y-54475000D01*
X48044298Y-54475488D01*
X48044298Y-55725488D02*
X48063342Y-55726936D01*
X48082109Y-55729321D01*
X48100576Y-55732619D01*
X48118719Y-55736806D01*
X48136514Y-55741860D01*
X48153938Y-55747755D01*
X48170967Y-55754470D01*
X48187578Y-55761979D01*
X48203748Y-55770261D01*
X48219451Y-55779290D01*
X48234666Y-55789044D01*
X48249369Y-55799499D01*
X48263535Y-55810632D01*
X48277142Y-55822418D01*
X48290165Y-55834835D01*
X48302582Y-55847859D01*
X48314368Y-55861465D01*
X48325501Y-55875632D01*
X48335956Y-55890334D01*
X48345710Y-55905549D01*
X48354740Y-55921253D01*
X48363021Y-55937422D01*
X48370531Y-55954033D01*
X48377245Y-55971062D01*
X48383141Y-55988487D01*
X48388194Y-56006282D01*
X48392381Y-56024425D01*
X48395679Y-56042891D01*
X48398064Y-56061659D01*
X48399512Y-56080703D01*
X48400000Y-56100000D01*
X48399512Y-56119298D01*
X48398064Y-56138342D01*
X48395679Y-56157109D01*
X48392381Y-56175576D01*
X48388194Y-56193719D01*
X48383141Y-56211514D01*
X48377245Y-56228938D01*
X48370531Y-56245968D01*
X48363021Y-56262579D01*
X48354740Y-56278748D01*
X48345710Y-56294452D01*
X48335956Y-56309667D01*
X48325501Y-56324369D01*
X48314368Y-56338536D01*
X48302582Y-56352142D01*
X48290165Y-56365166D01*
X48277142Y-56377582D01*
X48263535Y-56389369D01*
X48249369Y-56400501D01*
X48234666Y-56410956D01*
X48219451Y-56420711D01*
X48203748Y-56429740D01*
X48187578Y-56438021D01*
X48170967Y-56445531D01*
X48153938Y-56452246D01*
X48136514Y-56458141D01*
X48118719Y-56463194D01*
X48100576Y-56467382D01*
X48082109Y-56470680D01*
X48063342Y-56473064D01*
X48044298Y-56474512D01*
X48025000Y-56475000D01*
X48005702Y-56474512D01*
X47986658Y-56473064D01*
X47967891Y-56470680D01*
X47949424Y-56467382D01*
X47931281Y-56463194D01*
X47913486Y-56458141D01*
X47896062Y-56452246D01*
X47879033Y-56445531D01*
X47862422Y-56438021D01*
X47846252Y-56429740D01*
X47830549Y-56420711D01*
X47815334Y-56410956D01*
X47800631Y-56400501D01*
X47786465Y-56389369D01*
X47772858Y-56377582D01*
X47759835Y-56365166D01*
X47747418Y-56352142D01*
X47735632Y-56338536D01*
X47724499Y-56324369D01*
X47714044Y-56309667D01*
X47704290Y-56294452D01*
X47695260Y-56278748D01*
X47686979Y-56262579D01*
X47679469Y-56245968D01*
X47672755Y-56228938D01*
X47666859Y-56211514D01*
X47661806Y-56193719D01*
X47657619Y-56175576D01*
X47654321Y-56157109D01*
X47651936Y-56138342D01*
X47650488Y-56119298D01*
X47650000Y-56100000D01*
X47650488Y-56080703D01*
X47651936Y-56061659D01*
X47654321Y-56042891D01*
X47657619Y-56024425D01*
X47661806Y-56006282D01*
X47666859Y-55988487D01*
X47672755Y-55971062D01*
X47679469Y-55954033D01*
X47686979Y-55937422D01*
X47695260Y-55921253D01*
X47704290Y-55905549D01*
X47714044Y-55890334D01*
X47724499Y-55875632D01*
X47735632Y-55861465D01*
X47747418Y-55847859D01*
X47759835Y-55834835D01*
X47772858Y-55822418D01*
X47786465Y-55810632D01*
X47800631Y-55799499D01*
X47815334Y-55789044D01*
X47830549Y-55779290D01*
X47846252Y-55770261D01*
X47862422Y-55761979D01*
X47879033Y-55754470D01*
X47896062Y-55747755D01*
X47913486Y-55741860D01*
X47931281Y-55736806D01*
X47949424Y-55732619D01*
X47967891Y-55729321D01*
X47986658Y-55726936D01*
X48005702Y-55725488D01*
X48025000Y-55725000D01*
X48044298Y-55725488D01*
X48044298Y-56975488D02*
X48063342Y-56976936D01*
X48082109Y-56979321D01*
X48100576Y-56982619D01*
X48118719Y-56986806D01*
X48136514Y-56991860D01*
X48153938Y-56997755D01*
X48170967Y-57004470D01*
X48187578Y-57011979D01*
X48203748Y-57020261D01*
X48219451Y-57029290D01*
X48234666Y-57039044D01*
X48249369Y-57049499D01*
X48263535Y-57060632D01*
X48277142Y-57072418D01*
X48290165Y-57084835D01*
X48302582Y-57097859D01*
X48314368Y-57111465D01*
X48325501Y-57125632D01*
X48335956Y-57140334D01*
X48345710Y-57155549D01*
X48354740Y-57171253D01*
X48363021Y-57187422D01*
X48370531Y-57204033D01*
X48377245Y-57221062D01*
X48383141Y-57238487D01*
X48388194Y-57256282D01*
X48392381Y-57274425D01*
X48395679Y-57292891D01*
X48398064Y-57311659D01*
X48399512Y-57330703D01*
X48400000Y-57350000D01*
X48399512Y-57369298D01*
X48398064Y-57388342D01*
X48395679Y-57407109D01*
X48392381Y-57425576D01*
X48388194Y-57443719D01*
X48383141Y-57461514D01*
X48377245Y-57478938D01*
X48370531Y-57495968D01*
X48363021Y-57512579D01*
X48354740Y-57528748D01*
X48345710Y-57544452D01*
X48335956Y-57559667D01*
X48325501Y-57574369D01*
X48314368Y-57588536D01*
X48302582Y-57602142D01*
X48290165Y-57615166D01*
X48277142Y-57627582D01*
X48263535Y-57639369D01*
X48249369Y-57650501D01*
X48234666Y-57660956D01*
X48219451Y-57670711D01*
X48203748Y-57679740D01*
X48187578Y-57688021D01*
X48170967Y-57695531D01*
X48153938Y-57702246D01*
X48136514Y-57708141D01*
X48118719Y-57713194D01*
X48100576Y-57717382D01*
X48082109Y-57720680D01*
X48063342Y-57723064D01*
X48044298Y-57724512D01*
X48025000Y-57725000D01*
X48005702Y-57724512D01*
X47986658Y-57723064D01*
X47967891Y-57720680D01*
X47949424Y-57717382D01*
X47931281Y-57713194D01*
X47913486Y-57708141D01*
X47896062Y-57702246D01*
X47879033Y-57695531D01*
X47862422Y-57688021D01*
X47846252Y-57679740D01*
X47830549Y-57670711D01*
X47815334Y-57660956D01*
X47800631Y-57650501D01*
X47786465Y-57639369D01*
X47772858Y-57627582D01*
X47759835Y-57615166D01*
X47747418Y-57602142D01*
X47735632Y-57588536D01*
X47724499Y-57574369D01*
X47714044Y-57559667D01*
X47704290Y-57544452D01*
X47695260Y-57528748D01*
X47686979Y-57512579D01*
X47679469Y-57495968D01*
X47672755Y-57478938D01*
X47666859Y-57461514D01*
X47661806Y-57443719D01*
X47657619Y-57425576D01*
X47654321Y-57407109D01*
X47651936Y-57388342D01*
X47650488Y-57369298D01*
X47650000Y-57350000D01*
X47650488Y-57330703D01*
X47651936Y-57311659D01*
X47654321Y-57292891D01*
X47657619Y-57274425D01*
X47661806Y-57256282D01*
X47666859Y-57238487D01*
X47672755Y-57221062D01*
X47679469Y-57204033D01*
X47686979Y-57187422D01*
X47695260Y-57171253D01*
X47704290Y-57155549D01*
X47714044Y-57140334D01*
X47724499Y-57125632D01*
X47735632Y-57111465D01*
X47747418Y-57097859D01*
X47759835Y-57084835D01*
X47772858Y-57072418D01*
X47786465Y-57060632D01*
X47800631Y-57049499D01*
X47815334Y-57039044D01*
X47830549Y-57029290D01*
X47846252Y-57020261D01*
X47862422Y-57011979D01*
X47879033Y-57004470D01*
X47896062Y-56997755D01*
X47913486Y-56991860D01*
X47931281Y-56986806D01*
X47949424Y-56982619D01*
X47967891Y-56979321D01*
X47986658Y-56976936D01*
X48005702Y-56975488D01*
X48025000Y-56975000D01*
X48044298Y-56975488D01*
X49294298Y-54475488D02*
X49313342Y-54476936D01*
X49332109Y-54479321D01*
X49350576Y-54482619D01*
X49368719Y-54486806D01*
X49386514Y-54491860D01*
X49403938Y-54497755D01*
X49420967Y-54504470D01*
X49437578Y-54511979D01*
X49453748Y-54520261D01*
X49469451Y-54529290D01*
X49484666Y-54539044D01*
X49499369Y-54549499D01*
X49513535Y-54560632D01*
X49527142Y-54572418D01*
X49540165Y-54584835D01*
X49552582Y-54597859D01*
X49564368Y-54611465D01*
X49575501Y-54625632D01*
X49585956Y-54640334D01*
X49595710Y-54655549D01*
X49604740Y-54671253D01*
X49613021Y-54687422D01*
X49620531Y-54704033D01*
X49627245Y-54721062D01*
X49633141Y-54738487D01*
X49638194Y-54756282D01*
X49642381Y-54774425D01*
X49645679Y-54792891D01*
X49648064Y-54811659D01*
X49649512Y-54830703D01*
X49650000Y-54850000D01*
X49649512Y-54869298D01*
X49648064Y-54888342D01*
X49645679Y-54907109D01*
X49642381Y-54925576D01*
X49638194Y-54943719D01*
X49633141Y-54961514D01*
X49627245Y-54978938D01*
X49620531Y-54995968D01*
X49613021Y-55012579D01*
X49604740Y-55028748D01*
X49595710Y-55044452D01*
X49585956Y-55059667D01*
X49575501Y-55074369D01*
X49564368Y-55088536D01*
X49552582Y-55102142D01*
X49540165Y-55115166D01*
X49527142Y-55127582D01*
X49513535Y-55139369D01*
X49499369Y-55150501D01*
X49484666Y-55160956D01*
X49469451Y-55170711D01*
X49453748Y-55179740D01*
X49437578Y-55188021D01*
X49420967Y-55195531D01*
X49403938Y-55202246D01*
X49386514Y-55208141D01*
X49368719Y-55213194D01*
X49350576Y-55217382D01*
X49332109Y-55220680D01*
X49313342Y-55223064D01*
X49294298Y-55224512D01*
X49275000Y-55225000D01*
X49255702Y-55224512D01*
X49236658Y-55223064D01*
X49217891Y-55220680D01*
X49199424Y-55217382D01*
X49181281Y-55213194D01*
X49163486Y-55208141D01*
X49146062Y-55202246D01*
X49129033Y-55195531D01*
X49112422Y-55188021D01*
X49096252Y-55179740D01*
X49080549Y-55170711D01*
X49065334Y-55160956D01*
X49050631Y-55150501D01*
X49036465Y-55139369D01*
X49022858Y-55127582D01*
X49009835Y-55115166D01*
X48997418Y-55102142D01*
X48985632Y-55088536D01*
X48974499Y-55074369D01*
X48964044Y-55059667D01*
X48954290Y-55044452D01*
X48945260Y-55028748D01*
X48936979Y-55012579D01*
X48929469Y-54995968D01*
X48922755Y-54978938D01*
X48916859Y-54961514D01*
X48911806Y-54943719D01*
X48907619Y-54925576D01*
X48904321Y-54907109D01*
X48901936Y-54888342D01*
X48900488Y-54869298D01*
X48900000Y-54850000D01*
X48900488Y-54830703D01*
X48901936Y-54811659D01*
X48904321Y-54792891D01*
X48907619Y-54774425D01*
X48911806Y-54756282D01*
X48916859Y-54738487D01*
X48922755Y-54721062D01*
X48929469Y-54704033D01*
X48936979Y-54687422D01*
X48945260Y-54671253D01*
X48954290Y-54655549D01*
X48964044Y-54640334D01*
X48974499Y-54625632D01*
X48985632Y-54611465D01*
X48997418Y-54597859D01*
X49009835Y-54584835D01*
X49022858Y-54572418D01*
X49036465Y-54560632D01*
X49050631Y-54549499D01*
X49065334Y-54539044D01*
X49080549Y-54529290D01*
X49096252Y-54520261D01*
X49112422Y-54511979D01*
X49129033Y-54504470D01*
X49146062Y-54497755D01*
X49163486Y-54491860D01*
X49181281Y-54486806D01*
X49199424Y-54482619D01*
X49217891Y-54479321D01*
X49236658Y-54476936D01*
X49255702Y-54475488D01*
X49275000Y-54475000D01*
X49294298Y-54475488D01*
X49294298Y-55725488D02*
X49313342Y-55726936D01*
X49332109Y-55729321D01*
X49350576Y-55732619D01*
X49368719Y-55736806D01*
X49386514Y-55741860D01*
X49403938Y-55747755D01*
X49420967Y-55754470D01*
X49437578Y-55761979D01*
X49453748Y-55770261D01*
X49469451Y-55779290D01*
X49484666Y-55789044D01*
X49499369Y-55799499D01*
X49513535Y-55810632D01*
X49527142Y-55822418D01*
X49540165Y-55834835D01*
X49552582Y-55847859D01*
X49564368Y-55861465D01*
X49575501Y-55875632D01*
X49585956Y-55890334D01*
X49595710Y-55905549D01*
X49604740Y-55921253D01*
X49613021Y-55937422D01*
X49620531Y-55954033D01*
X49627245Y-55971062D01*
X49633141Y-55988487D01*
X49638194Y-56006282D01*
X49642381Y-56024425D01*
X49645679Y-56042891D01*
X49648064Y-56061659D01*
X49649512Y-56080703D01*
X49650000Y-56100000D01*
X49649512Y-56119298D01*
X49648064Y-56138342D01*
X49645679Y-56157109D01*
X49642381Y-56175576D01*
X49638194Y-56193719D01*
X49633141Y-56211514D01*
X49627245Y-56228938D01*
X49620531Y-56245968D01*
X49613021Y-56262579D01*
X49604740Y-56278748D01*
X49595710Y-56294452D01*
X49585956Y-56309667D01*
X49575501Y-56324369D01*
X49564368Y-56338536D01*
X49552582Y-56352142D01*
X49540165Y-56365166D01*
X49527142Y-56377582D01*
X49513535Y-56389369D01*
X49499369Y-56400501D01*
X49484666Y-56410956D01*
X49469451Y-56420711D01*
X49453748Y-56429740D01*
X49437578Y-56438021D01*
X49420967Y-56445531D01*
X49403938Y-56452246D01*
X49386514Y-56458141D01*
X49368719Y-56463194D01*
X49350576Y-56467382D01*
X49332109Y-56470680D01*
X49313342Y-56473064D01*
X49294298Y-56474512D01*
X49275000Y-56475000D01*
X49255702Y-56474512D01*
X49236658Y-56473064D01*
X49217891Y-56470680D01*
X49199424Y-56467382D01*
X49181281Y-56463194D01*
X49163486Y-56458141D01*
X49146062Y-56452246D01*
X49129033Y-56445531D01*
X49112422Y-56438021D01*
X49096252Y-56429740D01*
X49080549Y-56420711D01*
X49065334Y-56410956D01*
X49050631Y-56400501D01*
X49036465Y-56389369D01*
X49022858Y-56377582D01*
X49009835Y-56365166D01*
X48997418Y-56352142D01*
X48985632Y-56338536D01*
X48974499Y-56324369D01*
X48964044Y-56309667D01*
X48954290Y-56294452D01*
X48945260Y-56278748D01*
X48936979Y-56262579D01*
X48929469Y-56245968D01*
X48922755Y-56228938D01*
X48916859Y-56211514D01*
X48911806Y-56193719D01*
X48907619Y-56175576D01*
X48904321Y-56157109D01*
X48901936Y-56138342D01*
X48900488Y-56119298D01*
X48900000Y-56100000D01*
X48900488Y-56080703D01*
X48901936Y-56061659D01*
X48904321Y-56042891D01*
X48907619Y-56024425D01*
X48911806Y-56006282D01*
X48916859Y-55988487D01*
X48922755Y-55971062D01*
X48929469Y-55954033D01*
X48936979Y-55937422D01*
X48945260Y-55921253D01*
X48954290Y-55905549D01*
X48964044Y-55890334D01*
X48974499Y-55875632D01*
X48985632Y-55861465D01*
X48997418Y-55847859D01*
X49009835Y-55834835D01*
X49022858Y-55822418D01*
X49036465Y-55810632D01*
X49050631Y-55799499D01*
X49065334Y-55789044D01*
X49080549Y-55779290D01*
X49096252Y-55770261D01*
X49112422Y-55761979D01*
X49129033Y-55754470D01*
X49146062Y-55747755D01*
X49163486Y-55741860D01*
X49181281Y-55736806D01*
X49199424Y-55732619D01*
X49217891Y-55729321D01*
X49236658Y-55726936D01*
X49255702Y-55725488D01*
X49275000Y-55725000D01*
X49294298Y-55725488D01*
X49294298Y-56975488D02*
X49313342Y-56976936D01*
X49332109Y-56979321D01*
X49350576Y-56982619D01*
X49368719Y-56986806D01*
X49386514Y-56991860D01*
X49403938Y-56997755D01*
X49420967Y-57004470D01*
X49437578Y-57011979D01*
X49453748Y-57020261D01*
X49469451Y-57029290D01*
X49484666Y-57039044D01*
X49499369Y-57049499D01*
X49513535Y-57060632D01*
X49527142Y-57072418D01*
X49540165Y-57084835D01*
X49552582Y-57097859D01*
X49564368Y-57111465D01*
X49575501Y-57125632D01*
X49585956Y-57140334D01*
X49595710Y-57155549D01*
X49604740Y-57171253D01*
X49613021Y-57187422D01*
X49620531Y-57204033D01*
X49627245Y-57221062D01*
X49633141Y-57238487D01*
X49638194Y-57256282D01*
X49642381Y-57274425D01*
X49645679Y-57292891D01*
X49648064Y-57311659D01*
X49649512Y-57330703D01*
X49650000Y-57350000D01*
X49649512Y-57369298D01*
X49648064Y-57388342D01*
X49645679Y-57407109D01*
X49642381Y-57425576D01*
X49638194Y-57443719D01*
X49633141Y-57461514D01*
X49627245Y-57478938D01*
X49620531Y-57495968D01*
X49613021Y-57512579D01*
X49604740Y-57528748D01*
X49595710Y-57544452D01*
X49585956Y-57559667D01*
X49575501Y-57574369D01*
X49564368Y-57588536D01*
X49552582Y-57602142D01*
X49540165Y-57615166D01*
X49527142Y-57627582D01*
X49513535Y-57639369D01*
X49499369Y-57650501D01*
X49484666Y-57660956D01*
X49469451Y-57670711D01*
X49453748Y-57679740D01*
X49437578Y-57688021D01*
X49420967Y-57695531D01*
X49403938Y-57702246D01*
X49386514Y-57708141D01*
X49368719Y-57713194D01*
X49350576Y-57717382D01*
X49332109Y-57720680D01*
X49313342Y-57723064D01*
X49294298Y-57724512D01*
X49275000Y-57725000D01*
X49255702Y-57724512D01*
X49236658Y-57723064D01*
X49217891Y-57720680D01*
X49199424Y-57717382D01*
X49181281Y-57713194D01*
X49163486Y-57708141D01*
X49146062Y-57702246D01*
X49129033Y-57695531D01*
X49112422Y-57688021D01*
X49096252Y-57679740D01*
X49080549Y-57670711D01*
X49065334Y-57660956D01*
X49050631Y-57650501D01*
X49036465Y-57639369D01*
X49022858Y-57627582D01*
X49009835Y-57615166D01*
X48997418Y-57602142D01*
X48985632Y-57588536D01*
X48974499Y-57574369D01*
X48964044Y-57559667D01*
X48954290Y-57544452D01*
X48945260Y-57528748D01*
X48936979Y-57512579D01*
X48929469Y-57495968D01*
X48922755Y-57478938D01*
X48916859Y-57461514D01*
X48911806Y-57443719D01*
X48907619Y-57425576D01*
X48904321Y-57407109D01*
X48901936Y-57388342D01*
X48900488Y-57369298D01*
X48900000Y-57350000D01*
X48900488Y-57330703D01*
X48901936Y-57311659D01*
X48904321Y-57292891D01*
X48907619Y-57274425D01*
X48911806Y-57256282D01*
X48916859Y-57238487D01*
X48922755Y-57221062D01*
X48929469Y-57204033D01*
X48936979Y-57187422D01*
X48945260Y-57171253D01*
X48954290Y-57155549D01*
X48964044Y-57140334D01*
X48974499Y-57125632D01*
X48985632Y-57111465D01*
X48997418Y-57097859D01*
X49009835Y-57084835D01*
X49022858Y-57072418D01*
X49036465Y-57060632D01*
X49050631Y-57049499D01*
X49065334Y-57039044D01*
X49080549Y-57029290D01*
X49096252Y-57020261D01*
X49112422Y-57011979D01*
X49129033Y-57004470D01*
X49146062Y-56997755D01*
X49163486Y-56991860D01*
X49181281Y-56986806D01*
X49199424Y-56982619D01*
X49217891Y-56979321D01*
X49236658Y-56976936D01*
X49255702Y-56975488D01*
X49275000Y-56975000D01*
X49294298Y-56975488D01*
D15*
%TO.C,J4*%
X50463000Y-76444999D02*
X50463000Y-64495001D01*
X58336999Y-76445000D02*
X50463000Y-76444999D01*
X58337000Y-64495001D02*
X58336999Y-76445000D01*
X50463000Y-64495001D02*
G75*
G02*
X58337000Y-64495001I3937000J1D01*
G01*
D16*
%TO.C,AL2*%
X68429999Y-58884996D02*
X68430000Y-64774998D01*
X73569997Y-58429999D02*
X73570001Y-64775000D01*
%TO.C,C28*%
X53364999Y-87209421D02*
X53365001Y-87490580D01*
X54384999Y-87209420D02*
X54385001Y-87490579D01*
%TO.C,D14*%
X58679999Y-70179998D02*
X58680000Y-66420002D01*
X58679999Y-70179998D02*
X60700001Y-70180002D01*
X60700001Y-70180002D02*
X60699999Y-66419999D01*
%TO.C,R17*%
X57602499Y-82512258D02*
X57602501Y-82037743D01*
X58647497Y-82512259D02*
X58647499Y-82037744D01*
%TO.C,U9*%
X74319691Y-87599999D02*
X74319691Y-85649999D01*
X74319691Y-87599999D02*
X74319692Y-89550000D01*
X79439691Y-87600001D02*
X79439690Y-85650000D01*
X79439691Y-87600001D02*
X79439691Y-89550001D01*
X74414691Y-90300001D02*
X74084691Y-90540000D01*
X74084690Y-90060000D01*
X74414691Y-90300001D01*
G36*
X74414691Y-90300001D02*
G01*
X74084691Y-90540000D01*
X74084690Y-90060000D01*
X74414691Y-90300001D01*
G37*
%TO.C,C34*%
X49070000Y-78518748D02*
X49070000Y-79941254D01*
X50890000Y-78518746D02*
X50890000Y-79941252D01*
%TO.C,R23*%
X65100798Y-91577500D02*
X65575314Y-91577500D01*
X65100798Y-92622500D02*
X65575314Y-92622500D01*
%TO.C,AL3*%
X74429999Y-58914992D02*
X74430000Y-64804994D01*
X79569997Y-58459995D02*
X79570001Y-64804996D01*
%TO.C,AH1*%
X62464996Y-72884996D02*
X62464997Y-78774998D01*
X67604994Y-72429999D02*
X67604998Y-78775000D01*
%TO.C,D4*%
X58775001Y-81450002D02*
X58775001Y-83410003D01*
X58775001Y-83410003D02*
X59975001Y-83410001D01*
X59975001Y-81450002D02*
X59975001Y-83410001D01*
%TO.C,D3*%
X56025001Y-81650000D02*
X56025001Y-83610001D01*
X56025001Y-83610001D02*
X57225001Y-83609999D01*
X57225001Y-81650000D02*
X57225001Y-83609999D01*
%TO.C,R11*%
X59287258Y-92622502D02*
X58812742Y-92622499D01*
X59287260Y-91577505D02*
X58812744Y-91577502D01*
%TO.C,D11*%
X75754691Y-81650000D02*
X75754691Y-83610001D01*
X75754691Y-83610001D02*
X76954691Y-83609999D01*
X76954691Y-81650000D02*
X76954691Y-83609999D01*
%TO.C,C36*%
X39864998Y-63947502D02*
X42614995Y-63947501D01*
X39864998Y-71403066D02*
X39864998Y-63947502D01*
X40929435Y-72467504D02*
X39864998Y-71403066D01*
X40929435Y-72467504D02*
X42614998Y-72467502D01*
X41114997Y-73207503D02*
X42114996Y-73207502D01*
X41614998Y-73707502D02*
X41614996Y-72707503D01*
X47320561Y-72467501D02*
X45634999Y-72467503D01*
X47320561Y-72467501D02*
X48384999Y-71403064D01*
X48384997Y-63947503D02*
X45634996Y-63947502D01*
X48384999Y-71403064D02*
X48384997Y-63947503D01*
%TO.C,C22*%
X62828057Y-87484419D02*
X62828058Y-87765579D01*
X63848058Y-87484417D02*
X63848059Y-87765577D01*
%TO.C,D12*%
X78754692Y-81650000D02*
X78754692Y-83610001D01*
X78754692Y-83610001D02*
X79954692Y-83609999D01*
X79954692Y-81650000D02*
X79954692Y-83609999D01*
%TO.C,AH2*%
X68429999Y-72859996D02*
X68430000Y-78749998D01*
X73569997Y-72404999D02*
X73570001Y-78750000D01*
%TO.C,U5*%
X54840002Y-87600003D02*
X54839998Y-85649999D01*
X54840002Y-87600003D02*
X54840004Y-89550003D01*
X59959998Y-87599997D02*
X59959996Y-85649997D01*
X59959998Y-87599997D02*
X59960002Y-89550001D01*
X54935000Y-90300004D02*
X54605002Y-90539999D01*
X54605000Y-90060000D01*
X54935000Y-90300004D01*
G36*
X54935000Y-90300004D02*
G01*
X54605002Y-90539999D01*
X54605000Y-90060000D01*
X54935000Y-90300004D01*
G37*
%TO.C,J1*%
X61340000Y-93440000D02*
X61340000Y-101260000D01*
X61340000Y-95040000D02*
X62260000Y-95040000D01*
X61340000Y-101260000D02*
X79460000Y-101260000D01*
X62100000Y-97400000D02*
X62100000Y-99000000D01*
X62100000Y-99000000D02*
X63100000Y-99000000D01*
X62260000Y-93440000D02*
X61340000Y-93440000D01*
X62260000Y-95040000D02*
X62260000Y-93440000D01*
X62540000Y-95040000D02*
X62260000Y-95040000D01*
X62540000Y-95040000D02*
X62540000Y-93825000D01*
X62600000Y-99000000D02*
X62600000Y-101260000D01*
X63100000Y-97400000D02*
X62100000Y-97400000D01*
X63100000Y-99000000D02*
X63100000Y-97400000D01*
X63100000Y-99000000D02*
X63100000Y-101260000D01*
X63900000Y-96900000D02*
X76900000Y-96900000D01*
X63900000Y-101260000D02*
X63900000Y-96900000D01*
X76900000Y-96900000D02*
X76900000Y-101260000D01*
X77700000Y-97400000D02*
X78700000Y-97400000D01*
X77700000Y-99000000D02*
X77700000Y-97400000D01*
X78540000Y-93440000D02*
X78540000Y-95040000D01*
X78540000Y-95040000D02*
X78260000Y-95040000D01*
X78700000Y-97400000D02*
X78700000Y-99000000D01*
X78700000Y-99000000D02*
X77700000Y-99000000D01*
X79460000Y-93440000D02*
X78540000Y-93440000D01*
X79460000Y-95040000D02*
X78540000Y-95040000D01*
X79460000Y-101260000D02*
X79460000Y-93440000D01*
%TO.C,C38*%
X58779999Y-73321253D02*
X58780000Y-71898748D01*
X60600000Y-73321252D02*
X60600001Y-71898747D01*
%TO.C,R10*%
X55637742Y-91577500D02*
X56112258Y-91577500D01*
X55637742Y-92622500D02*
X56112258Y-92622500D01*
%TO.C,AL1*%
X62464996Y-58919996D02*
X62464997Y-64809998D01*
X67604994Y-58464999D02*
X67604998Y-64810000D01*
%TO.C,R37*%
X78591948Y-92622500D02*
X78117432Y-92622497D01*
X78591950Y-91577503D02*
X78117434Y-91577500D01*
%TO.C,D7*%
X65738057Y-81650000D02*
X65738057Y-83610001D01*
X65738057Y-83610001D02*
X66938057Y-83609999D01*
X66938057Y-81650000D02*
X66938057Y-83609999D01*
%TO.C,D6*%
X60400000Y-84410932D02*
X60400000Y-88420931D01*
X62400000Y-84410929D02*
X60400000Y-84410932D01*
X62400000Y-84410929D02*
X62400002Y-88420931D01*
%TO.C,C16*%
X72844692Y-87484419D02*
X72844693Y-87765579D01*
X73864693Y-87484417D02*
X73864694Y-87765577D01*
%TO.C,R30*%
X67318463Y-82586179D02*
X67318464Y-82111664D01*
X68363462Y-82586180D02*
X68363463Y-82111665D01*
%TO.C,R29*%
X64315556Y-82587257D02*
X64315557Y-82112742D01*
X65360555Y-82587258D02*
X65360556Y-82112743D01*
%TO.C,R24*%
X68750313Y-92622500D02*
X68275797Y-92622497D01*
X68750315Y-91577503D02*
X68275799Y-91577500D01*
%TO.C,C35*%
X51400000Y-78518747D02*
X51400000Y-79941252D01*
X53220000Y-78518748D02*
X53220000Y-79941253D01*
%TO.C,R42*%
X74332191Y-82587257D02*
X74332192Y-82112742D01*
X75377190Y-82587258D02*
X75377191Y-82112743D01*
%TO.C,AH3*%
X74429999Y-72884996D02*
X74430000Y-78774998D01*
X79569997Y-72429999D02*
X79570001Y-78775000D01*
%TO.C,U7*%
X64278056Y-87599999D02*
X64278056Y-85649999D01*
X64278056Y-87599999D02*
X64278057Y-89550000D01*
X69398056Y-87600001D02*
X69398055Y-85650000D01*
X69398056Y-87600001D02*
X69398056Y-89550001D01*
X64373056Y-90300001D02*
X64043056Y-90539999D01*
X64043055Y-90060000D01*
X64373056Y-90300001D01*
G36*
X64373056Y-90300001D02*
G01*
X64043056Y-90539999D01*
X64043055Y-90060000D01*
X64373056Y-90300001D01*
G37*
%TO.C,D10*%
X70400000Y-84405480D02*
X70400000Y-88415479D01*
X72400000Y-84405478D02*
X70400000Y-84405480D01*
X72400000Y-84405478D02*
X72400002Y-88415479D01*
%TO.C,R43*%
X77332191Y-82587257D02*
X77332192Y-82112742D01*
X78377190Y-82587258D02*
X78377191Y-82112743D01*
%TO.C,C37*%
X40140001Y-76404436D02*
X40140001Y-83860000D01*
X40140001Y-83860000D02*
X42889998Y-83860002D01*
X41204438Y-75339999D02*
X40140001Y-76404436D01*
X41204438Y-75339999D02*
X42890001Y-75340000D01*
X46909999Y-74100000D02*
X46909997Y-75100002D01*
X47409998Y-74600000D02*
X46409997Y-74599999D01*
X47595564Y-75340001D02*
X45910002Y-75339998D01*
X47595564Y-75340001D02*
X48660001Y-76404438D01*
X48660000Y-83859999D02*
X45909999Y-83860000D01*
X48660001Y-76404438D02*
X48660000Y-83859999D01*
%TO.C,R16*%
X54602500Y-82587257D02*
X54602501Y-82112742D01*
X55647499Y-82587258D02*
X55647500Y-82112743D01*
%TO.C,D8*%
X68988057Y-81650000D02*
X68988057Y-83610001D01*
X68988057Y-83610001D02*
X70188057Y-83609999D01*
X70188057Y-81650000D02*
X70188057Y-83609999D01*
%TO.C,R36*%
X75042433Y-91577500D02*
X75516949Y-91577500D01*
X75042433Y-92622500D02*
X75516949Y-92622500D01*
%TO.C,D2*%
X50875000Y-84240004D02*
X50875000Y-88250003D01*
X52875000Y-84240001D02*
X50875000Y-84240004D01*
X52875000Y-84240001D02*
X52875002Y-88250003D01*
%TD*%
D17*
X54400000Y-65224999D03*
X54400000Y-72425001D03*
X71000000Y-68829998D03*
X77000000Y-68829998D03*
X42400000Y-55600000D03*
X63400000Y-94900000D03*
X65400000Y-94900000D03*
X67400000Y-94900000D03*
X69400000Y-94900000D03*
X71400000Y-94900000D03*
X73400000Y-94900000D03*
X75400000Y-94900000D03*
X77400000Y-94900000D03*
X65034997Y-68829998D03*
X42400000Y-98600000D03*
X83400000Y-98600000D03*
X83400000Y-55600000D03*
M02*
