%TF.GenerationSoftware,KiCad,Pcbnew,8.0.1*%
%TF.CreationDate,2024-09-08T16:24:45+01:00*%
%TF.ProjectId,BaselineRP2040MotorController,42617365-6c69-46e6-9552-50323034304d,rev?*%
%TF.SameCoordinates,Original*%
%TF.FileFunction,Copper,L1,Top*%
%TF.FilePolarity,Positive*%
%FSLAX46Y46*%
G04 Gerber Fmt 4.6, Leading zero omitted, Abs format (unit mm)*
G04 Created by KiCad (PCBNEW 8.0.1) date 2024-09-08 16:24:45*
%MOMM*%
%LPD*%
G01*
G04 APERTURE LIST*
G04 Aperture macros list*
%AMRoundRect*
0 Rectangle with rounded corners*
0 $1 Rounding radius*
0 $2 $3 $4 $5 $6 $7 $8 $9 X,Y pos of 4 corners*
0 Add a 4 corners polygon primitive as box body*
4,1,4,$2,$3,$4,$5,$6,$7,$8,$9,$2,$3,0*
0 Add four circle primitives for the rounded corners*
1,1,$1+$1,$2,$3*
1,1,$1+$1,$4,$5*
1,1,$1+$1,$6,$7*
1,1,$1+$1,$8,$9*
0 Add four rect primitives between the rounded corners*
20,1,$1+$1,$2,$3,$4,$5,0*
20,1,$1+$1,$4,$5,$6,$7,0*
20,1,$1+$1,$6,$7,$8,$9,0*
20,1,$1+$1,$8,$9,$2,$3,0*%
G04 Aperture macros list end*
%TA.AperFunction,ComponentPad*%
%ADD10C,5.500000*%
%TD*%
%TA.AperFunction,SMDPad,CuDef*%
%ADD11R,0.610000X1.270000*%
%TD*%
%TA.AperFunction,SMDPad,CuDef*%
%ADD12R,3.910000X3.810000*%
%TD*%
%TA.AperFunction,SMDPad,CuDef*%
%ADD13R,0.610000X1.020000*%
%TD*%
%TA.AperFunction,SMDPad,CuDef*%
%ADD14RoundRect,0.225000X-0.250000X0.225000X-0.250000X-0.225000X0.250000X-0.225000X0.250000X0.225000X0*%
%TD*%
%TA.AperFunction,SMDPad,CuDef*%
%ADD15RoundRect,0.250000X0.450000X-0.400000X0.450000X0.400000X-0.450000X0.400000X-0.450000X-0.400000X0*%
%TD*%
%TA.AperFunction,SMDPad,CuDef*%
%ADD16RoundRect,0.200000X0.275000X-0.200000X0.275000X0.200000X-0.275000X0.200000X-0.275000X-0.200000X0*%
%TD*%
%TA.AperFunction,SMDPad,CuDef*%
%ADD17RoundRect,0.150000X0.150000X-0.825000X0.150000X0.825000X-0.150000X0.825000X-0.150000X-0.825000X0*%
%TD*%
%TA.AperFunction,SMDPad,CuDef*%
%ADD18RoundRect,0.250000X-0.650000X0.325000X-0.650000X-0.325000X0.650000X-0.325000X0.650000X0.325000X0*%
%TD*%
%TA.AperFunction,ComponentPad*%
%ADD19C,2.900000*%
%TD*%
%TA.AperFunction,ConnectorPad*%
%ADD20C,5.000000*%
%TD*%
%TA.AperFunction,SMDPad,CuDef*%
%ADD21RoundRect,0.200000X-0.200000X-0.275000X0.200000X-0.275000X0.200000X0.275000X-0.200000X0.275000X0*%
%TD*%
%TA.AperFunction,SMDPad,CuDef*%
%ADD22RoundRect,0.150000X-0.200000X0.150000X-0.200000X-0.150000X0.200000X-0.150000X0.200000X0.150000X0*%
%TD*%
%TA.AperFunction,SMDPad,CuDef*%
%ADD23RoundRect,0.200000X0.200000X0.275000X-0.200000X0.275000X-0.200000X-0.275000X0.200000X-0.275000X0*%
%TD*%
%TA.AperFunction,ComponentPad*%
%ADD24C,3.600000*%
%TD*%
%TA.AperFunction,ConnectorPad*%
%ADD25C,5.600000*%
%TD*%
%TA.AperFunction,SMDPad,CuDef*%
%ADD26RoundRect,0.250000X1.000000X-1.500000X1.000000X1.500000X-1.000000X1.500000X-1.000000X-1.500000X0*%
%TD*%
%TA.AperFunction,ComponentPad*%
%ADD27RoundRect,0.250000X-0.350000X-0.625000X0.350000X-0.625000X0.350000X0.625000X-0.350000X0.625000X0*%
%TD*%
%TA.AperFunction,ComponentPad*%
%ADD28O,1.200000X1.750000*%
%TD*%
%TA.AperFunction,SMDPad,CuDef*%
%ADD29RoundRect,0.250000X0.650000X-0.325000X0.650000X0.325000X-0.650000X0.325000X-0.650000X-0.325000X0*%
%TD*%
%TA.AperFunction,SMDPad,CuDef*%
%ADD30RoundRect,0.225000X-0.375000X0.225000X-0.375000X-0.225000X0.375000X-0.225000X0.375000X0.225000X0*%
%TD*%
%TA.AperFunction,SMDPad,CuDef*%
%ADD31RoundRect,0.250000X-1.000000X1.500000X-1.000000X-1.500000X1.000000X-1.500000X1.000000X1.500000X0*%
%TD*%
%TA.AperFunction,ViaPad*%
%ADD32C,0.600000*%
%TD*%
%TA.AperFunction,Conductor*%
%ADD33C,0.275000*%
%TD*%
%TA.AperFunction,Conductor*%
%ADD34C,0.500000*%
%TD*%
%TA.AperFunction,Conductor*%
%ADD35C,0.200000*%
%TD*%
%ADD36C,0.300000*%
%ADD37C,0.350000*%
G04 APERTURE END LIST*
D10*
%TO.P,J4,1,Pin_1*%
%TO.N,GND*%
X54400000Y-65224999D03*
%TO.P,J4,2,Pin_2*%
%TO.N,VMOT_PWR*%
X54400000Y-72425001D03*
%TD*%
D11*
%TO.P,AL2,1,S*%
%TO.N,GND*%
X71635000Y-59159996D03*
X70364998Y-59159997D03*
X72905000Y-59160000D03*
%TO.P,AL2,2,G*%
%TO.N,Net-(AL2-G)*%
X69095000Y-59159995D03*
D12*
%TO.P,AL2,3,D*%
%TO.N,/BLDC Power Control/Motor Phase V/V_OUT*%
X71000000Y-62519998D03*
D13*
X69095002Y-64624998D03*
X70365003Y-64625000D03*
X72904999Y-64625002D03*
X71634999Y-64625002D03*
%TD*%
D14*
%TO.P,C28,1*%
%TO.N,GND*%
X53874998Y-86575002D03*
%TO.P,C28,2*%
%TO.N,+12V*%
X53875002Y-88124998D03*
%TD*%
D15*
%TO.P,D14,1,A1*%
%TO.N,VMOT_PWR*%
X59690000Y-69270002D03*
%TO.P,D14,2,A2*%
%TO.N,GND*%
X59690000Y-66369998D03*
%TD*%
D16*
%TO.P,R17,1,1*%
%TO.N,Net-(D4-K)*%
X58125000Y-83100000D03*
%TO.P,R17,2,2*%
%TO.N,Net-(AL1-G)*%
X58124998Y-81450002D03*
%TD*%
D17*
%TO.P,U9,1,VCC*%
%TO.N,+12V*%
X74974691Y-90075000D03*
%TO.P,U9,2,HIN*%
%TO.N,/PWM H X*%
X76244691Y-90075000D03*
%TO.P,U9,3,~{LIN}*%
%TO.N,/PWM L X*%
X77514691Y-90075000D03*
%TO.P,U9,4,COM*%
%TO.N,GND*%
X78784690Y-90075000D03*
%TO.P,U9,5,LO*%
%TO.N,Net-(D12-K)*%
X78784691Y-85125000D03*
%TO.P,U9,6,VS*%
%TO.N,/BLDC Power Control/Motor Phase X/X_OUT*%
X77514691Y-85125000D03*
%TO.P,U9,7,HO*%
%TO.N,Net-(D11-K)*%
X76244691Y-85125000D03*
%TO.P,U9,8,VB*%
%TO.N,Net-(D10-K)*%
X74974692Y-85125000D03*
%TD*%
D18*
%TO.P,C34,1*%
%TO.N,VMOT_PWR*%
X49979998Y-77754999D03*
%TO.P,C34,2*%
%TO.N,GND*%
X49980002Y-80705001D03*
%TD*%
D19*
%TO.P,H6,1,1*%
%TO.N,/BLDC Power Control/Motor Phase V/V_OUT*%
X71000000Y-68829998D03*
D20*
X71000000Y-68829998D03*
%TD*%
D21*
%TO.P,R23,1,1*%
%TO.N,GND*%
X64513056Y-92100000D03*
%TO.P,R23,2,2*%
%TO.N,/PWM H V*%
X66163056Y-92100000D03*
%TD*%
D11*
%TO.P,AL3,1,S*%
%TO.N,GND*%
X77635000Y-59189992D03*
X76364998Y-59189993D03*
X78905000Y-59189996D03*
%TO.P,AL3,2,G*%
%TO.N,Net-(AL3-G)*%
X75095000Y-59189991D03*
D12*
%TO.P,AL3,3,D*%
%TO.N,/BLDC Power Control/Motor Phase X/X_OUT*%
X77000000Y-62549994D03*
D13*
X75095002Y-64654994D03*
X76365003Y-64654996D03*
X78904999Y-64654998D03*
X77634999Y-64654998D03*
%TD*%
D19*
%TO.P,H7,1,1*%
%TO.N,/BLDC Power Control/Motor Phase X/X_OUT*%
X77000000Y-68829998D03*
D20*
X77000000Y-68829998D03*
%TD*%
D11*
%TO.P,AH1,1,S*%
%TO.N,/BLDC Power Control/Motor Phase U/U_OUT*%
X65669997Y-73159996D03*
X64399995Y-73159997D03*
X66939997Y-73160000D03*
%TO.P,AH1,2,G*%
%TO.N,Net-(AH1-G)*%
X63129997Y-73159995D03*
D12*
%TO.P,AH1,3,D*%
%TO.N,VMOT_PWR*%
X65034997Y-76519998D03*
D13*
X63129999Y-78624998D03*
X64400000Y-78625000D03*
X66939996Y-78625002D03*
X65669996Y-78625002D03*
%TD*%
D22*
%TO.P,D4,1,K*%
%TO.N,Net-(D4-K)*%
X59375000Y-82850000D03*
%TO.P,D4,2,A*%
%TO.N,Net-(AL1-G)*%
X59375000Y-81450004D03*
%TD*%
%TO.P,D3,1,K*%
%TO.N,Net-(D3-K)*%
X56625000Y-83049998D03*
%TO.P,D3,2,A*%
%TO.N,Net-(AH1-G)*%
X56625000Y-81650002D03*
%TD*%
D23*
%TO.P,R11,1,1*%
%TO.N,GND*%
X59875000Y-92100000D03*
%TO.P,R11,2,2*%
%TO.N,/PWM L U*%
X58225002Y-92100004D03*
%TD*%
D24*
%TO.P,H2,1,1*%
%TO.N,GND*%
X42400000Y-55600000D03*
D25*
X42400000Y-55600000D03*
%TD*%
D22*
%TO.P,D11,1,K*%
%TO.N,Net-(D11-K)*%
X76354690Y-83049998D03*
%TO.P,D11,2,A*%
%TO.N,Net-(AH3-G)*%
X76354690Y-81650002D03*
%TD*%
D26*
%TO.P,C36,1*%
%TO.N,VMOT_PWR*%
X44124999Y-71457503D03*
%TO.P,C36,2*%
%TO.N,GND*%
X44124995Y-64957501D03*
%TD*%
D14*
%TO.P,C22,1*%
%TO.N,GND*%
X63338056Y-86850000D03*
%TO.P,C22,2*%
%TO.N,+12V*%
X63338060Y-88399996D03*
%TD*%
D22*
%TO.P,D12,1,K*%
%TO.N,Net-(D12-K)*%
X79354691Y-83049998D03*
%TO.P,D12,2,A*%
%TO.N,Net-(AL3-G)*%
X79354691Y-81650002D03*
%TD*%
D11*
%TO.P,AH2,1,S*%
%TO.N,/BLDC Power Control/Motor Phase V/V_OUT*%
X71635000Y-73134996D03*
X70364998Y-73134997D03*
X72905000Y-73135000D03*
%TO.P,AH2,2,G*%
%TO.N,Net-(AH2-G)*%
X69095000Y-73134995D03*
D12*
%TO.P,AH2,3,D*%
%TO.N,VMOT_PWR*%
X71000000Y-76494998D03*
D13*
X69095002Y-78599998D03*
X70365003Y-78600000D03*
X72904999Y-78600002D03*
X71634999Y-78600002D03*
%TD*%
D17*
%TO.P,U5,1,VCC*%
%TO.N,+12V*%
X55494998Y-90074998D03*
%TO.P,U5,2,HIN*%
%TO.N,/PWM H U*%
X56764999Y-90075001D03*
%TO.P,U5,3,~{LIN}*%
%TO.N,/PWM L U*%
X58035006Y-90075004D03*
%TO.P,U5,4,COM*%
%TO.N,GND*%
X59305001Y-90074997D03*
%TO.P,U5,5,LO*%
%TO.N,Net-(D4-K)*%
X59305002Y-85125002D03*
%TO.P,U5,6,VS*%
%TO.N,/BLDC Power Control/Motor Phase U/U_OUT*%
X58035001Y-85124999D03*
%TO.P,U5,7,HO*%
%TO.N,Net-(D3-K)*%
X56764994Y-85124996D03*
%TO.P,U5,8,VB*%
%TO.N,Net-(D2-K)*%
X55494999Y-85125003D03*
%TD*%
D27*
%TO.P,J1,1,Pin_1*%
%TO.N,+12V*%
X63400000Y-94900000D03*
D28*
%TO.P,J1,2,Pin_2*%
%TO.N,/PWM H U*%
X65400000Y-94900000D03*
%TO.P,J1,3,Pin_3*%
%TO.N,/PWM L U*%
X67400000Y-94900000D03*
%TO.P,J1,4,Pin_4*%
%TO.N,/PWM H V*%
X69400000Y-94900000D03*
%TO.P,J1,5,Pin_5*%
%TO.N,/PWM L V*%
X71400000Y-94900000D03*
%TO.P,J1,6,Pin_6*%
%TO.N,/PWM H X*%
X73400000Y-94900000D03*
%TO.P,J1,7,Pin_7*%
%TO.N,/PWM L X*%
X75400000Y-94900000D03*
%TO.P,J1,8,Pin_8*%
%TO.N,GND*%
X77400000Y-94900000D03*
%TD*%
D29*
%TO.P,C38,1*%
%TO.N,VMOT_PWR*%
X59690001Y-74085000D03*
%TO.P,C38,2*%
%TO.N,GND*%
X59689999Y-71135000D03*
%TD*%
D21*
%TO.P,R10,1,1*%
%TO.N,GND*%
X55050000Y-92100000D03*
%TO.P,R10,2,2*%
%TO.N,/PWM H U*%
X56700000Y-92100000D03*
%TD*%
D19*
%TO.P,H5,1,1*%
%TO.N,/BLDC Power Control/Motor Phase U/U_OUT*%
X65034997Y-68829998D03*
D20*
X65034997Y-68829998D03*
%TD*%
D11*
%TO.P,AL1,1,S*%
%TO.N,GND*%
X65669997Y-59194996D03*
X64399995Y-59194997D03*
X66939997Y-59195000D03*
%TO.P,AL1,2,G*%
%TO.N,Net-(AL1-G)*%
X63129997Y-59194995D03*
D12*
%TO.P,AL1,3,D*%
%TO.N,/BLDC Power Control/Motor Phase U/U_OUT*%
X65034997Y-62554998D03*
D13*
X63129999Y-64659998D03*
X64400000Y-64660000D03*
X66939996Y-64660002D03*
X65669996Y-64660002D03*
%TD*%
D23*
%TO.P,R37,1,1*%
%TO.N,GND*%
X79179690Y-92099998D03*
%TO.P,R37,2,2*%
%TO.N,/PWM L X*%
X77529692Y-92100002D03*
%TD*%
D22*
%TO.P,D7,1,K*%
%TO.N,Net-(D7-K)*%
X66338056Y-83049998D03*
%TO.P,D7,2,A*%
%TO.N,Net-(AH2-G)*%
X66338056Y-81650002D03*
%TD*%
D30*
%TO.P,D6,1,K*%
%TO.N,Net-(D6-K)*%
X61400002Y-85120930D03*
%TO.P,D6,2,A*%
%TO.N,+12V*%
X61399998Y-88420926D03*
%TD*%
D14*
%TO.P,C16,1*%
%TO.N,GND*%
X73354691Y-86850000D03*
%TO.P,C16,2*%
%TO.N,+12V*%
X73354695Y-88399996D03*
%TD*%
D24*
%TO.P,H3,1,1*%
%TO.N,GND*%
X42400000Y-98600000D03*
D25*
X42400000Y-98600000D03*
%TD*%
D16*
%TO.P,R30,1,1*%
%TO.N,Net-(D8-K)*%
X67840964Y-83173921D03*
%TO.P,R30,2,2*%
%TO.N,Net-(AL2-G)*%
X67840962Y-81523923D03*
%TD*%
%TO.P,R29,1,1*%
%TO.N,Net-(D7-K)*%
X64838057Y-83174999D03*
%TO.P,R29,2,2*%
%TO.N,Net-(AH2-G)*%
X64838055Y-81525001D03*
%TD*%
D23*
%TO.P,R24,1,1*%
%TO.N,GND*%
X69338055Y-92099998D03*
%TO.P,R24,2,2*%
%TO.N,/PWM L V*%
X67688057Y-92100002D03*
%TD*%
D18*
%TO.P,C35,1*%
%TO.N,VMOT_PWR*%
X52310001Y-77755000D03*
%TO.P,C35,2*%
%TO.N,GND*%
X52309999Y-80705000D03*
%TD*%
D16*
%TO.P,R42,1,1*%
%TO.N,Net-(D11-K)*%
X74854692Y-83174999D03*
%TO.P,R42,2,2*%
%TO.N,Net-(AH3-G)*%
X74854690Y-81525001D03*
%TD*%
D24*
%TO.P,H4,1,1*%
%TO.N,GND*%
X83400000Y-98600000D03*
D25*
X83400000Y-98600000D03*
%TD*%
D11*
%TO.P,AH3,1,S*%
%TO.N,/BLDC Power Control/Motor Phase X/X_OUT*%
X77635000Y-73159996D03*
X76364998Y-73159997D03*
X78905000Y-73160000D03*
%TO.P,AH3,2,G*%
%TO.N,Net-(AH3-G)*%
X75095000Y-73159995D03*
D12*
%TO.P,AH3,3,D*%
%TO.N,VMOT_PWR*%
X77000000Y-76519998D03*
D13*
X75095002Y-78624998D03*
X76365003Y-78625000D03*
X78904999Y-78625002D03*
X77634999Y-78625002D03*
%TD*%
D17*
%TO.P,U7,1,VCC*%
%TO.N,+12V*%
X64933056Y-90075000D03*
%TO.P,U7,2,HIN*%
%TO.N,/PWM H V*%
X66203055Y-90075001D03*
%TO.P,U7,3,~{LIN}*%
%TO.N,/PWM L V*%
X67473056Y-90075000D03*
%TO.P,U7,4,COM*%
%TO.N,GND*%
X68743056Y-90075000D03*
%TO.P,U7,5,LO*%
%TO.N,Net-(D8-K)*%
X68743056Y-85125000D03*
%TO.P,U7,6,VS*%
%TO.N,/BLDC Power Control/Motor Phase V/V_OUT*%
X67473057Y-85124999D03*
%TO.P,U7,7,HO*%
%TO.N,Net-(D7-K)*%
X66203056Y-85125000D03*
%TO.P,U7,8,VB*%
%TO.N,Net-(D6-K)*%
X64933056Y-85125000D03*
%TD*%
D30*
%TO.P,D10,1,K*%
%TO.N,Net-(D10-K)*%
X71400002Y-85115478D03*
%TO.P,D10,2,A*%
%TO.N,+12V*%
X71399998Y-88415474D03*
%TD*%
D16*
%TO.P,R43,1,1*%
%TO.N,Net-(D12-K)*%
X77854692Y-83174999D03*
%TO.P,R43,2,2*%
%TO.N,Net-(AL3-G)*%
X77854690Y-81525001D03*
%TD*%
D24*
%TO.P,H1,1,1*%
%TO.N,GND*%
X83400000Y-55600000D03*
D25*
X83400000Y-55600000D03*
%TD*%
D31*
%TO.P,C37,1*%
%TO.N,VMOT_PWR*%
X44400002Y-76349998D03*
%TO.P,C37,2*%
%TO.N,GND*%
X44399998Y-82850002D03*
%TD*%
D16*
%TO.P,R16,1,1*%
%TO.N,Net-(D3-K)*%
X55125001Y-83174999D03*
%TO.P,R16,2,2*%
%TO.N,Net-(AH1-G)*%
X55124999Y-81525001D03*
%TD*%
D22*
%TO.P,D8,1,K*%
%TO.N,Net-(D8-K)*%
X69588056Y-83049998D03*
%TO.P,D8,2,A*%
%TO.N,Net-(AL2-G)*%
X69588056Y-81650002D03*
%TD*%
D21*
%TO.P,R36,1,1*%
%TO.N,GND*%
X74454691Y-92100000D03*
%TO.P,R36,2,2*%
%TO.N,/PWM H X*%
X76104691Y-92100000D03*
%TD*%
D30*
%TO.P,D2,1,K*%
%TO.N,Net-(D2-K)*%
X51875002Y-84950002D03*
%TO.P,D2,2,A*%
%TO.N,+12V*%
X51874998Y-88249998D03*
%TD*%
D32*
%TO.N,GND*%
X71400000Y-80400000D03*
%TO.N,/BLDC Power Control/Motor Phase U/U_OUT*%
X63818110Y-74114996D03*
X58515687Y-84182258D03*
%TO.N,GND*%
X60400000Y-90100000D03*
X70650000Y-92100000D03*
X73400000Y-92100000D03*
X55000000Y-93200000D03*
X63328577Y-86114281D03*
%TO.N,/BLDC Power Control/Motor Phase V/V_OUT*%
X67780000Y-84230000D03*
X69782960Y-74089996D03*
%TO.N,/BLDC Power Control/Motor Phase X/X_OUT*%
X75783487Y-74115836D03*
X77601925Y-84074999D03*
%TO.N,Net-(D2-K)*%
X56860000Y-87400000D03*
%TO.N,Net-(D6-K)*%
X65590000Y-86800000D03*
%TO.N,Net-(D10-K)*%
X75420000Y-86400000D03*
%TO.N,Net-(AH1-G)*%
X62948331Y-74083212D03*
X62237500Y-80200000D03*
%TO.N,Net-(AH2-G)*%
X68600000Y-80200000D03*
X68770000Y-74100000D03*
%TO.N,Net-(AH3-G)*%
X73800000Y-81200000D03*
X74900000Y-74090000D03*
%TO.N,Net-(AL1-G)*%
X61200000Y-81000000D03*
X62405005Y-59194995D03*
%TO.N,Net-(AL2-G)*%
X68600000Y-81523923D03*
X68400000Y-59200000D03*
%TO.N,Net-(AL3-G)*%
X74400000Y-59200000D03*
X73747350Y-80222839D03*
%TD*%
D33*
%TO.N,/BLDC Power Control/Motor Phase U/U_OUT*%
X58035001Y-84662944D02*
X58515687Y-84182258D01*
X63818110Y-74114996D02*
X64399995Y-73533111D01*
X64399995Y-73533111D02*
X64399995Y-73159997D01*
X58035001Y-85124999D02*
X58035001Y-84662944D01*
D34*
%TO.N,GND*%
X59690000Y-66369998D02*
X55544999Y-66369998D01*
D35*
X63338056Y-86123760D02*
X63328577Y-86114281D01*
D34*
X55544999Y-66369998D02*
X54400000Y-65224999D01*
D35*
X63338056Y-86850000D02*
X63338056Y-86123760D01*
D34*
%TO.N,/PWM H U*%
X56764999Y-90075001D02*
X56764999Y-92035001D01*
D35*
X58000000Y-93400000D02*
X64800000Y-93400000D01*
X64800000Y-93400000D02*
X65400000Y-94000000D01*
X65400000Y-94000000D02*
X65400000Y-94900000D01*
D34*
X56764999Y-92035001D02*
X56700000Y-92100000D01*
D35*
X56700000Y-92100000D02*
X58000000Y-93400000D01*
%TO.N,/PWM L U*%
X58225002Y-92100004D02*
X59124998Y-93000000D01*
D34*
X58035006Y-91910008D02*
X58225002Y-92100004D01*
D35*
X65500000Y-93000000D02*
X67400000Y-94900000D01*
D34*
X58035006Y-90075004D02*
X58035006Y-91910008D01*
D35*
X59124998Y-93000000D02*
X65500000Y-93000000D01*
D34*
%TO.N,/PWM H V*%
X66203055Y-92060001D02*
X66163056Y-92100000D01*
D35*
X66800407Y-92400000D02*
X67675405Y-93274998D01*
X67675405Y-93274998D02*
X68474998Y-93274998D01*
X68474998Y-93274998D02*
X69400000Y-94200000D01*
X69400000Y-94200000D02*
X69400000Y-94900000D01*
X66800000Y-92400000D02*
X66800407Y-92400000D01*
X66500000Y-92100000D02*
X66800000Y-92400000D01*
X66163056Y-92100000D02*
X66500000Y-92100000D01*
D34*
X66203055Y-90075001D02*
X66203055Y-92060001D01*
D33*
%TO.N,/BLDC Power Control/Motor Phase V/V_OUT*%
X69782960Y-74089996D02*
X70364998Y-73507958D01*
X70364998Y-73507958D02*
X70364998Y-73134997D01*
%TO.N,/BLDC Power Control/Motor Phase X/X_OUT*%
X76364998Y-73534325D02*
X76364998Y-73159997D01*
X75783487Y-74115836D02*
X76364998Y-73534325D01*
D35*
%TO.N,Net-(D2-K)*%
X55494999Y-86144999D02*
X56750000Y-87400000D01*
X55494999Y-85125003D02*
X55494999Y-86144999D01*
D34*
X55494999Y-85125003D02*
X52050003Y-85125003D01*
X52050003Y-85125003D02*
X51875002Y-84950002D01*
D35*
X56750000Y-87400000D02*
X56860000Y-87400000D01*
D34*
%TO.N,Net-(D3-K)*%
X56764994Y-85124996D02*
X56764994Y-83189992D01*
X55125001Y-83174999D02*
X56499999Y-83174999D01*
X56764994Y-83189992D02*
X56625000Y-83049998D01*
X56499999Y-83174999D02*
X56625000Y-83049998D01*
%TO.N,Net-(D4-K)*%
X59125000Y-83100000D02*
X59375000Y-82850000D01*
X59305002Y-85125002D02*
X59305002Y-82919998D01*
X59305002Y-82919998D02*
X59375000Y-82850000D01*
X58125000Y-83100000D02*
X59125000Y-83100000D01*
D35*
%TO.N,Net-(D6-K)*%
X64933056Y-86173056D02*
X65460000Y-86700000D01*
D34*
X61400002Y-85120930D02*
X64928986Y-85120930D01*
X64928986Y-85120930D02*
X64933056Y-85125000D01*
D35*
X65460000Y-86700000D02*
X65560000Y-86800000D01*
X64933056Y-85125000D02*
X64933056Y-86173056D01*
X65560000Y-86800000D02*
X65590000Y-86800000D01*
D34*
%TO.N,Net-(D7-K)*%
X66203056Y-85125000D02*
X66203056Y-83184998D01*
X66203056Y-83184998D02*
X66338056Y-83049998D01*
X66213055Y-83174999D02*
X66338056Y-83049998D01*
X64838057Y-83174999D02*
X66213055Y-83174999D01*
%TO.N,Net-(D8-K)*%
X69464133Y-83173921D02*
X69588056Y-83049998D01*
X68743056Y-85125000D02*
X68743056Y-83894998D01*
X68743056Y-83894998D02*
X69464133Y-83173921D01*
X67840964Y-83173921D02*
X69464133Y-83173921D01*
D35*
%TO.N,Net-(D10-K)*%
X74974692Y-85954692D02*
X75420000Y-86400000D01*
D34*
X71409524Y-85125000D02*
X74974692Y-85125000D01*
X71400002Y-85115478D02*
X71409524Y-85125000D01*
D35*
X74974692Y-85125000D02*
X74974692Y-85954692D01*
D34*
%TO.N,Net-(D11-K)*%
X74854692Y-83174999D02*
X76229689Y-83174999D01*
X76229689Y-83174999D02*
X76354690Y-83049998D01*
X76354690Y-83049998D02*
X76354690Y-85015001D01*
X76354690Y-85015001D02*
X76244691Y-85125000D01*
%TO.N,Net-(D12-K)*%
X79354691Y-83049998D02*
X79354691Y-84555000D01*
X79354691Y-84555000D02*
X78784691Y-85125000D01*
X77854692Y-83174999D02*
X79229690Y-83174999D01*
X79229690Y-83174999D02*
X79354691Y-83049998D01*
%TO.N,/PWM L V*%
X67473056Y-91885001D02*
X67688057Y-92100002D01*
D35*
X67688057Y-92100002D02*
X68463053Y-92874998D01*
X71400000Y-93750000D02*
X71400000Y-94900000D01*
X70524998Y-92874998D02*
X71400000Y-93750000D01*
D34*
X67473056Y-90075000D02*
X67473056Y-91885001D01*
D35*
X68463053Y-92874998D02*
X70524998Y-92874998D01*
D34*
%TO.N,Net-(AH1-G)*%
X55124999Y-81525001D02*
X56499999Y-81525001D01*
D33*
X62948331Y-74083212D02*
X62948331Y-73341661D01*
D34*
X56499999Y-81525001D02*
X56625000Y-81650002D01*
D33*
X62237500Y-80200000D02*
X58075002Y-80200000D01*
X62948331Y-73341661D02*
X63129997Y-73159995D01*
X58075002Y-80200000D02*
X56625000Y-81650002D01*
%TO.N,Net-(AH2-G)*%
X66338056Y-81650002D02*
X67788058Y-80200000D01*
X68770000Y-73459995D02*
X69095000Y-73134995D01*
X68770000Y-74100000D02*
X68770000Y-73459995D01*
X67788058Y-80200000D02*
X68600000Y-80200000D01*
X66213055Y-81525001D02*
X66338056Y-81650002D01*
X64838055Y-81525001D02*
X66213055Y-81525001D01*
%TO.N,Net-(AH3-G)*%
X74900000Y-74090000D02*
X75095000Y-73895000D01*
X74529689Y-81200000D02*
X74854690Y-81525001D01*
X74854690Y-81525001D02*
X76229689Y-81525001D01*
X75095000Y-73895000D02*
X75095000Y-73159995D01*
X76229689Y-81525001D02*
X76354690Y-81650002D01*
X73800000Y-81200000D02*
X74529689Y-81200000D01*
%TO.N,Net-(AL1-G)*%
X62400000Y-59200000D02*
X62405005Y-59194995D01*
D34*
X58124998Y-81450002D02*
X59374998Y-81450002D01*
X59375000Y-81450004D02*
X60749996Y-81450004D01*
X60749996Y-81450004D02*
X61200000Y-81000000D01*
D33*
X63129997Y-59194995D02*
X62405005Y-59194995D01*
D34*
X59374998Y-81450002D02*
X59375000Y-81450004D01*
%TO.N,Net-(AL2-G)*%
X67840962Y-81523923D02*
X68600000Y-81523923D01*
X68600000Y-81523923D02*
X69461977Y-81523923D01*
D33*
X68400000Y-59200000D02*
X68440005Y-59159995D01*
D34*
X69461977Y-81523923D02*
X69588056Y-81650002D01*
D33*
X68440005Y-59159995D02*
X69095000Y-59159995D01*
%TO.N,Net-(AL3-G)*%
X73747350Y-80222839D02*
X76552528Y-80222839D01*
D34*
X79229690Y-81525001D02*
X79354691Y-81650002D01*
D33*
X76552528Y-80222839D02*
X77854690Y-81525001D01*
X75095000Y-59189991D02*
X74410009Y-59189991D01*
D34*
X77854690Y-81525001D02*
X79229690Y-81525001D01*
D33*
X74410009Y-59189991D02*
X74400000Y-59200000D01*
D34*
%TO.N,/PWM H X*%
X76244691Y-90075000D02*
X76244691Y-91960000D01*
D35*
X73400000Y-93550000D02*
X73400000Y-94900000D01*
X75329691Y-92875000D02*
X74075000Y-92875000D01*
D34*
X76244691Y-91960000D02*
X76104691Y-92100000D01*
D35*
X76104691Y-92100000D02*
X75329691Y-92875000D01*
X74075000Y-92875000D02*
X73400000Y-93550000D01*
%TO.N,/PWM L X*%
X77529692Y-92100002D02*
X76754694Y-92875000D01*
X76125000Y-92875000D02*
X75400000Y-93600000D01*
X76754694Y-92875000D02*
X76125000Y-92875000D01*
D34*
X77514691Y-90075000D02*
X77514691Y-92085001D01*
X77514691Y-92085001D02*
X77529692Y-92100002D01*
D35*
X75400000Y-93600000D02*
X75400000Y-94900000D01*
D34*
%TO.N,VMOT_PWR*%
X57554999Y-69270002D02*
X54400000Y-72425001D01*
X59690000Y-69270002D02*
X57554999Y-69270002D01*
%TD*%
%TA.AperFunction,Conductor*%
%TO.N,VMOT_PWR*%
G36*
X48415677Y-68619685D02*
G01*
X48436319Y-68636319D01*
X49400000Y-69600000D01*
X53151559Y-69600000D01*
X53218598Y-69619685D01*
X53264353Y-69672489D01*
X53274297Y-69741647D01*
X53245272Y-69805203D01*
X53218972Y-69825659D01*
X53218402Y-69829189D01*
X53639656Y-70250443D01*
X53380553Y-70357768D01*
X53119447Y-70508518D01*
X52880251Y-70692059D01*
X52667058Y-70905252D01*
X52483517Y-71144448D01*
X52332767Y-71405554D01*
X52225443Y-71664657D01*
X51805348Y-71244562D01*
X51805347Y-71244562D01*
X51717336Y-71448592D01*
X51622121Y-71766635D01*
X51622118Y-71766649D01*
X51564474Y-72093563D01*
X51564473Y-72093574D01*
X51545170Y-72424997D01*
X51545170Y-72425004D01*
X51564473Y-72756427D01*
X51564474Y-72756438D01*
X51622118Y-73083352D01*
X51622121Y-73083366D01*
X51717336Y-73401409D01*
X51805347Y-73605439D01*
X52225442Y-73185343D01*
X52332767Y-73444448D01*
X52483517Y-73705554D01*
X52667058Y-73944750D01*
X52880251Y-74157943D01*
X53119447Y-74341484D01*
X53380553Y-74492234D01*
X53639655Y-74599557D01*
X53218402Y-75020810D01*
X53269266Y-75046354D01*
X53581213Y-75159893D01*
X53581234Y-75159900D01*
X53904248Y-75236457D01*
X53904263Y-75236459D01*
X54234012Y-75275000D01*
X54234013Y-75275001D01*
X54565987Y-75275001D01*
X54565987Y-75275000D01*
X54895736Y-75236459D01*
X54895751Y-75236457D01*
X55218765Y-75159900D01*
X55218786Y-75159893D01*
X55530741Y-75046351D01*
X55530747Y-75046348D01*
X55581596Y-75020811D01*
X55581596Y-75020810D01*
X55220786Y-74660000D01*
X58795025Y-74660000D01*
X58833812Y-74698787D01*
X58938749Y-74750087D01*
X58938752Y-74750088D01*
X59006781Y-74759999D01*
X59115000Y-74759999D01*
X59115001Y-74759998D01*
X59115001Y-74660000D01*
X58795025Y-74660000D01*
X55220786Y-74660000D01*
X55160343Y-74599557D01*
X55419447Y-74492234D01*
X55680553Y-74341484D01*
X55919749Y-74157943D01*
X56132942Y-73944750D01*
X56316483Y-73705554D01*
X56467233Y-73444448D01*
X56574556Y-73185344D01*
X56994651Y-73605439D01*
X57035821Y-73509999D01*
X58795025Y-73509999D01*
X58795026Y-73510000D01*
X59115001Y-73510000D01*
X59115001Y-73410000D01*
X59006787Y-73410000D01*
X58938752Y-73419912D01*
X58833809Y-73471215D01*
X58795025Y-73509999D01*
X57035821Y-73509999D01*
X57082661Y-73401413D01*
X57177878Y-73083366D01*
X57177881Y-73083352D01*
X57235525Y-72756438D01*
X57235526Y-72756427D01*
X57254830Y-72425004D01*
X57254830Y-72424997D01*
X57235526Y-72093574D01*
X57235525Y-72093563D01*
X57177881Y-71766649D01*
X57177878Y-71766635D01*
X57082663Y-71448592D01*
X56994651Y-71244561D01*
X56574556Y-71664656D01*
X56467233Y-71405554D01*
X56316483Y-71144448D01*
X56132942Y-70905252D01*
X55919749Y-70692059D01*
X55680553Y-70508518D01*
X55419447Y-70357768D01*
X55160342Y-70250443D01*
X55581596Y-69829190D01*
X55580678Y-69823506D01*
X55541714Y-69787134D01*
X55524523Y-69719412D01*
X55546674Y-69653147D01*
X55601135Y-69609377D01*
X55648438Y-69600000D01*
X56260000Y-69600000D01*
X56348638Y-69600000D01*
X56415677Y-69619685D01*
X56436319Y-69636319D01*
X58255972Y-71455972D01*
X58289457Y-71517295D01*
X58291649Y-71531051D01*
X58300000Y-71612797D01*
X58300000Y-71612799D01*
X58350977Y-71766635D01*
X58355185Y-71779334D01*
X58447287Y-71928656D01*
X58571343Y-72052712D01*
X58720665Y-72144814D01*
X58887202Y-72199999D01*
X58968949Y-72208350D01*
X59033640Y-72234746D01*
X59044027Y-72244027D01*
X60254396Y-73454396D01*
X60264922Y-73486021D01*
X60265001Y-73490447D01*
X60265001Y-74759999D01*
X60373219Y-74759999D01*
X60441250Y-74750087D01*
X60546192Y-74698784D01*
X60628788Y-74616188D01*
X60680088Y-74511251D01*
X60680089Y-74511248D01*
X60690000Y-74443219D01*
X60690000Y-74189362D01*
X60709684Y-74122323D01*
X60762488Y-74076568D01*
X60831647Y-74066624D01*
X60895202Y-74095649D01*
X60901681Y-74101681D01*
X61400000Y-74600000D01*
X62281679Y-74600000D01*
X62348718Y-74619685D01*
X62369360Y-74636319D01*
X62446069Y-74713028D01*
X62598809Y-74809001D01*
X62692043Y-74841625D01*
X62769076Y-74868580D01*
X62769081Y-74868581D01*
X62869880Y-74879938D01*
X62934294Y-74907004D01*
X62973849Y-74964599D01*
X62979997Y-75003158D01*
X62979997Y-75519998D01*
X67089996Y-75519998D01*
X67089996Y-74724000D01*
X67109681Y-74656961D01*
X67162485Y-74611206D01*
X67213996Y-74600000D01*
X68086560Y-74600000D01*
X68153599Y-74619685D01*
X68174241Y-74636319D01*
X68267738Y-74729816D01*
X68315774Y-74759999D01*
X68404561Y-74815788D01*
X68420478Y-74825789D01*
X68575227Y-74879938D01*
X68590745Y-74885368D01*
X68590750Y-74885369D01*
X68769996Y-74905565D01*
X68770000Y-74905565D01*
X68770001Y-74905565D01*
X68784157Y-74903969D01*
X68807115Y-74901383D01*
X68875937Y-74913437D01*
X68927317Y-74960786D01*
X68945000Y-75024603D01*
X68945000Y-75494998D01*
X73054999Y-75494998D01*
X73054999Y-74724000D01*
X73074684Y-74656961D01*
X73127488Y-74611206D01*
X73178999Y-74600000D01*
X74226560Y-74600000D01*
X74293599Y-74619685D01*
X74314241Y-74636319D01*
X74397738Y-74719816D01*
X74413653Y-74729816D01*
X74550471Y-74815785D01*
X74550478Y-74815789D01*
X74701346Y-74868580D01*
X74720745Y-74875368D01*
X74720749Y-74875369D01*
X74809498Y-74885368D01*
X74834883Y-74888228D01*
X74899297Y-74915294D01*
X74938852Y-74972888D01*
X74945000Y-75011448D01*
X74945000Y-75519998D01*
X79054999Y-75519998D01*
X79054999Y-74724000D01*
X79074684Y-74656961D01*
X79127488Y-74611206D01*
X79178999Y-74600000D01*
X80576000Y-74600000D01*
X80643039Y-74619685D01*
X80688794Y-74672489D01*
X80700000Y-74724000D01*
X80700000Y-79476000D01*
X80680315Y-79543039D01*
X80627511Y-79588794D01*
X80576000Y-79600000D01*
X76703796Y-79600000D01*
X76679606Y-79597617D01*
X76655734Y-79592868D01*
X76615368Y-79584839D01*
X76615366Y-79584839D01*
X74272311Y-79584839D01*
X74206339Y-79565833D01*
X74096872Y-79497050D01*
X73926604Y-79437470D01*
X73926599Y-79437469D01*
X73747354Y-79417274D01*
X73747346Y-79417274D01*
X73568100Y-79437469D01*
X73568095Y-79437470D01*
X73397826Y-79497050D01*
X73264232Y-79580994D01*
X73198260Y-79600000D01*
X71456353Y-79600000D01*
X71442469Y-79599220D01*
X71400002Y-79594435D01*
X71399998Y-79594435D01*
X71357531Y-79599220D01*
X71343647Y-79600000D01*
X69183039Y-79600000D01*
X69116000Y-79580315D01*
X69105724Y-79572945D01*
X69102263Y-79570185D01*
X69102262Y-79570184D01*
X68985870Y-79497050D01*
X68949521Y-79474210D01*
X68821897Y-79429553D01*
X68765120Y-79388831D01*
X68741255Y-79328626D01*
X68708232Y-79372739D01*
X68642768Y-79397156D01*
X68620040Y-79396693D01*
X68600000Y-79394435D01*
X68599998Y-79394435D01*
X68599997Y-79394435D01*
X68599996Y-79394435D01*
X68420750Y-79414630D01*
X68420745Y-79414631D01*
X68250477Y-79474211D01*
X68141011Y-79542994D01*
X68075039Y-79562000D01*
X67725217Y-79562000D01*
X67601967Y-79586516D01*
X67601959Y-79586518D01*
X67596465Y-79588794D01*
X67592198Y-79590561D01*
X67544747Y-79600000D01*
X62820539Y-79600000D01*
X62753500Y-79580315D01*
X62743224Y-79572945D01*
X62739763Y-79570185D01*
X62739762Y-79570184D01*
X62682996Y-79534515D01*
X62587023Y-79474211D01*
X62416754Y-79414631D01*
X62416749Y-79414630D01*
X62237504Y-79394435D01*
X62237496Y-79394435D01*
X62058250Y-79414630D01*
X62058245Y-79414631D01*
X61887977Y-79474211D01*
X61778511Y-79542994D01*
X61712539Y-79562000D01*
X58012161Y-79562000D01*
X57888911Y-79586516D01*
X57888903Y-79586518D01*
X57883409Y-79588794D01*
X57879142Y-79590561D01*
X57831691Y-79600000D01*
X55451362Y-79600000D01*
X55384323Y-79580315D01*
X55363681Y-79563681D01*
X54729998Y-78929998D01*
X62725000Y-78929998D01*
X62725000Y-79144842D01*
X62730801Y-79174016D01*
X62752903Y-79207093D01*
X62785981Y-79229195D01*
X62815152Y-79234997D01*
X62815157Y-79234998D01*
X62824999Y-79234997D01*
X62824999Y-78929998D01*
X63434999Y-78929998D01*
X63434999Y-79234997D01*
X63444844Y-79234997D01*
X63474017Y-79229195D01*
X63507094Y-79207093D01*
X63529197Y-79174014D01*
X63529198Y-79174013D01*
X63534998Y-79144851D01*
X63534999Y-79144848D01*
X63534999Y-78930000D01*
X63995001Y-78930000D01*
X63995001Y-79144844D01*
X64000802Y-79174018D01*
X64022904Y-79207095D01*
X64055982Y-79229197D01*
X64085153Y-79234999D01*
X64085158Y-79235000D01*
X64095000Y-79234999D01*
X64095000Y-78930000D01*
X64705000Y-78930000D01*
X64705000Y-79234999D01*
X64714845Y-79234999D01*
X64744018Y-79229197D01*
X64777095Y-79207095D01*
X64799198Y-79174016D01*
X64799199Y-79174015D01*
X64804999Y-79144853D01*
X64805000Y-79144850D01*
X64805000Y-78930002D01*
X65264997Y-78930002D01*
X65264997Y-79144846D01*
X65270798Y-79174020D01*
X65292900Y-79207097D01*
X65325978Y-79229199D01*
X65355149Y-79235001D01*
X65355154Y-79235002D01*
X65364996Y-79235001D01*
X65364996Y-78930002D01*
X65974996Y-78930002D01*
X65974996Y-79235001D01*
X65984841Y-79235001D01*
X66014014Y-79229199D01*
X66047091Y-79207097D01*
X66069194Y-79174018D01*
X66069195Y-79174017D01*
X66074995Y-79144855D01*
X66074996Y-79144852D01*
X66074996Y-78930002D01*
X66534997Y-78930002D01*
X66534997Y-79144846D01*
X66540798Y-79174020D01*
X66562900Y-79207097D01*
X66595978Y-79229199D01*
X66625149Y-79235001D01*
X66625154Y-79235002D01*
X66634996Y-79235001D01*
X66634996Y-78930002D01*
X67244996Y-78930002D01*
X67244996Y-79235001D01*
X67254841Y-79235001D01*
X67284014Y-79229199D01*
X67317091Y-79207097D01*
X67339194Y-79174018D01*
X67339195Y-79174017D01*
X67344995Y-79144855D01*
X67344996Y-79144852D01*
X67344996Y-78930002D01*
X67244996Y-78930002D01*
X66634996Y-78930002D01*
X66534997Y-78930002D01*
X66074996Y-78930002D01*
X65974996Y-78930002D01*
X65364996Y-78930002D01*
X65264997Y-78930002D01*
X64805000Y-78930002D01*
X64805000Y-78930000D01*
X64705000Y-78930000D01*
X64095000Y-78930000D01*
X63995001Y-78930000D01*
X63534999Y-78930000D01*
X63534999Y-78929998D01*
X63434999Y-78929998D01*
X62824999Y-78929998D01*
X62725000Y-78929998D01*
X54729998Y-78929998D01*
X54704998Y-78904998D01*
X68690003Y-78904998D01*
X68690003Y-79119842D01*
X68695804Y-79149016D01*
X68717906Y-79182094D01*
X68721603Y-79185791D01*
X68755088Y-79247114D01*
X68754682Y-79252787D01*
X68775166Y-79224833D01*
X68790002Y-79209995D01*
X68790002Y-78904998D01*
X69400002Y-78904998D01*
X69400002Y-79209997D01*
X69409847Y-79209997D01*
X69439020Y-79204195D01*
X69472097Y-79182093D01*
X69494200Y-79149014D01*
X69494201Y-79149013D01*
X69500001Y-79119851D01*
X69500002Y-79119848D01*
X69500002Y-78905000D01*
X69960004Y-78905000D01*
X69960004Y-79119844D01*
X69965805Y-79149018D01*
X69987907Y-79182095D01*
X70020985Y-79204197D01*
X70050156Y-79209999D01*
X70050161Y-79210000D01*
X70060003Y-79209999D01*
X70060003Y-78905000D01*
X70670003Y-78905000D01*
X70670003Y-79209999D01*
X70679848Y-79209999D01*
X70709021Y-79204197D01*
X70742098Y-79182095D01*
X70764201Y-79149016D01*
X70764202Y-79149015D01*
X70770002Y-79119853D01*
X70770003Y-79119850D01*
X70770003Y-78905002D01*
X71230000Y-78905002D01*
X71230000Y-79119846D01*
X71235801Y-79149020D01*
X71257903Y-79182097D01*
X71290981Y-79204199D01*
X71320152Y-79210001D01*
X71320157Y-79210002D01*
X71329999Y-79210001D01*
X71329999Y-78905002D01*
X71939999Y-78905002D01*
X71939999Y-79210001D01*
X71949844Y-79210001D01*
X71979017Y-79204199D01*
X72012094Y-79182097D01*
X72034197Y-79149018D01*
X72034198Y-79149017D01*
X72039998Y-79119855D01*
X72039999Y-79119852D01*
X72039999Y-78905002D01*
X72500000Y-78905002D01*
X72500000Y-79119846D01*
X72505801Y-79149020D01*
X72527903Y-79182097D01*
X72560981Y-79204199D01*
X72590152Y-79210001D01*
X72590157Y-79210002D01*
X72599999Y-79210001D01*
X72599999Y-78905002D01*
X73209999Y-78905002D01*
X73209999Y-79210001D01*
X73219844Y-79210001D01*
X73249017Y-79204199D01*
X73282094Y-79182097D01*
X73304197Y-79149018D01*
X73304198Y-79149017D01*
X73309998Y-79119855D01*
X73309999Y-79119852D01*
X73309999Y-78929998D01*
X74690003Y-78929998D01*
X74690003Y-79144842D01*
X74695804Y-79174016D01*
X74717906Y-79207093D01*
X74750984Y-79229195D01*
X74780155Y-79234997D01*
X74780160Y-79234998D01*
X74790002Y-79234997D01*
X74790002Y-78929998D01*
X75400002Y-78929998D01*
X75400002Y-79234997D01*
X75409847Y-79234997D01*
X75439020Y-79229195D01*
X75472097Y-79207093D01*
X75494200Y-79174014D01*
X75494201Y-79174013D01*
X75500001Y-79144851D01*
X75500002Y-79144848D01*
X75500002Y-78930000D01*
X75960004Y-78930000D01*
X75960004Y-79144844D01*
X75965805Y-79174018D01*
X75987907Y-79207095D01*
X76020985Y-79229197D01*
X76050156Y-79234999D01*
X76050161Y-79235000D01*
X76060003Y-79234999D01*
X76060003Y-78930000D01*
X76670003Y-78930000D01*
X76670003Y-79234999D01*
X76679848Y-79234999D01*
X76709021Y-79229197D01*
X76742098Y-79207095D01*
X76764201Y-79174016D01*
X76764202Y-79174015D01*
X76770002Y-79144853D01*
X76770003Y-79144850D01*
X76770003Y-78930002D01*
X77230000Y-78930002D01*
X77230000Y-79144846D01*
X77235801Y-79174020D01*
X77257903Y-79207097D01*
X77290981Y-79229199D01*
X77320152Y-79235001D01*
X77320157Y-79235002D01*
X77329999Y-79235001D01*
X77329999Y-78930002D01*
X77939999Y-78930002D01*
X77939999Y-79235001D01*
X77949844Y-79235001D01*
X77979017Y-79229199D01*
X78012094Y-79207097D01*
X78034197Y-79174018D01*
X78034198Y-79174017D01*
X78039998Y-79144855D01*
X78039999Y-79144852D01*
X78039999Y-78930002D01*
X78500000Y-78930002D01*
X78500000Y-79144846D01*
X78505801Y-79174020D01*
X78527903Y-79207097D01*
X78560981Y-79229199D01*
X78590152Y-79235001D01*
X78590157Y-79235002D01*
X78599999Y-79235001D01*
X78599999Y-78930002D01*
X79209999Y-78930002D01*
X79209999Y-79235001D01*
X79219844Y-79235001D01*
X79249017Y-79229199D01*
X79282094Y-79207097D01*
X79304197Y-79174018D01*
X79304198Y-79174017D01*
X79309998Y-79144855D01*
X79309999Y-79144852D01*
X79309999Y-78930002D01*
X79209999Y-78930002D01*
X78599999Y-78930002D01*
X78500000Y-78930002D01*
X78039999Y-78930002D01*
X77939999Y-78930002D01*
X77329999Y-78930002D01*
X77230000Y-78930002D01*
X76770003Y-78930002D01*
X76770003Y-78930000D01*
X76670003Y-78930000D01*
X76060003Y-78930000D01*
X75960004Y-78930000D01*
X75500002Y-78930000D01*
X75500002Y-78929998D01*
X75400002Y-78929998D01*
X74790002Y-78929998D01*
X74690003Y-78929998D01*
X73309999Y-78929998D01*
X73309999Y-78905002D01*
X73209999Y-78905002D01*
X72599999Y-78905002D01*
X72500000Y-78905002D01*
X72039999Y-78905002D01*
X71939999Y-78905002D01*
X71329999Y-78905002D01*
X71230000Y-78905002D01*
X70770003Y-78905002D01*
X70770003Y-78905000D01*
X70670003Y-78905000D01*
X70060003Y-78905000D01*
X69960004Y-78905000D01*
X69500002Y-78905000D01*
X69500002Y-78904998D01*
X69400002Y-78904998D01*
X68790002Y-78904998D01*
X68690003Y-78904998D01*
X54704998Y-78904998D01*
X54119998Y-78319998D01*
X62724999Y-78319998D01*
X63453999Y-78319998D01*
X63521038Y-78339683D01*
X63566793Y-78392487D01*
X63577999Y-78443998D01*
X63577999Y-78524997D01*
X63952000Y-78524997D01*
X63952000Y-78444000D01*
X63971685Y-78376961D01*
X64019260Y-78335736D01*
X64034997Y-78320000D01*
X64034997Y-77519998D01*
X66034997Y-77519998D01*
X66034997Y-78320002D01*
X66052041Y-78337046D01*
X66061035Y-78339687D01*
X66106790Y-78392491D01*
X66117996Y-78444002D01*
X66117996Y-78524997D01*
X66491996Y-78524997D01*
X66491996Y-78444002D01*
X66511681Y-78376963D01*
X66564485Y-78331208D01*
X66615996Y-78320002D01*
X67344995Y-78320002D01*
X67344995Y-78294998D01*
X68690002Y-78294998D01*
X69419002Y-78294998D01*
X69486041Y-78314683D01*
X69531796Y-78367487D01*
X69543002Y-78418998D01*
X69543002Y-78499997D01*
X69917003Y-78499997D01*
X69917003Y-78419000D01*
X69936688Y-78351961D01*
X69984263Y-78310736D01*
X70000000Y-78295000D01*
X70000000Y-77494998D01*
X72000000Y-77494998D01*
X72000000Y-78295002D01*
X72017044Y-78312046D01*
X72026038Y-78314687D01*
X72071793Y-78367491D01*
X72082999Y-78419002D01*
X72082999Y-78499997D01*
X72456999Y-78499997D01*
X72456999Y-78419002D01*
X72476684Y-78351963D01*
X72513574Y-78319998D01*
X74690002Y-78319998D01*
X75419002Y-78319998D01*
X75486041Y-78339683D01*
X75531796Y-78392487D01*
X75543002Y-78443998D01*
X75543002Y-78524997D01*
X75917003Y-78524997D01*
X75917003Y-78444000D01*
X75936688Y-78376961D01*
X75984263Y-78335736D01*
X76000000Y-78320000D01*
X76000000Y-77519998D01*
X78000000Y-77519998D01*
X78000000Y-78320002D01*
X78017044Y-78337046D01*
X78026038Y-78339687D01*
X78071793Y-78392491D01*
X78082999Y-78444002D01*
X78082999Y-78524997D01*
X78456999Y-78524997D01*
X78456999Y-78444002D01*
X78476684Y-78376963D01*
X78529488Y-78331208D01*
X78580999Y-78320002D01*
X79309998Y-78320002D01*
X79309998Y-78105157D01*
X79304196Y-78075983D01*
X79282094Y-78042906D01*
X79249015Y-78020803D01*
X79249014Y-78020802D01*
X79219852Y-78015002D01*
X79178999Y-78015002D01*
X79111960Y-77995317D01*
X79066205Y-77942513D01*
X79054999Y-77891002D01*
X79054999Y-77519998D01*
X78000000Y-77519998D01*
X76000000Y-77519998D01*
X74945000Y-77519998D01*
X74945000Y-77890998D01*
X74925315Y-77958037D01*
X74872511Y-78003792D01*
X74821003Y-78014998D01*
X74780157Y-78014998D01*
X74750983Y-78020800D01*
X74717906Y-78042902D01*
X74695803Y-78075981D01*
X74695802Y-78075982D01*
X74690002Y-78105144D01*
X74690002Y-78319998D01*
X72513574Y-78319998D01*
X72529488Y-78306208D01*
X72580999Y-78295002D01*
X73309998Y-78295002D01*
X73309998Y-78080157D01*
X73304196Y-78050983D01*
X73282094Y-78017906D01*
X73249015Y-77995803D01*
X73249014Y-77995802D01*
X73219852Y-77990002D01*
X73178999Y-77990002D01*
X73111960Y-77970317D01*
X73066205Y-77917513D01*
X73054999Y-77866002D01*
X73054999Y-77494998D01*
X72000000Y-77494998D01*
X70000000Y-77494998D01*
X68945000Y-77494998D01*
X68945000Y-77865998D01*
X68925315Y-77933037D01*
X68872511Y-77978792D01*
X68821003Y-77989998D01*
X68780157Y-77989998D01*
X68750983Y-77995800D01*
X68717906Y-78017902D01*
X68695803Y-78050981D01*
X68695802Y-78050982D01*
X68690002Y-78080144D01*
X68690002Y-78294998D01*
X67344995Y-78294998D01*
X67344995Y-78105157D01*
X67339193Y-78075983D01*
X67317091Y-78042906D01*
X67284012Y-78020803D01*
X67284011Y-78020802D01*
X67254849Y-78015002D01*
X67213996Y-78015002D01*
X67146957Y-77995317D01*
X67101202Y-77942513D01*
X67089996Y-77891002D01*
X67089996Y-77519998D01*
X66034997Y-77519998D01*
X64034997Y-77519998D01*
X62979997Y-77519998D01*
X62979997Y-77890998D01*
X62960312Y-77958037D01*
X62907508Y-78003792D01*
X62856000Y-78014998D01*
X62815154Y-78014998D01*
X62785980Y-78020800D01*
X62752903Y-78042902D01*
X62730800Y-78075981D01*
X62730799Y-78075982D01*
X62724999Y-78105144D01*
X62724999Y-78319998D01*
X54119998Y-78319998D01*
X53870000Y-78070000D01*
X51267001Y-78070000D01*
X51022998Y-78070000D01*
X48936998Y-78070000D01*
X46929999Y-78070000D01*
X46436319Y-78563681D01*
X46374996Y-78597166D01*
X46348638Y-78600000D01*
X41451362Y-78600000D01*
X41384323Y-78580315D01*
X41363681Y-78563681D01*
X40436319Y-77636319D01*
X40402834Y-77574996D01*
X40400000Y-77548638D01*
X40400000Y-77349998D01*
X43050003Y-77349998D01*
X43050003Y-77883215D01*
X43059914Y-77951247D01*
X43111217Y-78056189D01*
X43193813Y-78138785D01*
X43298749Y-78190084D01*
X43366788Y-78199997D01*
X43400002Y-78199996D01*
X43400002Y-77349998D01*
X45400002Y-77349998D01*
X45400002Y-78199997D01*
X45433220Y-78199997D01*
X45501251Y-78190085D01*
X45606193Y-78138782D01*
X45688789Y-78056186D01*
X45740089Y-77951249D01*
X45740090Y-77951246D01*
X45750002Y-77883217D01*
X45750002Y-77349998D01*
X45400002Y-77349998D01*
X43400002Y-77349998D01*
X43050003Y-77349998D01*
X40400000Y-77349998D01*
X40400000Y-77179998D01*
X49085022Y-77179998D01*
X49085023Y-77179999D01*
X49404998Y-77179999D01*
X49404998Y-77079999D01*
X50554998Y-77079999D01*
X50554998Y-77179999D01*
X50874973Y-77179999D01*
X51415025Y-77179999D01*
X51415026Y-77180000D01*
X51735001Y-77180000D01*
X51735001Y-77080000D01*
X52885001Y-77080000D01*
X52885001Y-77180000D01*
X53204976Y-77180000D01*
X53204976Y-77179999D01*
X53166189Y-77141212D01*
X53061252Y-77089912D01*
X53061249Y-77089911D01*
X52993221Y-77080000D01*
X52885001Y-77080000D01*
X51735001Y-77080000D01*
X51626787Y-77080000D01*
X51558752Y-77089912D01*
X51453809Y-77141215D01*
X51415025Y-77179999D01*
X50874973Y-77179999D01*
X50874973Y-77179998D01*
X50836186Y-77141211D01*
X50731249Y-77089911D01*
X50731246Y-77089910D01*
X50663218Y-77079999D01*
X50554998Y-77079999D01*
X49404998Y-77079999D01*
X49296784Y-77079999D01*
X49228749Y-77089911D01*
X49123806Y-77141214D01*
X49085022Y-77179998D01*
X40400000Y-77179998D01*
X40400000Y-75349998D01*
X43050002Y-75349998D01*
X43400002Y-75349998D01*
X43400002Y-74499998D01*
X45400002Y-74499998D01*
X45400002Y-75349998D01*
X45750001Y-75349998D01*
X45750001Y-74816780D01*
X45740089Y-74748748D01*
X45688786Y-74643806D01*
X45606190Y-74561210D01*
X45501253Y-74509910D01*
X45501250Y-74509909D01*
X45433222Y-74499998D01*
X45400002Y-74499998D01*
X43400002Y-74499998D01*
X43400002Y-74499997D01*
X43366789Y-74499998D01*
X43298753Y-74509910D01*
X43193810Y-74561213D01*
X43111214Y-74643809D01*
X43059914Y-74748746D01*
X43059913Y-74748749D01*
X43050002Y-74816778D01*
X43050002Y-75349998D01*
X40400000Y-75349998D01*
X40400000Y-72457503D01*
X42775000Y-72457503D01*
X42775000Y-72990720D01*
X42784911Y-73058752D01*
X42836214Y-73163694D01*
X42918810Y-73246290D01*
X43023746Y-73297589D01*
X43091785Y-73307502D01*
X43124999Y-73307501D01*
X43124999Y-72457503D01*
X45124999Y-72457503D01*
X45124999Y-73307502D01*
X45158217Y-73307502D01*
X45226248Y-73297590D01*
X45331190Y-73246287D01*
X45413786Y-73163691D01*
X45465086Y-73058754D01*
X45465087Y-73058751D01*
X45474999Y-72990722D01*
X45474999Y-72457503D01*
X45124999Y-72457503D01*
X43124999Y-72457503D01*
X42775000Y-72457503D01*
X40400000Y-72457503D01*
X40400000Y-70457503D01*
X42774999Y-70457503D01*
X43124999Y-70457503D01*
X43124999Y-69607503D01*
X45124999Y-69607503D01*
X45124999Y-70457503D01*
X45474998Y-70457503D01*
X45474998Y-69924285D01*
X45465086Y-69856253D01*
X45413783Y-69751311D01*
X45331187Y-69668715D01*
X45226250Y-69617415D01*
X45226247Y-69617414D01*
X45158219Y-69607503D01*
X45124999Y-69607503D01*
X43124999Y-69607503D01*
X43124999Y-69607502D01*
X43091786Y-69607503D01*
X43023750Y-69617415D01*
X42918807Y-69668718D01*
X42836211Y-69751314D01*
X42784911Y-69856251D01*
X42784910Y-69856254D01*
X42774999Y-69924283D01*
X42774999Y-70457503D01*
X40400000Y-70457503D01*
X40400000Y-69651362D01*
X40419685Y-69584323D01*
X40436319Y-69563681D01*
X41363681Y-68636319D01*
X41425004Y-68602834D01*
X41451362Y-68600000D01*
X48348638Y-68600000D01*
X48415677Y-68619685D01*
G37*
%TD.AperFunction*%
%TD*%
%TA.AperFunction,Conductor*%
%TO.N,+12V*%
G36*
X53245706Y-87418461D02*
G01*
X53316301Y-87462005D01*
X53389078Y-87486120D01*
X53446522Y-87525892D01*
X53473345Y-87590408D01*
X53461372Y-87657270D01*
X53466750Y-87674998D01*
X54283254Y-87674998D01*
X54288872Y-87656474D01*
X54286230Y-87653312D01*
X54277524Y-87583987D01*
X54307680Y-87520960D01*
X54360921Y-87486119D01*
X54433695Y-87462005D01*
X54504289Y-87418461D01*
X54569386Y-87400000D01*
X55849403Y-87400000D01*
X55916442Y-87419685D01*
X55937084Y-87436319D01*
X56051719Y-87550954D01*
X56081078Y-87597679D01*
X56100546Y-87653312D01*
X56134210Y-87749521D01*
X56202991Y-87858985D01*
X56230184Y-87902262D01*
X56357738Y-88029816D01*
X56510478Y-88125789D01*
X56680745Y-88185368D01*
X56680750Y-88185369D01*
X56859996Y-88205565D01*
X56860000Y-88205565D01*
X56860004Y-88205565D01*
X57039249Y-88185369D01*
X57039252Y-88185368D01*
X57039255Y-88185368D01*
X57209522Y-88125789D01*
X57362262Y-88029816D01*
X57421152Y-87970926D01*
X60866748Y-87970926D01*
X60949998Y-87970926D01*
X60949998Y-87930456D01*
X60949997Y-87930455D01*
X61849998Y-87930455D01*
X61849998Y-87970926D01*
X61933248Y-87970926D01*
X61925089Y-87965474D01*
X70866748Y-87965474D01*
X70949998Y-87965474D01*
X70949998Y-87925004D01*
X70949997Y-87925003D01*
X71849998Y-87925003D01*
X71849998Y-87965474D01*
X71933248Y-87965474D01*
X71882294Y-87931427D01*
X71882296Y-87931427D01*
X71849998Y-87925003D01*
X70949997Y-87925003D01*
X70917700Y-87931427D01*
X70866748Y-87965474D01*
X61925089Y-87965474D01*
X61882294Y-87936879D01*
X61882296Y-87936879D01*
X61849998Y-87930455D01*
X60949997Y-87930455D01*
X60917700Y-87936879D01*
X60866748Y-87970926D01*
X57421152Y-87970926D01*
X57489816Y-87902262D01*
X57585789Y-87749522D01*
X57645368Y-87579255D01*
X57646053Y-87573182D01*
X57653158Y-87510117D01*
X57680224Y-87445703D01*
X57737818Y-87406148D01*
X57776378Y-87400000D01*
X62366903Y-87400000D01*
X62433942Y-87419685D01*
X62472439Y-87458900D01*
X62513697Y-87525789D01*
X62515089Y-87528045D01*
X62635011Y-87647967D01*
X62635015Y-87647970D01*
X62779350Y-87736998D01*
X62779353Y-87736999D01*
X62779359Y-87737003D01*
X62852136Y-87761118D01*
X62909580Y-87800890D01*
X62936403Y-87865406D01*
X62924430Y-87932268D01*
X62929808Y-87949996D01*
X63746312Y-87949996D01*
X63751930Y-87931472D01*
X63749288Y-87928310D01*
X63740582Y-87858985D01*
X63770738Y-87795958D01*
X63823979Y-87761117D01*
X63896753Y-87737003D01*
X64041100Y-87647968D01*
X64161024Y-87528044D01*
X64203672Y-87458900D01*
X64255618Y-87412179D01*
X64309209Y-87400000D01*
X65006961Y-87400000D01*
X65074000Y-87419685D01*
X65084276Y-87427055D01*
X65087736Y-87429814D01*
X65087738Y-87429816D01*
X65177342Y-87486118D01*
X65240019Y-87525501D01*
X65240478Y-87525789D01*
X65393261Y-87579250D01*
X65410745Y-87585368D01*
X65410750Y-87585369D01*
X65589996Y-87605565D01*
X65590000Y-87605565D01*
X65590004Y-87605565D01*
X65769249Y-87585369D01*
X65769252Y-87585368D01*
X65769255Y-87585368D01*
X65939522Y-87525789D01*
X66092262Y-87429816D01*
X66092267Y-87429810D01*
X66095724Y-87427055D01*
X66160410Y-87400645D01*
X66173039Y-87400000D01*
X72383538Y-87400000D01*
X72450577Y-87419685D01*
X72489074Y-87458900D01*
X72530332Y-87525789D01*
X72531724Y-87528045D01*
X72651646Y-87647967D01*
X72651650Y-87647970D01*
X72795985Y-87736998D01*
X72795988Y-87736999D01*
X72795994Y-87737003D01*
X72868771Y-87761118D01*
X72926215Y-87800890D01*
X72953038Y-87865406D01*
X72941065Y-87932268D01*
X72946443Y-87949996D01*
X73762947Y-87949996D01*
X73768565Y-87931472D01*
X73765923Y-87928310D01*
X73757217Y-87858985D01*
X73787373Y-87795958D01*
X73840614Y-87761117D01*
X73913388Y-87737003D01*
X74057735Y-87647968D01*
X74177659Y-87528044D01*
X74220307Y-87458900D01*
X74272253Y-87412179D01*
X74325844Y-87400000D01*
X74348638Y-87400000D01*
X74415677Y-87419685D01*
X74436319Y-87436319D01*
X75563681Y-88563681D01*
X75597166Y-88625004D01*
X75600000Y-88651362D01*
X75600000Y-88775525D01*
X75580315Y-88842564D01*
X75577801Y-88846119D01*
X75492946Y-88989603D01*
X75492945Y-88989605D01*
X75475789Y-89048656D01*
X75438182Y-89107542D01*
X75374709Y-89136747D01*
X75305522Y-89127000D01*
X75286551Y-89110902D01*
X75274691Y-89114500D01*
X75274691Y-90251000D01*
X75255006Y-90318039D01*
X75202202Y-90363794D01*
X75150691Y-90375000D01*
X74624691Y-90375000D01*
X74624691Y-90877366D01*
X74605006Y-90944405D01*
X74552202Y-90990160D01*
X74483044Y-91000104D01*
X74419488Y-90971079D01*
X74403863Y-90954828D01*
X73460000Y-89775000D01*
X74624691Y-89775000D01*
X74674691Y-89775000D01*
X74674691Y-89114500D01*
X74674689Y-89114499D01*
X74636295Y-89171960D01*
X74636294Y-89171964D01*
X74624691Y-89230297D01*
X74624691Y-89775000D01*
X73460000Y-89775000D01*
X73000000Y-89200000D01*
X69651362Y-89200000D01*
X69584323Y-89180315D01*
X69563681Y-89163681D01*
X69560390Y-89160390D01*
X69528997Y-89107308D01*
X69494800Y-88989602D01*
X69458080Y-88927511D01*
X69421392Y-88865474D01*
X70866747Y-88865474D01*
X70917696Y-88899517D01*
X70917698Y-88899518D01*
X70949998Y-88905942D01*
X70949998Y-88865474D01*
X71849998Y-88865474D01*
X71849998Y-88905942D01*
X71882297Y-88899518D01*
X71882299Y-88899517D01*
X71933249Y-88865474D01*
X71849998Y-88865474D01*
X70949998Y-88865474D01*
X70866747Y-88865474D01*
X69421392Y-88865474D01*
X69417268Y-88858500D01*
X69401739Y-88801739D01*
X69394028Y-88794028D01*
X69347325Y-88780315D01*
X69326682Y-88763680D01*
X69294926Y-88731923D01*
X69294918Y-88731917D01*
X69158706Y-88651362D01*
X69153454Y-88648256D01*
X69153453Y-88648255D01*
X69153452Y-88648255D01*
X69153449Y-88648254D01*
X68995629Y-88602402D01*
X68995623Y-88602401D01*
X68958757Y-88599500D01*
X68958750Y-88599500D01*
X68527362Y-88599500D01*
X68527354Y-88599500D01*
X68490488Y-88602401D01*
X68490482Y-88602402D01*
X68332662Y-88648254D01*
X68332659Y-88648255D01*
X68191193Y-88731917D01*
X68185025Y-88736702D01*
X68183128Y-88734256D01*
X68134414Y-88760857D01*
X68064722Y-88755873D01*
X68032352Y-88735069D01*
X68031087Y-88736702D01*
X68024918Y-88731917D01*
X67888706Y-88651362D01*
X67883454Y-88648256D01*
X67883453Y-88648255D01*
X67883452Y-88648255D01*
X67883449Y-88648254D01*
X67725629Y-88602402D01*
X67725623Y-88602401D01*
X67688757Y-88599500D01*
X67688750Y-88599500D01*
X67257362Y-88599500D01*
X67257354Y-88599500D01*
X67220488Y-88602401D01*
X67220482Y-88602402D01*
X67062662Y-88648254D01*
X67062659Y-88648255D01*
X66921193Y-88731917D01*
X66915025Y-88736702D01*
X66913128Y-88734257D01*
X66864413Y-88760858D01*
X66794721Y-88755874D01*
X66762351Y-88735070D01*
X66761086Y-88736703D01*
X66754917Y-88731918D01*
X66613456Y-88648259D01*
X66613453Y-88648257D01*
X66613452Y-88648256D01*
X66613451Y-88648256D01*
X66613448Y-88648255D01*
X66455628Y-88602403D01*
X66455622Y-88602402D01*
X66418756Y-88599501D01*
X66418749Y-88599501D01*
X65987361Y-88599501D01*
X65987353Y-88599501D01*
X65950487Y-88602402D01*
X65950481Y-88602403D01*
X65792661Y-88648255D01*
X65792658Y-88648256D01*
X65651192Y-88731918D01*
X65651188Y-88731921D01*
X65534975Y-88848135D01*
X65534969Y-88848143D01*
X65518501Y-88875988D01*
X65499453Y-88900544D01*
X65399999Y-88999999D01*
X65392190Y-89018853D01*
X65348348Y-89073256D01*
X65313626Y-89090058D01*
X65233056Y-89114498D01*
X65233056Y-90251000D01*
X65213371Y-90318039D01*
X65160567Y-90363794D01*
X65109056Y-90375000D01*
X64583056Y-90375000D01*
X64583056Y-90919702D01*
X64594316Y-90976309D01*
X64588089Y-91045901D01*
X64545226Y-91101078D01*
X64479336Y-91124322D01*
X64472699Y-91124500D01*
X64256440Y-91124500D01*
X64237201Y-91126248D01*
X64185863Y-91130913D01*
X64023449Y-91181522D01*
X64022814Y-91181906D01*
X64022461Y-91182119D01*
X64021570Y-91182367D01*
X64016611Y-91184600D01*
X64016271Y-91183844D01*
X63958316Y-91200000D01*
X63679845Y-91200000D01*
X63612806Y-91180315D01*
X63567051Y-91127511D01*
X63566960Y-91127312D01*
X62952273Y-89775000D01*
X64583056Y-89775000D01*
X64633056Y-89775000D01*
X64633056Y-89114500D01*
X64633054Y-89114499D01*
X64594660Y-89171960D01*
X64594659Y-89171964D01*
X64583056Y-89230297D01*
X64583056Y-89775000D01*
X62952273Y-89775000D01*
X62600000Y-89000000D01*
X62064368Y-89000000D01*
X61997329Y-88980315D01*
X61951574Y-88927511D01*
X61945708Y-88911996D01*
X61933249Y-88870926D01*
X60866747Y-88870926D01*
X60854288Y-88911996D01*
X60815991Y-88970434D01*
X60752178Y-88998891D01*
X60735628Y-89000000D01*
X60133625Y-89000000D01*
X60066586Y-88980315D01*
X60026893Y-88939121D01*
X59973084Y-88848135D01*
X59973077Y-88848126D01*
X59856871Y-88731920D01*
X59856863Y-88731914D01*
X59715407Y-88648258D01*
X59715399Y-88648253D01*
X59715398Y-88648252D01*
X59715397Y-88648252D01*
X59715394Y-88648251D01*
X59557574Y-88602399D01*
X59557568Y-88602398D01*
X59520702Y-88599497D01*
X59520695Y-88599497D01*
X59089307Y-88599497D01*
X59089299Y-88599497D01*
X59052433Y-88602398D01*
X59052427Y-88602399D01*
X58894607Y-88648251D01*
X58894604Y-88648252D01*
X58753138Y-88731914D01*
X58746970Y-88736699D01*
X58745073Y-88734254D01*
X58696358Y-88760855D01*
X58626666Y-88755871D01*
X58594303Y-88735072D01*
X58593037Y-88736706D01*
X58586868Y-88731921D01*
X58445402Y-88648259D01*
X58445399Y-88648258D01*
X58287579Y-88602406D01*
X58287573Y-88602405D01*
X58250707Y-88599504D01*
X58250700Y-88599504D01*
X57819312Y-88599504D01*
X57819304Y-88599504D01*
X57782438Y-88602405D01*
X57782432Y-88602406D01*
X57624612Y-88648258D01*
X57624609Y-88648259D01*
X57483143Y-88731921D01*
X57476975Y-88736706D01*
X57475085Y-88734269D01*
X57426299Y-88760877D01*
X57356610Y-88755856D01*
X57324298Y-88735067D01*
X57323030Y-88736703D01*
X57316861Y-88731918D01*
X57175400Y-88648259D01*
X57175397Y-88648257D01*
X57175396Y-88648256D01*
X57175395Y-88648256D01*
X57175392Y-88648255D01*
X57017572Y-88602403D01*
X57017566Y-88602402D01*
X56980700Y-88599501D01*
X56980693Y-88599501D01*
X56549305Y-88599501D01*
X56549297Y-88599501D01*
X56512431Y-88602402D01*
X56512425Y-88602403D01*
X56354605Y-88648255D01*
X56354602Y-88648256D01*
X56213136Y-88731918D01*
X56213128Y-88731924D01*
X56096922Y-88848130D01*
X56096916Y-88848138D01*
X56013254Y-88989604D01*
X55996097Y-89048657D01*
X55958490Y-89107542D01*
X55895016Y-89136747D01*
X55825830Y-89127000D01*
X55806857Y-89110900D01*
X55794998Y-89114498D01*
X55794998Y-90250998D01*
X55775313Y-90318037D01*
X55722509Y-90363792D01*
X55670998Y-90374998D01*
X55144998Y-90374998D01*
X55144998Y-90919694D01*
X55156259Y-90976310D01*
X55150030Y-91045901D01*
X55107167Y-91101078D01*
X55041277Y-91124322D01*
X55034641Y-91124500D01*
X54793384Y-91124500D01*
X54774145Y-91126248D01*
X54722807Y-91130913D01*
X54560393Y-91181522D01*
X54559758Y-91181906D01*
X54559405Y-91182119D01*
X54558514Y-91182367D01*
X54553555Y-91184600D01*
X54553215Y-91183844D01*
X54495260Y-91200000D01*
X54199999Y-91200000D01*
X53800000Y-91599999D01*
X53800000Y-91600000D01*
X53800000Y-93600000D01*
X54200000Y-94000000D01*
X54943647Y-94000000D01*
X54957531Y-94000780D01*
X54999998Y-94005565D01*
X55000000Y-94005565D01*
X55000002Y-94005565D01*
X55042469Y-94000780D01*
X55056353Y-94000000D01*
X57909011Y-94000000D01*
X57916653Y-94000501D01*
X57920943Y-94000501D01*
X58086654Y-94000501D01*
X58086670Y-94000500D01*
X62652959Y-94000500D01*
X62719998Y-94020185D01*
X62765753Y-94072989D01*
X62775697Y-94142147D01*
X62766394Y-94174585D01*
X62752910Y-94205122D01*
X62752910Y-94205124D01*
X62750000Y-94230205D01*
X62750000Y-94300000D01*
X63876000Y-94300000D01*
X63943039Y-94319685D01*
X63988794Y-94372489D01*
X64000000Y-94424000D01*
X64000000Y-96148638D01*
X63980315Y-96215677D01*
X63963681Y-96236319D01*
X63636319Y-96563681D01*
X63574996Y-96597166D01*
X63548638Y-96600000D01*
X52651362Y-96600000D01*
X52584323Y-96580315D01*
X52563681Y-96563681D01*
X51500000Y-95500000D01*
X62750001Y-95500000D01*
X62750001Y-95569785D01*
X62750002Y-95569808D01*
X62752908Y-95594869D01*
X62752909Y-95594873D01*
X62798211Y-95697474D01*
X62798212Y-95697476D01*
X62800000Y-95699264D01*
X62800000Y-95500000D01*
X62750001Y-95500000D01*
X51500000Y-95500000D01*
X50949370Y-94949370D01*
X63025000Y-94949370D01*
X63050556Y-95044745D01*
X63099925Y-95130255D01*
X63169745Y-95200075D01*
X63255255Y-95249444D01*
X63350630Y-95275000D01*
X63449370Y-95275000D01*
X63544745Y-95249444D01*
X63630255Y-95200075D01*
X63700075Y-95130255D01*
X63749444Y-95044745D01*
X63775000Y-94949370D01*
X63775000Y-94850630D01*
X63749444Y-94755255D01*
X63700075Y-94669745D01*
X63630255Y-94599925D01*
X63544745Y-94550556D01*
X63449370Y-94525000D01*
X63350630Y-94525000D01*
X63255255Y-94550556D01*
X63169745Y-94599925D01*
X63099925Y-94669745D01*
X63050556Y-94755255D01*
X63025000Y-94850630D01*
X63025000Y-94949370D01*
X50949370Y-94949370D01*
X49836319Y-93836319D01*
X49802834Y-93774996D01*
X49800000Y-93748638D01*
X49800000Y-89774998D01*
X55144998Y-89774998D01*
X55194998Y-89774998D01*
X55194998Y-89114498D01*
X55194996Y-89114497D01*
X55156602Y-89171958D01*
X55156601Y-89171962D01*
X55144998Y-89230295D01*
X55144998Y-89774998D01*
X49800000Y-89774998D01*
X49800000Y-88699998D01*
X51341747Y-88699998D01*
X51392696Y-88734041D01*
X51392698Y-88734042D01*
X51424998Y-88740466D01*
X51424998Y-88699998D01*
X52324998Y-88699998D01*
X52324998Y-88740466D01*
X52357297Y-88734042D01*
X52357299Y-88734041D01*
X52408249Y-88699998D01*
X52324998Y-88699998D01*
X51424998Y-88699998D01*
X51341747Y-88699998D01*
X49800000Y-88699998D01*
X49800000Y-87799998D01*
X51341748Y-87799998D01*
X51424998Y-87799998D01*
X51424998Y-87759528D01*
X51424997Y-87759527D01*
X52324998Y-87759527D01*
X52324998Y-87799998D01*
X52408248Y-87799998D01*
X52357294Y-87765951D01*
X52357296Y-87765951D01*
X52324998Y-87759527D01*
X51424997Y-87759527D01*
X51392700Y-87765951D01*
X51341748Y-87799998D01*
X49800000Y-87799998D01*
X49800000Y-87524000D01*
X49819685Y-87456961D01*
X49872489Y-87411206D01*
X49924000Y-87400000D01*
X53180610Y-87400000D01*
X53245706Y-87418461D01*
G37*
%TD.AperFunction*%
%TD*%
%TA.AperFunction,Conductor*%
%TO.N,/BLDC Power Control/Motor Phase X/X_OUT*%
G36*
X74938039Y-60619685D02*
G01*
X74983794Y-60672489D01*
X74995000Y-60724000D01*
X74995000Y-61549994D01*
X79005000Y-61549994D01*
X79005000Y-60724000D01*
X79024685Y-60656961D01*
X79077489Y-60611206D01*
X79129000Y-60600000D01*
X79249544Y-60600000D01*
X79316583Y-60619685D01*
X79362338Y-60672489D01*
X79373229Y-60715165D01*
X79564688Y-63395590D01*
X79565003Y-63404425D01*
X79565003Y-67761959D01*
X79545318Y-67828998D01*
X79492514Y-67874753D01*
X79423356Y-67884697D01*
X79419686Y-67884113D01*
X79368951Y-67875259D01*
X78414214Y-68829997D01*
X78414214Y-68829999D01*
X79368951Y-69784736D01*
X79419687Y-69775883D01*
X79489112Y-69783750D01*
X79543263Y-69827902D01*
X79564947Y-69894322D01*
X79565003Y-69898037D01*
X79565003Y-73676000D01*
X79545318Y-73743039D01*
X79492514Y-73788794D01*
X79441003Y-73800000D01*
X79384000Y-73800000D01*
X79316961Y-73780315D01*
X79271206Y-73727511D01*
X79260000Y-73676000D01*
X79260000Y-73465000D01*
X78550000Y-73465000D01*
X78550000Y-73676000D01*
X78530315Y-73743039D01*
X78477511Y-73788794D01*
X78426000Y-73800000D01*
X78114000Y-73800000D01*
X78046961Y-73780315D01*
X78001206Y-73727511D01*
X77990000Y-73676000D01*
X77990000Y-73464996D01*
X77280000Y-73464996D01*
X77280000Y-73676000D01*
X77260315Y-73743039D01*
X77207511Y-73788794D01*
X77156000Y-73800000D01*
X76843998Y-73800000D01*
X76776959Y-73780315D01*
X76731204Y-73727511D01*
X76719998Y-73676000D01*
X76719998Y-73464997D01*
X76183998Y-73464997D01*
X76116959Y-73445312D01*
X76071204Y-73392508D01*
X76059998Y-73340997D01*
X76059998Y-72855000D01*
X78550000Y-72855000D01*
X78600000Y-72855000D01*
X78600000Y-72475000D01*
X79210000Y-72475000D01*
X79210000Y-72855000D01*
X79260000Y-72855000D01*
X79260000Y-72520074D01*
X79257098Y-72505492D01*
X79257097Y-72505489D01*
X79246047Y-72488952D01*
X79229510Y-72477902D01*
X79229507Y-72477901D01*
X79214925Y-72475000D01*
X79210000Y-72475000D01*
X78600000Y-72475000D01*
X78595075Y-72475000D01*
X78580492Y-72477901D01*
X78580489Y-72477902D01*
X78563952Y-72488952D01*
X78552902Y-72505489D01*
X78552901Y-72505492D01*
X78550000Y-72520074D01*
X78550000Y-72855000D01*
X76059998Y-72855000D01*
X76059998Y-72474997D01*
X76669998Y-72474997D01*
X76669998Y-72854997D01*
X76719998Y-72854997D01*
X76719998Y-72854996D01*
X77280000Y-72854996D01*
X77330000Y-72854996D01*
X77330000Y-72474996D01*
X77940000Y-72474996D01*
X77940000Y-72854996D01*
X77990000Y-72854996D01*
X77990000Y-72520070D01*
X77987098Y-72505488D01*
X77987097Y-72505485D01*
X77976047Y-72488948D01*
X77959510Y-72477898D01*
X77959507Y-72477897D01*
X77944925Y-72474996D01*
X77940000Y-72474996D01*
X77330000Y-72474996D01*
X77325075Y-72474996D01*
X77310492Y-72477897D01*
X77310489Y-72477898D01*
X77293952Y-72488948D01*
X77282902Y-72505485D01*
X77282901Y-72505488D01*
X77280000Y-72520070D01*
X77280000Y-72854996D01*
X76719998Y-72854996D01*
X76719998Y-72520071D01*
X76717096Y-72505489D01*
X76717095Y-72505486D01*
X76706045Y-72488949D01*
X76689508Y-72477899D01*
X76689505Y-72477898D01*
X76674923Y-72474997D01*
X76669998Y-72474997D01*
X76059998Y-72474997D01*
X76055069Y-72474997D01*
X76028666Y-72480249D01*
X75959074Y-72474022D01*
X75903897Y-72431159D01*
X75888292Y-72401964D01*
X75843798Y-72282668D01*
X75843793Y-72282659D01*
X75757547Y-72167450D01*
X75757544Y-72167447D01*
X75642335Y-72081201D01*
X75642328Y-72081197D01*
X75507482Y-72030903D01*
X75507483Y-72030903D01*
X75447883Y-72024496D01*
X75447881Y-72024495D01*
X75447873Y-72024495D01*
X75447865Y-72024495D01*
X75139119Y-72024495D01*
X75072080Y-72004810D01*
X75061657Y-71997323D01*
X74610421Y-71636334D01*
X74570369Y-71579083D01*
X74563905Y-71541849D01*
X74557376Y-71195822D01*
X76048387Y-71195822D01*
X76048388Y-71195823D01*
X76210444Y-71259985D01*
X76521233Y-71339782D01*
X76521242Y-71339784D01*
X76839556Y-71379997D01*
X76839570Y-71379998D01*
X77160430Y-71379998D01*
X77160443Y-71379997D01*
X77478757Y-71339784D01*
X77478766Y-71339782D01*
X77789552Y-71259986D01*
X77951610Y-71195823D01*
X77951610Y-71195822D01*
X77000000Y-70244212D01*
X76048387Y-71195822D01*
X74557376Y-71195822D01*
X74532610Y-69883171D01*
X74538652Y-69868187D01*
X74581978Y-69813372D01*
X74613095Y-69802687D01*
X75487409Y-68928375D01*
X75750000Y-68928375D01*
X75780779Y-69122707D01*
X75841580Y-69309831D01*
X75930904Y-69485141D01*
X76046554Y-69644318D01*
X76185680Y-69783444D01*
X76344857Y-69899094D01*
X76520167Y-69988418D01*
X76707291Y-70049219D01*
X76901623Y-70079998D01*
X77098377Y-70079998D01*
X77292709Y-70049219D01*
X77479833Y-69988418D01*
X77655143Y-69899094D01*
X77814320Y-69783444D01*
X77953446Y-69644318D01*
X78069096Y-69485141D01*
X78158420Y-69309831D01*
X78219221Y-69122707D01*
X78250000Y-68928375D01*
X78250000Y-68731621D01*
X78219221Y-68537289D01*
X78158420Y-68350165D01*
X78069096Y-68174855D01*
X77953446Y-68015678D01*
X77814320Y-67876552D01*
X77655143Y-67760902D01*
X77479833Y-67671578D01*
X77292709Y-67610777D01*
X77098377Y-67579998D01*
X76901623Y-67579998D01*
X76707291Y-67610777D01*
X76520167Y-67671578D01*
X76344857Y-67760902D01*
X76185680Y-67876552D01*
X76046554Y-68015678D01*
X75930904Y-68174855D01*
X75841580Y-68350165D01*
X75780779Y-68537289D01*
X75750000Y-68731621D01*
X75750000Y-68928375D01*
X75487409Y-68928375D01*
X75585786Y-68829998D01*
X75585786Y-68829997D01*
X74628874Y-67873085D01*
X74568314Y-67866226D01*
X74514161Y-67822075D01*
X74492475Y-67755656D01*
X74492445Y-67754471D01*
X74491649Y-67712258D01*
X74493759Y-67712219D01*
X74492013Y-67697306D01*
X74491367Y-67697318D01*
X74468100Y-66464172D01*
X76048387Y-66464172D01*
X77000000Y-67415784D01*
X77000001Y-67415784D01*
X77951611Y-66464172D01*
X77789547Y-66400008D01*
X77478766Y-66320213D01*
X77478757Y-66320211D01*
X77160443Y-66279998D01*
X76839556Y-66279998D01*
X76521242Y-66320211D01*
X76521233Y-66320213D01*
X76210451Y-66400008D01*
X76048387Y-66464172D01*
X74468100Y-66464172D01*
X74439719Y-64959994D01*
X74740002Y-64959994D01*
X74740002Y-65169919D01*
X74742903Y-65184501D01*
X74742904Y-65184504D01*
X74753954Y-65201041D01*
X74770491Y-65212091D01*
X74770494Y-65212092D01*
X74785077Y-65214994D01*
X74790002Y-65214994D01*
X74790002Y-64959994D01*
X75400002Y-64959994D01*
X75400002Y-65214994D01*
X75404927Y-65214994D01*
X75419509Y-65212092D01*
X75419512Y-65212091D01*
X75436049Y-65201041D01*
X75447099Y-65184504D01*
X75447100Y-65184501D01*
X75450002Y-65169919D01*
X75450002Y-64959996D01*
X76010003Y-64959996D01*
X76010003Y-65169921D01*
X76012904Y-65184503D01*
X76012905Y-65184506D01*
X76023955Y-65201043D01*
X76040492Y-65212093D01*
X76040495Y-65212094D01*
X76055078Y-65214996D01*
X76060003Y-65214996D01*
X76060003Y-64959996D01*
X76670003Y-64959996D01*
X76670003Y-65214996D01*
X76674928Y-65214996D01*
X76689510Y-65212094D01*
X76689513Y-65212093D01*
X76706050Y-65201043D01*
X76717100Y-65184506D01*
X76717101Y-65184503D01*
X76720003Y-65169921D01*
X76720003Y-64959998D01*
X77279999Y-64959998D01*
X77279999Y-65169923D01*
X77282900Y-65184505D01*
X77282901Y-65184508D01*
X77293951Y-65201045D01*
X77310488Y-65212095D01*
X77310491Y-65212096D01*
X77325074Y-65214998D01*
X77329999Y-65214998D01*
X77329999Y-64959998D01*
X77939999Y-64959998D01*
X77939999Y-65214998D01*
X77944924Y-65214998D01*
X77959506Y-65212096D01*
X77959509Y-65212095D01*
X77976046Y-65201045D01*
X77987096Y-65184508D01*
X77987097Y-65184505D01*
X77989999Y-65169923D01*
X77989999Y-64959998D01*
X78549999Y-64959998D01*
X78549999Y-65169923D01*
X78552900Y-65184505D01*
X78552901Y-65184508D01*
X78563951Y-65201045D01*
X78580488Y-65212095D01*
X78580491Y-65212096D01*
X78595074Y-65214998D01*
X78599999Y-65214998D01*
X78599999Y-64959998D01*
X79209999Y-64959998D01*
X79209999Y-65214998D01*
X79214924Y-65214998D01*
X79229506Y-65212096D01*
X79229509Y-65212095D01*
X79246046Y-65201045D01*
X79257096Y-65184508D01*
X79257097Y-65184505D01*
X79259999Y-65169923D01*
X79259999Y-64959998D01*
X79209999Y-64959998D01*
X78599999Y-64959998D01*
X78549999Y-64959998D01*
X77989999Y-64959998D01*
X77939999Y-64959998D01*
X77329999Y-64959998D01*
X77279999Y-64959998D01*
X76720003Y-64959998D01*
X76720003Y-64959996D01*
X76670003Y-64959996D01*
X76060003Y-64959996D01*
X76010003Y-64959996D01*
X75450002Y-64959996D01*
X75450002Y-64959994D01*
X75400002Y-64959994D01*
X74790002Y-64959994D01*
X74740002Y-64959994D01*
X74439719Y-64959994D01*
X74428210Y-64349994D01*
X74740002Y-64349994D01*
X75369002Y-64349994D01*
X75436041Y-64369679D01*
X75481796Y-64422483D01*
X75493002Y-64473994D01*
X75493002Y-64504994D01*
X75967003Y-64504994D01*
X75967003Y-64434355D01*
X75986688Y-64367316D01*
X76000000Y-64350796D01*
X76000000Y-63549994D01*
X78000000Y-63549994D01*
X78000000Y-64352758D01*
X78030165Y-64408001D01*
X78032999Y-64434359D01*
X78032999Y-64504994D01*
X78506999Y-64504994D01*
X78506999Y-64473998D01*
X78526684Y-64406959D01*
X78579488Y-64361204D01*
X78630999Y-64349998D01*
X79259999Y-64349998D01*
X79259999Y-64140072D01*
X79257097Y-64125490D01*
X79257096Y-64125487D01*
X79246046Y-64108950D01*
X79229509Y-64097900D01*
X79229506Y-64097899D01*
X79214924Y-64094998D01*
X79129000Y-64094998D01*
X79061961Y-64075313D01*
X79016206Y-64022509D01*
X79005000Y-63970998D01*
X79005000Y-63549994D01*
X78000000Y-63549994D01*
X76000000Y-63549994D01*
X74995000Y-63549994D01*
X74995000Y-63970994D01*
X74975315Y-64038033D01*
X74922511Y-64083788D01*
X74871000Y-64094994D01*
X74785077Y-64094994D01*
X74770494Y-64097895D01*
X74770491Y-64097896D01*
X74753954Y-64108946D01*
X74742904Y-64125483D01*
X74742903Y-64125486D01*
X74740002Y-64140068D01*
X74740002Y-64349994D01*
X74428210Y-64349994D01*
X74365997Y-61052725D01*
X74384413Y-60985329D01*
X74402290Y-60962712D01*
X74728684Y-60636319D01*
X74790007Y-60602834D01*
X74816365Y-60600000D01*
X74871000Y-60600000D01*
X74938039Y-60619685D01*
G37*
%TD.AperFunction*%
%TD*%
%TA.AperFunction,Conductor*%
%TO.N,/BLDC Power Control/Motor Phase U/U_OUT*%
G36*
X67551580Y-60619685D02*
G01*
X67597335Y-60672489D01*
X67608226Y-60715165D01*
X67799685Y-63395590D01*
X67800000Y-63404425D01*
X67800000Y-68404251D01*
X67780315Y-68471290D01*
X67727511Y-68517045D01*
X67658353Y-68526989D01*
X67594797Y-68497964D01*
X67557023Y-68439186D01*
X67554196Y-68427487D01*
X67509765Y-68194578D01*
X67410618Y-67889433D01*
X67410615Y-67889425D01*
X67403948Y-67875259D01*
X66449211Y-68829997D01*
X66449211Y-68829998D01*
X67403948Y-69784736D01*
X67410613Y-69770576D01*
X67410614Y-69770571D01*
X67509766Y-69465415D01*
X67554196Y-69232509D01*
X67586094Y-69170345D01*
X67646537Y-69135295D01*
X67716333Y-69138487D01*
X67773325Y-69178907D01*
X67799416Y-69243722D01*
X67800000Y-69255744D01*
X67800000Y-73676000D01*
X67780315Y-73743039D01*
X67727511Y-73788794D01*
X67676000Y-73800000D01*
X67418997Y-73800000D01*
X67351958Y-73780315D01*
X67306203Y-73727511D01*
X67294997Y-73676000D01*
X67294997Y-73465000D01*
X66584997Y-73465000D01*
X66584997Y-73676000D01*
X66565312Y-73743039D01*
X66512508Y-73788794D01*
X66460997Y-73800000D01*
X66148997Y-73800000D01*
X66081958Y-73780315D01*
X66036203Y-73727511D01*
X66024997Y-73676000D01*
X66024997Y-73464996D01*
X65314997Y-73464996D01*
X65314997Y-73676000D01*
X65295312Y-73743039D01*
X65242508Y-73788794D01*
X65190997Y-73800000D01*
X64878995Y-73800000D01*
X64811956Y-73780315D01*
X64766201Y-73727511D01*
X64754995Y-73676000D01*
X64754995Y-73464997D01*
X64218995Y-73464997D01*
X64151956Y-73445312D01*
X64106201Y-73392508D01*
X64094995Y-73340997D01*
X64094995Y-72855000D01*
X66584997Y-72855000D01*
X66634997Y-72855000D01*
X66634997Y-72475000D01*
X67244997Y-72475000D01*
X67244997Y-72855000D01*
X67294997Y-72855000D01*
X67294997Y-72520074D01*
X67292095Y-72505492D01*
X67292094Y-72505489D01*
X67281044Y-72488952D01*
X67264507Y-72477902D01*
X67264504Y-72477901D01*
X67249922Y-72475000D01*
X67244997Y-72475000D01*
X66634997Y-72475000D01*
X66630072Y-72475000D01*
X66615489Y-72477901D01*
X66615486Y-72477902D01*
X66598949Y-72488952D01*
X66587899Y-72505489D01*
X66587898Y-72505492D01*
X66584997Y-72520074D01*
X66584997Y-72855000D01*
X64094995Y-72855000D01*
X64094995Y-72474997D01*
X64704995Y-72474997D01*
X64704995Y-72854997D01*
X64754995Y-72854997D01*
X64754995Y-72854996D01*
X65314997Y-72854996D01*
X65364997Y-72854996D01*
X65364997Y-72474996D01*
X65974997Y-72474996D01*
X65974997Y-72854996D01*
X66024997Y-72854996D01*
X66024997Y-72520070D01*
X66022095Y-72505488D01*
X66022094Y-72505485D01*
X66011044Y-72488948D01*
X65994507Y-72477898D01*
X65994504Y-72477897D01*
X65979922Y-72474996D01*
X65974997Y-72474996D01*
X65364997Y-72474996D01*
X65360072Y-72474996D01*
X65345489Y-72477897D01*
X65345486Y-72477898D01*
X65328949Y-72488948D01*
X65317899Y-72505485D01*
X65317898Y-72505488D01*
X65314997Y-72520070D01*
X65314997Y-72854996D01*
X64754995Y-72854996D01*
X64754995Y-72520071D01*
X64752093Y-72505489D01*
X64752092Y-72505486D01*
X64741042Y-72488949D01*
X64724505Y-72477899D01*
X64724502Y-72477898D01*
X64709920Y-72474997D01*
X64704995Y-72474997D01*
X64094995Y-72474997D01*
X64090066Y-72474997D01*
X64063663Y-72480249D01*
X63994071Y-72474022D01*
X63938894Y-72431159D01*
X63923289Y-72401964D01*
X63878795Y-72282668D01*
X63878790Y-72282659D01*
X63792544Y-72167450D01*
X63792541Y-72167447D01*
X63677332Y-72081201D01*
X63677325Y-72081197D01*
X63542479Y-72030903D01*
X63542480Y-72030903D01*
X63482880Y-72024496D01*
X63482878Y-72024495D01*
X63482870Y-72024495D01*
X63482862Y-72024495D01*
X63374116Y-72024495D01*
X63307077Y-72004810D01*
X63296654Y-71997323D01*
X62845418Y-71636334D01*
X62805366Y-71579083D01*
X62798902Y-71541849D01*
X62792373Y-71195822D01*
X64083384Y-71195822D01*
X64083385Y-71195823D01*
X64245441Y-71259985D01*
X64556230Y-71339782D01*
X64556239Y-71339784D01*
X64874553Y-71379997D01*
X64874567Y-71379998D01*
X65195427Y-71379998D01*
X65195440Y-71379997D01*
X65513754Y-71339784D01*
X65513763Y-71339782D01*
X65824549Y-71259986D01*
X65986607Y-71195823D01*
X65986607Y-71195822D01*
X65034997Y-70244212D01*
X64083384Y-71195822D01*
X62792373Y-71195822D01*
X62763903Y-69686876D01*
X63522404Y-68928375D01*
X63784997Y-68928375D01*
X63815776Y-69122707D01*
X63876577Y-69309831D01*
X63965901Y-69485141D01*
X64081551Y-69644318D01*
X64220677Y-69783444D01*
X64379854Y-69899094D01*
X64555164Y-69988418D01*
X64742288Y-70049219D01*
X64936620Y-70079998D01*
X65133374Y-70079998D01*
X65327706Y-70049219D01*
X65514830Y-69988418D01*
X65690140Y-69899094D01*
X65849317Y-69783444D01*
X65988443Y-69644318D01*
X66104093Y-69485141D01*
X66193417Y-69309831D01*
X66254218Y-69122707D01*
X66284997Y-68928375D01*
X66284997Y-68731621D01*
X66254218Y-68537289D01*
X66193417Y-68350165D01*
X66104093Y-68174855D01*
X65988443Y-68015678D01*
X65849317Y-67876552D01*
X65690140Y-67760902D01*
X65514830Y-67671578D01*
X65327706Y-67610777D01*
X65133374Y-67579998D01*
X64936620Y-67579998D01*
X64742288Y-67610777D01*
X64555164Y-67671578D01*
X64379854Y-67760902D01*
X64220677Y-67876552D01*
X64081551Y-68015678D01*
X63965901Y-68174855D01*
X63876577Y-68350165D01*
X63815776Y-68537289D01*
X63784997Y-68731621D01*
X63784997Y-68928375D01*
X63522404Y-68928375D01*
X63620782Y-68829997D01*
X62730946Y-67940161D01*
X62703097Y-66464172D01*
X64083384Y-66464172D01*
X65034997Y-67415784D01*
X65034998Y-67415784D01*
X65986608Y-66464172D01*
X65824544Y-66400008D01*
X65513763Y-66320213D01*
X65513754Y-66320211D01*
X65195440Y-66279998D01*
X64874553Y-66279998D01*
X64556239Y-66320211D01*
X64556230Y-66320213D01*
X64245448Y-66400008D01*
X64083384Y-66464172D01*
X62703097Y-66464172D01*
X62681991Y-65345542D01*
X62700406Y-65278149D01*
X62752338Y-65231406D01*
X62813981Y-65220535D01*
X62813981Y-65219998D01*
X62817030Y-65219998D01*
X62818119Y-65219806D01*
X62820069Y-65219998D01*
X62824999Y-65219998D01*
X62824999Y-64964998D01*
X63434999Y-64964998D01*
X63434999Y-65219998D01*
X63439924Y-65219998D01*
X63454506Y-65217096D01*
X63454509Y-65217095D01*
X63471046Y-65206045D01*
X63482096Y-65189508D01*
X63482097Y-65189505D01*
X63484999Y-65174923D01*
X63484999Y-64965000D01*
X64045000Y-64965000D01*
X64045000Y-65174925D01*
X64047901Y-65189507D01*
X64047902Y-65189510D01*
X64058952Y-65206047D01*
X64075489Y-65217097D01*
X64075492Y-65217098D01*
X64090075Y-65220000D01*
X64095000Y-65220000D01*
X64095000Y-64965000D01*
X64705000Y-64965000D01*
X64705000Y-65220000D01*
X64709925Y-65220000D01*
X64724507Y-65217098D01*
X64724510Y-65217097D01*
X64741047Y-65206047D01*
X64752097Y-65189510D01*
X64752098Y-65189507D01*
X64755000Y-65174925D01*
X64755000Y-64965002D01*
X65314996Y-64965002D01*
X65314996Y-65174927D01*
X65317897Y-65189509D01*
X65317898Y-65189512D01*
X65328948Y-65206049D01*
X65345485Y-65217099D01*
X65345488Y-65217100D01*
X65360071Y-65220002D01*
X65364996Y-65220002D01*
X65364996Y-64965002D01*
X65974996Y-64965002D01*
X65974996Y-65220002D01*
X65979921Y-65220002D01*
X65994503Y-65217100D01*
X65994506Y-65217099D01*
X66011043Y-65206049D01*
X66022093Y-65189512D01*
X66022094Y-65189509D01*
X66024996Y-65174927D01*
X66024996Y-64965002D01*
X66584996Y-64965002D01*
X66584996Y-65174927D01*
X66587897Y-65189509D01*
X66587898Y-65189512D01*
X66598948Y-65206049D01*
X66615485Y-65217099D01*
X66615488Y-65217100D01*
X66630071Y-65220002D01*
X66634996Y-65220002D01*
X66634996Y-64965002D01*
X67244996Y-64965002D01*
X67244996Y-65220002D01*
X67249921Y-65220002D01*
X67264503Y-65217100D01*
X67264506Y-65217099D01*
X67281043Y-65206049D01*
X67292093Y-65189512D01*
X67292094Y-65189509D01*
X67294996Y-65174927D01*
X67294996Y-64965002D01*
X67244996Y-64965002D01*
X66634996Y-64965002D01*
X66584996Y-64965002D01*
X66024996Y-64965002D01*
X65974996Y-64965002D01*
X65364996Y-64965002D01*
X65314996Y-64965002D01*
X64755000Y-64965002D01*
X64755000Y-64965000D01*
X64705000Y-64965000D01*
X64095000Y-64965000D01*
X64045000Y-64965000D01*
X63484999Y-64965000D01*
X63484999Y-64964998D01*
X63434999Y-64964998D01*
X62824999Y-64964998D01*
X62824999Y-64478998D01*
X62844684Y-64411959D01*
X62897488Y-64366204D01*
X62948999Y-64354998D01*
X63403999Y-64354998D01*
X63471038Y-64374683D01*
X63516793Y-64427487D01*
X63527999Y-64478998D01*
X63527999Y-64509998D01*
X64002000Y-64509998D01*
X64002000Y-64439359D01*
X64021685Y-64372320D01*
X64034997Y-64355800D01*
X64034997Y-63554998D01*
X66034997Y-63554998D01*
X66034997Y-64357762D01*
X66065162Y-64413005D01*
X66067996Y-64439363D01*
X66067996Y-64509998D01*
X66541996Y-64509998D01*
X66541996Y-64479002D01*
X66561681Y-64411963D01*
X66614485Y-64366208D01*
X66665996Y-64355002D01*
X67294996Y-64355002D01*
X67294996Y-64145076D01*
X67292094Y-64130494D01*
X67292093Y-64130491D01*
X67281043Y-64113954D01*
X67264506Y-64102904D01*
X67264503Y-64102903D01*
X67249921Y-64100002D01*
X67163997Y-64100002D01*
X67096958Y-64080317D01*
X67051203Y-64027513D01*
X67039997Y-63976002D01*
X67039997Y-63554998D01*
X66034997Y-63554998D01*
X64034997Y-63554998D01*
X63029997Y-63554998D01*
X63029997Y-63975998D01*
X63010312Y-64043037D01*
X62957508Y-64088792D01*
X62905997Y-64099998D01*
X62820073Y-64099998D01*
X62804471Y-64103102D01*
X62734879Y-64096876D01*
X62679700Y-64054015D01*
X62656454Y-63988126D01*
X62656299Y-63983856D01*
X62600994Y-61052725D01*
X62619410Y-60985329D01*
X62637287Y-60962712D01*
X62818316Y-60781684D01*
X62879639Y-60748199D01*
X62949331Y-60753183D01*
X63005264Y-60795055D01*
X63029681Y-60860519D01*
X63029997Y-60869365D01*
X63029997Y-61554998D01*
X67039997Y-61554998D01*
X67039997Y-60724000D01*
X67059682Y-60656961D01*
X67112486Y-60611206D01*
X67163997Y-60600000D01*
X67484541Y-60600000D01*
X67551580Y-60619685D01*
G37*
%TD.AperFunction*%
%TD*%
%TA.AperFunction,Conductor*%
%TO.N,/BLDC Power Control/Motor Phase V/V_OUT*%
G36*
X73516583Y-60619685D02*
G01*
X73562338Y-60672489D01*
X73573229Y-60715165D01*
X73764688Y-63395590D01*
X73765003Y-63404425D01*
X73765003Y-68404251D01*
X73745318Y-68471290D01*
X73692514Y-68517045D01*
X73623356Y-68526989D01*
X73559800Y-68497964D01*
X73522026Y-68439186D01*
X73519199Y-68427487D01*
X73474768Y-68194578D01*
X73375621Y-67889433D01*
X73375618Y-67889425D01*
X73368951Y-67875259D01*
X72414214Y-68829997D01*
X72414214Y-68829998D01*
X73368951Y-69784736D01*
X73375616Y-69770576D01*
X73375617Y-69770571D01*
X73474769Y-69465415D01*
X73519199Y-69232509D01*
X73551097Y-69170345D01*
X73611540Y-69135295D01*
X73681336Y-69138487D01*
X73738328Y-69178907D01*
X73764419Y-69243722D01*
X73765003Y-69255744D01*
X73765003Y-73676000D01*
X73745318Y-73743039D01*
X73692514Y-73788794D01*
X73641003Y-73800000D01*
X73384000Y-73800000D01*
X73316961Y-73780315D01*
X73271206Y-73727511D01*
X73260000Y-73676000D01*
X73260000Y-73440000D01*
X72550000Y-73440000D01*
X72550000Y-73676000D01*
X72530315Y-73743039D01*
X72477511Y-73788794D01*
X72426000Y-73800000D01*
X72114000Y-73800000D01*
X72046961Y-73780315D01*
X72001206Y-73727511D01*
X71990000Y-73676000D01*
X71990000Y-73439996D01*
X71280000Y-73439996D01*
X71280000Y-73676000D01*
X71260315Y-73743039D01*
X71207511Y-73788794D01*
X71156000Y-73800000D01*
X70843998Y-73800000D01*
X70776959Y-73780315D01*
X70731204Y-73727511D01*
X70719998Y-73676000D01*
X70719998Y-73439997D01*
X70183998Y-73439997D01*
X70116959Y-73420312D01*
X70071204Y-73367508D01*
X70059998Y-73315997D01*
X70059998Y-72830000D01*
X72550000Y-72830000D01*
X72600000Y-72830000D01*
X72600000Y-72450000D01*
X73210000Y-72450000D01*
X73210000Y-72830000D01*
X73260000Y-72830000D01*
X73260000Y-72495074D01*
X73257098Y-72480492D01*
X73257097Y-72480489D01*
X73246047Y-72463952D01*
X73229510Y-72452902D01*
X73229507Y-72452901D01*
X73214925Y-72450000D01*
X73210000Y-72450000D01*
X72600000Y-72450000D01*
X72595075Y-72450000D01*
X72580492Y-72452901D01*
X72580489Y-72452902D01*
X72563952Y-72463952D01*
X72552902Y-72480489D01*
X72552901Y-72480492D01*
X72550000Y-72495074D01*
X72550000Y-72830000D01*
X70059998Y-72830000D01*
X70059998Y-72449997D01*
X70669998Y-72449997D01*
X70669998Y-72829997D01*
X70719998Y-72829997D01*
X70719998Y-72829996D01*
X71280000Y-72829996D01*
X71330000Y-72829996D01*
X71330000Y-72449996D01*
X71940000Y-72449996D01*
X71940000Y-72829996D01*
X71990000Y-72829996D01*
X71990000Y-72495070D01*
X71987098Y-72480488D01*
X71987097Y-72480485D01*
X71976047Y-72463948D01*
X71959510Y-72452898D01*
X71959507Y-72452897D01*
X71944925Y-72449996D01*
X71940000Y-72449996D01*
X71330000Y-72449996D01*
X71325075Y-72449996D01*
X71310492Y-72452897D01*
X71310489Y-72452898D01*
X71293952Y-72463948D01*
X71282902Y-72480485D01*
X71282901Y-72480488D01*
X71280000Y-72495070D01*
X71280000Y-72829996D01*
X70719998Y-72829996D01*
X70719998Y-72495071D01*
X70717096Y-72480489D01*
X70717095Y-72480486D01*
X70706045Y-72463949D01*
X70689508Y-72452899D01*
X70689505Y-72452898D01*
X70674923Y-72449997D01*
X70669998Y-72449997D01*
X70059998Y-72449997D01*
X70055069Y-72449997D01*
X70028666Y-72455249D01*
X69959074Y-72449022D01*
X69903897Y-72406159D01*
X69888292Y-72376964D01*
X69843798Y-72257668D01*
X69843793Y-72257659D01*
X69757547Y-72142450D01*
X69757544Y-72142447D01*
X69642335Y-72056201D01*
X69642328Y-72056197D01*
X69507482Y-72005903D01*
X69507483Y-72005903D01*
X69447883Y-71999496D01*
X69447881Y-71999495D01*
X69447873Y-71999495D01*
X69447865Y-71999495D01*
X69307869Y-71999495D01*
X69240830Y-71979810D01*
X69230407Y-71972323D01*
X68810421Y-71636334D01*
X68770369Y-71579083D01*
X68763905Y-71541849D01*
X68757376Y-71195822D01*
X70048387Y-71195822D01*
X70048388Y-71195823D01*
X70210444Y-71259985D01*
X70521233Y-71339782D01*
X70521242Y-71339784D01*
X70839556Y-71379997D01*
X70839570Y-71379998D01*
X71160430Y-71379998D01*
X71160443Y-71379997D01*
X71478757Y-71339784D01*
X71478766Y-71339782D01*
X71789552Y-71259986D01*
X71951610Y-71195823D01*
X71951610Y-71195822D01*
X71000000Y-70244212D01*
X70048387Y-71195822D01*
X68757376Y-71195822D01*
X68728906Y-69686876D01*
X69487407Y-68928375D01*
X69750000Y-68928375D01*
X69780779Y-69122707D01*
X69841580Y-69309831D01*
X69930904Y-69485141D01*
X70046554Y-69644318D01*
X70185680Y-69783444D01*
X70344857Y-69899094D01*
X70520167Y-69988418D01*
X70707291Y-70049219D01*
X70901623Y-70079998D01*
X71098377Y-70079998D01*
X71292709Y-70049219D01*
X71479833Y-69988418D01*
X71655143Y-69899094D01*
X71814320Y-69783444D01*
X71953446Y-69644318D01*
X72069096Y-69485141D01*
X72158420Y-69309831D01*
X72219221Y-69122707D01*
X72250000Y-68928375D01*
X72250000Y-68731621D01*
X72219221Y-68537289D01*
X72158420Y-68350165D01*
X72069096Y-68174855D01*
X71953446Y-68015678D01*
X71814320Y-67876552D01*
X71655143Y-67760902D01*
X71479833Y-67671578D01*
X71292709Y-67610777D01*
X71098377Y-67579998D01*
X70901623Y-67579998D01*
X70707291Y-67610777D01*
X70520167Y-67671578D01*
X70344857Y-67760902D01*
X70185680Y-67876552D01*
X70046554Y-68015678D01*
X69930904Y-68174855D01*
X69841580Y-68350165D01*
X69780779Y-68537289D01*
X69750000Y-68731621D01*
X69750000Y-68928375D01*
X69487407Y-68928375D01*
X69585785Y-68829997D01*
X68695949Y-67940161D01*
X68668100Y-66464172D01*
X70048387Y-66464172D01*
X71000000Y-67415784D01*
X71000001Y-67415784D01*
X71951611Y-66464172D01*
X71789547Y-66400008D01*
X71478766Y-66320213D01*
X71478757Y-66320211D01*
X71160443Y-66279998D01*
X70839556Y-66279998D01*
X70521242Y-66320211D01*
X70521233Y-66320213D01*
X70210451Y-66400008D01*
X70048387Y-66464172D01*
X68668100Y-66464172D01*
X68646332Y-65310479D01*
X68664748Y-65243083D01*
X68716680Y-65196340D01*
X68778984Y-65185356D01*
X68778984Y-65184998D01*
X68781016Y-65184998D01*
X68782474Y-65184741D01*
X68785081Y-65184998D01*
X68790002Y-65184998D01*
X68790002Y-64929998D01*
X69400002Y-64929998D01*
X69400002Y-65184998D01*
X69404927Y-65184998D01*
X69419509Y-65182096D01*
X69419512Y-65182095D01*
X69436049Y-65171045D01*
X69447099Y-65154508D01*
X69447100Y-65154505D01*
X69450002Y-65139923D01*
X69450002Y-64930000D01*
X70010003Y-64930000D01*
X70010003Y-65139925D01*
X70012904Y-65154507D01*
X70012905Y-65154510D01*
X70023955Y-65171047D01*
X70040492Y-65182097D01*
X70040495Y-65182098D01*
X70055078Y-65185000D01*
X70060003Y-65185000D01*
X70060003Y-64930000D01*
X70670003Y-64930000D01*
X70670003Y-65185000D01*
X70674928Y-65185000D01*
X70689510Y-65182098D01*
X70689513Y-65182097D01*
X70706050Y-65171047D01*
X70717100Y-65154510D01*
X70717101Y-65154507D01*
X70720003Y-65139925D01*
X70720003Y-64930002D01*
X71279999Y-64930002D01*
X71279999Y-65139927D01*
X71282900Y-65154509D01*
X71282901Y-65154512D01*
X71293951Y-65171049D01*
X71310488Y-65182099D01*
X71310491Y-65182100D01*
X71325074Y-65185002D01*
X71329999Y-65185002D01*
X71329999Y-64930002D01*
X71939999Y-64930002D01*
X71939999Y-65185002D01*
X71944924Y-65185002D01*
X71959506Y-65182100D01*
X71959509Y-65182099D01*
X71976046Y-65171049D01*
X71987096Y-65154512D01*
X71987097Y-65154509D01*
X71989999Y-65139927D01*
X71989999Y-64930002D01*
X72549999Y-64930002D01*
X72549999Y-65139927D01*
X72552900Y-65154509D01*
X72552901Y-65154512D01*
X72563951Y-65171049D01*
X72580488Y-65182099D01*
X72580491Y-65182100D01*
X72595074Y-65185002D01*
X72599999Y-65185002D01*
X72599999Y-64930002D01*
X73209999Y-64930002D01*
X73209999Y-65185002D01*
X73214924Y-65185002D01*
X73229506Y-65182100D01*
X73229509Y-65182099D01*
X73246046Y-65171049D01*
X73257096Y-65154512D01*
X73257097Y-65154509D01*
X73259999Y-65139927D01*
X73259999Y-64930002D01*
X73209999Y-64930002D01*
X72599999Y-64930002D01*
X72549999Y-64930002D01*
X71989999Y-64930002D01*
X71939999Y-64930002D01*
X71329999Y-64930002D01*
X71279999Y-64930002D01*
X70720003Y-64930002D01*
X70720003Y-64930000D01*
X70670003Y-64930000D01*
X70060003Y-64930000D01*
X70010003Y-64930000D01*
X69450002Y-64930000D01*
X69450002Y-64929998D01*
X69400002Y-64929998D01*
X68790002Y-64929998D01*
X68790002Y-64443998D01*
X68809687Y-64376959D01*
X68862491Y-64331204D01*
X68914002Y-64319998D01*
X69369002Y-64319998D01*
X69436041Y-64339683D01*
X69481796Y-64392487D01*
X69493002Y-64443998D01*
X69493002Y-64474998D01*
X69967003Y-64474998D01*
X69967003Y-64404359D01*
X69986688Y-64337320D01*
X70000000Y-64320800D01*
X70000000Y-63519998D01*
X72000000Y-63519998D01*
X72000000Y-64322762D01*
X72030165Y-64378005D01*
X72032999Y-64404363D01*
X72032999Y-64474998D01*
X72506999Y-64474998D01*
X72506999Y-64444002D01*
X72526684Y-64376963D01*
X72579488Y-64331208D01*
X72630999Y-64320002D01*
X73259999Y-64320002D01*
X73259999Y-64110076D01*
X73257097Y-64095494D01*
X73257096Y-64095491D01*
X73246046Y-64078954D01*
X73229509Y-64067904D01*
X73229506Y-64067903D01*
X73214924Y-64065002D01*
X73129000Y-64065002D01*
X73061961Y-64045317D01*
X73016206Y-63992513D01*
X73005000Y-63941002D01*
X73005000Y-63519998D01*
X72000000Y-63519998D01*
X70000000Y-63519998D01*
X68995000Y-63519998D01*
X68995000Y-63940998D01*
X68975315Y-64008037D01*
X68922511Y-64053792D01*
X68871000Y-64064998D01*
X68785075Y-64064998D01*
X68768811Y-64068233D01*
X68699220Y-64062004D01*
X68644043Y-64019141D01*
X68620799Y-63953251D01*
X68620644Y-63948990D01*
X68565997Y-61052725D01*
X68584413Y-60985329D01*
X68602290Y-60962712D01*
X68783319Y-60781684D01*
X68844642Y-60748199D01*
X68914334Y-60753183D01*
X68970267Y-60795055D01*
X68994684Y-60860519D01*
X68995000Y-60869365D01*
X68995000Y-61519998D01*
X73005000Y-61519998D01*
X73005000Y-60724000D01*
X73024685Y-60656961D01*
X73077489Y-60611206D01*
X73129000Y-60600000D01*
X73449544Y-60600000D01*
X73516583Y-60619685D01*
G37*
%TD.AperFunction*%
%TD*%
%TA.AperFunction,Conductor*%
%TO.N,GND*%
G36*
X41179588Y-99642330D02*
G01*
X41357670Y-99820412D01*
X41459300Y-99894251D01*
X40462818Y-100890733D01*
X40462819Y-100890734D01*
X40605485Y-101010446D01*
X40605489Y-101010449D01*
X40622898Y-101021899D01*
X40668092Y-101075183D01*
X40677305Y-101144443D01*
X40647610Y-101207688D01*
X40588436Y-101244840D01*
X40554760Y-101249500D01*
X39674500Y-101249500D01*
X39607461Y-101229815D01*
X39561706Y-101177011D01*
X39550500Y-101125500D01*
X39550500Y-100127294D01*
X39570185Y-100060255D01*
X39622989Y-100014500D01*
X39692147Y-100004556D01*
X39755703Y-100033581D01*
X39781887Y-100065294D01*
X39889289Y-100251322D01*
X40097967Y-100531625D01*
X40106148Y-100540296D01*
X41105747Y-99540697D01*
X41179588Y-99642330D01*
G37*
%TD.AperFunction*%
%TA.AperFunction,Conductor*%
G36*
X69418568Y-89654681D02*
G01*
X69441903Y-89665338D01*
X69508942Y-89685023D01*
X69508946Y-89685024D01*
X69651362Y-89705500D01*
X72697447Y-89705500D01*
X72764486Y-89725185D01*
X72794275Y-89752038D01*
X72951842Y-89948997D01*
X73065271Y-90090783D01*
X74009134Y-91270611D01*
X74009148Y-91270627D01*
X74009153Y-91270633D01*
X74039479Y-91305192D01*
X74039487Y-91305201D01*
X74040215Y-91305958D01*
X74040257Y-91306040D01*
X74040443Y-91306242D01*
X74040388Y-91306291D01*
X74072492Y-91367925D01*
X74066142Y-91437506D01*
X74023717Y-91492222D01*
X74016641Y-91497362D01*
X73927054Y-91586949D01*
X73927051Y-91586953D01*
X73869524Y-91699855D01*
X73854691Y-91793513D01*
X73854691Y-91850000D01*
X74580691Y-91850000D01*
X74647730Y-91869685D01*
X74693485Y-91922489D01*
X74704691Y-91974000D01*
X74704691Y-92150500D01*
X74685006Y-92217539D01*
X74632202Y-92263294D01*
X74580691Y-92274500D01*
X73995943Y-92274500D01*
X73843213Y-92315423D01*
X73814874Y-92331786D01*
X73814873Y-92331786D01*
X73706287Y-92394477D01*
X73706282Y-92394481D01*
X72919481Y-93181282D01*
X72919480Y-93181284D01*
X72883435Y-93243716D01*
X72840423Y-93318215D01*
X72799499Y-93470943D01*
X72799499Y-93470945D01*
X72799499Y-93637814D01*
X72779814Y-93704853D01*
X72748386Y-93738131D01*
X72683072Y-93785585D01*
X72560588Y-93908069D01*
X72560581Y-93908078D01*
X72500317Y-93991023D01*
X72444987Y-94033689D01*
X72375374Y-94039667D01*
X72313579Y-94007061D01*
X72299683Y-93991023D01*
X72239418Y-93908078D01*
X72239414Y-93908072D01*
X72116928Y-93785586D01*
X72046023Y-93734070D01*
X72003358Y-93678740D01*
X71999137Y-93665855D01*
X71959577Y-93518216D01*
X71936774Y-93478720D01*
X71880524Y-93381290D01*
X71880518Y-93381282D01*
X71012588Y-92513353D01*
X71012586Y-92513350D01*
X70893715Y-92394479D01*
X70893714Y-92394478D01*
X70806902Y-92344358D01*
X70806902Y-92344357D01*
X70806898Y-92344356D01*
X70756783Y-92315421D01*
X70604055Y-92274497D01*
X70445941Y-92274497D01*
X70438345Y-92274497D01*
X70438329Y-92274498D01*
X69212055Y-92274498D01*
X69145016Y-92254813D01*
X69099261Y-92202009D01*
X69088055Y-92150498D01*
X69088055Y-91427930D01*
X69588055Y-91427930D01*
X69588055Y-91849998D01*
X69938054Y-91849998D01*
X69938054Y-91793518D01*
X69923219Y-91699848D01*
X69923217Y-91699842D01*
X69865698Y-91586956D01*
X69865691Y-91586947D01*
X69776105Y-91497361D01*
X69776101Y-91497358D01*
X69663199Y-91439831D01*
X69588055Y-91427930D01*
X69088055Y-91427930D01*
X69057726Y-91402027D01*
X69043802Y-91380697D01*
X69006323Y-91439088D01*
X68981364Y-91455904D01*
X68900011Y-91497356D01*
X68900004Y-91497361D01*
X68810418Y-91586947D01*
X68810414Y-91586952D01*
X68785598Y-91635656D01*
X68737623Y-91686451D01*
X68669801Y-91703245D01*
X68603667Y-91680706D01*
X68560216Y-91625991D01*
X68556735Y-91616269D01*
X68531535Y-91535396D01*
X68455282Y-91409259D01*
X68437447Y-91341706D01*
X68458965Y-91275233D01*
X68480250Y-91251352D01*
X68493056Y-91240268D01*
X68493056Y-90325000D01*
X68993056Y-90325000D01*
X68993056Y-91240269D01*
X69006218Y-91251662D01*
X69019695Y-91272607D01*
X69056389Y-91214606D01*
X69083803Y-91196334D01*
X69099247Y-91188784D01*
X69181843Y-91106188D01*
X69233143Y-91001251D01*
X69233144Y-91001248D01*
X69243056Y-90933219D01*
X69243056Y-90325000D01*
X68993056Y-90325000D01*
X68493056Y-90325000D01*
X68493056Y-89949000D01*
X68512741Y-89881961D01*
X68565545Y-89836206D01*
X68617056Y-89825000D01*
X69243055Y-89825000D01*
X69243055Y-89767474D01*
X69262740Y-89700435D01*
X69315544Y-89654680D01*
X69384702Y-89644736D01*
X69418568Y-89654681D01*
G37*
%TD.AperFunction*%
%TA.AperFunction,Conductor*%
G36*
X55243039Y-91869685D02*
G01*
X55288794Y-91922489D01*
X55300000Y-91974000D01*
X55300000Y-92772064D01*
X55375149Y-92760164D01*
X55375155Y-92760162D01*
X55488041Y-92702643D01*
X55488050Y-92702636D01*
X55577636Y-92613050D01*
X55577641Y-92613044D01*
X55602455Y-92564343D01*
X55650428Y-92513547D01*
X55718249Y-92496751D01*
X55784384Y-92519288D01*
X55827836Y-92574002D01*
X55831325Y-92583747D01*
X55856520Y-92664602D01*
X55856521Y-92664604D01*
X55856522Y-92664606D01*
X55921483Y-92772064D01*
X55944530Y-92810188D01*
X56064811Y-92930469D01*
X56064813Y-92930470D01*
X56064815Y-92930472D01*
X56210394Y-93018478D01*
X56372804Y-93069086D01*
X56443384Y-93075500D01*
X56774903Y-93075500D01*
X56841942Y-93095185D01*
X56862584Y-93111819D01*
X57033584Y-93282819D01*
X57067069Y-93344142D01*
X57062085Y-93413834D01*
X57020213Y-93469767D01*
X56954749Y-93494184D01*
X56945903Y-93494500D01*
X55056349Y-93494500D01*
X55028013Y-93495295D01*
X55014111Y-93496076D01*
X55011772Y-93496273D01*
X55010403Y-93496389D01*
X54989598Y-93496389D01*
X54987784Y-93496236D01*
X54985888Y-93496076D01*
X54971986Y-93495295D01*
X54943651Y-93494500D01*
X54943647Y-93494500D01*
X54460746Y-93494500D01*
X54393707Y-93474815D01*
X54373065Y-93458181D01*
X54341819Y-93426935D01*
X54308334Y-93365612D01*
X54305500Y-93339254D01*
X54305500Y-92695549D01*
X54325185Y-92628510D01*
X54377989Y-92582755D01*
X54447147Y-92572811D01*
X54510703Y-92601836D01*
X54517181Y-92607868D01*
X54611949Y-92702636D01*
X54611958Y-92702643D01*
X54724844Y-92760162D01*
X54724850Y-92760164D01*
X54800000Y-92772065D01*
X54800000Y-91974000D01*
X54819685Y-91906961D01*
X54872489Y-91861206D01*
X54924000Y-91850000D01*
X55176000Y-91850000D01*
X55243039Y-91869685D01*
G37*
%TD.AperFunction*%
%TA.AperFunction,Conductor*%
G36*
X61711191Y-89396111D02*
G01*
X61722550Y-89404614D01*
X61724029Y-89405564D01*
X61724032Y-89405567D01*
X61724035Y-89405568D01*
X61724036Y-89405569D01*
X61844457Y-89460565D01*
X61854909Y-89465338D01*
X61921948Y-89485023D01*
X61921952Y-89485024D01*
X62064368Y-89505500D01*
X62194657Y-89505500D01*
X62261696Y-89525185D01*
X62307451Y-89577989D01*
X62307542Y-89578188D01*
X62492083Y-89984178D01*
X63106857Y-91336680D01*
X63107231Y-91337503D01*
X63185015Y-91458537D01*
X63185024Y-91458548D01*
X63230768Y-91511340D01*
X63230771Y-91511343D01*
X63230775Y-91511347D01*
X63339509Y-91605567D01*
X63339512Y-91605568D01*
X63339513Y-91605569D01*
X63470000Y-91665162D01*
X63470386Y-91665338D01*
X63537425Y-91685023D01*
X63537429Y-91685024D01*
X63679845Y-91705500D01*
X63679848Y-91705500D01*
X63789056Y-91705500D01*
X63856095Y-91725185D01*
X63901850Y-91777989D01*
X63913056Y-91829500D01*
X63913056Y-91850000D01*
X64639056Y-91850000D01*
X64706095Y-91869685D01*
X64751850Y-91922489D01*
X64763056Y-91974000D01*
X64763056Y-92226000D01*
X64743371Y-92293039D01*
X64690567Y-92338794D01*
X64639056Y-92350000D01*
X63913057Y-92350000D01*
X63899876Y-92363181D01*
X63838553Y-92396666D01*
X63812195Y-92399500D01*
X60575862Y-92399500D01*
X60508823Y-92379815D01*
X60488181Y-92363181D01*
X60475000Y-92350000D01*
X59749000Y-92350000D01*
X59681961Y-92330315D01*
X59636206Y-92277511D01*
X59625000Y-92226000D01*
X59625000Y-91427932D01*
X60125000Y-91427932D01*
X60125000Y-91850000D01*
X60474999Y-91850000D01*
X60474999Y-91793520D01*
X60460164Y-91699850D01*
X60460162Y-91699844D01*
X60402643Y-91586958D01*
X60402636Y-91586949D01*
X60313050Y-91497363D01*
X60313046Y-91497360D01*
X60200144Y-91439833D01*
X60125000Y-91427932D01*
X59625000Y-91427932D01*
X59603768Y-91409799D01*
X59588083Y-91385771D01*
X59559008Y-91431069D01*
X59534049Y-91447886D01*
X59436956Y-91497358D01*
X59436949Y-91497363D01*
X59347363Y-91586949D01*
X59347359Y-91586954D01*
X59322543Y-91635658D01*
X59274568Y-91686453D01*
X59206746Y-91703247D01*
X59140612Y-91680708D01*
X59097161Y-91625993D01*
X59093680Y-91616271D01*
X59068480Y-91535398D01*
X59000812Y-91423462D01*
X58982977Y-91355911D01*
X59004494Y-91289437D01*
X59025781Y-91265556D01*
X59055001Y-91240265D01*
X59055001Y-90324997D01*
X59555001Y-90324997D01*
X59555001Y-91240266D01*
X59558903Y-91243644D01*
X59574067Y-91267211D01*
X59602430Y-91222378D01*
X59629841Y-91204108D01*
X59661191Y-91188782D01*
X59743788Y-91106185D01*
X59795088Y-91001248D01*
X59795089Y-91001245D01*
X59805001Y-90933216D01*
X59805001Y-90324997D01*
X59555001Y-90324997D01*
X59055001Y-90324997D01*
X59055001Y-89948997D01*
X59074686Y-89881958D01*
X59127490Y-89836203D01*
X59179001Y-89824997D01*
X59805000Y-89824997D01*
X59805000Y-89595992D01*
X59824685Y-89528953D01*
X59877489Y-89483198D01*
X59946647Y-89473254D01*
X59963926Y-89477013D01*
X59991205Y-89485023D01*
X59991209Y-89485024D01*
X60133625Y-89505500D01*
X60133628Y-89505500D01*
X60735616Y-89505500D01*
X60735628Y-89505500D01*
X60769425Y-89504369D01*
X60785975Y-89503260D01*
X60819650Y-89499868D01*
X60958059Y-89460566D01*
X61021872Y-89432109D01*
X61079943Y-89395517D01*
X61146049Y-89376426D01*
X61644152Y-89376426D01*
X61711191Y-89396111D01*
G37*
%TD.AperFunction*%
%TA.AperFunction,Conductor*%
G36*
X60310705Y-85552262D02*
G01*
X60347208Y-85606971D01*
X60362998Y-85654624D01*
X60363003Y-85654635D01*
X60452031Y-85798970D01*
X60452034Y-85798974D01*
X60571957Y-85918897D01*
X60571961Y-85918900D01*
X60716296Y-86007928D01*
X60716299Y-86007929D01*
X60716305Y-86007933D01*
X60877294Y-86061279D01*
X60976657Y-86071430D01*
X61823346Y-86071429D01*
X61823354Y-86071428D01*
X61823357Y-86071428D01*
X61877762Y-86065870D01*
X61922710Y-86061279D01*
X62083699Y-86007933D01*
X62228046Y-85918898D01*
X62239195Y-85907749D01*
X62300518Y-85874264D01*
X62326876Y-85871430D01*
X64008556Y-85871430D01*
X64075595Y-85891115D01*
X64121350Y-85943919D01*
X64132556Y-85995430D01*
X64132556Y-86015701D01*
X64135457Y-86052567D01*
X64135458Y-86052573D01*
X64181310Y-86210393D01*
X64181311Y-86210395D01*
X64181312Y-86210398D01*
X64264974Y-86351864D01*
X64264979Y-86351870D01*
X64381185Y-86468076D01*
X64381187Y-86468077D01*
X64381191Y-86468081D01*
X64396919Y-86477382D01*
X64441188Y-86522116D01*
X64452535Y-86541771D01*
X64571405Y-86660641D01*
X64571411Y-86660646D01*
X64593584Y-86682819D01*
X64627069Y-86744142D01*
X64622085Y-86813834D01*
X64580213Y-86869767D01*
X64514749Y-86894184D01*
X64505903Y-86894500D01*
X64309209Y-86894500D01*
X64197186Y-86907069D01*
X64197182Y-86907069D01*
X64197181Y-86907070D01*
X64168100Y-86913679D01*
X64148150Y-86918213D01*
X64143591Y-86919249D01*
X64037158Y-86956322D01*
X63917574Y-87036336D01*
X63917573Y-87036337D01*
X63882154Y-87068195D01*
X63819146Y-87098390D01*
X63799232Y-87100000D01*
X62880490Y-87100000D01*
X62813451Y-87080315D01*
X62796980Y-87067663D01*
X62794670Y-87065558D01*
X62707239Y-86994433D01*
X62576365Y-86934663D01*
X62567769Y-86932139D01*
X62523868Y-86919248D01*
X62509320Y-86914976D01*
X62447250Y-86906052D01*
X62366903Y-86894500D01*
X57776378Y-86894500D01*
X57696786Y-86900805D01*
X57696775Y-86900806D01*
X57658224Y-86906953D01*
X57658211Y-86906956D01*
X57597640Y-86921596D01*
X57527852Y-86918213D01*
X57480827Y-86888749D01*
X57450259Y-86858181D01*
X57362262Y-86770184D01*
X57362259Y-86770182D01*
X57264766Y-86708922D01*
X57218475Y-86656587D01*
X57207828Y-86587534D01*
X57236203Y-86523686D01*
X57267617Y-86497198D01*
X57316859Y-86468077D01*
X57316863Y-86468072D01*
X57323025Y-86463294D01*
X57324927Y-86465746D01*
X57373576Y-86439149D01*
X57443270Y-86444098D01*
X57475697Y-86464937D01*
X57476970Y-86463297D01*
X57483132Y-86468076D01*
X57483136Y-86468080D01*
X57624603Y-86551743D01*
X57624617Y-86551747D01*
X57782427Y-86597596D01*
X57782430Y-86597596D01*
X57782432Y-86597597D01*
X57819307Y-86600499D01*
X57819315Y-86600499D01*
X58250687Y-86600499D01*
X58250695Y-86600499D01*
X58287570Y-86597597D01*
X58287572Y-86597596D01*
X58287574Y-86597596D01*
X58350703Y-86579255D01*
X58445399Y-86551743D01*
X58586866Y-86468080D01*
X58586871Y-86468074D01*
X58593032Y-86463297D01*
X58594934Y-86465750D01*
X58643579Y-86439155D01*
X58713274Y-86444104D01*
X58745697Y-86464941D01*
X58746971Y-86463300D01*
X58753133Y-86468079D01*
X58753137Y-86468083D01*
X58894604Y-86551746D01*
X58900824Y-86553553D01*
X59052428Y-86597599D01*
X59052431Y-86597599D01*
X59052433Y-86597600D01*
X59089308Y-86600502D01*
X59089316Y-86600502D01*
X59520688Y-86600502D01*
X59520696Y-86600502D01*
X59527075Y-86600000D01*
X62663056Y-86600000D01*
X63088056Y-86600000D01*
X63088056Y-86200000D01*
X63588056Y-86200000D01*
X63588056Y-86600000D01*
X64013055Y-86600000D01*
X64013055Y-86591550D01*
X63997293Y-86492032D01*
X63936172Y-86372076D01*
X63936169Y-86372071D01*
X63840984Y-86276886D01*
X63840979Y-86276883D01*
X63721021Y-86215760D01*
X63721022Y-86215760D01*
X63621512Y-86200000D01*
X63588056Y-86200000D01*
X63088056Y-86200000D01*
X63088056Y-86199999D01*
X63054611Y-86200000D01*
X62955088Y-86215762D01*
X62835132Y-86276883D01*
X62835127Y-86276886D01*
X62739942Y-86372071D01*
X62739939Y-86372076D01*
X62678816Y-86492033D01*
X62663056Y-86591543D01*
X62663056Y-86600000D01*
X59527075Y-86600000D01*
X59557571Y-86597600D01*
X59557573Y-86597599D01*
X59557575Y-86597599D01*
X59620714Y-86579255D01*
X59715400Y-86551746D01*
X59856867Y-86468083D01*
X59973083Y-86351867D01*
X60056746Y-86210400D01*
X60097121Y-86071429D01*
X60102599Y-86052575D01*
X60102599Y-86052573D01*
X60102600Y-86052571D01*
X60105502Y-86015696D01*
X60105502Y-85645975D01*
X60125187Y-85578936D01*
X60177991Y-85533181D01*
X60247149Y-85523237D01*
X60310705Y-85552262D01*
G37*
%TD.AperFunction*%
%TA.AperFunction,Conductor*%
G36*
X71414115Y-80103924D02*
G01*
X71427999Y-80104704D01*
X71448791Y-80105287D01*
X71456349Y-80105500D01*
X71456353Y-80105500D01*
X72817785Y-80105500D01*
X72884824Y-80125185D01*
X72930579Y-80177989D01*
X72938882Y-80216159D01*
X72941005Y-80215920D01*
X72961980Y-80402088D01*
X72961981Y-80402093D01*
X73021561Y-80572362D01*
X73093809Y-80687343D01*
X73112809Y-80754580D01*
X73093810Y-80819285D01*
X73074209Y-80850480D01*
X73014635Y-81020733D01*
X73014630Y-81020750D01*
X72994435Y-81199996D01*
X72994435Y-81200003D01*
X73014630Y-81379249D01*
X73014631Y-81379254D01*
X73074211Y-81549523D01*
X73124662Y-81629815D01*
X73170184Y-81702262D01*
X73297738Y-81829816D01*
X73333351Y-81852193D01*
X73413523Y-81902569D01*
X73450478Y-81925789D01*
X73620745Y-81985368D01*
X73620750Y-81985369D01*
X73799997Y-82005565D01*
X73799999Y-82005565D01*
X73799999Y-82005564D01*
X73800000Y-82005565D01*
X73843491Y-82000664D01*
X73912311Y-82012717D01*
X73963491Y-82059733D01*
X73996955Y-82115088D01*
X74024218Y-82160186D01*
X74126352Y-82262320D01*
X74159836Y-82323641D01*
X74154852Y-82393333D01*
X74126352Y-82437681D01*
X74024221Y-82539812D01*
X73936214Y-82685392D01*
X73885605Y-82847806D01*
X73880474Y-82904274D01*
X73879192Y-82918383D01*
X73879192Y-83431615D01*
X73881115Y-83452777D01*
X73885605Y-83502191D01*
X73885605Y-83502193D01*
X73885606Y-83502195D01*
X73936214Y-83664605D01*
X74024220Y-83810184D01*
X74144507Y-83930471D01*
X74156702Y-83937843D01*
X74203890Y-83989369D01*
X74215731Y-84058228D01*
X74211630Y-84078556D01*
X74177094Y-84197426D01*
X74177093Y-84197432D01*
X74174192Y-84234298D01*
X74174192Y-84250500D01*
X74154507Y-84317539D01*
X74101703Y-84363294D01*
X74050192Y-84374500D01*
X72336398Y-84374500D01*
X72269359Y-84354815D01*
X72248717Y-84338181D01*
X72228046Y-84317510D01*
X72228042Y-84317507D01*
X72083707Y-84228479D01*
X72083701Y-84228476D01*
X72083699Y-84228475D01*
X71990002Y-84197427D01*
X71922711Y-84175129D01*
X71823348Y-84164978D01*
X70976664Y-84164978D01*
X70976646Y-84164979D01*
X70877294Y-84175128D01*
X70877291Y-84175129D01*
X70716307Y-84228474D01*
X70716296Y-84228479D01*
X70571961Y-84317507D01*
X70571957Y-84317510D01*
X70452034Y-84437433D01*
X70452031Y-84437437D01*
X70363003Y-84581772D01*
X70362998Y-84581783D01*
X70309653Y-84742768D01*
X70299502Y-84842125D01*
X70299502Y-85388815D01*
X70299503Y-85388833D01*
X70309652Y-85488185D01*
X70309653Y-85488188D01*
X70362998Y-85649172D01*
X70363003Y-85649183D01*
X70452031Y-85793518D01*
X70452034Y-85793522D01*
X70571957Y-85913445D01*
X70571961Y-85913448D01*
X70716296Y-86002476D01*
X70716299Y-86002477D01*
X70716305Y-86002481D01*
X70877294Y-86055827D01*
X70976657Y-86065978D01*
X71823346Y-86065977D01*
X71823354Y-86065976D01*
X71823357Y-86065976D01*
X71877762Y-86060418D01*
X71922710Y-86055827D01*
X72083699Y-86002481D01*
X72228046Y-85913446D01*
X72229673Y-85911819D01*
X72231064Y-85911059D01*
X72233709Y-85908968D01*
X72234066Y-85909420D01*
X72290996Y-85878334D01*
X72317354Y-85875500D01*
X74050192Y-85875500D01*
X74117231Y-85895185D01*
X74162986Y-85947989D01*
X74174192Y-85999500D01*
X74174192Y-86015701D01*
X74177093Y-86052567D01*
X74177094Y-86052573D01*
X74222946Y-86210393D01*
X74222947Y-86210395D01*
X74222948Y-86210398D01*
X74306610Y-86351864D01*
X74306615Y-86351870D01*
X74422821Y-86468076D01*
X74422824Y-86468078D01*
X74422827Y-86468081D01*
X74564294Y-86551744D01*
X74570526Y-86553554D01*
X74629411Y-86591158D01*
X74652975Y-86631676D01*
X74694213Y-86749529D01*
X74697231Y-86755795D01*
X74695786Y-86756490D01*
X74712493Y-86815626D01*
X74692122Y-86882460D01*
X74638852Y-86927671D01*
X74569595Y-86936904D01*
X74553564Y-86933331D01*
X74491057Y-86914976D01*
X74402625Y-86902262D01*
X74348638Y-86894500D01*
X74325844Y-86894500D01*
X74213821Y-86907069D01*
X74213817Y-86907069D01*
X74213816Y-86907070D01*
X74184735Y-86913679D01*
X74164785Y-86918213D01*
X74160226Y-86919249D01*
X74053793Y-86956322D01*
X73934209Y-87036336D01*
X73934208Y-87036337D01*
X73898789Y-87068195D01*
X73835781Y-87098390D01*
X73815867Y-87100000D01*
X72897125Y-87100000D01*
X72830086Y-87080315D01*
X72813615Y-87067663D01*
X72811305Y-87065558D01*
X72723874Y-86994433D01*
X72593000Y-86934663D01*
X72584404Y-86932139D01*
X72540503Y-86919248D01*
X72525955Y-86914976D01*
X72463885Y-86906052D01*
X72383538Y-86894500D01*
X72383536Y-86894500D01*
X66517026Y-86894500D01*
X66449987Y-86874815D01*
X66404232Y-86822011D01*
X66393806Y-86784385D01*
X66389878Y-86749529D01*
X66387083Y-86724722D01*
X66399137Y-86655902D01*
X66446485Y-86604522D01*
X66475702Y-86591764D01*
X66613454Y-86551744D01*
X66754921Y-86468081D01*
X66754926Y-86468075D01*
X66761087Y-86463298D01*
X66762995Y-86465758D01*
X66811573Y-86439168D01*
X66881270Y-86444081D01*
X66913755Y-86464934D01*
X66915026Y-86463297D01*
X66921188Y-86468076D01*
X66921192Y-86468080D01*
X67062659Y-86551743D01*
X67062673Y-86551747D01*
X67220483Y-86597596D01*
X67220486Y-86597596D01*
X67220488Y-86597597D01*
X67257363Y-86600499D01*
X67257371Y-86600499D01*
X67688743Y-86600499D01*
X67688751Y-86600499D01*
X67725626Y-86597597D01*
X67725628Y-86597596D01*
X67725630Y-86597596D01*
X67788759Y-86579255D01*
X67883455Y-86551743D01*
X68024922Y-86468080D01*
X68024927Y-86468074D01*
X68031088Y-86463297D01*
X68032990Y-86465750D01*
X68081635Y-86439155D01*
X68151330Y-86444104D01*
X68183751Y-86464940D01*
X68185025Y-86463298D01*
X68191187Y-86468077D01*
X68191191Y-86468081D01*
X68332658Y-86551744D01*
X68338885Y-86553553D01*
X68490482Y-86597597D01*
X68490485Y-86597597D01*
X68490487Y-86597598D01*
X68527362Y-86600500D01*
X68527370Y-86600500D01*
X68958742Y-86600500D01*
X68958750Y-86600500D01*
X68965103Y-86600000D01*
X72679691Y-86600000D01*
X73104691Y-86600000D01*
X73104691Y-86200000D01*
X73604691Y-86200000D01*
X73604691Y-86600000D01*
X74029690Y-86600000D01*
X74029690Y-86591550D01*
X74013928Y-86492032D01*
X73952807Y-86372076D01*
X73952804Y-86372071D01*
X73857619Y-86276886D01*
X73857614Y-86276883D01*
X73737656Y-86215760D01*
X73737657Y-86215760D01*
X73638147Y-86200000D01*
X73604691Y-86200000D01*
X73104691Y-86200000D01*
X73104691Y-86199999D01*
X73071246Y-86200000D01*
X72971723Y-86215762D01*
X72851767Y-86276883D01*
X72851762Y-86276886D01*
X72756577Y-86372071D01*
X72756574Y-86372076D01*
X72695451Y-86492033D01*
X72679691Y-86591543D01*
X72679691Y-86600000D01*
X68965103Y-86600000D01*
X68995625Y-86597598D01*
X68995627Y-86597597D01*
X68995629Y-86597597D01*
X69058761Y-86579255D01*
X69153454Y-86551744D01*
X69294921Y-86468081D01*
X69411137Y-86351865D01*
X69494800Y-86210398D01*
X69536759Y-86065976D01*
X69540653Y-86052573D01*
X69540654Y-86052567D01*
X69543555Y-86015701D01*
X69543556Y-86015694D01*
X69543556Y-84234306D01*
X69542318Y-84218575D01*
X69556682Y-84150198D01*
X69578255Y-84121166D01*
X69689769Y-84009652D01*
X69816164Y-83883256D01*
X69877486Y-83849773D01*
X69884392Y-83848755D01*
X69884389Y-83848735D01*
X69890622Y-83847596D01*
X69890625Y-83847596D01*
X69890627Y-83847595D01*
X69890629Y-83847595D01*
X69932247Y-83835503D01*
X70048454Y-83801742D01*
X70189921Y-83718079D01*
X70306137Y-83601863D01*
X70389800Y-83460396D01*
X70435654Y-83302567D01*
X70438556Y-83265692D01*
X70438556Y-82834304D01*
X70435654Y-82797429D01*
X70389800Y-82639600D01*
X70306137Y-82498133D01*
X70306135Y-82498131D01*
X70306132Y-82498127D01*
X70245686Y-82437681D01*
X70212201Y-82376358D01*
X70217185Y-82306666D01*
X70245686Y-82262319D01*
X70306132Y-82201872D01*
X70306137Y-82201867D01*
X70389800Y-82060400D01*
X70423561Y-81944193D01*
X70435653Y-81902575D01*
X70435654Y-81902569D01*
X70438555Y-81865703D01*
X70438556Y-81865696D01*
X70438556Y-81434308D01*
X70435654Y-81397433D01*
X70430372Y-81379254D01*
X70390684Y-81242646D01*
X70389800Y-81239604D01*
X70306137Y-81098137D01*
X70306135Y-81098135D01*
X70306132Y-81098131D01*
X70189926Y-80981925D01*
X70189918Y-80981919D01*
X70111737Y-80935683D01*
X70048454Y-80898258D01*
X70048453Y-80898257D01*
X70048452Y-80898257D01*
X70048449Y-80898256D01*
X69890629Y-80852404D01*
X69890623Y-80852403D01*
X69853757Y-80849502D01*
X69853750Y-80849502D01*
X69819595Y-80849502D01*
X69772142Y-80840063D01*
X69680890Y-80802265D01*
X69680884Y-80802263D01*
X69535897Y-80773423D01*
X69535895Y-80773423D01*
X69409464Y-80773423D01*
X69342425Y-80753738D01*
X69296670Y-80700934D01*
X69286726Y-80631776D01*
X69304471Y-80583450D01*
X69325788Y-80549524D01*
X69358863Y-80455001D01*
X69385368Y-80379255D01*
X69393092Y-80310703D01*
X69403806Y-80215617D01*
X69430872Y-80151203D01*
X69488467Y-80111647D01*
X69527026Y-80105500D01*
X71343651Y-80105500D01*
X71351748Y-80105272D01*
X71372001Y-80104704D01*
X71385885Y-80103924D01*
X71389570Y-80103613D01*
X71410429Y-80103613D01*
X71414115Y-80103924D01*
G37*
%TD.AperFunction*%
%TA.AperFunction,Conductor*%
G36*
X81621799Y-52970185D02*
G01*
X81667554Y-53022989D01*
X81677498Y-53092147D01*
X81648473Y-53155703D01*
X81622900Y-53178100D01*
X81605482Y-53189555D01*
X81462819Y-53309264D01*
X81462818Y-53309265D01*
X82459301Y-54305748D01*
X82357670Y-54379588D01*
X82179588Y-54557670D01*
X82105748Y-54659301D01*
X81106148Y-53659701D01*
X81106147Y-53659702D01*
X81097976Y-53668363D01*
X81097972Y-53668368D01*
X80889289Y-53948677D01*
X80714561Y-54251316D01*
X80714555Y-54251329D01*
X80576145Y-54572199D01*
X80475916Y-54906988D01*
X80475914Y-54906997D01*
X80415236Y-55251119D01*
X80415235Y-55251130D01*
X80394916Y-55599996D01*
X80394916Y-55600003D01*
X80415235Y-55948869D01*
X80415236Y-55948880D01*
X80475914Y-56293002D01*
X80475916Y-56293011D01*
X80576145Y-56627800D01*
X80714555Y-56948670D01*
X80714561Y-56948683D01*
X80889289Y-57251322D01*
X81097967Y-57531625D01*
X81106148Y-57540296D01*
X82105747Y-56540697D01*
X82179588Y-56642330D01*
X82357670Y-56820412D01*
X82459300Y-56894251D01*
X81462818Y-57890733D01*
X81462819Y-57890734D01*
X81605484Y-58010445D01*
X81897461Y-58202480D01*
X82209739Y-58359314D01*
X82209745Y-58359316D01*
X82538130Y-58478838D01*
X82538133Y-58478839D01*
X82878171Y-58559429D01*
X83225276Y-58599999D01*
X83225277Y-58600000D01*
X83574723Y-58600000D01*
X83574723Y-58599999D01*
X83921827Y-58559429D01*
X83921829Y-58559429D01*
X84261866Y-58478839D01*
X84261869Y-58478838D01*
X84590254Y-58359316D01*
X84590260Y-58359314D01*
X84902538Y-58202480D01*
X85194509Y-58010449D01*
X85194510Y-58010448D01*
X85337179Y-57890734D01*
X85337180Y-57890733D01*
X84340698Y-56894251D01*
X84442330Y-56820412D01*
X84620412Y-56642330D01*
X84694251Y-56540698D01*
X85693849Y-57540296D01*
X85723699Y-57539863D01*
X85791017Y-57558572D01*
X85837534Y-57610706D01*
X85849500Y-57663850D01*
X85849500Y-96536148D01*
X85829815Y-96603187D01*
X85777011Y-96648942D01*
X85723699Y-96660135D01*
X85693851Y-96659701D01*
X84694251Y-97659301D01*
X84620412Y-97557670D01*
X84442330Y-97379588D01*
X84340698Y-97305747D01*
X85337180Y-96309265D01*
X85337179Y-96309264D01*
X85194519Y-96189557D01*
X84902538Y-95997519D01*
X84590260Y-95840685D01*
X84590254Y-95840683D01*
X84261869Y-95721161D01*
X84261866Y-95721160D01*
X83921828Y-95640570D01*
X83574723Y-95600000D01*
X83225277Y-95600000D01*
X82878172Y-95640570D01*
X82878170Y-95640570D01*
X82538133Y-95721160D01*
X82538130Y-95721161D01*
X82209745Y-95840683D01*
X82209739Y-95840685D01*
X81897461Y-95997519D01*
X81605480Y-96189557D01*
X81462819Y-96309264D01*
X81462818Y-96309265D01*
X82459301Y-97305748D01*
X82357670Y-97379588D01*
X82179588Y-97557670D01*
X82105748Y-97659301D01*
X81106148Y-96659701D01*
X81106147Y-96659702D01*
X81097976Y-96668363D01*
X81097972Y-96668368D01*
X80889289Y-96948677D01*
X80714561Y-97251316D01*
X80714555Y-97251329D01*
X80576145Y-97572199D01*
X80475916Y-97906988D01*
X80475914Y-97906997D01*
X80415236Y-98251119D01*
X80415235Y-98251130D01*
X80394916Y-98599996D01*
X80394916Y-98600003D01*
X80415235Y-98948869D01*
X80415236Y-98948880D01*
X80475914Y-99293002D01*
X80475916Y-99293011D01*
X80576145Y-99627800D01*
X80714555Y-99948670D01*
X80714561Y-99948683D01*
X80889289Y-100251322D01*
X81097967Y-100531625D01*
X81106148Y-100540296D01*
X82105747Y-99540697D01*
X82179588Y-99642330D01*
X82357670Y-99820412D01*
X82459300Y-99894251D01*
X81462818Y-100890733D01*
X81462819Y-100890734D01*
X81605485Y-101010446D01*
X81605489Y-101010449D01*
X81622898Y-101021899D01*
X81668092Y-101075183D01*
X81677305Y-101144443D01*
X81647610Y-101207688D01*
X81588436Y-101244840D01*
X81554760Y-101249500D01*
X44245240Y-101249500D01*
X44178201Y-101229815D01*
X44132446Y-101177011D01*
X44122502Y-101107853D01*
X44151527Y-101044297D01*
X44177102Y-101021899D01*
X44194502Y-101010454D01*
X44194510Y-101010448D01*
X44337179Y-100890734D01*
X44337180Y-100890733D01*
X43340698Y-99894251D01*
X43442330Y-99820412D01*
X43620412Y-99642330D01*
X43694251Y-99540698D01*
X44693849Y-100540297D01*
X44693851Y-100540296D01*
X44702022Y-100531636D01*
X44702033Y-100531623D01*
X44910710Y-100251322D01*
X45085438Y-99948683D01*
X45085444Y-99948670D01*
X45223854Y-99627800D01*
X45324083Y-99293011D01*
X45324085Y-99293002D01*
X45384763Y-98948880D01*
X45384764Y-98948869D01*
X45405084Y-98600003D01*
X45405084Y-98599996D01*
X45384764Y-98251130D01*
X45384763Y-98251119D01*
X45324085Y-97906997D01*
X45324083Y-97906988D01*
X45223854Y-97572199D01*
X45085444Y-97251329D01*
X45085438Y-97251316D01*
X44910710Y-96948677D01*
X44702032Y-96668374D01*
X44693850Y-96659702D01*
X43694251Y-97659301D01*
X43620412Y-97557670D01*
X43442330Y-97379588D01*
X43340698Y-97305747D01*
X44337180Y-96309265D01*
X44337179Y-96309264D01*
X44194519Y-96189557D01*
X43902538Y-95997519D01*
X43590260Y-95840685D01*
X43590254Y-95840683D01*
X43261869Y-95721161D01*
X43261866Y-95721160D01*
X42921828Y-95640570D01*
X42574723Y-95600000D01*
X42225277Y-95600000D01*
X41878172Y-95640570D01*
X41878170Y-95640570D01*
X41538133Y-95721160D01*
X41538130Y-95721161D01*
X41209745Y-95840683D01*
X41209739Y-95840685D01*
X40897461Y-95997519D01*
X40605480Y-96189557D01*
X40462819Y-96309264D01*
X40462818Y-96309265D01*
X41459301Y-97305748D01*
X41357670Y-97379588D01*
X41179588Y-97557670D01*
X41105748Y-97659301D01*
X40106148Y-96659701D01*
X40106147Y-96659702D01*
X40097976Y-96668363D01*
X40097972Y-96668368D01*
X39889289Y-96948677D01*
X39781887Y-97134705D01*
X39731320Y-97182921D01*
X39662713Y-97196144D01*
X39597848Y-97170176D01*
X39557320Y-97113262D01*
X39550500Y-97072705D01*
X39550500Y-83100002D01*
X42949999Y-83100002D01*
X42949999Y-84404198D01*
X42952849Y-84434608D01*
X42997651Y-84562647D01*
X43078205Y-84671794D01*
X43187352Y-84752348D01*
X43315395Y-84797151D01*
X43345790Y-84800001D01*
X44149997Y-84800001D01*
X44149998Y-84800000D01*
X44149998Y-83100002D01*
X44649998Y-83100002D01*
X44649998Y-84800001D01*
X45454194Y-84800001D01*
X45484604Y-84797150D01*
X45612643Y-84752348D01*
X45721790Y-84671794D01*
X45802344Y-84562647D01*
X45847147Y-84434606D01*
X45847147Y-84434602D01*
X45849998Y-84404208D01*
X45849998Y-83100002D01*
X44649998Y-83100002D01*
X44149998Y-83100002D01*
X42949999Y-83100002D01*
X39550500Y-83100002D01*
X39550500Y-82600002D01*
X42949998Y-82600002D01*
X44149998Y-82600002D01*
X44149998Y-80900002D01*
X44649998Y-80900002D01*
X44649998Y-82600002D01*
X45849997Y-82600002D01*
X45849997Y-81295805D01*
X45847146Y-81265395D01*
X45802344Y-81137356D01*
X45721790Y-81028209D01*
X45622596Y-80955001D01*
X48880003Y-80955001D01*
X48880003Y-81084197D01*
X48882853Y-81114607D01*
X48927655Y-81242646D01*
X49008209Y-81351793D01*
X49117356Y-81432347D01*
X49245399Y-81477150D01*
X49275794Y-81480000D01*
X49730001Y-81480000D01*
X50230002Y-81480000D01*
X50684198Y-81480000D01*
X50714608Y-81477149D01*
X50842647Y-81432347D01*
X50951794Y-81351793D01*
X51032346Y-81242648D01*
X51035367Y-81236933D01*
X51084093Y-81186858D01*
X51152157Y-81171076D01*
X51217949Y-81194597D01*
X51254628Y-81236924D01*
X51257650Y-81242641D01*
X51338206Y-81351792D01*
X51447353Y-81432346D01*
X51575396Y-81477149D01*
X51605791Y-81479999D01*
X52059998Y-81479999D01*
X52059999Y-81479998D01*
X52059999Y-80955000D01*
X52559999Y-80955000D01*
X52559999Y-81479999D01*
X53014195Y-81479999D01*
X53044605Y-81477148D01*
X53172644Y-81432346D01*
X53281791Y-81351792D01*
X53362345Y-81242645D01*
X53407148Y-81114604D01*
X53407148Y-81114600D01*
X53409999Y-81084206D01*
X53409999Y-80955000D01*
X52559999Y-80955000D01*
X52059999Y-80955000D01*
X52059999Y-79930000D01*
X52559999Y-79930000D01*
X52559999Y-80455000D01*
X53409998Y-80455000D01*
X53409998Y-80325803D01*
X53407147Y-80295393D01*
X53362345Y-80167354D01*
X53281791Y-80058207D01*
X53172644Y-79977653D01*
X53044601Y-79932850D01*
X53014206Y-79930000D01*
X52559999Y-79930000D01*
X52059999Y-79930000D01*
X51605802Y-79930000D01*
X51575392Y-79932851D01*
X51447353Y-79977653D01*
X51338206Y-80058207D01*
X51257650Y-80167358D01*
X51254628Y-80173076D01*
X51205897Y-80223147D01*
X51137832Y-80238924D01*
X51072043Y-80215397D01*
X51035370Y-80173074D01*
X51032346Y-80167353D01*
X50951794Y-80058208D01*
X50842647Y-79977654D01*
X50714604Y-79932851D01*
X50684209Y-79930001D01*
X50230002Y-79930001D01*
X50230002Y-81480000D01*
X49730001Y-81480000D01*
X49730002Y-81479999D01*
X49730002Y-80955001D01*
X48880003Y-80955001D01*
X45622596Y-80955001D01*
X45612643Y-80947655D01*
X45484600Y-80902852D01*
X45454205Y-80900002D01*
X44649998Y-80900002D01*
X44149998Y-80900002D01*
X43345801Y-80900002D01*
X43315391Y-80902853D01*
X43187352Y-80947655D01*
X43078205Y-81028209D01*
X42997651Y-81137356D01*
X42952848Y-81265397D01*
X42952848Y-81265401D01*
X42949998Y-81295795D01*
X42949998Y-82600002D01*
X39550500Y-82600002D01*
X39550500Y-80455001D01*
X48880002Y-80455001D01*
X49730002Y-80455001D01*
X49730002Y-79930001D01*
X49275805Y-79930001D01*
X49245395Y-79932852D01*
X49117356Y-79977654D01*
X49008209Y-80058208D01*
X48927655Y-80167355D01*
X48882852Y-80295396D01*
X48882852Y-80295400D01*
X48880002Y-80325794D01*
X48880002Y-80455001D01*
X39550500Y-80455001D01*
X39550500Y-77548640D01*
X39894500Y-77548640D01*
X39897397Y-77602688D01*
X39897397Y-77602689D01*
X39900229Y-77629022D01*
X39900232Y-77629049D01*
X39908885Y-77682445D01*
X39908885Y-77682447D01*
X39959166Y-77817252D01*
X39959168Y-77817257D01*
X39992653Y-77878580D01*
X40078877Y-77993761D01*
X40078881Y-77993765D01*
X40078886Y-77993771D01*
X40660616Y-78575500D01*
X41006239Y-78921123D01*
X41006246Y-78921129D01*
X41006262Y-78921144D01*
X41046480Y-78957271D01*
X41046492Y-78957281D01*
X41046500Y-78957288D01*
X41067142Y-78973922D01*
X41111026Y-79005567D01*
X41241903Y-79065338D01*
X41308942Y-79085023D01*
X41308946Y-79085024D01*
X41451362Y-79105500D01*
X41451365Y-79105500D01*
X46348640Y-79105500D01*
X46358786Y-79104955D01*
X46402678Y-79102603D01*
X46402686Y-79102602D01*
X46402688Y-79102602D01*
X46402689Y-79102602D01*
X46409682Y-79101849D01*
X46429036Y-79099769D01*
X46429046Y-79099767D01*
X46429049Y-79099767D01*
X46438648Y-79098211D01*
X46482448Y-79091114D01*
X46617257Y-79040832D01*
X46678580Y-79007347D01*
X46793762Y-78921123D01*
X47103066Y-78611817D01*
X47164388Y-78578334D01*
X47190746Y-78575500D01*
X48712769Y-78575500D01*
X48779808Y-78595185D01*
X48800450Y-78611819D01*
X48861342Y-78672711D01*
X49010664Y-78764813D01*
X49177201Y-78819998D01*
X49279989Y-78830499D01*
X50680006Y-78830498D01*
X50782795Y-78819998D01*
X50949332Y-78764813D01*
X51079903Y-78684276D01*
X51147293Y-78665836D01*
X51210091Y-78684275D01*
X51340667Y-78764814D01*
X51507204Y-78819999D01*
X51609992Y-78830500D01*
X53010009Y-78830499D01*
X53112798Y-78819999D01*
X53279335Y-78764814D01*
X53428657Y-78672712D01*
X53489550Y-78611819D01*
X53550873Y-78578334D01*
X53577231Y-78575500D01*
X53609254Y-78575500D01*
X53676293Y-78595185D01*
X53696935Y-78611819D01*
X55006239Y-79921123D01*
X55006255Y-79921137D01*
X55006262Y-79921144D01*
X55046480Y-79957271D01*
X55046492Y-79957281D01*
X55046500Y-79957288D01*
X55061778Y-79969600D01*
X55063292Y-79970820D01*
X55067142Y-79973922D01*
X55111026Y-80005567D01*
X55241903Y-80065338D01*
X55308942Y-80085023D01*
X55308946Y-80085024D01*
X55451362Y-80105500D01*
X56967872Y-80105500D01*
X57034911Y-80125185D01*
X57080666Y-80177989D01*
X57090610Y-80247147D01*
X57061585Y-80310703D01*
X57055557Y-80317176D01*
X56823211Y-80549522D01*
X56634551Y-80738182D01*
X56573228Y-80771667D01*
X56546870Y-80774501D01*
X55877976Y-80774501D01*
X55813827Y-80756618D01*
X55689605Y-80681523D01*
X55527195Y-80630915D01*
X55527193Y-80630914D01*
X55527191Y-80630914D01*
X55477777Y-80626424D01*
X55456615Y-80624501D01*
X54793383Y-80624501D01*
X54774144Y-80626249D01*
X54722806Y-80630914D01*
X54560392Y-80681523D01*
X54414810Y-80769531D01*
X54294529Y-80889812D01*
X54206521Y-81035394D01*
X54155912Y-81197808D01*
X54149499Y-81268387D01*
X54149499Y-81781614D01*
X54155912Y-81852193D01*
X54155912Y-81852195D01*
X54155913Y-81852197D01*
X54206521Y-82014607D01*
X54294527Y-82160186D01*
X54396661Y-82262320D01*
X54430145Y-82323641D01*
X54425161Y-82393333D01*
X54396661Y-82437681D01*
X54294530Y-82539812D01*
X54206523Y-82685392D01*
X54155914Y-82847806D01*
X54150783Y-82904274D01*
X54149501Y-82918383D01*
X54149501Y-83431615D01*
X54151424Y-83452777D01*
X54155914Y-83502191D01*
X54206523Y-83664605D01*
X54294531Y-83810187D01*
X54414812Y-83930468D01*
X54414814Y-83930469D01*
X54414816Y-83930471D01*
X54560395Y-84018477D01*
X54617585Y-84036297D01*
X54675732Y-84075035D01*
X54703706Y-84139060D01*
X54699771Y-84189275D01*
X54697402Y-84197427D01*
X54697400Y-84197439D01*
X54694499Y-84234301D01*
X54694499Y-84250503D01*
X54674814Y-84317542D01*
X54622010Y-84363297D01*
X54570499Y-84374503D01*
X52955427Y-84374503D01*
X52888388Y-84354818D01*
X52849890Y-84315602D01*
X52822970Y-84271958D01*
X52703046Y-84152034D01*
X52703042Y-84152031D01*
X52558707Y-84063003D01*
X52558701Y-84063000D01*
X52558699Y-84062999D01*
X52488091Y-84039602D01*
X52397711Y-84009653D01*
X52298348Y-83999502D01*
X51451664Y-83999502D01*
X51451646Y-83999503D01*
X51352294Y-84009652D01*
X51352291Y-84009653D01*
X51191307Y-84062998D01*
X51191296Y-84063003D01*
X51046961Y-84152031D01*
X51046957Y-84152034D01*
X50927034Y-84271957D01*
X50927031Y-84271961D01*
X50838003Y-84416296D01*
X50837998Y-84416307D01*
X50784653Y-84577292D01*
X50774502Y-84676649D01*
X50774502Y-85223339D01*
X50774503Y-85223357D01*
X50784652Y-85322709D01*
X50784653Y-85322712D01*
X50837998Y-85483696D01*
X50838003Y-85483707D01*
X50927031Y-85628042D01*
X50927034Y-85628046D01*
X51046957Y-85747969D01*
X51046961Y-85747972D01*
X51191296Y-85837000D01*
X51191299Y-85837001D01*
X51191305Y-85837005D01*
X51352294Y-85890351D01*
X51451657Y-85900502D01*
X52298346Y-85900501D01*
X52298354Y-85900500D01*
X52298357Y-85900500D01*
X52352762Y-85894942D01*
X52397710Y-85890351D01*
X52423526Y-85881796D01*
X52462528Y-85875503D01*
X53199093Y-85875503D01*
X53266132Y-85895188D01*
X53311887Y-85947992D01*
X53321831Y-86017150D01*
X53292806Y-86080706D01*
X53286774Y-86087184D01*
X53276884Y-86097073D01*
X53276881Y-86097078D01*
X53215758Y-86217035D01*
X53199998Y-86316545D01*
X53199998Y-86325002D01*
X54549997Y-86325002D01*
X54554937Y-86320061D01*
X54569682Y-86269848D01*
X54622486Y-86224093D01*
X54691644Y-86214149D01*
X54755200Y-86243174D01*
X54780729Y-86273766D01*
X54826915Y-86351864D01*
X54826917Y-86351867D01*
X54826922Y-86351873D01*
X54943126Y-86468077D01*
X54943129Y-86468079D01*
X54943134Y-86468084D01*
X54958855Y-86477381D01*
X54992582Y-86497327D01*
X55017142Y-86516378D01*
X55133348Y-86632584D01*
X55133354Y-86632589D01*
X55183584Y-86682819D01*
X55217069Y-86744142D01*
X55212085Y-86813834D01*
X55170213Y-86869767D01*
X55104749Y-86894184D01*
X55095903Y-86894500D01*
X54670858Y-86894500D01*
X54603819Y-86874815D01*
X54583177Y-86858181D01*
X54549998Y-86825002D01*
X53199999Y-86825002D01*
X53166820Y-86858181D01*
X53105497Y-86891666D01*
X53079139Y-86894500D01*
X49924000Y-86894500D01*
X49923991Y-86894500D01*
X49923990Y-86894501D01*
X49816549Y-86906052D01*
X49816537Y-86906054D01*
X49765027Y-86917260D01*
X49662502Y-86951383D01*
X49662496Y-86951386D01*
X49541462Y-87029171D01*
X49541451Y-87029179D01*
X49488659Y-87074923D01*
X49394433Y-87183664D01*
X49394430Y-87183668D01*
X49334664Y-87314534D01*
X49314976Y-87381582D01*
X49294500Y-87524001D01*
X49294500Y-93748640D01*
X49297397Y-93802688D01*
X49297397Y-93802689D01*
X49300229Y-93829022D01*
X49300232Y-93829049D01*
X49308885Y-93882445D01*
X49308885Y-93882447D01*
X49349383Y-93991023D01*
X49359168Y-94017257D01*
X49392653Y-94078580D01*
X49478877Y-94193761D01*
X49478881Y-94193765D01*
X49478886Y-94193771D01*
X50882561Y-95597445D01*
X52206239Y-96921123D01*
X52206255Y-96921137D01*
X52206262Y-96921144D01*
X52246480Y-96957271D01*
X52246492Y-96957281D01*
X52246500Y-96957288D01*
X52267142Y-96973922D01*
X52311026Y-97005567D01*
X52441903Y-97065338D01*
X52508942Y-97085023D01*
X52508946Y-97085024D01*
X52651362Y-97105500D01*
X52651365Y-97105500D01*
X63548640Y-97105500D01*
X63558786Y-97104955D01*
X63602678Y-97102603D01*
X63602686Y-97102602D01*
X63602688Y-97102602D01*
X63602689Y-97102602D01*
X63609682Y-97101849D01*
X63629036Y-97099769D01*
X63629046Y-97099767D01*
X63629049Y-97099767D01*
X63638648Y-97098211D01*
X63682448Y-97091114D01*
X63817257Y-97040832D01*
X63878580Y-97007347D01*
X63993761Y-96921123D01*
X64321123Y-96593761D01*
X64357288Y-96553500D01*
X64373922Y-96532858D01*
X64405567Y-96488974D01*
X64465338Y-96358097D01*
X64485023Y-96291058D01*
X64485024Y-96291054D01*
X64505500Y-96148638D01*
X64505500Y-96128763D01*
X64525185Y-96061724D01*
X64577989Y-96015969D01*
X64647147Y-96006025D01*
X64702384Y-96028445D01*
X64754988Y-96066664D01*
X64823207Y-96116229D01*
X64823209Y-96116230D01*
X64823212Y-96116232D01*
X64977555Y-96194873D01*
X65142299Y-96248402D01*
X65313389Y-96275500D01*
X65313390Y-96275500D01*
X65486610Y-96275500D01*
X65486611Y-96275500D01*
X65657701Y-96248402D01*
X65822445Y-96194873D01*
X65976788Y-96116232D01*
X66116928Y-96014414D01*
X66239414Y-95891928D01*
X66299682Y-95808975D01*
X66355012Y-95766311D01*
X66424626Y-95760332D01*
X66486421Y-95792938D01*
X66500315Y-95808973D01*
X66560586Y-95891928D01*
X66683072Y-96014414D01*
X66823212Y-96116232D01*
X66977555Y-96194873D01*
X67142299Y-96248402D01*
X67313389Y-96275500D01*
X67313390Y-96275500D01*
X67486610Y-96275500D01*
X67486611Y-96275500D01*
X67657701Y-96248402D01*
X67822445Y-96194873D01*
X67976788Y-96116232D01*
X68116928Y-96014414D01*
X68239414Y-95891928D01*
X68299682Y-95808975D01*
X68355012Y-95766311D01*
X68424626Y-95760332D01*
X68486421Y-95792938D01*
X68500315Y-95808973D01*
X68560586Y-95891928D01*
X68683072Y-96014414D01*
X68823212Y-96116232D01*
X68977555Y-96194873D01*
X69142299Y-96248402D01*
X69313389Y-96275500D01*
X69313390Y-96275500D01*
X69486610Y-96275500D01*
X69486611Y-96275500D01*
X69657701Y-96248402D01*
X69822445Y-96194873D01*
X69976788Y-96116232D01*
X70116928Y-96014414D01*
X70239414Y-95891928D01*
X70299682Y-95808975D01*
X70355012Y-95766311D01*
X70424626Y-95760332D01*
X70486421Y-95792938D01*
X70500315Y-95808973D01*
X70560586Y-95891928D01*
X70683072Y-96014414D01*
X70823212Y-96116232D01*
X70977555Y-96194873D01*
X71142299Y-96248402D01*
X71313389Y-96275500D01*
X71313390Y-96275500D01*
X71486610Y-96275500D01*
X71486611Y-96275500D01*
X71657701Y-96248402D01*
X71822445Y-96194873D01*
X71976788Y-96116232D01*
X72116928Y-96014414D01*
X72239414Y-95891928D01*
X72299682Y-95808975D01*
X72355012Y-95766311D01*
X72424626Y-95760332D01*
X72486421Y-95792938D01*
X72500315Y-95808973D01*
X72560586Y-95891928D01*
X72683072Y-96014414D01*
X72823212Y-96116232D01*
X72977555Y-96194873D01*
X73142299Y-96248402D01*
X73313389Y-96275500D01*
X73313390Y-96275500D01*
X73486610Y-96275500D01*
X73486611Y-96275500D01*
X73657701Y-96248402D01*
X73822445Y-96194873D01*
X73976788Y-96116232D01*
X74116928Y-96014414D01*
X74239414Y-95891928D01*
X74299682Y-95808975D01*
X74355012Y-95766311D01*
X74424626Y-95760332D01*
X74486421Y-95792938D01*
X74500315Y-95808973D01*
X74560586Y-95891928D01*
X74683072Y-96014414D01*
X74823212Y-96116232D01*
X74977555Y-96194873D01*
X75142299Y-96248402D01*
X75313389Y-96275500D01*
X75313390Y-96275500D01*
X75486610Y-96275500D01*
X75486611Y-96275500D01*
X75657701Y-96248402D01*
X75822445Y-96194873D01*
X75976788Y-96116232D01*
X76116928Y-96014414D01*
X76239414Y-95891928D01*
X76341232Y-95751788D01*
X76419873Y-95597445D01*
X76443136Y-95525846D01*
X76482574Y-95468172D01*
X76546932Y-95440974D01*
X76615778Y-95452889D01*
X76667254Y-95500133D01*
X76675628Y-95516713D01*
X76691047Y-95553938D01*
X76691052Y-95553948D01*
X76778598Y-95684969D01*
X76778601Y-95684973D01*
X76890026Y-95796398D01*
X76890034Y-95796404D01*
X77021047Y-95883944D01*
X77021065Y-95883954D01*
X77149999Y-95937360D01*
X77150000Y-95937360D01*
X77150000Y-95180330D01*
X77169745Y-95200075D01*
X77255255Y-95249444D01*
X77350630Y-95275000D01*
X77449370Y-95275000D01*
X77544745Y-95249444D01*
X77630255Y-95200075D01*
X77650000Y-95180330D01*
X77650000Y-95937360D01*
X77778934Y-95883954D01*
X77778952Y-95883944D01*
X77909965Y-95796404D01*
X77909973Y-95796398D01*
X78021398Y-95684973D01*
X78021401Y-95684969D01*
X78108947Y-95553948D01*
X78108952Y-95553939D01*
X78169256Y-95408351D01*
X78169258Y-95408343D01*
X78199999Y-95253797D01*
X78200000Y-95253794D01*
X78200000Y-95150000D01*
X77680330Y-95150000D01*
X77700075Y-95130255D01*
X77749444Y-95044745D01*
X77775000Y-94949370D01*
X77775000Y-94850630D01*
X77749444Y-94755255D01*
X77700075Y-94669745D01*
X77680330Y-94650000D01*
X78200000Y-94650000D01*
X78200000Y-94546206D01*
X78199999Y-94546202D01*
X78169258Y-94391656D01*
X78169256Y-94391648D01*
X78108952Y-94246060D01*
X78108947Y-94246051D01*
X78021401Y-94115030D01*
X78021398Y-94115026D01*
X77909973Y-94003601D01*
X77909969Y-94003598D01*
X77778948Y-93916052D01*
X77778938Y-93916047D01*
X77650000Y-93862639D01*
X77650000Y-94619670D01*
X77630255Y-94599925D01*
X77544745Y-94550556D01*
X77449370Y-94525000D01*
X77350630Y-94525000D01*
X77255255Y-94550556D01*
X77169745Y-94599925D01*
X77150000Y-94619670D01*
X77150000Y-93862639D01*
X77149999Y-93862639D01*
X77021061Y-93916047D01*
X77021051Y-93916052D01*
X76890030Y-94003598D01*
X76890026Y-94003601D01*
X76778601Y-94115026D01*
X76778598Y-94115030D01*
X76691052Y-94246051D01*
X76691049Y-94246058D01*
X76675628Y-94283287D01*
X76631786Y-94337690D01*
X76565492Y-94359754D01*
X76497793Y-94342474D01*
X76450183Y-94291337D01*
X76443136Y-94274152D01*
X76419873Y-94202555D01*
X76341232Y-94048212D01*
X76239414Y-93908072D01*
X76177968Y-93846626D01*
X76144484Y-93785302D01*
X76149469Y-93715611D01*
X76177964Y-93671269D01*
X76337417Y-93511816D01*
X76398740Y-93478334D01*
X76425097Y-93475500D01*
X76668025Y-93475500D01*
X76668041Y-93475501D01*
X76675637Y-93475501D01*
X76833748Y-93475501D01*
X76833751Y-93475501D01*
X76986479Y-93434577D01*
X77036598Y-93405639D01*
X77123410Y-93355520D01*
X77235214Y-93243716D01*
X77235214Y-93243714D01*
X77245422Y-93233507D01*
X77245422Y-93233505D01*
X77367109Y-93111820D01*
X77428433Y-93078336D01*
X77454790Y-93075502D01*
X77786305Y-93075502D01*
X77786308Y-93075502D01*
X77856888Y-93069088D01*
X78019298Y-93018480D01*
X78164877Y-92930474D01*
X78285164Y-92810187D01*
X78373170Y-92664608D01*
X78398366Y-92583747D01*
X78437102Y-92525602D01*
X78501127Y-92497627D01*
X78570113Y-92508708D01*
X78622156Y-92555326D01*
X78627236Y-92564344D01*
X78652050Y-92613043D01*
X78652053Y-92613048D01*
X78741639Y-92702634D01*
X78741648Y-92702641D01*
X78854534Y-92760160D01*
X78854540Y-92760162D01*
X78929690Y-92772063D01*
X78929690Y-92349998D01*
X79429690Y-92349998D01*
X79429690Y-92772062D01*
X79504839Y-92760162D01*
X79504845Y-92760160D01*
X79617731Y-92702641D01*
X79617740Y-92702634D01*
X79707326Y-92613048D01*
X79707329Y-92613044D01*
X79764856Y-92500142D01*
X79779690Y-92406484D01*
X79779690Y-92349998D01*
X79429690Y-92349998D01*
X78929690Y-92349998D01*
X78929690Y-91427930D01*
X79429690Y-91427930D01*
X79429690Y-91849998D01*
X79779689Y-91849998D01*
X79779689Y-91793518D01*
X79764854Y-91699848D01*
X79764852Y-91699842D01*
X79707333Y-91586956D01*
X79707326Y-91586947D01*
X79617740Y-91497361D01*
X79617736Y-91497358D01*
X79504834Y-91439831D01*
X79429690Y-91427930D01*
X78929690Y-91427930D01*
X78929690Y-91427929D01*
X78854545Y-91439832D01*
X78741643Y-91497358D01*
X78741639Y-91497361D01*
X78652053Y-91586947D01*
X78652049Y-91586952D01*
X78627233Y-91635656D01*
X78579258Y-91686451D01*
X78511436Y-91703245D01*
X78445302Y-91680706D01*
X78401851Y-91625991D01*
X78398370Y-91616269D01*
X78373170Y-91535396D01*
X78285164Y-91389817D01*
X78285163Y-91389816D01*
X78283074Y-91386360D01*
X78265191Y-91322210D01*
X78265191Y-91307592D01*
X78284876Y-91240553D01*
X78337680Y-91194798D01*
X78406838Y-91184854D01*
X78443652Y-91196192D01*
X78533443Y-91240088D01*
X78534690Y-91240269D01*
X78534690Y-90325000D01*
X79034690Y-90325000D01*
X79034690Y-91240269D01*
X79035934Y-91240089D01*
X79140881Y-91188784D01*
X79223477Y-91106188D01*
X79274777Y-91001251D01*
X79274778Y-91001248D01*
X79284690Y-90933219D01*
X79284690Y-90325000D01*
X79034690Y-90325000D01*
X78534690Y-90325000D01*
X78534690Y-88909730D01*
X78534689Y-88909729D01*
X79034690Y-88909729D01*
X79034690Y-89825000D01*
X79284689Y-89825000D01*
X79284689Y-89216782D01*
X79274777Y-89148750D01*
X79223474Y-89043808D01*
X79140878Y-88961212D01*
X79035939Y-88909911D01*
X79035940Y-88909911D01*
X79034690Y-88909729D01*
X78534689Y-88909729D01*
X78533440Y-88909911D01*
X78428501Y-88961212D01*
X78420137Y-88967185D01*
X78419264Y-88965963D01*
X78367818Y-88994050D01*
X78298127Y-88989060D01*
X78242196Y-88947185D01*
X78234737Y-88936003D01*
X78182774Y-88848138D01*
X78182767Y-88848129D01*
X78066561Y-88731923D01*
X78066553Y-88731917D01*
X77925087Y-88648255D01*
X77925084Y-88648254D01*
X77767264Y-88602402D01*
X77767258Y-88602401D01*
X77730392Y-88599500D01*
X77730385Y-88599500D01*
X77298997Y-88599500D01*
X77298989Y-88599500D01*
X77262123Y-88602401D01*
X77262117Y-88602402D01*
X77104297Y-88648254D01*
X77104294Y-88648255D01*
X76962828Y-88731917D01*
X76956660Y-88736702D01*
X76954763Y-88734256D01*
X76906049Y-88760857D01*
X76836357Y-88755873D01*
X76803987Y-88735069D01*
X76802722Y-88736702D01*
X76796553Y-88731917D01*
X76655087Y-88648255D01*
X76655084Y-88648254D01*
X76497264Y-88602402D01*
X76497258Y-88602401D01*
X76460392Y-88599500D01*
X76460385Y-88599500D01*
X76207774Y-88599500D01*
X76140735Y-88579815D01*
X76094980Y-88527011D01*
X76091592Y-88518834D01*
X76040833Y-88382747D01*
X76040832Y-88382743D01*
X76007347Y-88321420D01*
X75921123Y-88206239D01*
X75921118Y-88206234D01*
X75921113Y-88206228D01*
X75101135Y-87386251D01*
X75067650Y-87324928D01*
X75072634Y-87255237D01*
X75114506Y-87199303D01*
X75179970Y-87174886D01*
X75229771Y-87181529D01*
X75240737Y-87185366D01*
X75240743Y-87185367D01*
X75240745Y-87185368D01*
X75240746Y-87185368D01*
X75240750Y-87185369D01*
X75419996Y-87205565D01*
X75420000Y-87205565D01*
X75420004Y-87205565D01*
X75599249Y-87185369D01*
X75599252Y-87185368D01*
X75599255Y-87185368D01*
X75769522Y-87125789D01*
X75922262Y-87029816D01*
X76049816Y-86902262D01*
X76145789Y-86749522D01*
X76168875Y-86683546D01*
X76209597Y-86626770D01*
X76274549Y-86601022D01*
X76285917Y-86600500D01*
X76460377Y-86600500D01*
X76460385Y-86600500D01*
X76497260Y-86597598D01*
X76497262Y-86597597D01*
X76497264Y-86597597D01*
X76560396Y-86579255D01*
X76655089Y-86551744D01*
X76796556Y-86468081D01*
X76796561Y-86468075D01*
X76802722Y-86463298D01*
X76804624Y-86465750D01*
X76853270Y-86439155D01*
X76922965Y-86444104D01*
X76955386Y-86464940D01*
X76956660Y-86463298D01*
X76962822Y-86468077D01*
X76962826Y-86468081D01*
X77104293Y-86551744D01*
X77110520Y-86553553D01*
X77262117Y-86597597D01*
X77262120Y-86597597D01*
X77262122Y-86597598D01*
X77298997Y-86600500D01*
X77299005Y-86600500D01*
X77730377Y-86600500D01*
X77730385Y-86600500D01*
X77767260Y-86597598D01*
X77767262Y-86597597D01*
X77767264Y-86597597D01*
X77830396Y-86579255D01*
X77925089Y-86551744D01*
X78066556Y-86468081D01*
X78066561Y-86468075D01*
X78072722Y-86463298D01*
X78074624Y-86465750D01*
X78123270Y-86439155D01*
X78192965Y-86444104D01*
X78225386Y-86464940D01*
X78226660Y-86463298D01*
X78232822Y-86468077D01*
X78232826Y-86468081D01*
X78374293Y-86551744D01*
X78380520Y-86553553D01*
X78532117Y-86597597D01*
X78532120Y-86597597D01*
X78532122Y-86597598D01*
X78568997Y-86600500D01*
X78569005Y-86600500D01*
X79000377Y-86600500D01*
X79000385Y-86600500D01*
X79037260Y-86597598D01*
X79037262Y-86597597D01*
X79037264Y-86597597D01*
X79100396Y-86579255D01*
X79195089Y-86551744D01*
X79336556Y-86468081D01*
X79452772Y-86351865D01*
X79536435Y-86210398D01*
X79578394Y-86065976D01*
X79582288Y-86052573D01*
X79582289Y-86052567D01*
X79585190Y-86015701D01*
X79585191Y-86015694D01*
X79585191Y-85437230D01*
X79604876Y-85370191D01*
X79621510Y-85349549D01*
X79937639Y-85033420D01*
X79937643Y-85033416D01*
X79999336Y-84941084D01*
X80019775Y-84910495D01*
X80051975Y-84832758D01*
X80076350Y-84773912D01*
X80102095Y-84644480D01*
X80104004Y-84634888D01*
X80105191Y-84628919D01*
X80105191Y-83580967D01*
X80122459Y-83517846D01*
X80131715Y-83502195D01*
X80156435Y-83460396D01*
X80202289Y-83302567D01*
X80205191Y-83265692D01*
X80205191Y-82834304D01*
X80202289Y-82797429D01*
X80156435Y-82639600D01*
X80072772Y-82498133D01*
X80072770Y-82498131D01*
X80072767Y-82498127D01*
X80012321Y-82437681D01*
X79978836Y-82376358D01*
X79983820Y-82306666D01*
X80012321Y-82262319D01*
X80072767Y-82201872D01*
X80072772Y-82201867D01*
X80156435Y-82060400D01*
X80190196Y-81944193D01*
X80202288Y-81902575D01*
X80202289Y-81902569D01*
X80205190Y-81865703D01*
X80205191Y-81865696D01*
X80205191Y-81434308D01*
X80202289Y-81397433D01*
X80197007Y-81379254D01*
X80157319Y-81242646D01*
X80156435Y-81239604D01*
X80072772Y-81098137D01*
X80072770Y-81098135D01*
X80072767Y-81098131D01*
X79956561Y-80981925D01*
X79956553Y-80981919D01*
X79878372Y-80935683D01*
X79815089Y-80898258D01*
X79815088Y-80898257D01*
X79815087Y-80898257D01*
X79815084Y-80898256D01*
X79657264Y-80852404D01*
X79657258Y-80852403D01*
X79620392Y-80849502D01*
X79620385Y-80849502D01*
X79584706Y-80849502D01*
X79537253Y-80840063D01*
X79487090Y-80819285D01*
X79448603Y-80803343D01*
X79448597Y-80803341D01*
X79303610Y-80774501D01*
X79303608Y-80774501D01*
X78607667Y-80774501D01*
X78543518Y-80756618D01*
X78419296Y-80681523D01*
X78256886Y-80630915D01*
X78256884Y-80630914D01*
X78256882Y-80630914D01*
X78207468Y-80626424D01*
X78186306Y-80624501D01*
X78186303Y-80624501D01*
X77907820Y-80624501D01*
X77840781Y-80604816D01*
X77820139Y-80588182D01*
X77549138Y-80317181D01*
X77515653Y-80255858D01*
X77520637Y-80186166D01*
X77562509Y-80130233D01*
X77627973Y-80105816D01*
X77636819Y-80105500D01*
X80575990Y-80105500D01*
X80576000Y-80105500D01*
X80683456Y-80093947D01*
X80734967Y-80082741D01*
X80769197Y-80071347D01*
X80837497Y-80048616D01*
X80837501Y-80048613D01*
X80837504Y-80048613D01*
X80958543Y-79970825D01*
X81011347Y-79925070D01*
X81105567Y-79816336D01*
X81165338Y-79685459D01*
X81185023Y-79618420D01*
X81185024Y-79618416D01*
X81205500Y-79476000D01*
X81205500Y-74724000D01*
X81193947Y-74616544D01*
X81182741Y-74565033D01*
X81182637Y-74564722D01*
X81148616Y-74462502D01*
X81148613Y-74462496D01*
X81070828Y-74341462D01*
X81070825Y-74341457D01*
X81070820Y-74341451D01*
X81025076Y-74288659D01*
X81025072Y-74288656D01*
X81025070Y-74288653D01*
X80916336Y-74194433D01*
X80916333Y-74194431D01*
X80916331Y-74194430D01*
X80785465Y-74134664D01*
X80785460Y-74134662D01*
X80785459Y-74134662D01*
X80718420Y-74114977D01*
X80718422Y-74114977D01*
X80718417Y-74114976D01*
X80670944Y-74108150D01*
X80576000Y-74094500D01*
X80575998Y-74094500D01*
X80127823Y-74094500D01*
X80060784Y-74074815D01*
X80015029Y-74022011D01*
X80005085Y-73952853D01*
X80015029Y-73918988D01*
X80030338Y-73885465D01*
X80030341Y-73885459D01*
X80050026Y-73818420D01*
X80050027Y-73818416D01*
X80070503Y-73676000D01*
X80070503Y-69898037D01*
X80070446Y-69890418D01*
X80070390Y-69886703D01*
X80070220Y-69879180D01*
X80045487Y-69737441D01*
X80025155Y-69675163D01*
X80024545Y-69673042D01*
X80023801Y-69671015D01*
X79960140Y-69541996D01*
X79960137Y-69541989D01*
X79960129Y-69541981D01*
X79957853Y-69538661D01*
X79956596Y-69534814D01*
X79956213Y-69534036D01*
X79956324Y-69533980D01*
X79936166Y-69472242D01*
X79937993Y-69446997D01*
X79985262Y-69178925D01*
X80005585Y-68829998D01*
X80005002Y-68819994D01*
X79997259Y-68687050D01*
X79985262Y-68481071D01*
X79937531Y-68210376D01*
X79945275Y-68140940D01*
X79965937Y-68107640D01*
X79970570Y-68102295D01*
X80030341Y-67971418D01*
X80050026Y-67904379D01*
X80050027Y-67904375D01*
X80070503Y-67761959D01*
X80070503Y-63404425D01*
X80070182Y-63386414D01*
X80069867Y-63377579D01*
X80068903Y-63359575D01*
X79877444Y-60679150D01*
X79863031Y-60590167D01*
X79862404Y-60587712D01*
X79852143Y-60547504D01*
X79852140Y-60547491D01*
X79822157Y-60462496D01*
X79808372Y-60441047D01*
X79744372Y-60341462D01*
X79744369Y-60341457D01*
X79734257Y-60329787D01*
X79698620Y-60288659D01*
X79698616Y-60288656D01*
X79698614Y-60288653D01*
X79589880Y-60194433D01*
X79589877Y-60194431D01*
X79589875Y-60194430D01*
X79459007Y-60134663D01*
X79440873Y-60129338D01*
X79382096Y-60091560D01*
X79353074Y-60028003D01*
X79363021Y-59958845D01*
X79372711Y-59941471D01*
X79398396Y-59903030D01*
X79398397Y-59903029D01*
X79409999Y-59844698D01*
X79410000Y-59844695D01*
X79410000Y-59439996D01*
X78400000Y-59439996D01*
X78400000Y-59844698D01*
X78411602Y-59903029D01*
X78444059Y-59951604D01*
X78464936Y-60018281D01*
X78446451Y-60085661D01*
X78394472Y-60132351D01*
X78340956Y-60144494D01*
X78199041Y-60144494D01*
X78132002Y-60124809D01*
X78086247Y-60072005D01*
X78076303Y-60002847D01*
X78095939Y-59951603D01*
X78128396Y-59903026D01*
X78128397Y-59903025D01*
X78139999Y-59844694D01*
X78140000Y-59844691D01*
X78140000Y-59439992D01*
X77130000Y-59439992D01*
X77130000Y-59844694D01*
X77141602Y-59903025D01*
X77141603Y-59903026D01*
X77174061Y-59951603D01*
X77194939Y-60018281D01*
X77176454Y-60085661D01*
X77124475Y-60132351D01*
X77070959Y-60144494D01*
X76929040Y-60144494D01*
X76862001Y-60124809D01*
X76816246Y-60072005D01*
X76806302Y-60002847D01*
X76825937Y-59951604D01*
X76858394Y-59903026D01*
X76858395Y-59903026D01*
X76869997Y-59844695D01*
X76869998Y-59844692D01*
X76869998Y-59439993D01*
X76238998Y-59439993D01*
X76171959Y-59420308D01*
X76126204Y-59367504D01*
X76114998Y-59315993D01*
X76114998Y-58939996D01*
X78400000Y-58939996D01*
X78655000Y-58939996D01*
X78655000Y-58354996D01*
X79155000Y-58354996D01*
X79155000Y-58939996D01*
X79410000Y-58939996D01*
X79410000Y-58535297D01*
X79409999Y-58535293D01*
X79398397Y-58476962D01*
X79398396Y-58476961D01*
X79354191Y-58410804D01*
X79288034Y-58366599D01*
X79288033Y-58366598D01*
X79229702Y-58354996D01*
X79155000Y-58354996D01*
X78655000Y-58354996D01*
X78580297Y-58354996D01*
X78521966Y-58366598D01*
X78521965Y-58366599D01*
X78455808Y-58410804D01*
X78411603Y-58476961D01*
X78411602Y-58476962D01*
X78400000Y-58535293D01*
X78400000Y-58939996D01*
X76114998Y-58939996D01*
X76114998Y-58354993D01*
X76614998Y-58354993D01*
X76614998Y-58939993D01*
X76869998Y-58939993D01*
X76869998Y-58939992D01*
X77130000Y-58939992D01*
X77385000Y-58939992D01*
X77385000Y-58354992D01*
X77885000Y-58354992D01*
X77885000Y-58939992D01*
X78140000Y-58939992D01*
X78140000Y-58535293D01*
X78139999Y-58535289D01*
X78128397Y-58476958D01*
X78128396Y-58476957D01*
X78084191Y-58410800D01*
X78018034Y-58366595D01*
X78018033Y-58366594D01*
X77959702Y-58354992D01*
X77885000Y-58354992D01*
X77385000Y-58354992D01*
X77310297Y-58354992D01*
X77251966Y-58366594D01*
X77251965Y-58366595D01*
X77185808Y-58410800D01*
X77141603Y-58476957D01*
X77141602Y-58476958D01*
X77130000Y-58535289D01*
X77130000Y-58939992D01*
X76869998Y-58939992D01*
X76869998Y-58535294D01*
X76869997Y-58535290D01*
X76858395Y-58476959D01*
X76858394Y-58476958D01*
X76814189Y-58410801D01*
X76748032Y-58366596D01*
X76748031Y-58366595D01*
X76689700Y-58354993D01*
X76614998Y-58354993D01*
X76114998Y-58354993D01*
X76040300Y-58354993D01*
X75973255Y-58368328D01*
X75903664Y-58362099D01*
X75849137Y-58319740D01*
X75849112Y-58319760D01*
X75849041Y-58319665D01*
X75848487Y-58319235D01*
X75847256Y-58317281D01*
X75757547Y-58197446D01*
X75757544Y-58197443D01*
X75642335Y-58111197D01*
X75642328Y-58111193D01*
X75507486Y-58060901D01*
X75507485Y-58060900D01*
X75507483Y-58060900D01*
X75447873Y-58054491D01*
X75447863Y-58054491D01*
X74742129Y-58054491D01*
X74742123Y-58054492D01*
X74682516Y-58060899D01*
X74547671Y-58111193D01*
X74547664Y-58111197D01*
X74432455Y-58197443D01*
X74432452Y-58197446D01*
X74346206Y-58312655D01*
X74346200Y-58312666D01*
X74338620Y-58332990D01*
X74296749Y-58388924D01*
X74236323Y-58412876D01*
X74220750Y-58414630D01*
X74050478Y-58474210D01*
X73897737Y-58570184D01*
X73770184Y-58697737D01*
X73674209Y-58850480D01*
X73651041Y-58916691D01*
X73610320Y-58973467D01*
X73545367Y-58999214D01*
X73476805Y-58985758D01*
X73426403Y-58937370D01*
X73410000Y-58875736D01*
X73410000Y-58505301D01*
X73409999Y-58505297D01*
X73398397Y-58446966D01*
X73398396Y-58446965D01*
X73354191Y-58380808D01*
X73288034Y-58336603D01*
X73288033Y-58336602D01*
X73229702Y-58325000D01*
X73155000Y-58325000D01*
X73155000Y-59286000D01*
X73135315Y-59353039D01*
X73082511Y-59398794D01*
X73031000Y-59410000D01*
X72400000Y-59410000D01*
X72400000Y-59814702D01*
X72411602Y-59873033D01*
X72444059Y-59921608D01*
X72464936Y-59988285D01*
X72446451Y-60055665D01*
X72394472Y-60102355D01*
X72340956Y-60114498D01*
X72199041Y-60114498D01*
X72132002Y-60094813D01*
X72086247Y-60042009D01*
X72076303Y-59972851D01*
X72095939Y-59921607D01*
X72128396Y-59873030D01*
X72128397Y-59873029D01*
X72139999Y-59814698D01*
X72140000Y-59814695D01*
X72140000Y-59409996D01*
X71130000Y-59409996D01*
X71130000Y-59814698D01*
X71141602Y-59873029D01*
X71141603Y-59873030D01*
X71174061Y-59921607D01*
X71194939Y-59988285D01*
X71176454Y-60055665D01*
X71124475Y-60102355D01*
X71070959Y-60114498D01*
X70929040Y-60114498D01*
X70862001Y-60094813D01*
X70816246Y-60042009D01*
X70806302Y-59972851D01*
X70825937Y-59921608D01*
X70858394Y-59873030D01*
X70858395Y-59873030D01*
X70869997Y-59814699D01*
X70869998Y-59814696D01*
X70869998Y-59409997D01*
X70238998Y-59409997D01*
X70171959Y-59390312D01*
X70126204Y-59337508D01*
X70114998Y-59285997D01*
X70114998Y-58910000D01*
X72400000Y-58910000D01*
X72655000Y-58910000D01*
X72655000Y-58325000D01*
X72580297Y-58325000D01*
X72521966Y-58336602D01*
X72521965Y-58336603D01*
X72455808Y-58380808D01*
X72411603Y-58446965D01*
X72411602Y-58446966D01*
X72400000Y-58505297D01*
X72400000Y-58910000D01*
X70114998Y-58910000D01*
X70114998Y-58324997D01*
X70614998Y-58324997D01*
X70614998Y-58909997D01*
X70869998Y-58909997D01*
X70869998Y-58909996D01*
X71130000Y-58909996D01*
X71385000Y-58909996D01*
X71385000Y-58324996D01*
X71885000Y-58324996D01*
X71885000Y-58909996D01*
X72140000Y-58909996D01*
X72140000Y-58505297D01*
X72139999Y-58505293D01*
X72128397Y-58446962D01*
X72128396Y-58446961D01*
X72084191Y-58380804D01*
X72018034Y-58336599D01*
X72018033Y-58336598D01*
X71959702Y-58324996D01*
X71885000Y-58324996D01*
X71385000Y-58324996D01*
X71310297Y-58324996D01*
X71251966Y-58336598D01*
X71251965Y-58336599D01*
X71185808Y-58380804D01*
X71141603Y-58446961D01*
X71141602Y-58446962D01*
X71130000Y-58505293D01*
X71130000Y-58909996D01*
X70869998Y-58909996D01*
X70869998Y-58505298D01*
X70869997Y-58505294D01*
X70858395Y-58446963D01*
X70858394Y-58446962D01*
X70814189Y-58380805D01*
X70748032Y-58336600D01*
X70748031Y-58336599D01*
X70689700Y-58324997D01*
X70614998Y-58324997D01*
X70114998Y-58324997D01*
X70040300Y-58324997D01*
X69973255Y-58338332D01*
X69903664Y-58332103D01*
X69849137Y-58289744D01*
X69849112Y-58289764D01*
X69849041Y-58289669D01*
X69848487Y-58289239D01*
X69847256Y-58287285D01*
X69757547Y-58167450D01*
X69757544Y-58167447D01*
X69642335Y-58081201D01*
X69642328Y-58081197D01*
X69507486Y-58030905D01*
X69507485Y-58030904D01*
X69507483Y-58030904D01*
X69447873Y-58024495D01*
X69447863Y-58024495D01*
X68742129Y-58024495D01*
X68742123Y-58024496D01*
X68682516Y-58030903D01*
X68547671Y-58081197D01*
X68547664Y-58081201D01*
X68432455Y-58167447D01*
X68432452Y-58167450D01*
X68346205Y-58282660D01*
X68346204Y-58282661D01*
X68326942Y-58334306D01*
X68285070Y-58390239D01*
X68227533Y-58413048D01*
X68227541Y-58413080D01*
X68227335Y-58413126D01*
X68224654Y-58414190D01*
X68220752Y-58414629D01*
X68050478Y-58474210D01*
X67897737Y-58570184D01*
X67770184Y-58697737D01*
X67770179Y-58697743D01*
X67673990Y-58850827D01*
X67621656Y-58897118D01*
X67552602Y-58907766D01*
X67488754Y-58879391D01*
X67450382Y-58821001D01*
X67444997Y-58784855D01*
X67444997Y-58540301D01*
X67444996Y-58540297D01*
X67433394Y-58481966D01*
X67433393Y-58481965D01*
X67389188Y-58415808D01*
X67323031Y-58371603D01*
X67323030Y-58371602D01*
X67264699Y-58360000D01*
X67189997Y-58360000D01*
X67189997Y-59321000D01*
X67170312Y-59388039D01*
X67117508Y-59433794D01*
X67065997Y-59445000D01*
X66434997Y-59445000D01*
X66434997Y-59849702D01*
X66446599Y-59908033D01*
X66479056Y-59956608D01*
X66499933Y-60023285D01*
X66481448Y-60090665D01*
X66429469Y-60137355D01*
X66375953Y-60149498D01*
X66234038Y-60149498D01*
X66166999Y-60129813D01*
X66121244Y-60077009D01*
X66111300Y-60007851D01*
X66130936Y-59956607D01*
X66163393Y-59908030D01*
X66163394Y-59908029D01*
X66174996Y-59849698D01*
X66174997Y-59849695D01*
X66174997Y-59444996D01*
X65164997Y-59444996D01*
X65164997Y-59849698D01*
X65176599Y-59908029D01*
X65176600Y-59908030D01*
X65209058Y-59956607D01*
X65229936Y-60023285D01*
X65211451Y-60090665D01*
X65159472Y-60137355D01*
X65105956Y-60149498D01*
X64964037Y-60149498D01*
X64896998Y-60129813D01*
X64851243Y-60077009D01*
X64841299Y-60007851D01*
X64860934Y-59956608D01*
X64893391Y-59908030D01*
X64893392Y-59908030D01*
X64904994Y-59849699D01*
X64904995Y-59849696D01*
X64904995Y-59444997D01*
X64273995Y-59444997D01*
X64206956Y-59425312D01*
X64161201Y-59372508D01*
X64149995Y-59320997D01*
X64149995Y-58945000D01*
X66434997Y-58945000D01*
X66689997Y-58945000D01*
X66689997Y-58360000D01*
X66615294Y-58360000D01*
X66556963Y-58371602D01*
X66556962Y-58371603D01*
X66490805Y-58415808D01*
X66446600Y-58481965D01*
X66446599Y-58481966D01*
X66434997Y-58540297D01*
X66434997Y-58945000D01*
X64149995Y-58945000D01*
X64149995Y-58359997D01*
X64649995Y-58359997D01*
X64649995Y-58944997D01*
X64904995Y-58944997D01*
X64904995Y-58944996D01*
X65164997Y-58944996D01*
X65419997Y-58944996D01*
X65419997Y-58359996D01*
X65919997Y-58359996D01*
X65919997Y-58944996D01*
X66174997Y-58944996D01*
X66174997Y-58540297D01*
X66174996Y-58540293D01*
X66163394Y-58481962D01*
X66163393Y-58481961D01*
X66119188Y-58415804D01*
X66053031Y-58371599D01*
X66053030Y-58371598D01*
X65994699Y-58359996D01*
X65919997Y-58359996D01*
X65419997Y-58359996D01*
X65345294Y-58359996D01*
X65286963Y-58371598D01*
X65286962Y-58371599D01*
X65220805Y-58415804D01*
X65176600Y-58481961D01*
X65176599Y-58481962D01*
X65164997Y-58540293D01*
X65164997Y-58944996D01*
X64904995Y-58944996D01*
X64904995Y-58540298D01*
X64904994Y-58540294D01*
X64893392Y-58481963D01*
X64893391Y-58481962D01*
X64849186Y-58415805D01*
X64783029Y-58371600D01*
X64783028Y-58371599D01*
X64724697Y-58359997D01*
X64649995Y-58359997D01*
X64149995Y-58359997D01*
X64075297Y-58359997D01*
X64008252Y-58373332D01*
X63938661Y-58367103D01*
X63884134Y-58324744D01*
X63884109Y-58324764D01*
X63884038Y-58324669D01*
X63883484Y-58324239D01*
X63882253Y-58322285D01*
X63792544Y-58202450D01*
X63792541Y-58202447D01*
X63677332Y-58116201D01*
X63677325Y-58116197D01*
X63542483Y-58065905D01*
X63542482Y-58065904D01*
X63542480Y-58065904D01*
X63482870Y-58059495D01*
X63482860Y-58059495D01*
X62777126Y-58059495D01*
X62777120Y-58059496D01*
X62717513Y-58065903D01*
X62582668Y-58116197D01*
X62582661Y-58116201D01*
X62467453Y-58202447D01*
X62467452Y-58202448D01*
X62467451Y-58202449D01*
X62407402Y-58282664D01*
X62381199Y-58317667D01*
X62381199Y-58317668D01*
X62378829Y-58324022D01*
X62336956Y-58379954D01*
X62276534Y-58403904D01*
X62225755Y-58409625D01*
X62055483Y-58469205D01*
X61902742Y-58565179D01*
X61775189Y-58692732D01*
X61679216Y-58845471D01*
X61619636Y-59015740D01*
X61619635Y-59015745D01*
X61599440Y-59194991D01*
X61599440Y-59194998D01*
X61619635Y-59374244D01*
X61619636Y-59374249D01*
X61679216Y-59544518D01*
X61723594Y-59615144D01*
X61775189Y-59697257D01*
X61902743Y-59824811D01*
X61979483Y-59873030D01*
X62035183Y-59908029D01*
X62055483Y-59920784D01*
X62157862Y-59956608D01*
X62225750Y-59980363D01*
X62225754Y-59980364D01*
X62276532Y-59986085D01*
X62340946Y-60013151D01*
X62378829Y-60065967D01*
X62381201Y-60072327D01*
X62381202Y-60072329D01*
X62467448Y-60187538D01*
X62467449Y-60187539D01*
X62467451Y-60187541D01*
X62489656Y-60204164D01*
X62531526Y-60260096D01*
X62536510Y-60329787D01*
X62503025Y-60391110D01*
X62489656Y-60402695D01*
X62460879Y-60424237D01*
X62460864Y-60424250D01*
X62279850Y-60605264D01*
X62279838Y-60605277D01*
X62240709Y-60649253D01*
X62240708Y-60649254D01*
X62222832Y-60671869D01*
X62189078Y-60720103D01*
X62131789Y-60852081D01*
X62131785Y-60852091D01*
X62113813Y-60917861D01*
X62113388Y-60919337D01*
X62095584Y-61062259D01*
X62150888Y-63993362D01*
X62151133Y-64002253D01*
X62151285Y-64006437D01*
X62151679Y-64015196D01*
X62179750Y-64156302D01*
X62179752Y-64156309D01*
X62202996Y-64222192D01*
X62202999Y-64222201D01*
X62203001Y-64222205D01*
X62269695Y-64349695D01*
X62269696Y-64349697D01*
X62287074Y-64367705D01*
X62319462Y-64429615D01*
X62320584Y-64471449D01*
X62319499Y-64478994D01*
X62319499Y-64908740D01*
X62299814Y-64975779D01*
X62290735Y-64988149D01*
X62270073Y-65012925D01*
X62270072Y-65012926D01*
X62270071Y-65012928D01*
X62270071Y-65012929D01*
X62212780Y-65144911D01*
X62194366Y-65212300D01*
X62193479Y-65218915D01*
X62193416Y-65219935D01*
X62176581Y-65355076D01*
X62197687Y-66473708D01*
X62221736Y-67748379D01*
X62211860Y-67798617D01*
X62211906Y-67798634D01*
X62211800Y-67798924D01*
X62211626Y-67799811D01*
X62210674Y-67802017D01*
X62210673Y-67802020D01*
X62110427Y-68136863D01*
X62110425Y-68136870D01*
X62049736Y-68481059D01*
X62049735Y-68481070D01*
X62029412Y-68829994D01*
X62029412Y-68830001D01*
X62049735Y-69178925D01*
X62049736Y-69178936D01*
X62110425Y-69523125D01*
X62110427Y-69523132D01*
X62210671Y-69857971D01*
X62254208Y-69958900D01*
X62264327Y-70005674D01*
X62286963Y-71205358D01*
X62292790Y-71514206D01*
X62293492Y-71551374D01*
X62293493Y-71551402D01*
X62300851Y-71628303D01*
X62300852Y-71628311D01*
X62307316Y-71665550D01*
X62326305Y-71740425D01*
X62391162Y-71868851D01*
X62430427Y-71924977D01*
X62431080Y-71925934D01*
X62431215Y-71926104D01*
X62484366Y-71982786D01*
X62515863Y-72045153D01*
X62508641Y-72114649D01*
X62473107Y-72160563D01*
X62473722Y-72161178D01*
X62468896Y-72166003D01*
X62468229Y-72166866D01*
X62467453Y-72167446D01*
X62467449Y-72167450D01*
X62381203Y-72282659D01*
X62381199Y-72282666D01*
X62330905Y-72417512D01*
X62324498Y-72477111D01*
X62324497Y-72477130D01*
X62324497Y-73195388D01*
X62322115Y-73219578D01*
X62310331Y-73278824D01*
X62310331Y-73558250D01*
X62291325Y-73624222D01*
X62222540Y-73733693D01*
X62162964Y-73903949D01*
X62162961Y-73903962D01*
X62153901Y-73984383D01*
X62126835Y-74048797D01*
X62069240Y-74088352D01*
X62030681Y-74094500D01*
X61660746Y-74094500D01*
X61593707Y-74074815D01*
X61573065Y-74058181D01*
X61259152Y-73744267D01*
X61259123Y-73744239D01*
X61246133Y-73731704D01*
X61242000Y-73727856D01*
X61239646Y-73725664D01*
X61226240Y-73713623D01*
X61226231Y-73713615D01*
X61122113Y-73646702D01*
X61076358Y-73593898D01*
X61071447Y-73581391D01*
X61058099Y-73541112D01*
X61024815Y-73440666D01*
X60932713Y-73291344D01*
X60808657Y-73167288D01*
X60659335Y-73075186D01*
X60659333Y-73075185D01*
X60659331Y-73075184D01*
X60659332Y-73075184D01*
X60583635Y-73050100D01*
X60534960Y-73020076D01*
X59476318Y-71961434D01*
X59442833Y-71900111D01*
X59439999Y-71873753D01*
X59439999Y-71385000D01*
X59939999Y-71385000D01*
X59939999Y-71909999D01*
X60394195Y-71909999D01*
X60424605Y-71907148D01*
X60552644Y-71862346D01*
X60661791Y-71781792D01*
X60742345Y-71672645D01*
X60787148Y-71544604D01*
X60787148Y-71544600D01*
X60789999Y-71514206D01*
X60789999Y-71385000D01*
X59939999Y-71385000D01*
X59439999Y-71385000D01*
X59439999Y-71009000D01*
X59459684Y-70941961D01*
X59512488Y-70896206D01*
X59563999Y-70885000D01*
X60789998Y-70885000D01*
X60789998Y-70755803D01*
X60787147Y-70725393D01*
X60742345Y-70597354D01*
X60661791Y-70488207D01*
X60617387Y-70455436D01*
X60575137Y-70399788D01*
X60569678Y-70330132D01*
X60602746Y-70268583D01*
X60603572Y-70267844D01*
X60603549Y-70267821D01*
X60659270Y-70212100D01*
X60732712Y-70138658D01*
X60824814Y-69989336D01*
X60879999Y-69822799D01*
X60890500Y-69720011D01*
X60890499Y-68819994D01*
X60879999Y-68717205D01*
X60824814Y-68550668D01*
X60732712Y-68401346D01*
X60608656Y-68277290D01*
X60459334Y-68185188D01*
X60292797Y-68130003D01*
X60292795Y-68130002D01*
X60190010Y-68119502D01*
X59189998Y-68119502D01*
X59189980Y-68119503D01*
X59087203Y-68130002D01*
X59087200Y-68130003D01*
X58920668Y-68185187D01*
X58920663Y-68185189D01*
X58771342Y-68277291D01*
X58647289Y-68401344D01*
X58610741Y-68460599D01*
X58558793Y-68507323D01*
X58505202Y-68519502D01*
X57481079Y-68519502D01*
X57336091Y-68548342D01*
X57336081Y-68548345D01*
X57199510Y-68604914D01*
X57199497Y-68604921D01*
X57076583Y-68687050D01*
X57076579Y-68687053D01*
X56664908Y-69098724D01*
X56603585Y-69132209D01*
X56542292Y-69130020D01*
X56491059Y-69114976D01*
X56389328Y-69100350D01*
X56348638Y-69094500D01*
X55648438Y-69094500D01*
X55550144Y-69104149D01*
X55550141Y-69104149D01*
X55550136Y-69104150D01*
X55502844Y-69113525D01*
X55502832Y-69113528D01*
X55408302Y-69142101D01*
X55284467Y-69215356D01*
X55284463Y-69215359D01*
X55256529Y-69237810D01*
X55191942Y-69264463D01*
X55152194Y-69262257D01*
X54926643Y-69212609D01*
X54576238Y-69174501D01*
X54576237Y-69174501D01*
X54223763Y-69174501D01*
X54223761Y-69174501D01*
X53873355Y-69212609D01*
X53646699Y-69262500D01*
X53576995Y-69257687D01*
X53538840Y-69235111D01*
X53491898Y-69194435D01*
X53491890Y-69194430D01*
X53361024Y-69134664D01*
X53361019Y-69134662D01*
X53361018Y-69134662D01*
X53293979Y-69114977D01*
X53293981Y-69114977D01*
X53293976Y-69114976D01*
X53218670Y-69104149D01*
X53151559Y-69094500D01*
X53151557Y-69094500D01*
X49660746Y-69094500D01*
X49593707Y-69074815D01*
X49573065Y-69058181D01*
X48793776Y-68278892D01*
X48793770Y-68278886D01*
X48793761Y-68278877D01*
X48793737Y-68278855D01*
X48753519Y-68242728D01*
X48753507Y-68242718D01*
X48732856Y-68226076D01*
X48688974Y-68194433D01*
X48558100Y-68134663D01*
X48491055Y-68114976D01*
X48440009Y-68107637D01*
X48348638Y-68094500D01*
X41451362Y-68094500D01*
X41451360Y-68094500D01*
X41397311Y-68097397D01*
X41397310Y-68097397D01*
X41370977Y-68100229D01*
X41370950Y-68100232D01*
X41317554Y-68108885D01*
X41317552Y-68108885D01*
X41182747Y-68159166D01*
X41121422Y-68192651D01*
X41006240Y-68278876D01*
X41006228Y-68278886D01*
X40078892Y-69206223D01*
X40078855Y-69206262D01*
X40042728Y-69246480D01*
X40042718Y-69246492D01*
X40026076Y-69267143D01*
X39994433Y-69311025D01*
X39934663Y-69441899D01*
X39914976Y-69508944D01*
X39894500Y-69651363D01*
X39894500Y-77548640D01*
X39550500Y-77548640D01*
X39550500Y-65207501D01*
X42674996Y-65207501D01*
X42674996Y-66511697D01*
X42677846Y-66542107D01*
X42722648Y-66670146D01*
X42803202Y-66779293D01*
X42912349Y-66859847D01*
X43040392Y-66904650D01*
X43070787Y-66907500D01*
X43874994Y-66907500D01*
X43874995Y-66907499D01*
X43874995Y-65207501D01*
X44374995Y-65207501D01*
X44374995Y-66907500D01*
X45179191Y-66907500D01*
X45209601Y-66904649D01*
X45337640Y-66859847D01*
X45446787Y-66779293D01*
X45527341Y-66670146D01*
X45572144Y-66542105D01*
X45572144Y-66542101D01*
X45574995Y-66511707D01*
X45574995Y-65225002D01*
X51445001Y-65225002D01*
X51464982Y-65568053D01*
X51464983Y-65568064D01*
X51524649Y-65906451D01*
X51524653Y-65906467D01*
X51623208Y-66235667D01*
X51759312Y-66551191D01*
X51759318Y-66551204D01*
X51931131Y-66848792D01*
X51931138Y-66848804D01*
X52136338Y-67124437D01*
X52141517Y-67129925D01*
X52141519Y-67129926D01*
X52606117Y-66665328D01*
X52667058Y-66744748D01*
X52880251Y-66957941D01*
X52959669Y-67018880D01*
X52498308Y-67480241D01*
X52498309Y-67480242D01*
X52635394Y-67595270D01*
X52635402Y-67595276D01*
X52922496Y-67784101D01*
X53229577Y-67938323D01*
X53229583Y-67938326D01*
X53552484Y-68055852D01*
X53552505Y-68055859D01*
X53886854Y-68135102D01*
X53886869Y-68135104D01*
X54228188Y-68174998D01*
X54228189Y-68174999D01*
X54571811Y-68174999D01*
X54571811Y-68174998D01*
X54913130Y-68135104D01*
X54913145Y-68135102D01*
X55247494Y-68055859D01*
X55247515Y-68055852D01*
X55570416Y-67938326D01*
X55570422Y-67938323D01*
X55877503Y-67784101D01*
X56164597Y-67595276D01*
X56164605Y-67595270D01*
X56301689Y-67480242D01*
X56301690Y-67480241D01*
X55840329Y-67018881D01*
X55919749Y-66957941D01*
X56132942Y-66744748D01*
X56193882Y-66665329D01*
X56658478Y-67129925D01*
X56658479Y-67129925D01*
X56663659Y-67124437D01*
X56663661Y-67124435D01*
X56868866Y-66848795D01*
X56868868Y-66848792D01*
X57000963Y-66619998D01*
X58790001Y-66619998D01*
X58790001Y-66824194D01*
X58792851Y-66854604D01*
X58837653Y-66982643D01*
X58918207Y-67091790D01*
X59027354Y-67172344D01*
X59155397Y-67217147D01*
X59185792Y-67219997D01*
X59439999Y-67219997D01*
X59440000Y-67219996D01*
X59440000Y-66619998D01*
X59940000Y-66619998D01*
X59940000Y-67219997D01*
X60194196Y-67219997D01*
X60224606Y-67217146D01*
X60352645Y-67172344D01*
X60461792Y-67091790D01*
X60542346Y-66982643D01*
X60587149Y-66854602D01*
X60587149Y-66854598D01*
X60590000Y-66824204D01*
X60590000Y-66619998D01*
X59940000Y-66619998D01*
X59440000Y-66619998D01*
X58790001Y-66619998D01*
X57000963Y-66619998D01*
X57040681Y-66551204D01*
X57040687Y-66551191D01*
X57176791Y-66235667D01*
X57211420Y-66119998D01*
X58790000Y-66119998D01*
X59440000Y-66119998D01*
X59440000Y-65519998D01*
X59940000Y-65519998D01*
X59940000Y-66119998D01*
X60589999Y-66119998D01*
X60589999Y-65915801D01*
X60587148Y-65885391D01*
X60542346Y-65757352D01*
X60461792Y-65648205D01*
X60352645Y-65567651D01*
X60224602Y-65522848D01*
X60194207Y-65519998D01*
X59940000Y-65519998D01*
X59440000Y-65519998D01*
X59185804Y-65519998D01*
X59155393Y-65522849D01*
X59027354Y-65567651D01*
X58918207Y-65648205D01*
X58837653Y-65757352D01*
X58792850Y-65885393D01*
X58792850Y-65885397D01*
X58790000Y-65915791D01*
X58790000Y-66119998D01*
X57211420Y-66119998D01*
X57275346Y-65906467D01*
X57275350Y-65906451D01*
X57335016Y-65568064D01*
X57335017Y-65568053D01*
X57354999Y-65225002D01*
X57354999Y-65224995D01*
X57335017Y-64881944D01*
X57335016Y-64881933D01*
X57275350Y-64543546D01*
X57275346Y-64543530D01*
X57176791Y-64214330D01*
X57040687Y-63898806D01*
X57040681Y-63898793D01*
X56868868Y-63601205D01*
X56868861Y-63601193D01*
X56663673Y-63325577D01*
X56663654Y-63325554D01*
X56658480Y-63320070D01*
X56193881Y-63784668D01*
X56132942Y-63705250D01*
X55919749Y-63492057D01*
X55840329Y-63431116D01*
X56301690Y-62969755D01*
X56301689Y-62969754D01*
X56164605Y-62854727D01*
X56164597Y-62854721D01*
X55877503Y-62665896D01*
X55570422Y-62511674D01*
X55570416Y-62511671D01*
X55247515Y-62394145D01*
X55247494Y-62394138D01*
X54913145Y-62314895D01*
X54913130Y-62314893D01*
X54571811Y-62274999D01*
X54228189Y-62274999D01*
X53886869Y-62314893D01*
X53886854Y-62314895D01*
X53552505Y-62394138D01*
X53552484Y-62394145D01*
X53229583Y-62511671D01*
X53229577Y-62511674D01*
X52922496Y-62665896D01*
X52635403Y-62854721D01*
X52635396Y-62854726D01*
X52498308Y-62969754D01*
X52959670Y-63431116D01*
X52880251Y-63492057D01*
X52667058Y-63705250D01*
X52606117Y-63784668D01*
X52141519Y-63320070D01*
X52141519Y-63320071D01*
X52136334Y-63325567D01*
X52136333Y-63325568D01*
X51931138Y-63601193D01*
X51931131Y-63601205D01*
X51759318Y-63898793D01*
X51759312Y-63898806D01*
X51623208Y-64214330D01*
X51524653Y-64543530D01*
X51524649Y-64543546D01*
X51464983Y-64881933D01*
X51464982Y-64881944D01*
X51445001Y-65224995D01*
X51445001Y-65225002D01*
X45574995Y-65225002D01*
X45574995Y-65207501D01*
X44374995Y-65207501D01*
X43874995Y-65207501D01*
X42674996Y-65207501D01*
X39550500Y-65207501D01*
X39550500Y-64707501D01*
X42674995Y-64707501D01*
X43874995Y-64707501D01*
X43874995Y-63007501D01*
X44374995Y-63007501D01*
X44374995Y-64707501D01*
X45574994Y-64707501D01*
X45574994Y-63403304D01*
X45572143Y-63372894D01*
X45527341Y-63244855D01*
X45446787Y-63135708D01*
X45337640Y-63055154D01*
X45209597Y-63010351D01*
X45179202Y-63007501D01*
X44374995Y-63007501D01*
X43874995Y-63007501D01*
X43070798Y-63007501D01*
X43040388Y-63010352D01*
X42912349Y-63055154D01*
X42803202Y-63135708D01*
X42722648Y-63244855D01*
X42677845Y-63372896D01*
X42677845Y-63372900D01*
X42674995Y-63403294D01*
X42674995Y-64707501D01*
X39550500Y-64707501D01*
X39550500Y-57127294D01*
X39570185Y-57060255D01*
X39622989Y-57014500D01*
X39692147Y-57004556D01*
X39755703Y-57033581D01*
X39781887Y-57065294D01*
X39889289Y-57251322D01*
X40097967Y-57531625D01*
X40106148Y-57540296D01*
X41105747Y-56540697D01*
X41179588Y-56642330D01*
X41357670Y-56820412D01*
X41459300Y-56894251D01*
X40462818Y-57890733D01*
X40462819Y-57890734D01*
X40605484Y-58010445D01*
X40897461Y-58202480D01*
X41209739Y-58359314D01*
X41209745Y-58359316D01*
X41538130Y-58478838D01*
X41538133Y-58478839D01*
X41878171Y-58559429D01*
X42225276Y-58599999D01*
X42225277Y-58600000D01*
X42574723Y-58600000D01*
X42574723Y-58599999D01*
X42921827Y-58559429D01*
X42921829Y-58559429D01*
X43261866Y-58478839D01*
X43261869Y-58478838D01*
X43590254Y-58359316D01*
X43590260Y-58359314D01*
X43902538Y-58202480D01*
X44194509Y-58010449D01*
X44194510Y-58010448D01*
X44337179Y-57890734D01*
X44337180Y-57890733D01*
X43340698Y-56894251D01*
X43442330Y-56820412D01*
X43620412Y-56642330D01*
X43694251Y-56540698D01*
X44693849Y-57540297D01*
X44693851Y-57540296D01*
X44702022Y-57531636D01*
X44702033Y-57531623D01*
X44910710Y-57251322D01*
X45085438Y-56948683D01*
X45085444Y-56948670D01*
X45223854Y-56627800D01*
X45324083Y-56293011D01*
X45324085Y-56293002D01*
X45384763Y-55948880D01*
X45384764Y-55948869D01*
X45405084Y-55600003D01*
X45405084Y-55599996D01*
X45384764Y-55251130D01*
X45384763Y-55251119D01*
X45324085Y-54906997D01*
X45324083Y-54906988D01*
X45223854Y-54572199D01*
X45085444Y-54251329D01*
X45085438Y-54251316D01*
X44910710Y-53948677D01*
X44702032Y-53668374D01*
X44693850Y-53659702D01*
X43694251Y-54659301D01*
X43620412Y-54557670D01*
X43442330Y-54379588D01*
X43340698Y-54305747D01*
X44337180Y-53309265D01*
X44337179Y-53309264D01*
X44194517Y-53189555D01*
X44177100Y-53178100D01*
X44131907Y-53124814D01*
X44122696Y-53055555D01*
X44152392Y-52992310D01*
X44211567Y-52955160D01*
X44245240Y-52950500D01*
X81554760Y-52950500D01*
X81621799Y-52970185D01*
G37*
%TD.AperFunction*%
%TA.AperFunction,Conductor*%
G36*
X85693849Y-100540296D02*
G01*
X85723699Y-100539863D01*
X85791017Y-100558572D01*
X85837534Y-100610706D01*
X85849500Y-100663850D01*
X85849500Y-101125500D01*
X85829815Y-101192539D01*
X85777011Y-101238294D01*
X85725500Y-101249500D01*
X85245240Y-101249500D01*
X85178201Y-101229815D01*
X85132446Y-101177011D01*
X85122502Y-101107853D01*
X85151527Y-101044297D01*
X85177102Y-101021899D01*
X85194502Y-101010454D01*
X85194510Y-101010448D01*
X85337179Y-100890734D01*
X85337180Y-100890733D01*
X84340698Y-99894251D01*
X84442330Y-99820412D01*
X84620412Y-99642330D01*
X84694251Y-99540698D01*
X85693849Y-100540296D01*
G37*
%TD.AperFunction*%
%TA.AperFunction,Conductor*%
G36*
X40621799Y-52970185D02*
G01*
X40667554Y-53022989D01*
X40677498Y-53092147D01*
X40648473Y-53155703D01*
X40622900Y-53178100D01*
X40605482Y-53189555D01*
X40462819Y-53309264D01*
X40462818Y-53309265D01*
X41459301Y-54305748D01*
X41357670Y-54379588D01*
X41179588Y-54557670D01*
X41105748Y-54659301D01*
X40106148Y-53659701D01*
X40106147Y-53659702D01*
X40097976Y-53668363D01*
X40097972Y-53668368D01*
X39889289Y-53948677D01*
X39781887Y-54134705D01*
X39731320Y-54182921D01*
X39662713Y-54196144D01*
X39597848Y-54170176D01*
X39557320Y-54113262D01*
X39550500Y-54072705D01*
X39550500Y-53074500D01*
X39570185Y-53007461D01*
X39622989Y-52961706D01*
X39674500Y-52950500D01*
X40554760Y-52950500D01*
X40621799Y-52970185D01*
G37*
%TD.AperFunction*%
%TA.AperFunction,Conductor*%
G36*
X85792539Y-52970185D02*
G01*
X85838294Y-53022989D01*
X85849500Y-53074500D01*
X85849500Y-53536148D01*
X85829815Y-53603187D01*
X85777011Y-53648942D01*
X85723699Y-53660135D01*
X85693851Y-53659701D01*
X84694251Y-54659301D01*
X84620412Y-54557670D01*
X84442330Y-54379588D01*
X84340698Y-54305747D01*
X85337180Y-53309265D01*
X85337179Y-53309264D01*
X85194517Y-53189555D01*
X85177100Y-53178100D01*
X85131907Y-53124814D01*
X85122696Y-53055555D01*
X85152392Y-52992310D01*
X85211567Y-52955160D01*
X85245240Y-52950500D01*
X85725500Y-52950500D01*
X85792539Y-52970185D01*
G37*
%TD.AperFunction*%
%TD*%
D36*
X71400000Y-80400000D03*
X63818110Y-74114996D03*
X58515687Y-84182258D03*
X60400000Y-90100000D03*
X70650000Y-92100000D03*
X73400000Y-92100000D03*
X55000000Y-93200000D03*
X63328577Y-86114281D03*
X67780000Y-84230000D03*
X69782960Y-74089996D03*
X75783487Y-74115836D03*
X77601925Y-84074999D03*
X56860000Y-87400000D03*
X65590000Y-86800000D03*
X75420000Y-86400000D03*
X62948331Y-74083212D03*
X62237500Y-80200000D03*
X68600000Y-80200000D03*
X68770000Y-74100000D03*
X73800000Y-81200000D03*
X74900000Y-74090000D03*
X61200000Y-81000000D03*
X62405005Y-59194995D03*
X68600000Y-81523923D03*
X68400000Y-59200000D03*
X74400000Y-59200000D03*
X73747350Y-80222839D03*
D37*
X54400000Y-65224999D03*
X54400000Y-72425001D03*
X71000000Y-68829998D03*
X77000000Y-68829998D03*
X42400000Y-55600000D03*
X63400000Y-94900000D03*
X65400000Y-94900000D03*
X67400000Y-94900000D03*
X69400000Y-94900000D03*
X71400000Y-94900000D03*
X73400000Y-94900000D03*
X75400000Y-94900000D03*
X77400000Y-94900000D03*
X65034997Y-68829998D03*
X42400000Y-98600000D03*
X83400000Y-98600000D03*
X83400000Y-55600000D03*
M02*
