%TF.GenerationSoftware,KiCad,Pcbnew,8.0.1*%
%TF.CreationDate,2024-09-08T16:38:15+01:00*%
%TF.ProjectId,BaselineRP2040MotorController,42617365-6c69-46e6-9552-50323034304d,rev?*%
%TF.SameCoordinates,Original*%
%TF.FileFunction,Soldermask,Top*%
%TF.FilePolarity,Negative*%
%FSLAX46Y46*%
G04 Gerber Fmt 4.6, Leading zero omitted, Abs format (unit mm)*
G04 Created by KiCad (PCBNEW 8.0.1) date 2024-09-08 16:38:15*
%MOMM*%
%LPD*%
G01*
G04 APERTURE LIST*
G04 Aperture macros list*
%AMRoundRect*
0 Rectangle with rounded corners*
0 $1 Rounding radius*
0 $2 $3 $4 $5 $6 $7 $8 $9 X,Y pos of 4 corners*
0 Add a 4 corners polygon primitive as box body*
4,1,4,$2,$3,$4,$5,$6,$7,$8,$9,$2,$3,0*
0 Add four circle primitives for the rounded corners*
1,1,$1+$1,$2,$3*
1,1,$1+$1,$4,$5*
1,1,$1+$1,$6,$7*
1,1,$1+$1,$8,$9*
0 Add four rect primitives between the rounded corners*
20,1,$1+$1,$2,$3,$4,$5,0*
20,1,$1+$1,$4,$5,$6,$7,0*
20,1,$1+$1,$6,$7,$8,$9,0*
20,1,$1+$1,$8,$9,$2,$3,0*%
%AMFreePoly0*
4,1,19,0.500000,-0.750000,0.000000,-0.750000,0.000000,-0.744911,-0.071157,-0.744911,-0.207708,-0.704816,-0.327430,-0.627875,-0.420627,-0.520320,-0.479746,-0.390866,-0.500000,-0.250000,-0.500000,0.250000,-0.479746,0.390866,-0.420627,0.520320,-0.327430,0.627875,-0.207708,0.704816,-0.071157,0.744911,0.000000,0.744911,0.000000,0.750000,0.500000,0.750000,0.500000,-0.750000,0.500000,-0.750000,
$1*%
%AMFreePoly1*
4,1,19,0.000000,0.744911,0.071157,0.744911,0.207708,0.704816,0.327430,0.627875,0.420627,0.520320,0.479746,0.390866,0.500000,0.250000,0.500000,-0.250000,0.479746,-0.390866,0.420627,-0.520320,0.327430,-0.627875,0.207708,-0.704816,0.071157,-0.744911,0.000000,-0.744911,0.000000,-0.750000,-0.500000,-0.750000,-0.500000,0.750000,0.000000,0.750000,0.000000,0.744911,0.000000,0.744911,
$1*%
G04 Aperture macros list end*
%ADD10RoundRect,0.200000X0.275000X-0.200000X0.275000X0.200000X-0.275000X0.200000X-0.275000X-0.200000X0*%
%ADD11RoundRect,0.225000X0.250000X-0.225000X0.250000X0.225000X-0.250000X0.225000X-0.250000X-0.225000X0*%
%ADD12RoundRect,0.250000X-0.362500X-1.425000X0.362500X-1.425000X0.362500X1.425000X-0.362500X1.425000X0*%
%ADD13RoundRect,0.225000X0.225000X0.375000X-0.225000X0.375000X-0.225000X-0.375000X0.225000X-0.375000X0*%
%ADD14RoundRect,0.250000X-0.400000X-0.450000X0.400000X-0.450000X0.400000X0.450000X-0.400000X0.450000X0*%
%ADD15RoundRect,0.250000X0.262500X0.450000X-0.262500X0.450000X-0.262500X-0.450000X0.262500X-0.450000X0*%
%ADD16RoundRect,0.250000X-0.712500X-2.475000X0.712500X-2.475000X0.712500X2.475000X-0.712500X2.475000X0*%
%ADD17C,5.200000*%
%ADD18RoundRect,0.250000X1.100000X-0.325000X1.100000X0.325000X-1.100000X0.325000X-1.100000X-0.325000X0*%
%ADD19RoundRect,0.250000X-0.475000X0.250000X-0.475000X-0.250000X0.475000X-0.250000X0.475000X0.250000X0*%
%ADD20RoundRect,0.250000X1.950000X1.000000X-1.950000X1.000000X-1.950000X-1.000000X1.950000X-1.000000X0*%
%ADD21RoundRect,0.150000X0.150000X0.200000X-0.150000X0.200000X-0.150000X-0.200000X0.150000X-0.200000X0*%
%ADD22RoundRect,0.225000X-0.250000X0.225000X-0.250000X-0.225000X0.250000X-0.225000X0.250000X0.225000X0*%
%ADD23RoundRect,0.200000X0.200000X0.275000X-0.200000X0.275000X-0.200000X-0.275000X0.200000X-0.275000X0*%
%ADD24RoundRect,0.150000X-0.825000X-0.150000X0.825000X-0.150000X0.825000X0.150000X-0.825000X0.150000X0*%
%ADD25RoundRect,0.200000X-0.200000X-0.275000X0.200000X-0.275000X0.200000X0.275000X-0.200000X0.275000X0*%
%ADD26RoundRect,0.250000X0.450000X-0.262500X0.450000X0.262500X-0.450000X0.262500X-0.450000X-0.262500X0*%
%ADD27RoundRect,0.250000X-0.325000X-1.100000X0.325000X-1.100000X0.325000X1.100000X-0.325000X1.100000X0*%
%ADD28C,5.500000*%
%ADD29RoundRect,0.250000X-0.250000X-0.475000X0.250000X-0.475000X0.250000X0.475000X-0.250000X0.475000X0*%
%ADD30RoundRect,0.150000X-0.150000X0.512500X-0.150000X-0.512500X0.150000X-0.512500X0.150000X0.512500X0*%
%ADD31RoundRect,0.150000X-0.150000X0.587500X-0.150000X-0.587500X0.150000X-0.587500X0.150000X0.587500X0*%
%ADD32R,3.500000X2.350000*%
%ADD33RoundRect,0.250000X0.325000X0.650000X-0.325000X0.650000X-0.325000X-0.650000X0.325000X-0.650000X0*%
%ADD34RoundRect,0.250000X1.500000X1.000000X-1.500000X1.000000X-1.500000X-1.000000X1.500000X-1.000000X0*%
%ADD35RoundRect,0.250000X0.250000X0.475000X-0.250000X0.475000X-0.250000X-0.475000X0.250000X-0.475000X0*%
%ADD36C,2.300000*%
%ADD37O,1.500000X1.500000*%
%ADD38RoundRect,0.250000X-0.550000X1.500000X-0.550000X-1.500000X0.550000X-1.500000X0.550000X1.500000X0*%
%ADD39R,1.270000X0.610000*%
%ADD40R,3.810000X3.910000*%
%ADD41R,1.020000X0.610000*%
%ADD42RoundRect,0.200000X-0.275000X0.200000X-0.275000X-0.200000X0.275000X-0.200000X0.275000X0.200000X0*%
%ADD43RoundRect,0.250000X0.475000X-0.250000X0.475000X0.250000X-0.475000X0.250000X-0.475000X-0.250000X0*%
%ADD44C,3.600000*%
%ADD45C,5.600000*%
%ADD46RoundRect,0.150000X0.150000X-0.825000X0.150000X0.825000X-0.150000X0.825000X-0.150000X-0.825000X0*%
%ADD47R,3.000000X2.290000*%
%ADD48FreePoly0,90.000000*%
%ADD49FreePoly1,90.000000*%
%ADD50RoundRect,0.250000X-1.000000X1.400000X-1.000000X-1.400000X1.000000X-1.400000X1.000000X1.400000X0*%
%ADD51R,1.700000X1.700000*%
%ADD52O,1.700000X1.700000*%
%ADD53R,5.700000X1.700000*%
%ADD54RoundRect,0.250000X0.400000X0.450000X-0.400000X0.450000X-0.400000X-0.450000X0.400000X-0.450000X0*%
%ADD55RoundRect,0.250000X-0.650000X1.000000X-0.650000X-1.000000X0.650000X-1.000000X0.650000X1.000000X0*%
G04 APERTURE END LIST*
D10*
%TO.C,R5*%
X160274002Y-83946000D03*
X160274000Y-82296002D03*
%TD*%
%TO.C,R11*%
X160273997Y-71120000D03*
X160273995Y-69470002D03*
%TD*%
D11*
%TO.C,C43*%
X167103518Y-54162611D03*
X167103522Y-52612615D03*
%TD*%
D12*
%TO.C,R47*%
X216579000Y-84518000D03*
X222504000Y-84518000D03*
%TD*%
D13*
%TO.C,D10*%
X171690744Y-81811391D03*
X168390742Y-81811397D03*
%TD*%
D14*
%TO.C,D5*%
X233993869Y-63132285D03*
X236893869Y-63132285D03*
%TD*%
D15*
%TO.C,R55*%
X176548516Y-56435611D03*
X174723520Y-56435613D03*
%TD*%
D16*
%TO.C,F1*%
X200320501Y-91694001D03*
X207095499Y-91693999D03*
%TD*%
D17*
%TO.C,J3*%
X231948719Y-73978431D03*
X229198719Y-78741569D03*
X234696000Y-78740000D03*
%TD*%
D18*
%TO.C,C51*%
X184912002Y-97233002D03*
X184911998Y-94282998D03*
%TD*%
D19*
%TO.C,C30*%
X227300043Y-59475463D03*
X227300043Y-61375463D03*
%TD*%
D20*
%TO.C,C49*%
X196596000Y-94742000D03*
X189195998Y-94741996D03*
%TD*%
D21*
%TO.C,D11*%
X179894003Y-83566000D03*
X181294003Y-83566000D03*
%TD*%
D12*
%TO.C,R22*%
X216578997Y-70866000D03*
X222503997Y-70866000D03*
%TD*%
D22*
%TO.C,C2*%
X160273997Y-78955012D03*
X160274001Y-80505004D03*
%TD*%
D23*
%TO.C,R18*%
X181926999Y-69341998D03*
X180277001Y-69342002D03*
%TD*%
D11*
%TO.C,C23*%
X183133998Y-80530998D03*
X183134002Y-78981002D03*
%TD*%
D10*
%TO.C,R36*%
X161797999Y-77532999D03*
X161797997Y-75883001D03*
%TD*%
D24*
%TO.C,U8*%
X215965001Y-53213000D03*
X215964998Y-54482998D03*
X215964999Y-55753001D03*
X215965001Y-57023000D03*
X220914999Y-57023000D03*
X220915002Y-55753002D03*
X220915001Y-54482999D03*
X220914999Y-53213000D03*
%TD*%
D25*
%TO.C,R16*%
X177229000Y-69342000D03*
X178879000Y-69342000D03*
%TD*%
D26*
%TO.C,R45*%
X225334555Y-61310226D03*
X225334553Y-59485228D03*
%TD*%
%TO.C,R32*%
X215764745Y-61262427D03*
X215764743Y-59437429D03*
%TD*%
D23*
%TO.C,R31*%
X181673001Y-77469995D03*
X180022999Y-77470005D03*
%TD*%
D13*
%TO.C,D6*%
X171703997Y-74040997D03*
X168403995Y-74041003D03*
%TD*%
D27*
%TO.C,C64*%
X204586756Y-96373924D03*
X207536758Y-96373920D03*
%TD*%
D19*
%TO.C,C18*%
X208534000Y-59503049D03*
X208534000Y-61403049D03*
%TD*%
D28*
%TO.C,J4*%
X189693999Y-54356000D03*
X196894001Y-54356000D03*
%TD*%
D15*
%TO.C,R53*%
X176592996Y-52115998D03*
X174768000Y-52116000D03*
%TD*%
D29*
%TO.C,C44*%
X171324996Y-54147998D03*
X173224996Y-54147998D03*
%TD*%
D25*
%TO.C,R25*%
X173150787Y-74062751D03*
X174800787Y-74062751D03*
%TD*%
D15*
%TO.C,R51*%
X176454972Y-60709999D03*
X174629976Y-60710001D03*
%TD*%
D10*
%TO.C,R37*%
X160273998Y-77532999D03*
X160273996Y-75883001D03*
%TD*%
D12*
%TO.C,R21*%
X216579000Y-66802000D03*
X222504000Y-66802000D03*
%TD*%
D25*
%TO.C,R26*%
X176975000Y-75916000D03*
X178625000Y-75916000D03*
%TD*%
D14*
%TO.C,D13*%
X234008000Y-58166000D03*
X236908000Y-58166000D03*
%TD*%
D11*
%TO.C,C26*%
X221650000Y-61159241D03*
X221650000Y-59609241D03*
%TD*%
D10*
%TO.C,R57*%
X170274004Y-90914374D03*
X170273994Y-89264374D03*
%TD*%
D30*
%TO.C,U11*%
X166557997Y-64648501D03*
X165607997Y-64648501D03*
X164657997Y-64648499D03*
X164657997Y-66923499D03*
X165607997Y-66923499D03*
X166557997Y-66923501D03*
%TD*%
D31*
%TO.C,Q2*%
X186812002Y-77216000D03*
X184912000Y-77216000D03*
X185862003Y-79090999D03*
%TD*%
D26*
%TO.C,R46*%
X229289212Y-61359399D03*
X229289210Y-59534401D03*
%TD*%
D32*
%TO.C,L1*%
X163322000Y-98021000D03*
X163322000Y-91971000D03*
%TD*%
D25*
%TO.C,R13*%
X177228997Y-67564000D03*
X178878997Y-67564000D03*
%TD*%
D29*
%TO.C,C47*%
X171261997Y-58466000D03*
X173161997Y-58466000D03*
%TD*%
D33*
%TO.C,C35*%
X183883237Y-53922110D03*
X180933235Y-53922114D03*
%TD*%
D34*
%TO.C,C37*%
X196608785Y-72914679D03*
X190108781Y-72914683D03*
%TD*%
D35*
%TO.C,C31*%
X228788000Y-51308000D03*
X226888000Y-51308000D03*
%TD*%
D36*
%TO.C,J2*%
X156195997Y-52417997D03*
X156195996Y-64417999D03*
D37*
X160995997Y-60967997D03*
X158495997Y-59947999D03*
X161035997Y-58928000D03*
X158495998Y-57907999D03*
X161035997Y-56887998D03*
X158495996Y-55867997D03*
%TD*%
D25*
%TO.C,R29*%
X176975000Y-77470000D03*
X178625000Y-77470000D03*
%TD*%
%TO.C,R39*%
X176975003Y-83566000D03*
X178625003Y-83566000D03*
%TD*%
D38*
%TO.C,C60*%
X156209999Y-92296000D03*
X156209995Y-97696000D03*
%TD*%
D24*
%TO.C,U5*%
X168793450Y-68199000D03*
X168793449Y-69468999D03*
X168793449Y-70739001D03*
X168793451Y-72009000D03*
X173743450Y-72009000D03*
X173743451Y-70739001D03*
X173743451Y-69468999D03*
X173743449Y-68199000D03*
%TD*%
D29*
%TO.C,C41*%
X171178474Y-62742000D03*
X173078474Y-62742000D03*
%TD*%
D11*
%TO.C,C55*%
X171827381Y-90865683D03*
X171827381Y-89315683D03*
%TD*%
D10*
%TO.C,R4*%
X161798000Y-83946000D03*
X161797990Y-82296000D03*
%TD*%
D14*
%TO.C,D9*%
X234008000Y-60706000D03*
X236908000Y-60706000D03*
%TD*%
D31*
%TO.C,Q1*%
X187198000Y-69088000D03*
X185297997Y-69088001D03*
X186248000Y-70963000D03*
%TD*%
D25*
%TO.C,R15*%
X180277000Y-72898000D03*
X181927000Y-72898000D03*
%TD*%
D27*
%TO.C,C65*%
X199954603Y-96377211D03*
X202904603Y-96377211D03*
%TD*%
D39*
%TO.C,AL3*%
X213360000Y-85724999D03*
X213360000Y-84454999D03*
X213359997Y-86995000D03*
X213360001Y-83185000D03*
D40*
X209999999Y-85090000D03*
D41*
X207895000Y-83185001D03*
X207894998Y-84455003D03*
X207894997Y-86994999D03*
X207894996Y-85725001D03*
%TD*%
D42*
%TO.C,R56*%
X168734090Y-96775263D03*
X168734096Y-98425261D03*
%TD*%
D24*
%TO.C,U6*%
X206567001Y-53213000D03*
X206566998Y-54482998D03*
X206566999Y-55753001D03*
X206567003Y-57022999D03*
X211516999Y-57023000D03*
X211517002Y-55753002D03*
X211517001Y-54482999D03*
X211516997Y-53213001D03*
%TD*%
D25*
%TO.C,R42*%
X176975003Y-85090000D03*
X178625003Y-85090000D03*
%TD*%
D43*
%TO.C,C48*%
X165100000Y-55814000D03*
X165100000Y-53914000D03*
%TD*%
D22*
%TO.C,C3*%
X163321995Y-78955012D03*
X163321999Y-80505004D03*
%TD*%
D39*
%TO.C,AL1*%
X213432010Y-67055995D03*
X213432009Y-68325997D03*
X213432006Y-69595995D03*
X213432011Y-65785996D03*
D40*
X210072007Y-67690995D03*
D41*
X207967006Y-68325992D03*
X207967005Y-67055994D03*
X207967005Y-65786000D03*
X207967004Y-69595990D03*
%TD*%
D39*
%TO.C,AL2*%
X213490001Y-76834999D03*
X213490001Y-75564999D03*
X213489998Y-78105000D03*
X213490002Y-74295000D03*
D40*
X210130000Y-76200000D03*
D41*
X208025001Y-74295001D03*
X208024999Y-75565003D03*
X208024998Y-78104999D03*
X208024997Y-76835001D03*
%TD*%
D11*
%TO.C,C20*%
X212343998Y-61226998D03*
X212344002Y-59677002D03*
%TD*%
D39*
%TO.C,AH2*%
X205870001Y-76834999D03*
X205870001Y-75564999D03*
X205869998Y-78105000D03*
X205870002Y-74295000D03*
D40*
X202510000Y-76200000D03*
D41*
X200405001Y-74295001D03*
X200404999Y-75565003D03*
X200404998Y-78104999D03*
X200404997Y-76835001D03*
%TD*%
D11*
%TO.C,C46*%
X167103518Y-58480611D03*
X167103522Y-56930615D03*
%TD*%
D10*
%TO.C,R58*%
X176769188Y-92442921D03*
X176769178Y-90792919D03*
%TD*%
D29*
%TO.C,C39*%
X171178474Y-60706000D03*
X173078474Y-60706000D03*
%TD*%
D19*
%TO.C,C24*%
X217736742Y-59399928D03*
X217736742Y-61299928D03*
%TD*%
D26*
%TO.C,R19*%
X206502001Y-61393858D03*
X206501999Y-59568860D03*
%TD*%
D44*
%TO.C,H2*%
X235900000Y-103600000D03*
D45*
X235900000Y-103600000D03*
%TD*%
D25*
%TO.C,R12*%
X173024314Y-66175595D03*
X174674314Y-66175595D03*
%TD*%
%TO.C,R14*%
X177229000Y-71120000D03*
X178879000Y-71120000D03*
%TD*%
%TO.C,R17*%
X177229000Y-72898000D03*
X178879000Y-72898000D03*
%TD*%
%TO.C,R38*%
X173164997Y-81788000D03*
X174814997Y-81788000D03*
%TD*%
D12*
%TO.C,R35*%
X216579000Y-79756000D03*
X222504000Y-79756000D03*
%TD*%
D25*
%TO.C,R27*%
X176975000Y-78994000D03*
X178625000Y-78994000D03*
%TD*%
D22*
%TO.C,C33*%
X213867998Y-54343002D03*
X213868002Y-55892998D03*
%TD*%
D46*
%TO.C,U13*%
X170322999Y-97866999D03*
X171593001Y-97867001D03*
X172863007Y-97867004D03*
X174133002Y-97866998D03*
X174133003Y-92917003D03*
X172863001Y-92917001D03*
X171592995Y-92916998D03*
X170323000Y-92917004D03*
D47*
X172228001Y-95392001D03*
%TD*%
D11*
%TO.C,C17*%
X183641998Y-72390000D03*
X183642002Y-70840004D03*
%TD*%
D10*
%TO.C,R23*%
X161797997Y-74293998D03*
X161797995Y-72644000D03*
%TD*%
D12*
%TO.C,R34*%
X216579000Y-75882000D03*
X222504000Y-75882000D03*
%TD*%
D26*
%TO.C,R20*%
X210566001Y-61364499D03*
X210565999Y-59539501D03*
%TD*%
D11*
%TO.C,C22*%
X166877998Y-80022998D03*
X166878002Y-78473002D03*
%TD*%
D35*
%TO.C,C25*%
X219390000Y-51308000D03*
X217490000Y-51308000D03*
%TD*%
D33*
%TO.C,C38*%
X183896000Y-51562000D03*
X180945998Y-51562004D03*
%TD*%
D10*
%TO.C,R6*%
X163322001Y-83948447D03*
X163321999Y-82298449D03*
%TD*%
D21*
%TO.C,D3*%
X180148000Y-67564000D03*
X181548000Y-67564000D03*
%TD*%
D11*
%TO.C,C40*%
X166877995Y-62544611D03*
X166877999Y-60994615D03*
%TD*%
D35*
%TO.C,C45*%
X173161997Y-56434000D03*
X171261997Y-56434000D03*
%TD*%
D21*
%TO.C,D7*%
X179894000Y-75946000D03*
X181294000Y-75946000D03*
%TD*%
D25*
%TO.C,R43*%
X176975000Y-88138000D03*
X178625000Y-88138000D03*
%TD*%
D24*
%TO.C,U9*%
X168909997Y-83820000D03*
X168909997Y-85090000D03*
X168909997Y-86360000D03*
X168909997Y-87630000D03*
X173859997Y-87630000D03*
X173859997Y-86360000D03*
X173859997Y-85090000D03*
X173859997Y-83820000D03*
%TD*%
D13*
%TO.C,D2*%
X171575998Y-66166997D03*
X168275996Y-66167003D03*
%TD*%
D23*
%TO.C,R44*%
X181673002Y-85089998D03*
X180023004Y-85090002D03*
%TD*%
D43*
%TO.C,C52*%
X182271164Y-97279818D03*
X182271164Y-95379818D03*
%TD*%
D26*
%TO.C,R33*%
X219900001Y-61299954D03*
X219899999Y-59474956D03*
%TD*%
D44*
%TO.C,H3*%
X153900000Y-46850000D03*
D45*
X153900000Y-46850000D03*
%TD*%
D48*
%TO.C,JP3*%
X169163998Y-58354000D03*
D49*
X169163996Y-57054000D03*
%TD*%
D34*
%TO.C,C36*%
X196596000Y-64008000D03*
X190095996Y-64008004D03*
%TD*%
D35*
%TO.C,C42*%
X173158996Y-52115998D03*
X171258996Y-52115998D03*
%TD*%
D23*
%TO.C,R50*%
X176367473Y-62530002D03*
X174717475Y-62529998D03*
%TD*%
D11*
%TO.C,C28*%
X166877998Y-87655996D03*
X166878002Y-86106000D03*
%TD*%
D50*
%TO.C,D15*%
X196947999Y-80771998D03*
X190148001Y-80772002D03*
%TD*%
D31*
%TO.C,Q3*%
X186877999Y-84739001D03*
X184977997Y-84739001D03*
X185928000Y-86614000D03*
%TD*%
D48*
%TO.C,JP1*%
X169095047Y-62488000D03*
D49*
X169095045Y-61188000D03*
%TD*%
D39*
%TO.C,AH3*%
X205740000Y-85724999D03*
X205740000Y-84454999D03*
X205739997Y-86995000D03*
X205740001Y-83185000D03*
D40*
X202379999Y-85090000D03*
D41*
X200275000Y-83185001D03*
X200274998Y-84455003D03*
X200274997Y-86994999D03*
X200274996Y-85725001D03*
%TD*%
D39*
%TO.C,AH1*%
X205740004Y-67056000D03*
X205740003Y-68326002D03*
X205740000Y-69596000D03*
X205740005Y-65786001D03*
D40*
X202380001Y-67691000D03*
D41*
X200275000Y-68325997D03*
X200274999Y-67055999D03*
X200274999Y-65786005D03*
X200274998Y-69595995D03*
%TD*%
D24*
%TO.C,U7*%
X168893379Y-76037088D03*
X168893379Y-77307088D03*
X168893379Y-78577088D03*
X168893379Y-79847088D03*
X173843379Y-79847088D03*
X173843379Y-78577088D03*
X173843379Y-77307088D03*
X173843379Y-76037088D03*
%TD*%
D51*
%TO.C,J5*%
X157225998Y-85851999D03*
D52*
X154685998Y-85851999D03*
X157225998Y-83311999D03*
X154686000Y-83312000D03*
X157225995Y-80772000D03*
X154685999Y-80772001D03*
X157225998Y-78231999D03*
X154685997Y-78232000D03*
X157225999Y-75691999D03*
X154685996Y-75691999D03*
X157225996Y-73152000D03*
X154685998Y-73151999D03*
X157225998Y-70611999D03*
X154685997Y-70611997D03*
X157225995Y-68071997D03*
X154685997Y-68072000D03*
%TD*%
D11*
%TO.C,C29*%
X183133999Y-88165495D03*
X183133999Y-86615495D03*
%TD*%
D22*
%TO.C,C57*%
X174243998Y-89395004D03*
X174244002Y-90944996D03*
%TD*%
D53*
%TO.C,L3*%
X212090000Y-92746001D03*
X212090000Y-97245999D03*
%TD*%
D21*
%TO.C,D8*%
X179894000Y-78964000D03*
X181294000Y-78964000D03*
%TD*%
D33*
%TO.C,C34*%
X183883238Y-56259056D03*
X180933236Y-56259060D03*
%TD*%
D21*
%TO.C,D4*%
X180148000Y-71120000D03*
X181548000Y-71120000D03*
%TD*%
D12*
%TO.C,R48*%
X216579000Y-88392000D03*
X222504000Y-88392000D03*
%TD*%
D22*
%TO.C,C21*%
X232155998Y-54597002D03*
X232156002Y-56146998D03*
%TD*%
D10*
%TO.C,R10*%
X161797998Y-71124474D03*
X161797996Y-69474476D03*
%TD*%
D11*
%TO.C,C16*%
X166769144Y-72137834D03*
X166769140Y-70587836D03*
%TD*%
D25*
%TO.C,R41*%
X180023003Y-88138000D03*
X181673003Y-88138000D03*
%TD*%
D21*
%TO.C,D12*%
X179894000Y-86614000D03*
X181294000Y-86614000D03*
%TD*%
D25*
%TO.C,R30*%
X176975000Y-80518000D03*
X178625000Y-80518000D03*
%TD*%
D24*
%TO.C,U10*%
X225109001Y-53213000D03*
X225108998Y-54482998D03*
X225108999Y-55753001D03*
X225109003Y-57022999D03*
X230058999Y-57023000D03*
X230059002Y-55753002D03*
X230059001Y-54482999D03*
X230058997Y-53213001D03*
%TD*%
D11*
%TO.C,C32*%
X231019566Y-61282073D03*
X231019570Y-59732077D03*
%TD*%
D10*
%TO.C,R59*%
X176769188Y-95490921D03*
X176769178Y-93840919D03*
%TD*%
D22*
%TO.C,C27*%
X223011998Y-54597002D03*
X223012002Y-56146998D03*
%TD*%
D44*
%TO.C,H4*%
X235900000Y-46850000D03*
D45*
X235900000Y-46850000D03*
%TD*%
D23*
%TO.C,R54*%
X176338996Y-58212002D03*
X174688998Y-58211998D03*
%TD*%
D48*
%TO.C,JP2*%
X169226996Y-53893998D03*
D49*
X169226994Y-52593998D03*
%TD*%
D44*
%TO.C,H1*%
X153900000Y-103600000D03*
D45*
X153900000Y-103600000D03*
%TD*%
D22*
%TO.C,C1*%
X161797997Y-78968008D03*
X161798001Y-80518000D03*
%TD*%
D35*
%TO.C,C19*%
X209992000Y-51308000D03*
X208092000Y-51308000D03*
%TD*%
D25*
%TO.C,R40*%
X176975000Y-86614000D03*
X178625000Y-86614000D03*
%TD*%
D10*
%TO.C,R24*%
X160273997Y-74293998D03*
X160273995Y-72644000D03*
%TD*%
D54*
%TO.C,D14*%
X183862234Y-58618678D03*
X180962234Y-58618678D03*
%TD*%
D23*
%TO.C,R52*%
X176592996Y-53893998D03*
X174942998Y-53894002D03*
%TD*%
D55*
%TO.C,D16*%
X179324000Y-90709995D03*
X179324000Y-94710005D03*
%TD*%
D25*
%TO.C,R28*%
X180023000Y-80518000D03*
X181673000Y-80518000D03*
%TD*%
M02*
