M48
; DRILL file {KiCad 8.0.1} date 2024-09-08T16:29:12+0100
; FORMAT={-:-/ absolute / metric / decimal}
; #@! TF.CreationDate,2024-09-08T16:29:12+01:00
; #@! TF.GenerationSoftware,Kicad,Pcbnew,8.0.1
; #@! TF.FileFunction,MixedPlating,1,2
FMAT,2
METRIC
; #@! TA.AperFunction,Plated,PTH,ViaDrill
T1C0.100
; #@! TA.AperFunction,Plated,PTH,ComponentDrill
T2C0.200
; #@! TA.AperFunction,Plated,PTH,ViaDrill
T3C0.300
; #@! TA.AperFunction,Plated,PTH,ComponentDrill
T4C0.900
; #@! TA.AperFunction,Plated,PTH,ComponentDrill
T5C1.000
; #@! TA.AperFunction,Plated,PTH,ComponentDrill
T6C3.200
; #@! TA.AperFunction,Plated,PTH,ComponentDrill
T7C4.500
; #@! TA.AperFunction,Plated,PTH,ComponentDrill
T8C4.600
; #@! TA.AperFunction,NonPlated,NPTH,ComponentDrill
T9C2.300
%
G90
G05
T1
X156.075Y-38.405
T2
X170.517Y-87.355
X171.224Y-88.062
X171.436Y-86.436
X171.931Y-88.769
X172.143Y-87.143
X172.85Y-87.85
T3
X137.35Y-82.4
X137.85Y-35.45
X137.85Y-56.35
X137.9Y-57.45
X138.25Y-34.4
X138.818Y-81.118
X139.35Y-34.4
X139.35Y-47.0
X139.463Y-69.2
X139.5Y-35.5
X139.55Y-57.45
X139.6Y-56.3
X139.7Y-91.7
X140.2Y-78.45
X142.35Y-33.75
X142.563Y-56.05
X142.6Y-31.2
X142.74Y-78.463
X144.4Y-38.4
X144.45Y-83.15
X144.65Y-60.9
X144.85Y-41.25
X144.976Y-85.92
X145.013Y-63.5
X146.596Y-34.861
X146.6Y-38.0
X146.74Y-82.663
X146.763Y-57.1
X146.763Y-60.3
X146.94Y-79.529
X148.1Y-38.5
X148.25Y-36.2
X148.3Y-60.775
X148.35Y-80.9
X148.35Y-83.15
X148.4Y-58.55
X151.55Y-55.537
X151.85Y-40.75
X152.19Y-85.413
X152.263Y-62.6
X152.325Y-77.65
X154.1Y-47.0
X154.263Y-69.2
X154.45Y-91.65
X155.463Y-60.7
X156.195Y-83.056
X157.403Y-50.803
X157.403Y-52.103
X157.45Y-49.55
X157.553Y-95.453
X157.553Y-96.753
X157.6Y-73.1
X157.6Y-74.4
X157.6Y-94.2
X157.647Y-71.847
X158.203Y-50.803
X158.203Y-52.103
X158.25Y-49.55
X158.353Y-95.453
X158.353Y-96.753
X158.4Y-73.1
X158.4Y-74.4
X158.4Y-94.2
X158.447Y-71.847
X159.612Y-55.742
X159.612Y-54.142
X159.613Y-54.942
X159.613Y-56.542
X160.762Y-75.85
X160.762Y-76.65
X160.762Y-77.45
X160.762Y-78.25
X160.887Y-54.15
X160.887Y-54.95
X160.907Y-52.581
X161.075Y-51.275
X162.037Y-75.85
X162.037Y-76.65
X162.037Y-77.45
X162.037Y-78.25
X164.643Y-43.557
X167.25Y-91.75
X168.4Y-44.6
X168.75Y-93.25
X170.1Y-45.6
X171.425Y-53.275
X171.426Y-52.374
X171.7Y-40.25
X171.7Y-44.8
X171.75Y-43.55
X173.7Y-43.4
X174.45Y-83.75
X174.8Y-41.05
X174.9Y-35.55
X176.6Y-86.6
X176.8Y-83.2
X179.412Y-79.35
X180.688Y-79.326
T4
X175.36Y-46.39
X175.36Y-48.43
X175.4Y-44.35
X177.9Y-45.37
X177.9Y-47.41
X177.9Y-49.45
T5
X177.75Y-68.385
X177.75Y-58.225
X177.75Y-60.765
X177.75Y-65.845
X177.75Y-73.465
X177.75Y-76.005
X177.75Y-63.305
X177.75Y-70.925
X180.29Y-60.765
X180.29Y-58.225
X180.29Y-70.925
X180.29Y-63.305
X180.29Y-65.845
X180.29Y-68.385
X180.29Y-73.465
X180.29Y-76.005
T6
X114.4Y-33.1
X114.4Y-102.1
X183.4Y-33.1
X183.4Y-102.1
T7
X164.34Y-66.6
X169.1Y-69.35
X169.1Y-63.85
T8
X122.7Y-34.6
X129.9Y-34.6
T9
X180.2Y-40.9
X180.2Y-52.9
M30
